<svg width="708" height="75" viewBox="0 0 708 75" fill="none" xmlns="http://www.w3.org/2000/svg">
<path d="M707.836 44.4998C707.836 46.2331 707.736 48.0665 707.536 49.9998H663.736C664.069 55.3998 665.902 59.6331 669.236 62.6998C672.636 65.6998 676.736 67.1998 681.536 67.1998C685.469 67.1998 688.736 66.2998 691.336 64.4998C694.002 62.6331 695.869 60.1665 696.936 57.0998H706.736C705.269 62.3665 702.336 66.6665 697.936 69.9998C693.536 73.2665 688.069 74.8998 681.536 74.8998C676.336 74.8998 671.669 73.7331 667.536 71.3998C663.469 69.0665 660.269 65.7665 657.936 61.4998C655.602 57.1665 654.436 52.1665 654.436 46.4998C654.436 40.8331 655.569 35.8665 657.836 31.5998C660.102 27.3331 663.269 24.0665 667.336 21.7998C671.469 19.4665 676.202 18.2998 681.536 18.2998C686.736 18.2998 691.336 19.4331 695.336 21.6998C699.336 23.9665 702.402 27.0998 704.536 31.0998C706.736 35.0331 707.836 39.4998 707.836 44.4998ZM698.436 42.5998C698.436 39.1331 697.669 36.1665 696.136 33.6998C694.602 31.1665 692.502 29.2665 689.836 27.9998C687.236 26.6665 684.336 25.9998 681.136 25.9998C676.536 25.9998 672.602 27.4665 669.336 30.3998C666.136 33.3331 664.302 37.3998 663.836 42.5998H698.436Z" fill="black"/>
<path d="M636.511 26.7004V59.0004C636.511 61.6671 637.077 63.5671 638.211 64.7004C639.344 65.7671 641.311 66.3004 644.111 66.3004H650.811V74.0004H642.611C637.544 74.0004 633.744 72.8337 631.211 70.5004C628.677 68.1671 627.411 64.3337 627.411 59.0004V26.7004H620.311V19.2004H627.411V5.40039H636.511V19.2004H650.811V26.7004H636.511Z" fill="black"/>
<path d="M557.432 46.3998C557.432 40.7998 558.565 35.8998 560.832 31.6998C563.098 27.4331 566.198 24.1331 570.132 21.7998C574.132 19.4665 578.565 18.2998 583.432 18.2998C588.232 18.2998 592.398 19.3331 595.932 21.3998C599.465 23.4665 602.098 26.0665 603.832 29.1998V19.1998H613.032V73.9998H603.832V63.7998C602.032 66.9998 599.332 69.6665 595.732 71.7998C592.198 73.8665 588.065 74.8998 583.332 74.8998C578.465 74.8998 574.065 73.6998 570.132 71.2998C566.198 68.8998 563.098 65.5331 560.832 61.1998C558.565 56.8665 557.432 51.9331 557.432 46.3998ZM603.832 46.4998C603.832 42.3665 602.998 38.7665 601.332 35.6998C599.665 32.6331 597.398 30.2998 594.532 28.6998C591.732 27.0331 588.632 26.1998 585.232 26.1998C581.832 26.1998 578.732 26.9998 575.932 28.5998C573.132 30.1998 570.898 32.5331 569.232 35.5998C567.565 38.6665 566.732 42.2665 566.732 46.3998C566.732 50.5998 567.565 54.2665 569.232 57.3998C570.898 60.4665 573.132 62.8331 575.932 64.4998C578.732 66.0998 581.832 66.8998 585.232 66.8998C588.632 66.8998 591.732 66.0998 594.532 64.4998C597.398 62.8331 599.665 60.4665 601.332 57.3998C602.998 54.2665 603.832 50.6331 603.832 46.4998Z" fill="black"/>
<path d="M538.507 26.7004V59.0004C538.507 61.6671 539.073 63.5671 540.207 64.7004C541.34 65.7671 543.307 66.3004 546.107 66.3004H552.807V74.0004H544.607C539.54 74.0004 535.74 72.8337 533.207 70.5004C530.673 68.1671 529.407 64.3337 529.407 59.0004V26.7004H522.307V19.2004H529.407V5.40039H538.507V19.2004H552.807V26.7004H538.507Z" fill="black"/>
<path d="M497.56 74.8998C493.36 74.8998 489.593 74.1998 486.26 72.7998C482.927 71.3331 480.293 69.3331 478.36 66.7998C476.427 64.1998 475.36 61.2331 475.16 57.8998H484.56C484.827 60.6331 486.093 62.8665 488.36 64.5998C490.693 66.3331 493.727 67.1998 497.46 67.1998C500.927 67.1998 503.66 66.4331 505.66 64.8998C507.66 63.3665 508.66 61.4331 508.66 59.0998C508.66 56.6998 507.593 54.9331 505.46 53.7998C503.327 52.5998 500.027 51.4331 495.56 50.2998C491.493 49.2331 488.16 48.1665 485.56 47.0998C483.027 45.9665 480.827 44.3331 478.96 42.1998C477.16 39.9998 476.26 37.1331 476.26 33.5998C476.26 30.7998 477.093 28.2331 478.76 25.8998C480.427 23.5665 482.793 21.7331 485.86 20.3998C488.927 18.9998 492.427 18.2998 496.36 18.2998C502.427 18.2998 507.327 19.8331 511.06 22.8998C514.793 25.9665 516.793 30.1665 517.06 35.4998H507.96C507.76 32.6331 506.593 30.3331 504.46 28.5998C502.393 26.8665 499.593 25.9998 496.06 25.9998C492.793 25.9998 490.193 26.6998 488.26 28.0998C486.327 29.4998 485.36 31.3331 485.36 33.5998C485.36 35.3998 485.927 36.8998 487.06 38.0998C488.26 39.2331 489.727 40.1665 491.46 40.8998C493.26 41.5665 495.727 42.3331 498.86 43.1998C502.793 44.2665 505.993 45.3331 508.46 46.3998C510.927 47.3998 513.027 48.9331 514.76 50.9998C516.56 53.0665 517.493 55.7665 517.56 59.0998C517.56 62.0998 516.727 64.7998 515.06 67.1998C513.393 69.5998 511.027 71.4998 507.96 72.8998C504.96 74.2331 501.493 74.8998 497.56 74.8998Z" fill="black"/>
<path d="M438.991 11.7002V35.0002H464.391V42.5002H438.991V66.5002H467.391V74.0002H429.891V4.2002H467.391V11.7002H438.991Z" fill="black"/>
<path d="M393.721 0V74H384.621V0H393.721Z" fill="black"/>
<path d="M317.643 46.3998C317.643 40.7998 318.776 35.8998 321.043 31.6998C323.309 27.4331 326.409 24.1331 330.343 21.7998C334.343 19.4665 338.776 18.2998 343.643 18.2998C348.443 18.2998 352.609 19.3331 356.143 21.3998C359.676 23.4665 362.309 26.0665 364.043 29.1998V19.1998H373.243V73.9998H364.043V63.7998C362.243 66.9998 359.543 69.6665 355.943 71.7998C352.409 73.8665 348.276 74.8998 343.543 74.8998C338.676 74.8998 334.276 73.6998 330.343 71.2998C326.409 68.8998 323.309 65.5331 321.043 61.1998C318.776 56.8665 317.643 51.9331 317.643 46.3998ZM364.043 46.4998C364.043 42.3665 363.209 38.7665 361.543 35.6998C359.876 32.6331 357.609 30.2998 354.743 28.6998C351.943 27.0331 348.843 26.1998 345.443 26.1998C342.043 26.1998 338.943 26.9998 336.143 28.5998C333.343 30.1998 331.109 32.5331 329.443 35.5998C327.776 38.6665 326.943 42.2665 326.943 46.3998C326.943 50.5998 327.776 54.2665 329.443 57.3998C331.109 60.4665 333.343 62.8331 336.143 64.4998C338.943 66.0998 342.043 66.8998 345.443 66.8998C348.843 66.8998 351.943 66.0998 354.743 64.4998C357.609 62.8331 359.876 60.4665 361.543 57.3998C363.209 54.2665 364.043 50.6331 364.043 46.4998Z" fill="black"/>
<path d="M312.031 44.4998C312.031 46.2331 311.931 48.0665 311.731 49.9998H267.931C268.264 55.3998 270.098 59.6331 273.431 62.6998C276.831 65.6998 280.931 67.1998 285.731 67.1998C289.664 67.1998 292.931 66.2998 295.531 64.4998C298.198 62.6331 300.064 60.1665 301.131 57.0998H310.931C309.464 62.3665 306.531 66.6665 302.131 69.9998C297.731 73.2665 292.264 74.8998 285.731 74.8998C280.531 74.8998 275.864 73.7331 271.731 71.3998C267.664 69.0665 264.464 65.7665 262.131 61.4998C259.798 57.1665 258.631 52.1665 258.631 46.4998C258.631 40.8331 259.764 35.8665 262.031 31.5998C264.298 27.3331 267.464 24.0665 271.531 21.7998C275.664 19.4665 280.398 18.2998 285.731 18.2998C290.931 18.2998 295.531 19.4331 299.531 21.6998C303.531 23.9665 306.598 27.0998 308.731 31.0998C310.931 35.0331 312.031 39.4998 312.031 44.4998ZM302.631 42.5998C302.631 39.1331 301.864 36.1665 300.331 33.6998C298.798 31.1665 296.698 29.2665 294.031 27.9998C291.431 26.6665 288.531 25.9998 285.331 25.9998C280.731 25.9998 276.798 27.4665 273.531 30.3998C270.331 33.3331 268.498 37.3998 268.031 42.5998H302.631Z" fill="black"/>
<path d="M240.891 73.9998L224.291 45.4998H213.291V73.9998H204.191V4.2998H226.691C231.958 4.2998 236.391 5.19981 239.991 6.99981C243.658 8.79981 246.391 11.2331 248.191 14.2998C249.991 17.3665 250.891 20.8665 250.891 24.7998C250.891 29.5998 249.491 33.8331 246.691 37.4998C243.958 41.1665 239.825 43.5998 234.291 44.7998L251.791 73.9998H240.891ZM213.291 38.1998H226.691C231.625 38.1998 235.325 36.9998 237.791 34.5998C240.258 32.1331 241.491 28.8665 241.491 24.7998C241.491 20.6665 240.258 17.4665 237.791 15.1998C235.391 12.9331 231.691 11.7998 226.691 11.7998H213.291V38.1998Z" fill="black"/>
<path d="M149.921 39.1998L171.321 73.9998H161.021L144.321 46.7998L128.421 73.9998H118.321L139.621 39.1998L118.221 4.2998H128.421L145.221 31.5998L161.221 4.2998H171.421L149.921 39.1998Z" fill="black"/>
<path d="M66.2793 66.9918C74.4073 60.4638 80.7753 55.1198 85.3833 50.9598C89.9913 46.7358 93.8633 42.3518 96.9993 37.8078C100.199 33.1998 101.799 28.6878 101.799 24.2718C101.799 20.1118 100.775 16.8478 98.7273 14.4798C96.7433 12.0478 93.5113 10.8317 89.0313 10.8317C84.6793 10.8317 81.2873 12.2078 78.8553 14.9598C76.4873 17.6478 75.2073 21.2638 75.0153 25.8078H66.5673C66.8233 18.6398 68.9993 13.1038 73.0953 9.19975C77.1913 5.29575 82.4713 3.34375 88.9353 3.34375C95.5273 3.34375 100.743 5.16775 104.583 8.81575C108.487 12.4638 110.439 17.4878 110.439 23.8878C110.439 29.1998 108.839 34.3838 105.639 39.4398C102.503 44.4318 98.9193 48.8478 94.8873 52.6878C90.8553 56.4638 85.7033 60.8798 79.4313 65.9358H112.455V73.2318H66.2793V66.9918Z" fill="black"/>
<path d="M45.9008 58.5002H15.5008L9.90078 74.0002H0.300781L25.5008 4.7002H36.0008L61.1008 74.0002H51.5008L45.9008 58.5002ZM43.3008 51.1002L30.7008 15.9002L18.1008 51.1002H43.3008Z" fill="black"/>
</svg>
