<svg width="124" height="36" viewBox="0 0 124 36" fill="none" xmlns="http://www.w3.org/2000/svg" class="h-[25px] w-[89px] shrink-0 transition-colors duration-300 xl:h-[35px] xl:w-[123px] text-orange"><path fill-rule="evenodd" clip-rule="evenodd" d="M16.1173 31.4251H16.2523V34.9124H19.6046V18.6557C19.6046 13.723 16.4786 10.8235 10.3661 10.8235C4.25354 10.8235 1.1276 14.2194 1.1276 18.6557H4.97625C4.97625 16.2569 6.51745 12.5432 10.3661 12.5432C14.2147 12.5432 15.6645 14.9856 15.6645 17.6588C15.6645 20.7803 12.3122 21.416 8.19361 22.0037C3.48729 22.6829 0 24.3591 0 28.7519C0 32.3742 2.17248 35.5001 7.83226 35.5001C12.9043 35.5001 15.2117 32.9663 16.1173 31.4251ZM15.6602 22.0516V26.0352H15.6558C15.6558 28.704 13.9796 33.6411 8.72911 33.6411C5.74249 33.6411 4.29272 31.6471 4.29272 29.0218C4.29272 26.3966 5.60753 24.9033 9.22978 24.2241C13.4877 23.5014 14.846 22.9572 15.6602 22.0516ZM34.9507 10.8236C42.1952 10.8236 45.6346 16.2135 45.6346 23.1402V24.0457H27.8411C28.1111 30.2933 30.6493 33.7805 35.312 33.7805C39.3435 33.7805 41.5596 30.0669 41.5596 27.668H45.4518C45.4518 31.743 41.3332 35.5002 35.2206 35.5002C28.2025 35.5002 23.6747 30.8375 23.6747 23.1402C23.6747 16.2135 27.6583 10.8236 34.9507 10.8236ZM27.889 22.1432H41.4725C41.2026 15.9871 38.7123 12.5433 34.9507 12.5433C31.1891 12.5433 28.159 15.9827 27.889 22.1432ZM72.1442 23.1402C72.1442 16.2135 67.9778 10.8236 60.7333 10.8236C53.4452 10.8236 49.2788 16.2135 49.2788 23.1402C49.2788 30.8375 54.3029 35.5002 60.7333 35.5002C67.1637 35.5002 72.1442 30.8375 72.1442 23.1402ZM67.9778 23.1402C67.9778 29.9319 65.0347 33.7805 60.7333 33.7805C56.3883 33.7805 53.4452 29.8884 53.4452 23.1402C53.4452 16.392 56.7497 12.5433 60.7333 12.5433C64.7169 12.5433 67.9778 16.3484 67.9778 23.1402ZM95.5974 19.4265C95.5974 14.0366 92.1101 10.8236 87.3123 10.8236H87.308C82.5537 10.8236 80.4727 13.6796 80.0634 14.6287H79.972V11.4593H76.2148V34.9125H80.3813V21.1462C80.3813 16.7533 82.7366 12.5433 86.6767 12.5433C89.3498 12.5433 91.4309 14.8987 91.4309 19.6529V34.9125H95.5974V19.4265Z" fill="rgb(253 168 123)"></path><path d="M123.74 7.6398V3.87835C120.127 2.91186 115.879 5.37161 113.985 10.3521L115.53 0.5H111.094L112.64 10.3521C110.742 5.37596 106.499 2.91186 102.885 3.87835V7.6398C106.216 6.93888 110.955 8.04033 112.135 11.7365C110.955 15.4326 106.216 16.5341 102.885 15.8332V19.5946C106.499 20.5611 110.746 18.1014 112.64 13.1209L111.094 22.973H115.53L113.985 13.1209C115.883 18.097 120.127 20.5611 123.74 19.5946V15.8332C120.41 16.5341 115.67 15.4326 114.49 11.7365C115.67 8.04033 120.41 6.93888 123.74 7.6398Z" fill="rgb(253 168 123)"></path></svg>