<svg width="67" height="37" viewBox="0 0 67 37" fill="none" xmlns="http://www.w3.org/2000/svg" class="pb-1"><path d="M65.9942 6.25745V13.157C65.9483 13.157 65.908 13.1628 65.862 13.1628C64.5741 13.2375 63.3609 13.7837 62.4467 14.7037L58.1978 18.9469C55.8979 21.2525 52.8391 22.5174 49.5791 22.5174C46.319 22.5174 43.266 21.2525 40.9604 18.9469L36.7114 14.6979C35.7167 13.7032 34.3885 13.1513 32.9741 13.1513C31.5597 13.1513 30.2718 13.686 29.2771 14.6577L24.9879 18.9469C22.688 21.2525 19.6292 22.5174 16.3692 22.5174C13.1092 22.5174 10.0561 21.2525 7.75625 18.9469L3.50727 14.7037C2.58733 13.7837 1.36841 13.2375 0.0747452 13.1628H0V6.2632C0.16099 6.2632 0.31623 6.2632 0.477219 6.2747C3.46128 6.44719 6.2671 7.70636 8.38296 9.82222L12.6319 14.0712C13.6324 15.0659 14.9605 15.6178 16.3692 15.6178C17.7779 15.6178 19.1118 15.0659 20.1122 14.0712L24.3554 9.82222C29.1104 5.06728 36.8379 5.06728 41.5928 9.82222L45.8418 14.0712C46.8365 15.0716 48.1704 15.6178 49.5791 15.6178C50.9877 15.6178 52.3216 15.0659 53.3221 14.0712L57.5653 9.82222C59.6754 7.71211 62.4755 6.45294 65.4538 6.2747C65.632 6.2632 65.816 6.25745 65.9942 6.25745Z" fill="#fff"></path><path d="M66 29.463H0V36.3625H66V29.463Z" fill="#fff"></path></svg>