<svg width="auto" height="2rem" viewBox="0 0 800 135" fill="none" xmlns="http://www.w3.org/2000/svg"><g fill="#fff"><path d="M90.773 35.058V4.686A66.66 66.66 0 0 0 67.207.41C40.953.41 18.252 15.53 7.333 37.497l81.142-.146a2.306 2.306 0 0 0 2.298-2.309v.016ZM99.267 8.569v61.15c0 8.032-3.569 15.56-9.778 20.666l-11.017 9.219c-1.124.927-1.092 2.65.033 3.561l24.869 19.933c18.432-11.869 30.638-32.518 30.638-56.029 0-25.218-14.048-47.168-34.761-58.484l.016-.016ZM47.31 89.007c-6.258-5.138-9.81-12.666-9.81-20.698v-20.08a2.32 2.32 0 0 0-2.315-2.31l-31.339.05C.88 54.846-.294 64.52.831 74.617c3.471 30.941 27.493 55.07 58.49 58.631 12.956 1.496 25.276-.748 36.032-5.74L47.31 88.99v.017ZM198.411 21.479h31.355c18.839 0 29.334 9.073 29.334 23.332 0 10.097-5.557 16.275-13.901 19.17 9.355 1.772 17.568 7.82 17.568 20.567 0 15.642-11.131 25.218-32.105 25.218h-32.235V21.479h-.016Zm11 12.276v23.77a2.31 2.31 0 0 0 2.314 2.31h18.546c11.375 0 17.829-5.301 17.829-14.26s-6.323-14.13-17.829-14.13h-18.546a2.31 2.31 0 0 0-2.314 2.31Zm0 38.225v25.543a2.31 2.31 0 0 0 2.314 2.309h18.921c13.657 0 20.86-5.674 20.86-14.763 0-9.967-7.708-15.382-20.86-15.382h-18.921a2.31 2.31 0 0 0-2.314 2.31v-.017ZM320.165 45.45h10.365v64.322h-8.979l-1.386-8.585c-3.797 4.797-9.99 9.333-20.615 9.333-14.162 0-25.407-7.951-25.407-29.267V45.451h10.365v35.185c0 13.365 6.062 20.437 16.818 20.437 11.75 0 18.839-8.958 18.839-23.462v-32.16ZM395.506 21.479h10.365v88.287h-8.979l-1.386-10.34c-4.302 5.934-11.245 11.105-22.131 11.105-17.829 0-30.98-11.984-30.98-32.925 0-19.674 13.151-32.925 30.98-32.925 10.87 0 18.204 4.422 22.131 10.6V21.48Zm.131 56.387c0-14.13-8.605-23.966-21.235-23.966-12.63 0-21.365 9.706-21.365 23.706 0 13.999 8.604 23.706 21.365 23.706 12.76 0 21.235-9.707 21.235-23.462v.016ZM470.861 21.479h10.365v88.287h-8.98l-1.385-10.34c-4.302 5.934-11.245 11.105-22.131 11.105-17.829 0-30.981-11.984-30.981-32.925 0-19.674 13.152-32.925 30.981-32.925 10.87 0 18.204 4.422 22.131 10.6V21.48Zm.13 56.387c0-14.13-8.604-23.966-21.234-23.966-12.631 0-21.366 9.706-21.366 23.706 0 13.999 8.605 23.706 21.366 23.706 12.76 0 21.234-9.707 21.234-23.462v.016ZM488.953 45.444h11l17.666 45.672c.766 1.984 3.569 1.968 4.319-.016l17.079-45.656h11l-29.709 75.183C516.266 130.968 513.854 135 504.761 135h-12.386v-9.463h9.224c5.948 0 6.959-1.512 9.354-7.577l3.162-7.82-25.162-64.712v.016Z"></path><path d="M548.531 45.45h10.87l13.902 45.331c.668 2.163 3.715 2.179 4.4.033l14.683-45.363h9.616l13.901 45.314c.668 2.162 3.716 2.179 4.4.032l14.57-45.33h10.495l-21.496 64.321h-11.375L596.95 61.986l-16.183 47.802h-11.376l-20.86-64.321v-.016ZM652.072 27.92c0-3.902 2.9-6.682 6.698-6.682 3.797 0 6.698 2.78 6.698 6.683 0 3.902-2.901 6.682-6.698 6.682-3.798 0-6.698-2.78-6.698-6.682Zm1.385 17.528h10.365v64.321h-10.365V45.448ZM685.946 88.582c.375 7.56 7.073 13.122 17.829 13.122 9.093 0 15.547-3.919 15.547-9.837 0-8.065-7.073-8.699-16.688-9.837-14.407-1.772-25.912-4.666-25.912-18.032 0-11.722 10.739-19.43 25.293-19.3 14.667.131 25.276 6.944 26.303 20.309h-10.626c-.766-6.553-6.828-11.48-15.677-11.48-8.85 0-15.042 3.789-15.042 9.707 0 7.057 6.828 7.951 16.182 9.073 14.668 1.772 26.418 4.536 26.418 18.796 0 11.983-11.506 19.429-25.798 19.429-16.688 0-28.194-7.82-28.455-21.95h10.626ZM738.802 77.607c0-19.544 12.385-32.925 30.589-32.925s30.084 11.48 30.589 30.519c0 1.382-.13 2.894-.244 4.406h-50.064v.878c.375 12.227 8.083 20.812 20.355 20.812 9.093 0 16.183-4.797 18.334-13.122h10.495c-2.526 12.861-13.152 22.324-28.063 22.324-19.345 0-31.991-13.25-31.991-32.924v.032Zm47.375-6.552c1.45 0 2.575-1.334 2.282-2.748-1.94-9.366-9.11-14.536-18.938-14.536-8.572 0-16.541 5.577-18.725 14.39-.358 1.463.734 2.894 2.249 2.894h33.148-.016Z"></path></g></svg>