<?xml version="1.0" encoding="UTF-8" standalone="no"?>
<!-- Created with Inkscape (http://www.inkscape.org/) -->

<svg
   version="1.1"
   id="svg2"
   width="2132.9333"
   height="500.29333"
   viewBox="0 0 2132.9333 500.29333"
   sodipodi:docname="LoggaTM_Vit.eps"
   xmlns:inkscape="http://www.inkscape.org/namespaces/inkscape"
   xmlns:sodipodi="http://sodipodi.sourceforge.net/DTD/sodipodi-0.dtd"
   xmlns="http://www.w3.org/2000/svg"
   xmlns:svg="http://www.w3.org/2000/svg">
  <defs
     id="defs6" />
  <sodipodi:namedview
     id="namedview4"
     pagecolor="#ffffff"
     bordercolor="#000000"
     borderopacity="0.25"
     inkscape:showpageshadow="2"
     inkscape:pageopacity="0.0"
     inkscape:pagecheckerboard="0"
     inkscape:deskcolor="#d1d1d1" />
  <g
     id="g8"
     inkscape:groupmode="layer"
     inkscape:label="ink_ext_XXXXXX"
     transform="matrix(1.3333333,0,0,-1.3333333,0,500.29333)">
    <g
       id="g10"
       transform="scale(0.1)">
      <path
         d="m 8828.27,1702.98 c 0,234.29 0.06,468.57 -0.12,702.85 -0.02,20.48 1.2,40.78 3.69,61.06 12.08,98.09 82.02,165.52 169.41,183.7 47.66,9.92 94.01,6.72 139.07,-11.74 75.02,-30.75 117.5,-87.33 131.04,-166.51 3.07,-18.02 4.05,-36.21 4.05,-54.55 -0.15,-459.96 -0.1,-919.93 -0.21,-1379.91 0,-15 -1.2,-30.02 -1.95,-45.028 -0.54,-10.731 -1.77,-21.454 -1.78,-32.18 C 9271.38,895.75 9260.19,832.34 9244.45,769.719 9209.67,631.41 9149.33,505.289 9061.07,392.988 8944.74,244.969 8797.65,138.57 8622.41,70.5313 8554.06,44 8483.49,25.5391 8411.16,14.2813 8355.92,5.67188 8300.18,0.941406 8244.21,1.96094 8060.9,5.26953 7890.14,52.9297 7733.12,148.262 7672.3,185.191 7615.58,227.648 7564,276.68 c -19.44,18.48 -37.3,38.629 -55.89,58 -12.63,13.16 -25.25,26.332 -37.94,39.429 -1.93,1.993 -6.99,2.063 -8.93,0.403 -2.42,-2.102 -5.03,-4.051 -7.18,-6.403 C 7443.92,357 7433.4,346.18 7423.95,334.488 7378.23,277.93 7322.48,232.551 7263.66,190.738 7144.63,106.129 7013.22,49.7695 6870.08,21.3008 6826.92,12.7188 6783.29,6.23828 6739.1,5.08984 6730.52,4.87109 6721.95,3.94141 6713.37,3.42188 6690.84,2.07031 6668.3,1.08984 6645.76,3 6611.52,5.89844 6577.18,6.60156 6543,11.2813 6493.94,18 6445.55,27.5117 6397.98,40.9219 6260.72,79.6016 6136.37,143.551 6025.82,233.738 c -122.89,100.293 -216.41,223.231 -281.34,367.883 -36.71,81.75 -61.33,167.238 -76.56,255.43 -4.38,25.359 -7.28,50.988 -7.97,76.859 -0.67,24.692 -2.89,49.32 -4.23,73.98 -0.58,10.73 -0.95,21.48 -0.95,32.22 -0.04,455.67 0.02,911.34 -0.18,1367.01 -0.01,27.01 3.47,53.7 7.52,80.1 4.78,31.2 19.7,59.07 39.14,83.88 43.82,55.94 101.7,84.06 172.71,85.75 46.51,1.11 89.54,-10.23 128.17,-36.07 52.66,-35.21 84.09,-84.45 96.03,-146.81 5.5,-28.71 6.95,-57.4 6.94,-86.48 -0.15,-444.92 -0.1,-889.84 -0.13,-1334.76 0,-24.73 -0.21,-49.44 3.93,-73.96 0.71,-4.219 1.01,-8.551 1.02,-12.84 0.06,-30.36 6.44,-59.7 14.2,-88.809 20.4,-76.633 52.99,-147.383 101.6,-210.383 71.18,-92.25 163.07,-154.75 274.11,-188.937 57.83,-17.813 117.3,-27.199 177.88,-25.68 135.45,3.418 257.16,45.488 361.94,132.711 60.36,50.227 106.75,111.648 141.46,181.887 22.94,46.441 39.36,95.281 50.2,145.859 3.81,17.793 5.75,36.121 6.96,54.301 1.91,28.93 3.45,57.951 3.47,86.931 0.21,451.38 0.18,902.75 0.04,1354.12 -0.01,20.47 1.19,40.77 3.65,61.06 7.57,62.42 37.25,111.15 89.67,145.99 18.87,12.54 38.86,23 60.02,30.96 23.41,8.82 48.13,11.45 72.85,10.91 17.09,-0.36 34.12,-3.77 51.15,-5.98 3.16,-0.41 6.34,-1.33 9.3,-2.54 32.97,-13.49 63.91,-30.58 91.85,-52.8 4.14,-3.29 7.57,-7.61 10.92,-11.78 6.72,-8.38 13.05,-17.07 19.77,-25.46 6.1,-7.63 10.78,-15.97 14.24,-25.1 3.81,-10.04 8.2,-19.86 11.91,-29.93 2.22,-6.03 4.64,-12.26 5.2,-18.56 2.18,-24.59 6.77,-48.96 6.63,-73.77 -0.14,-25.79 -0.02,-51.58 -0.02,-77.38 0,-426.65 -0.08,-853.3 0.14,-1279.96 0.02,-30.06 1.72,-60.141 3.38,-90.168 2.15,-38.891 12.11,-76.262 24.16,-113.094 26.04,-79.629 65.43,-151.84 121.77,-214.117 82.69,-91.391 184.79,-148.879 305.65,-173.481 49.83,-10.152 100.05,-14.621 150.6,-10.679 162.08,12.66 297.36,78.75 401.54,204.961 57.05,69.117 93.75,148.558 116.67,234.758 7.22,27.109 11.11,54.691 12.77,82.652 1.79,30.038 2.79,60.088 2.76,90.188 -0.18,212.8 -0.09,425.58 -0.09,638.37"
         style="fill:#ffffff;fill-opacity:1;fill-rule:nonzero;stroke:none"
         id="path12" />
      <path
         d="m 13945.8,2203.26 c -13.6,-0.76 -36.1,-2.14 -58.6,-3.23 -61.4,-2.96 -121.4,-14.18 -180.4,-31.2 -139,-40.12 -260,-111.35 -363.6,-211.84 -106.1,-102.82 -182.2,-224.74 -227.6,-365.39 -23.5,-72.86 -38,-147.57 -40.1,-224.28 -0.9,-32.18 0.1,-64.42 0.6,-96.62 0.3,-22.59 4.3,-44.81 7.8,-67.06 0.4,-2.21 5.2,-5.49 7.3,-4.81 5.1,1.64 10.2,3.13 15,5.32 11.7,5.34 23,11.79 34.9,16.4 13.1,5.03 25.7,10.8 38.2,16.91 6.8,3.29 13.5,6.53 20.4,9.55 24.5,10.75 49.2,21.04 73.6,32.15 80,36.55 159.8,73.71 240,110 95.8,43.37 193.4,82.77 287.6,129.64 1.9,0.96 4,1.72 5.9,2.6 76.4,34.29 153.4,66.96 229,102.95 74.6,35.5 150.6,68.17 226,101.99 27.4,12.3 55,24.34 82.4,36.5 28.5,12.58 56.7,25.71 85.5,37.6 27.7,11.48 53.3,27.62 81.8,37.56 17.1,5.98 34.2,13.08 49.9,22.08 16.9,9.64 34.2,17.68 52.3,24.43 0.9,0.36 1.6,1.39 2.5,1.95 2,1.24 3.2,6.69 1.7,8.64 -3.2,4.28 -6.1,8.8 -9.6,12.82 -30.3,34.93 -63,67.49 -98.2,97.52 -76,64.8 -160.8,114.31 -255,147.49 -97.2,34.22 -197.8,48.33 -309.3,50.33 z m 6,-2202.838125 c -53.3,2.839845 -105.9,4.699215 -158.2,10.597625 -92.2,10.4024 -182.1,30.461 -269.8,60.2618 -171.1,58.1487 -323.8,147.8667 -458.2,268.7697 -133.5,120.121 -238.6,261.359 -316,423.34 -48.3,101.281 -83,207.179 -104.5,317.279 -19.5,99.54 -25.5,200.1 -22,301.39 4.6,133.14 30.6,262.07 74.5,387.53 32.4,92.54 74.4,180.63 125.2,264.53 3.9,6.43 7.7,12.93 12.2,18.93 38.1,50.65 74.8,102.35 116.5,150.26 112.7,129.61 244.7,234.49 397.9,312.58 101.1,51.5 207,88.99 317.8,112.95 48.2,10.45 97,17.62 146.3,22.8 78.3,8.23 156.6,8.17 234.9,3.4 63.3,-3.86 126,-13.66 187.9,-27.25 101.1,-22.15 198.5,-55.31 291.9,-99.85 96.5,-45.99 186.1,-102.76 268.6,-170.7 140.4,-115.67 251.6,-254.91 335.5,-416.19 4.9,-9.52 10,-18.97 15.3,-28.3 7.5,-13.1 14.6,-26.23 18.2,-41.09 1.5,-6.17 4.8,-11.91 7.2,-17.86 1.3,-2.95 3,-5.83 3.5,-8.91 2.6,-15.87 5,-31.79 7.2,-47.71 0.5,-3.17 0.5,-6.45 0.3,-9.65 -2.8,-41.24 -11.8,-80.65 -34.9,-115.81 -16.9,-25.81 -21.6,-31.76 -45.9,-53.47 -5.5,-4.93 -12.1,-8.86 -18.6,-12.4 -48.2,-26.08 -98.1,-48.83 -148.1,-71.14 -72.6,-32.36 -145.3,-64.3 -218,-96.42 -5.9,-2.61 -11.8,-5.08 -17.6,-7.99 -56.5,-28.71 -115.2,-52.58 -172.7,-79.17 -70.2,-32.48 -140.9,-63.65 -211.9,-94.2 -16.8,-7.21 -33.2,-15.14 -49.5,-23.32 -26.9,-13.5 -53.8,-26.89 -82.5,-36.27 -5.1,-1.66 -10.1,-3.82 -14.9,-6.2 -57.7,-28.66 -116.7,-54.42 -175.6,-80.48 -78.5,-34.76 -156.8,-70.22 -235.1,-105.57 -159.5,-72.039 -318.9,-144.211 -478.4,-216.328 -2,-0.883 -3.9,-1.711 -5.9,-2.633 -5.4,-2.578 -7.6,-8.68 -4.5,-13.18 5,-7.019 9.6,-14.398 15.4,-20.679 20.3,-22.149 40.6,-44.391 61.8,-65.7 108.9,-109.5 239.5,-180.101 389.2,-215.91 46,-11 92.6,-18.211 140,-21.39 27.9,-1.872 55.7,-3.84 83.6,-3.11 49.5,1.27 98.6,5.988 147.5,13.891 43.5,7.039 86.1,18.09 128,31.66 59.5,19.258 116.4,44.219 169.2,77.98 70,44.739 134.4,96.481 192.3,156.047 35.3,36.282 67.8,74.801 92.6,119.293 4.2,7.489 9.6,14.34 14,21.668 8.4,13.75 17.8,27.071 24.5,41.61 15.2,33.16 33.2,65.031 45.8,99.421 5.1,14.09 10.7,28.02 16,42.06 18,47.96 48.1,86.01 92.9,111.43 25.5,14.53 53.7,21.18 82.8,24.12 8.6,0.86 17.2,1.16 25.7,1.73 69.7,4.71 144.3,-30.65 184.3,-87.38 1.8,-2.63 3.2,-5.66 5.3,-8.04 23.9,-26.72 32.9,-60.02 40,-93.728 4.3,-20.024 4.4,-40.492 -0.8,-60.723 -3.8,-14.539 -7,-29.238 -10.5,-43.847 -0.7,-3.114 -1.2,-6.391 -2.6,-9.223 -16.7,-33.758 -27.8,-69.789 -42.7,-104.27 -57.5,-132.519 -136.3,-250.8 -235.7,-355.32 -136,-142.949 -296.2,-250.84 -477.6,-327.5702 -31.7,-13.3868 -64.6,-23.2774 -97.4,-33.3985 -6.2,-1.8984 -12.6,-3.1015 -18.5,-5.6211 -39.9,-17.039 -82.5,-23.3086 -124.5,-31.8906 -42.1,-8.5977 -84.9,-12.9297 -127.5,-18.3086 -1.1,-0.14062 -2.2,-0.21875 -3.2,-0.28906 -9.7,-0.58203 -19.3,-1.19922 -29,-1.72266 -33.2,-1.80859 -66.5,-3.57812 -99,-5.316405"
         style="fill:#ffffff;fill-opacity:1;fill-rule:nonzero;stroke:none"
         id="path14" />
      <path
         d="m 3187.93,1316.08 c 1.53,-29.22 1.56,-67.8 6.59,-106.32 7.12,-54.48 18.27,-107.93 34.72,-160.24 39.3,-124.899 102.93,-235.782 193.09,-331 89.44,-94.45 196.09,-162.93 317.36,-209.211 73.57,-28.09 149.75,-45.75 227.53,-56.848 20.18,-2.879 40.53,-5.633 60.86,-6.082 60.17,-1.34 120.17,0.672 179.88,9.75 62.98,9.582 123.7,26.68 182.63,50.5 205.13,82.91 383.21,250.973 477.33,457.16 39.13,85.721 63.92,175.131 71.4,269.371 2.21,27.91 1.68,55.79 3.13,83.66 3.01,58.23 -2.68,115.98 -13.11,173.09 -13.77,75.35 -38.11,147.5 -72.22,216.14 -71.84,144.52 -174.45,262.43 -308.6,352.15 -126.65,84.71 -265.2,135.27 -418.67,140.94 -3.21,0.12 -6.42,0.55 -9.61,1.02 -34.21,5.1 -68.66,3.82 -102.86,1.61 -37.46,-2.42 -74.63,-8.16 -111.59,-15.34 -82.62,-16.05 -162.37,-40.76 -238.04,-77.75 -184.75,-90.34 -319.64,-229.28 -403.42,-417.17 -51.89,-116.37 -76.79,-238.65 -76.4,-375.43 z m -451.22,5.86 c -3.04,29.51 -3.13,49.85 -0.83,70.24 0.96,8.52 0.77,17.17 1.08,25.76 4.36,122.34 29.4,240.59 70.58,355.6 58.69,163.91 147.33,309.93 263.04,439.76 112.05,125.76 242.85,227.43 392.65,304.34 103.74,53.25 212.74,91.84 327.42,114.06 46.46,9 93.2,15.04 140.31,19.47 52.5,4.94 105.03,6.76 157.65,6.04 50.49,-0.7 101.01,-2.58 151.15,-8.57 101.72,-12.15 200.62,-36.27 296.37,-72.96 145.95,-55.93 277.64,-135.61 395.78,-237.81 138.27,-119.62 248.71,-260.96 330.3,-424.63 55.46,-111.24 94.28,-227.98 114.92,-350.71 11.61,-69.03 17.9,-138.43 17.46,-208.44 -0.1,-17.19 -0.07,-34.39 0,-51.59 0.2,-50.58 -4.26,-100.81 -10.38,-150.98 C 5368.62,1023.61 5332.88,901.5 5279.68,784.32 5233.69,683.012 5175.53,589.141 5105.83,502.52 5015.55,390.309 4910.42,294.219 4789.74,215.449 4669.13,136.73 4539.52,78.2305 4399.74,42.6797 4343.47,28.3594 4286.6,17.7617 4228.87,11.1016 4199.96,7.76172 4171.15,5.55078 4142.1,5.75 c -6.43,0.03906 -12.94,-0.17187 -19.3,-1.05078 -44.98,-6.25781 -90.02,-4.121095 -135.08,-1.32031 -8.58,0.54297 -17.15,1.28125 -25.74,1.64062 -59.2,2.5 -117.5,11.83987 -175.33,24.12887 -214.44,45.6133 -405.1,140.4606 -572.95,280.7106 -181.79,151.891 -316.13,338.25 -399.9,560.36 -29.27,77.601 -50.84,157.261 -63.33,239.311 -3.56,23.35 -7.56,46.68 -9.9,70.16 -2.03,20.28 -2.33,40.75 -2.79,61.15 -0.67,30.08 -0.81,60.17 -1.07,81.1"
         style="fill:#ffffff;fill-opacity:1;fill-rule:nonzero;stroke:none"
         id="path16" />
      <path
         d="m 218.621,3393.62 c 65.973,75.17 142.516,136.58 233.242,179.73 53.649,25.52 109.723,43.64 167.625,56.1 50.438,10.85 101.563,16.83 153.004,21.35 84.781,7.45 169.66,5.27 254.518,5.41 111.75,0.2 223.51,-0.66 335.26,-0.85 55.88,-0.1 111.75,0.34 167.63,0.35 23.63,0.01 47.13,-1.07 70.63,-4.88 34.66,-5.63 65.5,-18.68 94.25,-38.96 45.31,-31.97 74.33,-74.78 85.21,-128.33 18.93,-93.11 -5.44,-172.09 -81.97,-232.25 -20.56,-16.16 -43.87,-26.85 -67.76,-36.61 -3.93,-1.61 -8.2,-3.2 -12.35,-3.32 -26.8,-0.79 -53.08,-6.34 -80.1,-6.26 -199.9,0.6 -399.79,0.35 -599.685,0.3 -47.277,-0.01 -94.551,-0.3 -141.828,-0.36 -23.797,-0.03 -47.133,-4.14 -70.168,-9.21 -33.816,-7.45 -65.348,-21.06 -94.856,-39.24 -27.582,-17 -51.734,-37.97 -74.953,-60.62 -30.554,-29.8 -53.519,-64.27 -71.101,-102.66 -16.231,-35.42 -25.703,-72.74 -30.18,-111.45 -4.078,-35.31 -5.129,-70.63 -4.594,-106.16 0.809,-53.72 0.219,-107.46 0.219,-161.2 0.004,-175.18 0.004,-350.36 0,-525.53 0,-39.21 -2.512,-37.18 36.191,-37.17 296.618,0.02 593.235,0 889.855,0.05 12.89,0 25.84,-0.11 38.66,1.03 47.32,4.22 94.49,1.48 141.57,-3.03 27.88,-2.68 55.06,-9.34 80.98,-20.23 43.38,-18.21 75.78,-48.22 96.02,-90.92 20.67,-43.59 31.05,-89.14 24.89,-137.55 -3.96,-31.19 -13.22,-60.86 -28.24,-88.5 -26.03,-47.88 -66.59,-77.92 -118,-93.73 -25.69,-7.91 -52.01,-13.22 -79.05,-14.4 -15.01,-0.66 -29.99,-2.27 -45,-2.97 -9.65,-0.45 -19.34,-0.28 -28.99,0.06 -24.69,0.85 -49.37,2.81 -74.04,2.82 -299.85,0.2 -599.69,0.14 -899.53,0.11 -8.578,-0.01 -17.16,-0.42 -25.726,-0.82 -3.91,-0.17 -8.18,-4.42 -8.59,-8.19 -0.351,-3.19 -0.863,-6.39 -0.906,-9.59 -0.133,-9.67 -0.09,-19.34 -0.09,-29.01 -0.004,-358.96 -0.039,-717.91 0.035,-1076.86 0.008,-64.468 0.688,-128.929 0.629,-193.41 -0.019,-22.539 -0.707,-45.129 -2.195,-67.629 C 447.211,189.98 441.156,161.699 431.051,134.27 413.891,87.6797 383.117,53.6484 338.855,31.2617 306.766,15.0313 272.488,6.21094 237.266,1.73047 209.168,-1.82813 181.273,3.5 154.98,13.4492 79.75,41.9219 29.6484,94.5117 7.41016,172.309 c -6.21485,21.769 -8.343754,44.242 -7.042972,67 1.160152,20.371 2.152342,40.761 2.332032,61.16 0.9375,106.383 1.55859,212.761 2.37891,319.14 0.35546,46.2 0.14062,92.43 1.54296,138.61 4.33981,142.863 3.34766,285.771 4.87891,428.661 0.4805,45.13 -0.0391,90.29 1.6289,135.38 2.8633,77.32 2.4219,154.69 3.4219,232.02 0.3867,30.09 0.0664,60.18 0.0664,90.26 0.1875,0.01 0.3828,0.01 0.5742,0.01 0.7266,80.59 0.1875,161.22 2.4922,241.76 2.9492,103.12 2.5,206.26 4.0078,309.38 0.7774,52.64 0.9336,105.3 1.3281,157.96 0.3477,45.11 0.7891,90.2 2.4375,135.31 1.8399,50.45 1.3555,100.99 1.7774,151.49 1.0429,125.73 1.9531,251.45 3.1094,377.18 0,0 9.5976,191.22 186.2772,375.99"
         style="fill:#ffffff;fill-opacity:1;fill-rule:nonzero;stroke:none"
         id="path18" />
      <path
         d="m 11403.3,1489.35 c 0,294.48 0,588.95 0,883.43 0,84.89 -0.2,169.79 0.1,254.68 0.2,35.44 0.9,70.92 2.3,106.33 2.1,48.41 8.9,96.32 20,143.42 11.3,48.07 24.7,95.64 42.4,141.86 33.7,87.96 80.1,168.67 137.8,243.01 71.6,92.47 155.4,172.13 253.1,236.73 64,42.26 131.9,76.42 205.3,99.19 3.1,0.95 6.3,1.61 9.2,2.96 23.6,10.95 48.5,17.29 73.9,21.68 2.2,0.37 4.3,0.61 6.4,1.28 31.7,10.59 64.7,15.09 97.4,21.22 12.8,2.38 25.5,3.5 38.3,4.54 82.6,6.64 165.4,6.19 248.1,5.43 54.2,-0.5 103.7,-17.39 146.4,-50.89 43.3,-33.94 68.2,-79.05 76.9,-133.52 10.1,-63.68 -3.8,-121.81 -40,-174.43 -31.2,-45.29 -74.6,-73.22 -128.2,-85.74 -20,-4.69 -40.3,-6.8 -60.7,-5.95 -30.1,1.25 -60.2,0.31 -90.2,3.72 -15.9,1.8 -32.3,1.58 -48.3,0.13 -29.9,-2.71 -59.9,-4.24 -89.6,-10.09 -68.1,-13.43 -132.7,-36.5 -191.3,-73.63 -130.8,-82.74 -213.3,-200.15 -247.4,-351.27 -7.5,-33.62 -10.1,-67.95 -13,-102.2 -0.2,-2.12 0.3,-4.28 0.3,-6.42 0.2,-4.11 4,-8.46 7.9,-8.72 6.4,-0.42 12.8,-0.94 19.2,-0.94 197.8,-0.05 395.5,-0.07 593.3,0.01 20.4,0.01 40.8,1.57 61.2,0.88 44.8,-1.51 86.9,-12.97 125.8,-35.69 41.4,-24.26 70.8,-58.66 87.2,-103.94 2.6,-7.07 5.6,-14.02 7.6,-21.23 2.3,-8.21 4.7,-16.58 5.5,-25.03 0.9,-10.67 1,-21.37 3.6,-31.91 1.3,-5.1 1.2,-10.72 0.8,-16.04 -4.3,-57.52 -23.2,-108.94 -63.8,-151.12 -39.1,-40.58 -87.4,-61.42 -143.2,-65.3 -11.7,-0.82 -23.6,-0.43 -35.4,-0.43 -209.6,-0.02 -419.2,0 -628.7,-0.04 -10.8,-0.01 -21.5,-0.35 -32.2,-0.7 -4.2,-0.14 -8.2,-4.13 -8.6,-8.13 -0.3,-3.2 -0.6,-6.41 -0.7,-9.62 -0.1,-7.52 0,-15.04 0,-22.56 0,-611.53 0,-1223.06 0,-1834.58 0,-16.089 0.7,-32.058 2.7,-48.16 4.7,-38.691 2.6,-77.05 -8.6,-114.851 C 11816.6,67.2188 11729.9,14 11655.8,4.57031 c -32.6,-4.148435 -64.2,-2.1914 -95.6,6.71879 -55.6,15.832 -96.5,50.2812 -124.3,100.5509 -21.1,38.281 -32.4,79.379 -32.5,123.301 -0.1,10.738 -0.1,21.488 -0.1,32.238 0,407.32 0,814.651 0,1221.971"
         style="fill:#ffffff;fill-opacity:1;fill-rule:nonzero;stroke:none"
         id="path20" />
      <path
         d="m 2474.9,1824.95 c 0,-136.46 -0.08,-272.92 0.03,-409.39 0.07,-96.71 0.4,-193.41 0.63,-290.12 0.24,-98.84 1,-197.69 0.66,-296.542 -0.63,-185.878 -1.88,-371.757 -2.9,-557.636 -0.12,-21.481 -0.25,-42.973 -0.75,-64.453 -0.17,-7.457 -0.91,-15.008 -2.35,-22.329 -8.67,-44.101 -11.93,-50.878 -40.07,-86.2105 -25.12,-31.5312 -55.19,-57.0312 -91.23,-75.3203 -85.76,-43.4883 -174.01,-21.02732 -233.6,32.6406 -44.74,40.3008 -70.65,91.3202 -82.26,149.8322 -7.38,37.156 -8.96,74.547 -2.48,112.129 1.45,8.418 1.54,17.097 1.77,25.679 0.3,10.739 0.09,21.489 0.09,32.231 0,979.979 0.01,1959.949 -0.04,2939.929 0,21.49 -0.61,42.97 -0.96,64.45 -0.51,32.27 0.04,64.43 7.36,96.14 4.6,19.95 10.49,39.38 19.19,57.95 25.1,53.6 66.39,88.95 122.11,107.55 23.51,7.86 48.01,11.57 72.7,13.42 15.02,1.12 29.75,-0.13 44.63,-4.03 20.77,-5.44 41.76,-9.54 61.26,-19.23 76.84,-38.16 117.85,-100.52 125.82,-185.28 1,-10.68 0.97,-21.47 0.95,-32.21 -0.06,-30.08 -0.53,-60.17 -0.53,-90.24 -0.05,-285.84 0.08,-571.66 -0.08,-857.49 -0.08,-147.2 -0.7,-294.41 -0.97,-441.62 -0.13,-66.61 -0.02,-133.23 -0.02,-199.85 0.34,0 0.69,0 1.04,0"
         style="fill:#ffffff;fill-opacity:1;fill-rule:nonzero;stroke:none"
         id="path22" />
      <path
         d="m 10124.5,1806.09 c 0,-105.29 -1.4,-210.61 0.3,-315.87 2.3,-138.58 2,-277.15 2.4,-415.72 0.4,-138.621 0.2,-277.23 0,-415.828 0,-54.801 0.7,-109.621 -0.9,-164.383 -3,-100.949 -2.6,-201.918 -3.6,-302.891 -0.2,-16.589 -3.2,-31.847 -11.4,-46.269 -3.6,-6.539 -6.8,-13.367 -9.9,-20.231 -15.7,-35.5699 -42,-61.9878 -73.3,-83.7964 -18.6,-12.9414 -38.59,-23.5118 -60.63,-29.3711 -9.29,-2.46878 -18.84,-4.05862 -28.33,-5.66019 -5.27,-0.89062 -10.94,-0.08984 -15.98,-1.55859 -21.5,-6.32031 -42.56,-2.97266 -63.64,1.85937 -6.27,1.44922 -12.37,3.84771 -18.71,4.77731 -24.03,3.4922 -45.24,12.8711 -63.65,28.793 -3.19,2.7383 -7.45,4.1992 -11.05,6.5274 -4.5,2.9218 -9.51,5.4726 -13.09,9.3203 -18.26,19.6015 -37.94,38.0312 -51.54,61.5899 -14.79,25.621 -22.82,53.281 -24.12,82.68 -0.94,21.461 -0.72,42.972 -0.81,64.461 -0.12,30.07 -0.05,60.152 -0.05,90.23 0,986.39 0.01,1972.77 -0.05,2959.16 0,21.48 -1.1,42.96 -0.97,64.44 0.14,23.62 0.23,47.3 1.98,70.83 2.24,30.19 10.18,59.15 23.05,86.68 20.44,43.74 53,74.94 96.91,94.67 31.75,14.27 65.38,20.75 99.66,24.39 13.93,1.47 27.65,-0.6 41.48,-3.58 26.49,-5.71 51.65,-14.45 75.44,-27.38 63,-34.3 98.4,-87.64 108.9,-158.16 3.3,-22.37 5.3,-44.76 3.8,-67.42 -0.7,-9.63 -0.2,-19.34 -0.2,-29 0,-301.94 0.1,-603.87 -0.1,-905.81 0,-34.35 -1.4,-68.7 -1.9,-103.05 -0.4,-33.3 -0.4,-66.61 -0.7,-99.92 0,-9.67 -0.1,-19.34 -0.1,-29.01 0,-141.83 0,-283.66 0,-425.5 0.3,0 0.5,0 0.8,0"
         style="fill:#ffffff;fill-opacity:1;fill-rule:nonzero;stroke:none"
         id="path24" />
      <path
         d="m 10537.2,1329.96 c 0,333.16 0,666.31 -0.1,999.46 0,26.86 -0.3,53.73 -0.7,80.58 -0.5,30.32 3.2,60.08 11.7,89.12 17.2,58.66 53.3,102.18 107.1,131.04 21,11.23 43.4,18.57 66.3,24.53 4.1,1.08 8.4,1.82 12.7,2.08 34.5,2.15 68.6,0.38 101.9,-10.21 40.1,-12.72 73.6,-35.03 100,-67.56 26.3,-32.29 42.6,-69.19 50.8,-110.04 4.6,-23.38 6.1,-46.79 5.2,-70.51 -0.5,-12.88 -0.6,-25.79 -0.6,-38.68 -0.1,-687.8 -0.1,-1375.598 0,-2063.399 0,-16.109 0.7,-32.223 1,-48.332 0.8,-40.41 -7.5,-78.848 -24.1,-115.699 -14.3,-32 -35.4,-58.8087 -62,-81.2814 -29.6,-24.8984 -63.9,-39.0586 -102,-44.42969 -9.6,-1.32813 -19.1,-2.8086 -28.7,-4.20703 -12.8,-1.902349 -25.6,-2.183599 -38.3,1.10937 -10.4,2.67969 -20.9,5.02734 -31.4,7.19925 -57,11.7304 -99.6,44.1797 -130.6,92.1915 -26.3,40.629 -39.5,85.609 -39.6,134.129 0,25.777 1.3,51.558 1.3,77.34 0.1,338.519 0.1,677.05 0.1,1015.569"
         style="fill:#ffffff;fill-opacity:1;fill-rule:nonzero;stroke:none"
         id="path26" />
      <path
         d="m 11128.6,3376.9 c -1.3,-23.21 -5.2,-55.97 -12.1,-88.74 -11.8,-55.55 -40.6,-101.1 -76.5,-143.14 -39.8,-46.56 -88,-81.4 -145.4,-103.48 -123.7,-47.63 -266.8,-24.68 -368.6,63.31 -62.9,54.28 -102.5,123.26 -122.2,203.79 -1.3,5.19 -2.3,10.51 -2.7,15.83 -2.7,34.11 -9.1,68.19 -1.6,102.47 0.7,34.97 10.9,67.74 24.4,99.43 50.7,118.23 139.9,191.03 265.1,217.38 101.3,21.34 196.3,1.76 282.8,-55.76 56.8,-37.8 98.2,-89.11 127.9,-150.22 1.8,-3.85 3.7,-7.77 4.9,-11.86 13.8,-45.33 24.4,-91.23 24,-149.01"
         style="fill:#ffffff;fill-opacity:1;fill-rule:nonzero;stroke:none"
         id="path28" />
      <path
         d="m 15580.2,3227.57 v 424.18 h 104.1 l 107.2,-338.82 103.5,338.82 h 102 v -424.18 h -64.5 v 356 l -109.3,-356 h -64 l -114,361.2 v -361.2 z m -256.6,0 v 361.2 h -137.4 v 62.98 h 346.6 v -62.98 h -138.4 v -361.2 h -70.8"
         style="fill:#ffffff;fill-opacity:1;fill-rule:nonzero;stroke:none"
         id="path30" />
    </g>
  </g>
</svg>
