<svg fill="none" height="24" viewBox="0 0 200 24" width="200" xmlns="http://www.w3.org/2000/svg" xmlns:xlink="http://www.w3.org/1999/xlink"><clipPath id="a"><path d="m0 0h200v23.256h-200z"/></clipPath><g clip-path="url(#a)"><path d="m91.412 5.753v-5.641h3.758c.2 1.013.274 18.057.1 23.044a8.223 8.223 0 0 1 -1.888.077h-2v-10.833a28.606 28.606 0 0 0 -.091-3.633c-.915.818-1.623 1.581-2.373 2.312s-1.454 1.439-2.181 2.166l-2.286 2.271h-2.67v6.848c0 .782-.078.854-.827.859h-3.2v-23.161h3.521a.491.491 0 0 1 .517.496c.014.263.014.527 0 .79v11.208l2.387-2.271c.4-.386.8-.768 1.188-1.158.746-.745 1.486-1.5 2.227-2.244.028-.027.073-.036.091-.068.608-1.126 1.656-1.121 2.744-1.058.271.009.553-.004.983-.004zm-72.012 8.588h3.342c.206-.455-.046-.632-.261-.845-.722-.727-1.44-1.458-2.171-2.176-.3-.29-.627-.554-.887-.781v-10.327a128.4 128.4 0 0 1 12.887-.123l2.643 2.666v4.056c-.869.849-1.8 1.74-2.716 2.647-.916.908-1.77 1.767-2.611 2.607-.914.205-1.8-.159-2.743.291.818.758 1.573 1.417 2.286 2.125s1.463 1.558 2.19 2.321c.667.668 1.372 1.29 2.076 1.939.413.367.804.758 1.17 1.172.194.223.314.5.343.795.046.822 0 1.648 0 2.507h-2.656c-.188-.177-.458-.405-.677-.641a2315.446 2315.446 0 0 1 -7.283-7.221c-.247-.245-.457-.658-1.006-.454v8.311c-1.317.055-2.56 0-3.914.032v-4.433zm4.114-10.369c-.103.31-.17.632-.2.958a52.271 52.271 0 0 0 0 3.289c.015.33.132.647.334.908.375.407.772.793 1.188 1.158.458.454.915.94 1.372 1.4.142.104.296.192.457.263v-2.817l5.235-5.159zm18.338-.04 2.926 2.992v2.693h5.257c.357 0 .627.132.631.491 0 1.017 0 2.035-.041 3.052 0 .091-.128.177-.242.327h-7.443c-.05 1.971 0 3.878-.028 5.877h11.673c-.115 1.335.256 2.606-.27 3.851h-15.344c-.2-.909-.279-9.342-.114-13.548.873-.1 1.778 0 2.743-.072-.292-.754-.914-1.1-1.371-1.581s-1-.908-1.418-1.3v-6.602c.311 0 .6-.05.915-.05h14.287a.528.528 0 0 1 .549.581v2.725a.514.514 0 0 1 -.339.533.535.535 0 0 1 -.223.031zm91.023 19.074h-11.43a3.972 3.972 0 0 1 -1.395-.291 1.783 1.783 0 0 1 -1.225-1.817v-17.72l2.967-2.878h11.618c.306-.018.614.005.914.068.47.153.881.446 1.18.839.298.392.467.867.484 1.359v16.352a2.125 2.125 0 0 1 -.9 1.971c-.796.618-1.459 1.426-2.213 2.117zm-.325-5.75v-12.988a.533.533 0 0 0 -.354-.526.543.543 0 0 0 -.222-.033h-7.055c-.242-.323-.068-.908-.791-.881l-2.107 2.143c-.173.145-.317.32-.425.518a.536.536 0 0 0 .151.454c.118.1.338.073.516.1v12.907a2.074 2.074 0 0 0 0 .223.168.168 0 0 0 .041.1c.047.056.099.108.156.154h7.53c.059.427-.069.849.388 1.049a14.183 14.183 0 0 0 3.041-3.093zm28.863-16.93h3.543c0 .286.05.572.05.862 0 1.172.027 2.344 0 3.515-.032 1.29.083 1.318 1.344 1.281h1.528c2.029 2.016 4.073 4.051 6.122 6.077.256.254.456.636 1.028.454.114-.963.032-1.976.05-2.979s0-2.044 0-3.066v-6.126h3.608v22.616h-3.58v-7.625h-2.8c-.339-.327-.669-.636-.989-.954-1.76-1.734-3.524-3.483-5.261-5.209-.252-.254-.458-.64-1.01-.386v14.22h-3.115a.517.517 0 0 1 -.404-.157.477.477 0 0 1 -.115-.19.517.517 0 0 1 -.02-.221v-21.799a2.73 2.73 0 0 1 .021-.313zm-21.054 20.323v-20.305c1.486-.087 2.953 0 4.4-.046.96.968 1.892 1.912 2.87 2.893v2.309c-.844.064-1.709 0-2.66.037l-.864-1.049c-.133.25-.243.511-.329.781-.023.264-.023.53 0 .794v13.282h9.792v-18.988h3.659v20.26a2.222 2.222 0 0 1 -.664 1.763 2.236 2.236 0 0 1 -1.778.626h-11.079a2.077 2.077 0 0 1 -1.61-.622c-.576-.584-1.179-1.163-1.737-1.735zm59.613-6.149-8.8 8.483h-8.23a20.7 20.7 0 0 1 -.068-3.1c-.028-1.022 0-2.044 0-3.066.914-1.149 2.19-1.957 3.013-3.333a3.503 3.503 0 0 0 -.767-.232c-.714-.027-1.432 0-2.195 0v-12.89h8.5l8.575 8.511zm-13.478-10.768v9.4a.55.55 0 0 0 .567.572h1.24v2.725c-.426.4-.946.845-1.413 1.363s-1.052.84-1.372 1.571h4.219l6.785-6.721v-2.198l-6.785-6.712zm-125.166.259c1.1 1.076 2.108 2.039 3.086 3.029.617.631 1.189 1.312 1.829 2.039v2.575c.59.034 1.18.034 1.769 0a1.976 1.976 0 0 1 1.7.686c1.285 1.267 2.5 2.606 3.809 3.851a1.452 1.452 0 0 1 .457 1.172v3.179a2.775 2.775 0 0 1 -.809 1.9 2.816 2.816 0 0 1 -1.9.829h-12.218c-.685 0-.8-.105-.8-.768v-3.051c.333 0 .658-.064.987-.064h10.512c.361 0 .782.136 1.056-.35a5847.582 5847.582 0 0 0 -4.76-4.686v-2.6a21.433 21.433 0 0 0 -2.564-.091l-5.222-5.221c0-1.108-.027-2.32 0-3.529a2.8 2.8 0 0 1 1.431-2.6c.345-.175.73-.252 1.116-.224h12.1c1.111 0 1.111 0 1.115 1.149v1.93c0 .645-.105.786-.781.786h-11.213c-.179.004-.361.031-.7.059zm-58.219.118 2.78 2.861v2.566c.942.106 1.892.133 2.839.081h2.8c.14.615.177 1.249.11 1.876.028.622 0 1.272 0 2h-6.673c-1.093 0-1.1 0-1.1 1.049v8.629h-3.865v-13.517c.887-.09 1.788 0 2.78-.077a7.089 7.089 0 0 0 -1.408-1.6c-.458-.453-.915-.907-1.372-1.293v-6.576h15.472v3.783h-12.185zm96.102 18.897v-3.633h12.852a7.124 7.124 0 0 0 -1.618-1.858c-.526-.559-1.175-1.167-1.77-1.753s-1.124-1.122-1.691-1.68v-2.339a4.104 4.104 0 0 1 1.3-.073h1.212l5 4.969c0 1.362.032 2.784 0 4.214.015.475-.148.939-.457 1.3a2.609 2.609 0 0 1 -1.633.863c-4.38-.016-8.746-.01-13.195-.01zm7.489-14.206v2.548h-2.405c-1.715-1.53-3.2-3.36-5.1-4.841 0-1.208-.06-2.457.022-3.7a3.332 3.332 0 0 1 1.069-2.118 1.538 1.538 0 0 1 1.124-.413h12.8c.085.014.169.04.247.077v3.315h-11.41c-.356 0-.782-.164-1.083.377z" fill="#4dbea8"/></g></svg>