<svg width="983" height="195" viewBox="0 0 983 195" fill="none" xmlns="http://www.w3.org/2000/svg">
<g clip-path="url(#clip0_6_34)">
<path d="M72.58 142.41V81.0004C72.651 76.2276 72.0724 71.4673 70.86 66.8504C69.9415 63.212 68.2725 59.8058 65.96 56.8504C61.7 51.2238 55.46 48.4071 47.24 48.4004C39.6333 48.4004 33.4733 50.3804 28.76 54.3404C26.3646 56.2658 24.1488 58.4045 22.14 60.7304C20.1433 63.0208 18.312 65.4502 16.66 68.0004V142.4H0V34.0004H16.43V47.7004C19.3602 43.3816 23.1744 39.7344 27.62 37.0004C33.6111 33.6488 40.3756 31.9249 47.24 32.0004C59.8733 32.0004 70.07 36.1071 77.83 44.3204C81.7931 48.4486 84.7588 53.4291 86.5 58.8804C88.3867 64.9353 89.3113 71.2488 89.24 77.5904V142.41H72.58Z" fill="#FFECDC"/>
<path d="M192.281 142.87V136.93C190.451 137.7 188.551 138.57 186.571 139.56C184.664 140.521 182.681 141.321 180.641 141.95C174.7 143.628 168.554 144.473 162.381 144.46C147.007 144.46 134.454 139.44 124.721 129.4C114.827 119.36 109.884 106.58 109.891 91.0601C109.891 73.8735 114.911 59.8001 124.951 48.8401C135.451 37.5801 148.614 31.9668 164.441 32.0001C169.19 32.0355 173.898 32.8844 178.361 34.5101C183.253 36.1342 187.989 38.1959 192.511 40.6701V34.0001H208.941V142.87H192.281ZM192.511 57.5101C191.444 56.7501 190.151 55.8001 188.631 54.6601C186.932 53.421 185.092 52.3872 183.151 51.5801C178.02 49.4261 172.505 48.3374 166.941 48.3801C155.381 48.3801 145.947 52.4135 138.641 60.4801C131.041 68.3935 127.237 78.5102 127.231 90.8302C127.231 102.403 130.564 111.533 137.231 118.22C140.577 121.618 144.582 124.296 149.001 126.09C153.845 127.933 158.999 128.826 164.181 128.72C171.021 128.72 176.724 127.807 181.291 125.98C183.402 125.228 185.4 124.192 187.231 122.9C188.913 121.693 190.666 120.588 192.481 119.59L192.511 57.5101Z" fill="#FFECDC"/>
<path d="M371.94 142.41V81.0002C371.94 70.2002 369.806 62.1368 365.54 56.8102C361.126 51.1835 355.126 48.3668 347.54 48.3602C341.76 48.3602 336.59 50.7201 332.03 55.4401C327.484 59.9668 323.499 65.023 320.16 70.5002V142.39H303.47V81.0002C303.47 70.3335 301.49 62.1935 297.53 56.5802C293.43 51.1002 287.573 48.3602 279.96 48.3602C272.96 48.3602 267.33 50.2635 263.07 54.0702C258.533 58.206 254.613 62.9712 251.43 68.2202V142.39H234.77V34.0002H251.2V47.4702C255.006 42.4502 258.673 38.9502 262.2 36.9702C268.028 33.6211 274.648 31.8946 281.37 31.9702H284.11C287.212 31.9788 290.293 32.4784 293.24 33.4502C296.339 34.4646 299.323 35.8055 302.14 37.4502C307.013 40.7835 311.346 46.1835 315.14 53.6502C316.603 51.3953 318.242 49.2588 320.04 47.2601C321.953 45.1335 323.97 43.0035 326.09 40.8701C332.463 34.9568 340.433 32.0002 350 32.0002H352.73C363.396 32.0002 372.146 36.3335 378.98 45.0002C385.366 53.6668 388.56 64.5435 388.56 77.6301V142.45L371.94 142.41Z" fill="#FFECDC"/>
<path d="M492.509 142.87V136.93C490.679 137.7 488.779 138.57 486.799 139.56C484.893 140.521 482.909 141.321 480.869 141.95C474.928 143.627 468.783 144.472 462.609 144.46C447.236 144.46 434.682 139.44 424.949 129.4C415.062 119.36 410.119 106.58 410.119 91.0601C410.119 73.8735 415.139 59.8001 425.179 48.8401C435.679 37.5801 448.839 31.9668 464.659 32.0001C469.409 32.0337 474.117 32.8827 478.579 34.5101C483.472 36.1323 488.208 38.1941 492.729 40.6701V34.0001H509.159V142.87H492.509ZM492.729 57.5101C491.669 56.7501 490.369 55.8001 488.849 54.6601C487.155 53.4189 485.319 52.3849 483.379 51.5801C478.248 49.428 472.733 48.3393 467.169 48.3801C455.609 48.3801 446.176 52.4135 438.869 60.4801C431.256 68.3935 427.452 78.5102 427.459 90.8302C427.459 102.403 430.792 111.533 437.459 118.22C440.804 121.615 444.805 124.293 449.219 126.09C454.06 127.933 459.211 128.826 464.389 128.72C471.236 128.72 476.942 127.807 481.509 125.98C483.618 125.23 485.613 124.194 487.439 122.9C489.125 121.698 490.878 120.593 492.689 119.59L492.729 57.5101Z" fill="#FFECDC"/>
<path d="M589.451 135.34C582.611 141.566 574.091 144.683 563.891 144.69C555.831 144.69 548.984 143.396 543.351 140.81C540.82 139.765 538.346 138.587 535.941 137.28C533.881 136.13 531.861 134.96 529.891 133.74V115.94C533.091 118.099 536.432 120.043 539.891 121.76C542.562 123.019 545.303 124.125 548.101 125.07C553.137 126.973 558.467 127.988 563.851 128.07C569.791 128.07 574.661 126.626 578.461 123.74C580.179 122.485 581.559 120.823 582.475 118.903C583.392 116.983 583.816 114.865 583.711 112.74C583.688 111.106 583.332 109.495 582.665 108.004C581.998 106.513 581.033 105.175 579.831 104.07C576.784 101.183 569.784 97.7595 558.831 93.7995C554.788 92.299 550.861 90.5041 547.081 88.4295C543.857 86.6911 540.897 84.5024 538.291 81.9295C533.117 76.9095 530.531 70.4428 530.531 62.5295C530.531 53.7095 534.197 46.4062 541.531 40.6195C544.917 37.9425 548.685 35.7886 552.711 34.2295C556.796 32.7035 561.129 31.9474 565.491 31.9995C571.8 31.9176 578.071 32.9815 584.001 35.1395C588.649 36.8244 592.972 39.2972 596.781 42.4495V61.1595C593.71 58.7415 590.509 56.4948 587.191 54.4295C584.761 52.9795 582.401 51.7295 580.121 50.6595C575.799 48.7584 571.141 47.7385 566.421 47.6595C563.526 47.5965 560.638 47.981 557.861 48.7995C555.675 49.4753 553.639 50.5613 551.861 51.9995C548.527 55.1862 546.861 58.6062 546.861 62.2595C546.828 64.1483 547.268 66.0152 548.141 67.6903C549.015 69.3653 550.293 70.7951 551.861 71.8495C554.041 73.3463 556.327 74.6832 558.701 75.8495C561.66 77.3003 564.71 78.5596 567.831 79.6195C577.111 82.8062 584.644 86.7628 590.431 91.4895C596.811 96.5295 600.001 103.7 600.001 113C600.001 121.666 596.484 129.113 589.451 135.34Z" fill="#FFECDC"/>
<path d="M677.07 141.16C675.16 141.84 673.38 142.41 671.7 142.87C669.934 143.34 668.145 143.721 666.34 144.01C664.338 144.318 662.315 144.468 660.29 144.46C652.083 144.46 645.617 142.18 640.89 137.62C638.374 135.294 636.457 132.395 635.3 129.17C634.129 125.795 633.551 122.242 633.59 118.67V48.84H606V34.23H633.61V6.39L643 0H650.3V34H679V48.6H650.25V111.13C650.188 114.3 650.379 117.47 650.82 120.61C651.2 122.81 651.77 124.293 652.53 125.06C653.476 126.03 654.658 126.737 655.96 127.11C658.326 127.814 660.793 128.122 663.26 128.02C665.903 127.982 668.523 127.519 671.02 126.65C672.692 126.143 674.332 125.535 675.93 124.83L684.26 121.17V138.3C681.36 139.52 679 140.47 677.07 141.16Z" fill="#FFECDC"/>
<path d="M774.68 142.87V136.93C772.85 137.7 770.95 138.57 768.97 139.56C767.052 140.541 765.055 141.357 763 142C757.059 143.677 750.913 144.522 744.74 144.51C729.367 144.51 716.813 139.49 707.08 129.45C697.193 119.41 692.25 106.63 692.25 91.1101C692.25 73.9235 697.27 59.8501 707.31 48.8901C717.837 37.5968 731.01 31.9668 746.83 32.0001C751.579 32.0337 756.288 32.8827 760.75 34.5101C765.643 36.1323 770.379 38.1941 774.9 40.6701V34.0001H791.33V142.87H774.68ZM774.9 57.5101C773.84 56.7501 772.54 55.8001 771.02 54.6601C769.326 53.4189 767.49 52.3849 765.55 51.5801C760.419 49.428 754.904 48.3393 749.34 48.3801C737.78 48.3801 728.347 52.4135 721.04 60.4801C713.433 68.3935 709.63 78.5102 709.63 90.8302C709.63 102.403 712.963 111.533 719.63 118.22C722.975 121.615 726.976 124.293 731.39 126.09C736.231 127.933 741.381 128.826 746.56 128.72C753.407 128.72 759.113 127.807 763.68 125.98C765.789 125.23 767.784 124.194 769.61 122.9C771.295 121.698 773.048 120.593 774.86 119.59L774.9 57.5101Z" fill="#FFECDC"/>
<path d="M829.61 194.9H812L849.2 119.82L804.5 34H822.76L857.91 102.23L891.23 34H908.8L829.61 194.9Z" fill="#FFECDC"/>
<path d="M945.85 149.32C938.662 149.32 931.635 147.188 925.658 143.194C919.682 139.2 915.024 133.523 912.274 126.882C909.524 120.24 908.806 112.933 910.21 105.883C911.613 98.8329 915.076 92.3578 920.161 87.2763C925.245 82.1949 931.722 78.7354 938.772 77.3355C945.823 75.9356 953.13 76.6581 959.77 79.4116C966.41 82.1652 972.084 86.8261 976.075 92.8048C980.066 98.7835 982.194 105.811 982.19 113C982.174 122.631 978.34 131.863 971.527 138.671C964.715 145.48 955.481 149.309 945.85 149.32ZM945.85 97.0397C942.698 97.0397 939.617 97.974 936.996 99.7247C934.375 101.475 932.332 103.964 931.125 106.875C929.918 109.787 929.601 112.991 930.215 116.082C930.828 119.174 932.344 122.014 934.571 124.244C936.799 126.474 939.637 127.994 942.728 128.611C945.819 129.228 949.023 128.915 951.936 127.712C954.849 126.509 957.34 124.469 959.094 121.85C960.848 119.231 961.786 116.151 961.79 113C961.79 108.767 960.112 104.706 957.125 101.707C954.137 98.7083 950.083 97.0155 945.85 96.9997V97.0397Z" fill="#E65D2B"/>
</g>
<defs>
<clipPath id="clip0_6_34">
<rect width="982.19" height="194.9" fill="white"/>
</clipPath>
</defs>
</svg>
