<svg xmlns="http://www.w3.org/2000/svg" xmlns:xlink="http://www.w3.org/1999/xlink" viewBox="0 0 177 40"><path d="M 165.084 33.122 C 159.444 33.122 155.914 29.12 155.914 23.007 C 155.914 16.894 159.444 12.892 164.974 12.892 C 170.251 12.892 173.817 16.639 173.817 23.152 L 173.817 24.135 L 159.917 24.135 C 160.099 27.919 162.027 29.811 165.12 29.811 C 167.376 29.811 168.904 28.683 169.523 26.864 L 173.525 27.119 C 172.507 30.721 169.341 33.122 165.084 33.122 Z M 159.917 21.224 L 169.741 21.224 C 169.486 17.804 167.594 16.166 164.974 16.166 C 162.209 16.166 160.353 17.949 159.917 21.224 Z" fill="#fff"></path><path d="M 137.091 32.686 L 137.091 13.328 L 140.62 13.328 L 140.693 16.712 C 141.712 14.056 143.932 12.892 146.588 12.892 C 150.918 12.892 153.138 16.021 153.138 20.242 L 153.138 32.686 L 149.281 32.686 L 149.281 21.406 C 149.281 17.986 148.225 16.13 145.533 16.13 C 142.804 16.13 140.948 17.986 140.948 21.406 L 140.948 32.686 Z" fill="#fff"></path><path d="M 128.583 10.56 L 128.583 6.703 L 132.586 6.703 L 132.586 10.56 Z M 128.656 32.719 L 128.656 13.362 L 132.513 13.362 L 132.513 32.719 Z" fill="#fff"></path><path d="M 107.954 38.144 L 107.954 13.328 L 111.593 13.328 L 111.666 16.276 C 112.794 14.056 114.94 12.892 117.524 12.892 C 123.2 12.892 125.82 17.549 125.82 23.007 C 125.82 28.465 123.164 33.122 117.524 33.122 C 115.05 33.122 112.866 31.958 111.811 30.066 L 111.811 38.144 Z M 116.833 29.775 C 119.925 29.775 121.818 27.264 121.818 23.007 C 121.818 18.75 119.925 16.239 116.833 16.239 C 113.74 16.239 111.811 18.532 111.811 23.007 C 111.811 27.483 113.703 29.775 116.833 29.775 Z" fill="#fff"></path><path d="M 93.599 33.147 C 88.613 33.147 85.52 29.253 85.52 23.031 C 85.52 16.846 88.65 12.916 93.599 12.916 C 96.255 12.916 98.474 14.08 99.53 16.082 L 99.53 6.876 L 103.387 6.876 L 103.387 32.71 L 99.784 32.71 L 99.675 29.799 C 98.584 31.91 96.291 33.147 93.599 33.147 Z M 94.617 29.799 C 97.783 29.799 99.53 27.289 99.53 23.031 C 99.53 18.738 97.783 16.264 94.617 16.264 C 91.524 16.264 89.523 18.811 89.523 23.031 C 89.523 27.179 91.524 29.799 94.617 29.799 Z" fill="#fff"></path><path d="M 75.179 33.122 C 69.539 33.122 66.01 29.12 66.01 23.007 C 66.01 16.894 69.539 12.892 75.07 12.892 C 80.346 12.892 83.912 16.639 83.912 23.152 L 83.912 24.135 L 70.012 24.135 C 70.194 27.919 72.123 29.811 75.216 29.811 C 77.472 29.811 79 28.683 79.619 26.864 L 83.621 27.119 C 82.602 30.721 79.437 33.122 75.179 33.122 Z M 70.012 21.224 L 79.837 21.224 C 79.582 17.804 77.69 16.166 75.07 16.166 C 72.305 16.166 70.449 17.949 70.012 21.224 Z" fill="#fff"></path><path d="M 44.437 32.71 L 44.437 6.876 L 54.734 6.876 C 60.229 6.876 63.685 9.896 63.685 14.663 C 63.685 17.683 61.684 19.975 59.282 20.703 C 61.648 21.067 63.03 22.522 63.249 25.178 L 63.94 32.71 L 59.974 32.71 L 59.355 25.688 C 59.21 23.577 58.045 22.631 55.207 22.631 L 48.366 22.631 L 48.366 32.71 Z M 48.366 19.029 L 54.807 19.029 C 57.754 19.029 59.61 17.501 59.61 14.772 C 59.61 12.006 57.791 10.478 54.479 10.478 L 48.366 10.478 Z" fill="#fff"></path><g><defs><linearGradient id="idss9863834379_8g78642098" x1="0.025478623046972126" x2="0.9745213769530279" y1="0" y2="1"><stop offset="0" stop-color="rgba(255,0,0,0.6)" stop-opacity="0.6"></stop><stop offset="1" stop-color="rgb(110,33,123)" stop-opacity="1"></stop></linearGradient></defs><path d="M 18.933 13.064 C 21.998 15.774 26.026 17.418 30.436 17.418 L 30.436 13.064 C 25.608 13.064 21.393 10.437 19.138 6.532 C 18.257 5.007 17.674 3.287 17.472 1.453 C 17.419 0.976 17.392 0.491 17.392 0 L 13.044 0 C 13.044 0.491 13.017 0.976 12.964 1.453 C 12.762 3.287 12.18 5.007 11.298 6.532 C 9.044 10.437 4.828 13.064 0 13.064 L 0 17.418 C 4.411 17.418 8.438 15.774 11.504 13.064 C 12.018 12.609 12.506 12.123 12.964 11.611 C 13.017 12.088 13.044 12.572 13.044 13.064 C 13.044 14.59 12.782 16.056 12.302 17.418 C 10.511 22.492 5.679 26.127 0 26.127 L 0 30.482 C 5.195 30.482 9.857 28.201 13.044 24.584 L 13.044 39.191 L 17.392 39.191 L 17.392 24.584 C 20.579 28.201 25.242 30.482 30.436 30.482 L 30.436 26.127 C 24.757 26.127 19.925 22.492 18.134 17.418 C 17.654 16.056 17.392 14.59 17.392 13.064 C 17.392 12.572 17.419 12.088 17.472 11.611 C 17.93 12.123 18.418 12.609 18.933 13.064 Z" fill="url(#idss9863834379_8g78642098)"></path></g><path d="M 175.081 9.491 L 175.081 4.47 L 176.001 4.47 L 176.001 9.491 Z" fill="#fff"></path><path d="M 169.839 9.491 L 171.65 4.47 L 172.774 4.47 L 174.585 9.491 L 173.623 9.491 L 173.206 8.303 L 171.218 8.303 L 170.801 9.491 Z M 171.487 7.518 L 172.937 7.518 L 172.215 5.396 Z" fill="#fff"></path></svg>