<svg xmlns="http://www.w3.org/2000/svg" width="417" height="276" fill="none" viewBox="0 0 417 276">
  <path fill="#F50" d="M47.649 52.396c-20.982-5.084-26.3-9.292-26.3-19.625 0-9.99 8.822-17.521 24.705-17.521 16.785 0 27.36 9.292 28.42 26.625l17.12-2.625C91.27 15.062 73.592 0 47.827 0 20.824 0 3.347 13.146 3.347 34.375c0 19.458 8.822 28.917 43.064 36.27 20.981 4.74 28.409 9.115 28.409 20.688 0 11.573-10.764 18.042-26.122 18.042-18.348 0-30.518-9.823-31.588-26.302L0 86.042C2.098 110.583 21.527 125 47.649 125 74.652 125 93 111.458 93 90.469c0-21.427-10.585-29.49-45.351-38.073zM130.658 67.75h61.458V52.24h-61.458V16.334h64.639V1H113v122h83v-15.343h-65.342V67.75zM238.656 67.75h61.46V52.24h-61.46V16.334h64.63V1H221v122h83v-15.343h-65.344V67.75zM0 168.355h37.945V275H55.59V168.355H93V153H0v15.355zM178.342 204.411h-47.684V153H113v122h17.658v-55.244h47.684V275H196V153h-17.658v51.411zM253.404 153H221v15.355h32.404v91.28H221V275h83v-15.365h-32.404v-91.28H304V153h-50.596zM342.654 16.333h54.692V123H414V1h-88v122h16.654V16.333zM371.649 203.405c-20.982-5.085-26.3-9.294-26.3-19.629 0-9.991 8.822-17.523 24.705-17.523 16.785 0 27.36 9.293 28.419 26.629l17.121-2.625C415.227 166.065 397.582 151 371.817 151c-26.993 0-44.47 13.138-44.47 34.381 0 19.461 8.822 28.921 43.064 36.277 20.981 4.73 28.409 9.116 28.409 20.691 0 11.574-10.764 18.055-26.122 18.055-18.348 0-30.518-9.825-31.588-26.307l-17.11 2.98C326.098 261.623 345.527 276 371.649 276 398.652 276 417 262.456 417 241.463c0-21.41-10.596-29.474-45.351-38.058z"/>
</svg>
