<svg width="1163" height="153" viewBox="0 0 1163 153" fill="none" xmlns="http://www.w3.org/2000/svg">
<g clip-path="url(#clip0_463_1346)">
<path d="M358.561 148.845V26.6308C358.561 24.6033 356.917 22.9583 354.89 22.9583H313.021V2.22363H427.701V22.971H385.832C383.805 22.971 382.16 24.616 382.16 26.6436V148.858H358.574L358.561 148.845Z" fill="#F5F4EC"/>
<path d="M503.839 130.955C499.568 130.955 496.929 128.71 496.929 122.615V80.7246C496.929 57.1336 479.641 41.6782 452.6 41.6782C426.974 41.6782 410.107 55.7053 407.659 77.6769H429.409C430.429 65.8814 439.774 59.3779 452.587 59.3779C466.408 59.3779 474.746 66.4935 474.746 75.6494C474.746 80.7374 471.698 83.5811 465.592 84.3972L443.025 87.4449C420.051 90.4926 406.83 101.88 406.83 120.192C406.83 138.504 421.874 150.49 443.229 150.49C459.089 150.49 472.31 143.987 477.385 133.403C478.201 144.79 485.927 150.082 496.904 150.082C501.991 150.082 507.269 148.858 507.269 148.858V130.559C507.269 130.559 505.242 130.967 503.814 130.967L503.839 130.955ZM475.37 103.857C475.37 119.618 462.927 132.944 447.169 133.186C436.345 133.352 429.014 127.613 429.014 119.363C429.014 110.411 434.904 105.132 446.71 103.296L471.112 99.317C473.343 98.9471 475.37 100.681 475.37 102.939V103.857Z" fill="#F5F4EC"/>
<path d="M541.322 0.591309H519.164V148.845H541.322V0.591309Z" fill="#F5F4EC"/>
<path d="M656.308 92.3161C656.512 66.0854 639.224 41.6782 606.496 41.6782C573.769 41.6782 555.461 67.5009 555.461 95.976C555.461 124.451 574.164 150.478 607.516 150.478C632.722 150.478 652.05 137.662 655.709 114.683H633.946C631.51 125.458 621.133 131.567 608.128 131.567C592.396 131.567 581.329 122.258 578.091 105.693C577.645 103.41 579.366 101.268 581.686 101.268H655.913C655.913 101.268 656.32 96.384 656.32 92.3161H656.308ZM583.229 83.7724C580.73 83.7724 578.945 81.3112 579.736 78.9521C583.917 66.4297 593.263 59.1739 606.496 59.1739C620.699 59.1739 629.522 67.4881 631.944 79.4494C632.403 81.6938 630.618 83.7851 628.336 83.7851H583.242L583.229 83.7724Z" fill="#F5F4EC"/>
<path d="M670.664 148.846V43.2978H692.822V50.6556C692.822 53.9456 696.774 55.5396 699.107 53.2188C706.464 45.9502 716.434 41.6655 727.793 41.6655C750.155 41.6655 765.811 56.5088 765.811 79.2837V148.833H743.653V84.1677C743.653 70.944 735.315 61.5968 721.89 61.5968C703.799 61.5968 692.822 77.0521 692.822 102.48V148.846H670.664Z" fill="#F5F4EC"/>
<path d="M872.612 14.019C872.612 7.16641 867.058 1.61133 860.207 1.61133C853.356 1.61133 847.802 7.16641 847.802 14.019V14.223C847.802 21.0755 853.356 26.6306 860.207 26.6306C867.058 26.6306 872.612 21.0755 872.612 14.223V14.019Z" fill="#F5F4EC"/>
<path d="M984.079 43.2979V148.846H961.921V141.488C961.921 138.198 957.968 136.604 955.635 138.925C948.279 146.193 938.309 150.478 926.949 150.478C904.587 150.478 888.931 135.635 888.931 112.86V43.3106H911.089V107.976C911.089 121.199 919.427 130.547 932.852 130.547C950.943 130.547 961.933 115.091 961.933 89.6639V43.2979H984.092H984.079Z" fill="#F5F4EC"/>
<path d="M1004.02 148.845V43.2977H1026.18V49.3804C1026.18 52.6959 1030.23 54.3409 1032.5 51.918C1038.44 45.5548 1046.77 41.6782 1057.3 41.6782C1074.38 41.6782 1086.58 48.9978 1091.04 62.6296C1096.74 50.8341 1109.34 41.6782 1125.61 41.6782C1148.17 41.6782 1162.81 56.1134 1162.81 77.6769V148.858H1140.65V82.4334C1140.65 70.7526 1131.4 60.8954 1119.73 60.7934C1103.53 60.6658 1094.5 74.9353 1094.5 95.5679V148.845H1072.34V82.2421C1072.34 70.6506 1063.15 60.8699 1051.56 60.7934C1035.39 60.6914 1026.18 75.1648 1026.18 95.5679V148.845H1004.02Z" fill="#F5F4EC"/>
<path d="M853.819 43.2977H816.081H808.393C806.366 43.2977 804.721 41.6527 804.721 39.6251V11.7749H782.563V116.915C782.563 139.69 796.791 150.465 817.534 150.465C823.233 150.465 828.512 149.445 830.347 148.833V129.514C828.716 129.922 824.253 131.146 819.778 131.146C810.828 131.146 804.734 125.65 804.734 115.078V65.6773C804.734 63.6498 806.379 62.0048 808.406 62.0048H845.353C847.381 62.0048 849.025 63.6498 849.025 65.6773V148.845H871.183V43.2977H853.832H853.819Z" fill="#F5F4EC"/>
</g>
<g clip-path="url(#clip1_463_1346)">
<path fill-rule="evenodd" clip-rule="evenodd" d="M135.112 84.1743C128.508 84.1743 121.964 85.6208 116.005 88.5642C108.756 92.1364 101.969 97.0168 95.9725 103.218C82.8488 116.79 75.8187 134.274 74.8822 152.047C92.0561 151.079 108.975 143.808 122.098 130.236C125.966 126.236 129.299 121.897 132.096 117.306C133.495 115.016 136.718 115.016 138.117 117.306C140.926 121.897 144.247 126.236 148.114 130.236C161.238 143.808 178.144 151.079 195.318 152.047C194.382 134.286 187.352 116.79 174.228 103.218C168.232 97.0168 161.445 92.1238 154.196 88.5642C148.236 85.6334 141.692 84.1743 135.088 84.1743H135.112Z" fill="#F5F4EC"/>
<path fill-rule="evenodd" clip-rule="evenodd" d="M135.113 77.8293C141.717 77.8293 148.261 76.3831 154.22 73.4402C161.469 69.8686 168.256 64.9891 174.253 58.7891C187.376 45.2195 194.406 27.7388 195.343 9.96875C178.169 10.9371 161.251 18.2061 148.127 31.7757C144.259 35.7749 140.926 40.1136 138.129 44.7039C136.73 46.9927 133.507 46.9927 132.108 44.7039C129.299 40.1136 125.978 35.7749 122.111 31.7757C108.987 18.2061 92.0685 10.9371 74.8947 9.96875C75.8312 27.7262 82.8613 45.2195 95.9849 58.7891C101.981 64.9891 108.768 69.8812 116.017 73.4402C121.977 76.3705 128.52 77.8293 135.125 77.8293H135.113Z" fill="#F5F4EC"/>
<path fill-rule="evenodd" clip-rule="evenodd" d="M0.214844 84.1743C1.15138 101.239 8.18148 118.05 21.3051 131.091C34.4288 144.131 51.3351 151.116 68.5211 152.047C67.5846 134.982 60.5545 118.171 47.4308 105.131C34.3072 92.0904 17.3887 85.1049 0.214844 84.1743Z" fill="#F5F4EC"/>
<path fill-rule="evenodd" clip-rule="evenodd" d="M68.509 9.96875C51.3351 10.8993 34.4166 17.8848 21.3051 30.9252C8.19364 43.9655 1.15138 60.7645 0.214844 77.8293C17.3887 76.8987 34.3072 69.9133 47.4187 56.8729C60.5423 43.8446 67.5724 27.0336 68.509 9.96875Z" fill="#F5F4EC"/>
<path fill-rule="evenodd" clip-rule="evenodd" d="M270.01 77.8293C269.074 60.7645 262.044 43.9534 248.92 30.9131C235.808 17.8848 218.89 10.8993 201.716 9.96875C202.653 27.0336 209.683 43.8446 222.806 56.885C235.93 69.9253 252.836 76.9108 270.022 77.8414L270.01 77.8293Z" fill="#F5F4EC"/>
<path fill-rule="evenodd" clip-rule="evenodd" d="M222.806 105.131C209.683 118.171 202.653 134.97 201.716 152.047C218.89 151.116 235.808 144.131 248.932 131.091C262.056 118.05 269.086 101.251 270.022 84.1743C252.848 85.1049 235.93 92.0904 222.806 105.131Z" fill="#F5F4EC"/>
</g>
<defs>
<clipPath id="clip0_463_1346">
<rect width="849.79" height="149.886" fill="white" transform="translate(313.021 0.591309)"/>
</clipPath>
<clipPath id="clip1_463_1346">
<rect width="269.795" height="142.066" fill="white" transform="translate(0.214844 9.96875)"/>
</clipPath>
</defs>
</svg>
