<svg fill="none" viewBox="0 0 149 49" xmlns="http://www.w3.org/2000/svg"><g fill="#ff9000"><path d="m56.5854 5.32403h-5.5854v-2.32403h13.7693v2.32403h-5.5733v14.69077h-2.6106z"/><path d="m69.3348 7.75643c1.0604 0 1.9751.20471 2.7441.61412.769.40942 1.3559.98741 1.7606 1.73395.4048.7386.6072 1.6016.6072 2.589v7.3213h-2.0764l-.17-1.8785c-.3885.6743-.9511 1.1961-1.6877 1.5654-.7286.3612-1.4935.5419-2.2949.5419-.8338 0-1.5785-.1526-2.2342-.4576-.6557-.3051-1.1697-.7466-1.542-1.3246-.3724-.586-.5586-1.2764-.5586-2.0711 0-1.2203.4371-2.1033 1.3114-2.6492.8742-.5459 2.0723-.8188 3.5941-.8188h3.3755c-.0162-.7145-.1133-1.2845-.2914-1.7099-.1781-.4335-.4695-.7546-.8742-.9634-.3967-.2087-.9471-.31304-1.6514-.31304-.688 0-1.2911.16054-1.8092.48164-.5099.3211-.9309.7546-1.2628 1.3005l-1.9184-1.3727c.6152-.84294 1.3194-1.48516 2.1127-1.92668.8014-.44153 1.7566-.66229 2.8656-.66229zm-.6193 10.36777c.6314 0 1.19-.1364 1.6757-.4094.4937-.2729.8904-.6382 1.1899-1.0958.2995-.4575.4938-.9633.5828-1.5172v-.3733h-3.2298c-.8095 0-1.4247.1606-1.8456.4817-.421.3131-.6314.7305-.6314 1.2523 0 .5058.1942.9112.5828 1.2162.3885.297.9471.4455 1.6756.4455z"/><path d="m80.2749 20.2436c-.7933 0-1.4004-.2047-1.8213-.6142-.4128-.4174-.6193-1.1038-.6193-2.0591v-14.5703h2.5013v13.896c0 .3613.085.6382.255.8309.17.1846.4493.2769.8378.2769.2024 0 .4938-.0281.8743-.0843l.0121 2.0953c-.7528.1525-1.4328.2288-2.0399.2288z"/><path d="m89.7216 20.2436c-1.2871 0-2.3799-.277-3.2784-.8309-.8985-.5619-1.5745-1.3125-2.0278-2.2518-.4533-.9392-.6799-1.9748-.6799-3.1067 0-1.1159.2145-2.1514.6435-3.1067.4371-.96337 1.0888-1.73404 1.9549-2.31203.8743-.58603 1.9347-.87904 3.1813-.87904 1.3032 0 2.3637.29703 3.1812.89108.8257.58602 1.4166 1.32859 1.7728 2.22769.3643.8991.5464 1.8263.5464 2.7816 0 .2248-.0121.4456-.0364.6623-.0162.2168-.0364.3693-.0607.4576h-8.536c.1133 1.0115.4452 1.7982.9956 2.3601.5586.562 1.3438.8429 2.3556.8429.6233 0 1.1859-.1043 1.6878-.313.51-.2088.9916-.558 1.4449-1.0477l1.7242 1.5052c-.6718.7225-1.4044 1.2564-2.1977 1.6016-.7852.3452-1.6756.5178-2.6713.5178zm2.817-7.2732c.0162-.2649-.0081-.5177-.0729-.7586-.1295-.7064-.4533-1.2764-.9713-1.7099-.5181-.4335-1.1859-.65023-2.0035-.65023-.9066 0-1.619.28093-2.137.84293-.51.5619-.8338 1.3205-.9714 2.2758z"/><path d="m97.7962 7.98522h2.5008v1.61358c.43-.61011.968-1.06769 1.615-1.37275.648-.31308 1.324-.46962 2.028-.46962.972 0 1.781.22478 2.429.67433.655.44955 1.137 1.04361 1.445 1.78214.307.7386.465 1.5534.473 2.4445v7.3574h-2.501v-6.9841c0-.9072-.223-1.6297-.668-2.1675-.437-.5379-1.065-.8068-1.882-.8068-.923 0-1.643.2689-2.161.8068-.518.5378-.778 1.3366-.778 2.3962v6.7554h-2.5008z"/><path d="m115.84 20.2436c-1.142 0-2.032-.3171-2.672-.9513-.631-.6342-.947-1.5092-.947-2.6251v-6.5867h-1.991v-2.09528h2.028v-3.1549l2.464-1.78215v4.93705h3.157v2.09528h-3.157v6.1653c0 .6422.134 1.1038.401 1.3847.267.273.652.4095 1.154.4095.485 0 1.016-.1285 1.59-.3854l.012 2.2518c-.242.0883-.55.1646-.922.2288-.373.0722-.745.1084-1.117.1084z"/><path d="m127.229 20.2436c-2.161 0-3.772-.5941-4.833-1.7822-1.052-1.1881-1.578-2.8538-1.578-4.9973v-10.4641h2.61v10.1752c0 1.0114.118 1.8503.353 2.5166.242.6663.643 1.1761 1.202 1.5293.558.3452 1.307.5178 2.246.5178.947 0 1.7-.1726 2.258-.5178.559-.3532.96-.863 1.203-1.5293.242-.6743.364-1.5212.364-2.5407v-10.1511h2.61v10.3437c0 2.1916-.534 3.8895-1.602 5.0936-1.061 1.2042-2.672 1.8063-4.833 1.8063z"/><path d="m137.477 7.98522h2.586v1.68583c.397-.61814.927-1.09178 1.591-1.42091.672-.32914 1.392-.49371 2.161-.49371 1.069 0 1.996.28097 2.781.84291s1.38 1.32057 1.785 2.27586c.413.9473.619 1.9909.619 3.1308 0 1.14-.206 2.1876-.619 3.1429-.405.9473-1.004 1.7019-1.797 2.2638-.786.5539-1.72.8309-2.805.8309-.769 0-1.482-.1606-2.137-.4817-.656-.3291-1.182-.8068-1.579-1.4329v6.671h-2.586zm5.719 9.99448c.712 0 1.311-.1725 1.797-.5177.494-.3452.862-.8189 1.105-1.4209.243-.6021.364-1.2805.364-2.0351 0-.7626-.121-1.441-.364-2.035-.243-.5941-.611-1.0597-1.105-1.3968-.486-.3452-1.085-.5178-1.797-.5178s-1.323.1726-1.833.5178c-.502.3371-.883.8027-1.142 1.3968-.259.594-.388 1.2724-.388 2.035 0 .7546.129 1.433.388 2.0351.259.602.64 1.0757 1.142 1.4209.51.3452 1.121.5177 1.833.5177z"/></g><g fill="#fff"><path d="m56.7356 24.2226h2.0133l6.7112 16.5548h-2.8309l-1.4033-3.7257h-6.9308l-1.4276 3.7257h-2.8675zm3.6606 10.6616-2.6357-6.9945-2.6478 6.9945z"/><path d="m68.2665 31.1116h-2.3306v-2.0385h2.3428v-1.652c0-.7108.1668-1.3239.5003-1.8394.3336-.5233.785-.9178 1.3545-1.1834.5775-.2655 1.212-.3983 1.9035-.3983.6914 0 1.3829.1562 2.0743.4686l-.8297 1.9918c-.3661-.2031-.7037-.3046-1.0128-.3046-.4311 0-.7728.1249-1.0249.3749-.2522.2499-.3783.6287-.3783 1.1364v1.406h3.0871v2.0385h-3.0871v9.6658h-2.5991z"/><path d="m75.9905 29.0731h2.4526v2.1323c.179-.4999.4474-.9256.8053-1.2771.358-.3593.7647-.6287 1.2202-.8084.4637-.1796.9355-.2695 1.4155-.2695.3986 0 .7809.0625 1.147.1875.3742.125.6955.3124.9639.5624l-1.147 1.9917c-.423-.2577-.8704-.3866-1.3422-.3866-.5206 0-1.0168.1523-1.4886.4569-.4719.3046-.8583.7811-1.1592 1.4294-.2929.6404-.4393 1.441-.4393 2.4018v5.2839h-2.4282z"/><path d="m85.862 24.2226h2.6356v2.5541h-2.6356zm.061 4.8505h2.5136v11.7043h-2.5136z"/><path d="m96.9781 41c-1.2202 0-2.2655-.2773-3.136-.8318-.8704-.5546-1.5252-1.2927-1.9645-2.2144-.4393-.9216-.6589-1.9253-.6589-3.011 0-1.0623.2156-2.0581.6467-2.9876s1.0778-1.6793 1.9401-2.2495c.8704-.5702 1.9198-.8553 3.1482-.8553 1.1958 0 2.2411.2851 3.1363.8553.894.5702 1.566 1.4099 2.013 2.519l-2.3917.8904c-.2115-.6249-.5613-1.1247-1.0493-1.4997-.4881-.3749-1.0576-.5623-1.7083-.5623-.7159 0-1.3138.1835-1.7937.5506-.4719.3593-.8216.8358-1.0494 1.4294-.2197.5858-.3295 1.2224-.3295 1.9097 0 .6952.1098 1.3356.3295 1.9214.2278.5858.5775 1.0545 1.0494 1.406.4799.3514 1.0778.5272 1.7937.5272.6589 0 1.2283-.1836 1.7083-.5507.488-.3671.8297-.8592 1.0249-1.4762l2.2941.8318c-.399 1.0701-1.037 1.9059-1.916 2.5073-.8783.5936-1.9074.8904-3.0869.8904z"/><path d="m108.863 28.8504c1.066 0 1.985.1992 2.758.5976.772.3983 1.362.9607 1.769 1.6871.407.7186.61 1.5582.61 2.5189v7.1234h-2.087l-.17-1.8277c-.391.6561-.956 1.1638-1.696 1.5231-.733.3515-1.501.5272-2.307.5272-.838 0-1.586-.1484-2.245-.4452s-1.175-.7264-1.55-1.2888c-.374-.5702-.561-1.2419-.561-2.0151 0-1.1873.439-2.0464 1.318-2.5776.879-.5311 2.082-.7967 3.612-.7967h3.392c-.016-.6951-.114-1.2497-.293-1.6636-.179-.4218-.472-.7342-.878-.9373-.399-.2031-.952-.3046-1.66-.3046-.691 0-1.297.1562-1.818.4686-.512.3124-.935.7342-1.269 1.2653l-1.928-1.3356c.618-.8201 1.326-1.445 2.123-1.8746.806-.4296 1.765-.6444 2.88-.6444zm-.622 10.0876c.634 0 1.195-.1328 1.683-.3984.497-.2655.895-.6209 1.196-1.0661s.497-.9373.586-1.4763v-.3632h-3.246c-.813 0-1.431.1563-1.854.4687-.423.3046-.635.7108-.635 1.2185 0 .492.195.8865.586 1.1833.39.289.951.4335 1.684.4335z"/></g><path d="m17.7669 34.6773c-.4596 0-.9191 0-1.3787 0-.2121 0-.3181-.076-.3888-6.6742-.4596-1.1795-1.0959-2.2069-2.015-3.044s-2.0149-1.3317-3.2168-1.4839c-.4243-.0761-.84845-.0761-1.27265-.0761-.38885 0-.7777.0761-1.16655.0761-1.0605.0381-2.08566-.1522-3.07546-.6088-2.0503-.9132-3.42895-2.5873-4.348047-4.7562-.4242-.9893-.671652-2.0546-.8130517-3.1581-.1060501-.9512-.106049-1.9405-.070699-2.9298.1413997-2.28294.8837467-4.33761 2.0502977-6.24009 1.16655-1.86442 2.65125-3.34835 4.52481-4.37568 1.02515-.570746 2.15635-.989289 3.28755-1.217586.9545-.19024739 1.9443-.2282968 2.8987-.1521979 1.9796.1521979 3.8885.6468409 5.6914 1.5219739.2828.11415.5302.3044.7777.49465.0707.03805.106.15219.1414.22829-.0707.03805-.1768.1522-.2475.1522-.1414 0-.2828-.03805-.4242-.0761-.3535-.1522-.707-.34244-1.0605-.45659-.6363-.26635-1.3433-.3805-2.0149-.45659-1.3787-.2283-2.7927-.2283-4.2067-.19025-1.4847.0761-2.86335.49464-4.13595 1.40783-1.52006 1.06538-2.50985 2.54931-3.21685 4.29959-.4949 1.21758-.81306 2.47321-.98981 3.76685-.31815 2.2069.10605 4.2235 1.41401 6.0119.88375 1.2175 2.0503 1.9785 3.42895 2.4351.67165.2283 1.37865.3805 2.12095.4186.7071.038 1.4141.0761 2.1211.1902 1.2726.2283 2.4038.799 3.4289 1.6361 1.5554 1.2176 2.6159 2.8537 3.2876 4.7562.2121.6088.3535 7.6255.5302 8.2724.0707.2283.0354.2663-.1767.2663-.5303-.038-1.0252-.0381-1.4847-.0381z" fill="#ff9000"/><path d="m21.3772 48.7452c.039-.0388.1169-.0777.1559-.0777 1.5589-.7772 3.0399-1.671 4.365-2.798 1.0133-.855 1.9486-1.8265 2.7671-2.8758.9743-1.2436 1.7927-2.6037 2.4942-4.0416.5846-1.2048 1.0523-2.4483 1.3641-3.7308.2338-1.0104.4677-1.9819.7015-2.9923.1559-.6995.1949-1.4379.3508-2.1374.1559-.9327.3507-1.9043.5456-2.8369.1949-.9327.4287-1.8654.7015-2.7592.4287-1.4768 1.0523-2.9147 1.7928-4.2748.1948-.3886.3897-.7773.3117-1.2436-.0779-.7384-.1948-1.0104-.8574-1.2436-.1559-.0388-.2728-.0777-.4287-.1554-1.0133-.3498-1.8707-.8939-2.6891-1.5156-.8964-.6996-1.6758-1.4768-2.4553-2.2929-1.403-1.5156-2.6891-3.0701-3.7414-4.85771-.3897-.69952-.8184-1.39903-1.1302-2.09854-.2728-.62179-.7405-.85496-1.3641-.89382-.5846-.03887-1.1302-.03887-1.7148-.03887-1.0133 0-1.9876.07773-3.0009.07773-.5846 0-1.2082-.11659-1.7928-.23317-.4287-.07773-.8184-.19431-1.2081-.3109-.1559-.03886-.3508-.15545-.4677-.27203-.2339-.19431-.1949-.46634.0779-.58293.2339-.11658.5067-.19431.7405-.19431.7405-.03886 1.481-.03886 2.2215-.03886 1.2471.03886 2.4553-.23317 3.6245-.66065.5846-.19431 1.1302-.46634 1.7148-.69951.8184-.34976 1.5589-.19431 2.1825.46634.5456.54407.9743 1.20472 1.3251 1.86537.6625 1.20471 1.2471 2.40943 1.9096 3.61415.5067.97154 1.0523 1.94311 1.7148 2.79801.3898.5052.8964.8939 1.4031 1.2436.7015.5441 1.442 1.0493 2.2214 1.399.9744.4664 1.9877.6607 3.0399.5052.7015-.0777 1.3641-.2331 2.0656-.3497.3897-.0777.8184-.1166 1.2471-.1166.3508 0 .5846.1554.7015.5052.078.272.1949.5052.1949.7772 0 .2721-.0779.5441-.1559.8161-.3118.9327-.8574 1.6711-1.5979 2.3317-1.1302 1.0493-2.0655 2.254-2.6891 3.6531-.2728.6606-.5846 1.3213-.8184 2.0208-.4287 1.2824-.8575 2.5648-1.2082 3.8473-.4677 1.671-.8964 3.3421-1.3641 4.9743-.3118 1.1659-.6625 2.3706-1.0133 3.5364-.3897 1.2825-.9743 2.4483-1.6758 3.6142-.7015 1.1658-1.481 2.254-2.4163 3.2255-.9354 1.0104-1.9877 1.9431-3.1568 2.7592-.9354.6606-1.9097 1.2436-2.962 1.7099-.5066.2332-1.0523.4275-1.5979.5829-.1169.0389-.2338.0389-.3507.0389-.078 0-.078-.0389-.078-.0389z" fill="#fff"/><g fill="#ff9000"><path d="m26.5386 45.14c.8645-.1047 1.729-.2792 2.5935-.5235 1.4283-.4187 2.7814-1.0468 3.9842-1.8494.9021-.5933 1.7291-1.3261 2.4808-2.0938.7142-.7677 1.3155-1.6401 1.8418-2.5474.4134-.7328.7517-1.5005.9772-2.3031.1504-.5234.2256-1.0469.3007-1.5703.0376-.2443.0752-.4886.1128-.6979.0376-.1745-.0376-.2094-.2255-.2094-.639.0349-1.278.0698-1.8794.0698-.3007 0-.5638 0-.9021 0 1.6163-1.9542 3.1949-3.9083 4.8112-5.8625.3007.2443.5638.4885.8269.7328.4135.3839.7893.7677 1.1652 1.1516.7142.7328 1.4283 1.4656 2.1801 2.1984.3382.349.7141.6979 1.0524 1.012.0376.0349.1128.0698.1128.1396.0751.1395 0 .2791-.188.2791-.7141.0349-1.3907.0698-2.1049.0698-.1879 0-.2255.1047-.2631.2443-.1503.6979-.3007 1.3958-.5638 2.0937-.2631.698-.6014 1.3959-.9772 2.0589-.4135.7328-.9397 1.4656-1.5035 2.1286-1.1652 1.361-2.556 2.4776-4.1722 3.35-1.1276.6282-2.3304 1.1516-3.6084 1.5006-.9397.2442-1.8793.4536-2.819.5932-.8269.1047-1.6914.1047-2.556.1396-.1503-.0349-.4134-.0698-.6765-.1047z"/><path d="m25.4102 44.7359c-6.9301-2.3497-5.7751-10.5735-6.3526-15.8602h-2.8876c-1.1545 12.7054 6.1602 17.035 9.2402 15.8602z"/></g></svg>