<?xml version="1.0" encoding="UTF-8" standalone="no"?>
<!-- Created with Inkscape (http://www.inkscape.org/) -->

<svg
   version="1.1"
   id="svg2"
   width="800"
   height="379.70667"
   viewBox="0 0 800 379.70667"
   sodipodi:docname="TS_Logo_Wordmark_White_CMYK.eps"
   xmlns:inkscape="http://www.inkscape.org/namespaces/inkscape"
   xmlns:sodipodi="http://sodipodi.sourceforge.net/DTD/sodipodi-0.dtd"
   xmlns="http://www.w3.org/2000/svg"
   xmlns:svg="http://www.w3.org/2000/svg">
  <defs
     id="defs6" />
  <sodipodi:namedview
     id="namedview4"
     pagecolor="#ffffff"
     bordercolor="#000000"
     borderopacity="0.25"
     inkscape:showpageshadow="2"
     inkscape:pageopacity="0.0"
     inkscape:pagecheckerboard="0"
     inkscape:deskcolor="#d1d1d1" />
  <g
     id="g8"
     inkscape:groupmode="layer"
     inkscape:label="ink_ext_XXXXXX"
     transform="matrix(1.3333333,0,0,-1.3333333,0,379.70667)">
    <g
       id="g10"
       transform="scale(0.1)">
      <path
         d="m 4971.76,1305.47 v -257.06 h 364.65 V 20.1719 h 298.96 V 1048.41 H 6000 v 257.06 H 4971.76"
         style="fill:#ffffff;fill-opacity:1;fill-rule:nonzero;stroke:none"
         id="path12" />
      <path
         d="m 4473.75,20.1719 h 298.96 V 1305.46 H 4473.75 V 20.1719"
         style="fill:#ffffff;fill-opacity:1;fill-rule:nonzero;stroke:none"
         id="path14" />
      <path
         d="m 3178.86,431.461 c 0,-227.152 184.14,-411.2891 411.29,-411.2891 h 64.26 115.69 436.98 V 1305.46 h -295.6 V 842.762 H 3749.36 L 3482.2,1305.46 H 3140.29 L 3431.62,811.07 C 3283.17,749.012 3178.86,602.422 3178.86,431.461 M 3911.48,277.219 H 3770.1 3654.41 3628.7 c -85.18,0 -154.22,69.062 -154.22,154.242 0,85.18 69.04,154.238 154.22,154.238 h 25.71 89.98 167.09 v -308.48"
         style="fill:#ffffff;fill-opacity:1;fill-rule:nonzero;stroke:none"
         id="path16" />
      <path
         d="m 2608.88,20.1719 h 298.96 V 1305.46 H 2608.88 V 20.1719"
         style="fill:#ffffff;fill-opacity:1;fill-rule:nonzero;stroke:none"
         id="path18" />
      <path
         d="m 1912.96,739.941 h -295.62 v 308.469 h 295.62 c 85.18,0 154.23,-69.058 154.23,-154.238 0,-85.184 -69.05,-154.231 -154.23,-154.231 z m 38.56,565.529 h -629.8 V 20.1719 h 295.62 V 482.879 h 167.09 102.82 25.71 38.56 c 227.15,0 411.29,184.141 411.29,411.293 0,227.158 -184.14,411.298 -411.29,411.298"
         style="fill:#ffffff;fill-opacity:1;fill-rule:nonzero;stroke:none"
         id="path20" />
      <path
         d="m 617.805,802.25 c -164.746,35.82 -252.492,53.719 -252.492,143.262 0,82.358 78.789,132.518 191.593,132.518 136.094,0 241.766,-64.48 320.555,-164.749 l 180.849,196.969 c -94.892,119.98 -270.396,214.89 -492.447,214.89 -273.976,0 -492.4528,-157.58 -492.4528,-410.07 0,-257.871 207.7348,-320.558 397.5388,-361.738 195.203,-42.973 304.434,-57.293 304.434,-159.371 0,-96.699 -87.746,-146.832 -211.309,-146.832 -137.883,0 -279.355,68.043 -379.629,196.973 L 0,238.172 C 105.652,91.3203 338.449,0 551.543,0 c 284.734,0 519.317,155.789 519.317,424.398 0,282.934 -250.704,334.864 -453.055,377.852"
         style="fill:#ffffff;fill-opacity:1;fill-rule:nonzero;stroke:none"
         id="path22" />
      <path
         d="m 6000,2847.82 v -257.06 h -610.51 v -244.2 h 478.76 V 2089.5 H 5389.49 V 1819.59 H 6000 V 1562.53 H 5093.87 V 2847.82 H 6000"
         style="fill:#ffffff;fill-opacity:1;fill-rule:nonzero;stroke:none"
         id="path24" />
      <path
         d="m 4817.66,2847.82 v -257.06 h -610.51 v -244.2 h 478.77 V 2089.5 h -478.77 v -269.91 h 610.51 v -257.06 h -906.13 v 1285.29 h 906.13"
         style="fill:#ffffff;fill-opacity:1;fill-rule:nonzero;stroke:none"
         id="path26" />
      <path
         d="m 2904.51,2025.23 h 162.12 l 267.14,-462.71 h 341.91 l -291.32,494.39 c 148.44,62.06 252.76,208.64 252.76,379.61 0,227.16 -184.14,411.29 -411.28,411.29 H 3161.57 3045.9 2608.89 V 1562.52 h 295.62 z m 0,565.53 h 282.77 c 85.17,0 154.23,-69.06 154.23,-154.24 0,-85.18 -69.06,-154.22 -154.23,-154.22 h -25.71 -89.97 -167.09 v 308.46"
         style="fill:#ffffff;fill-opacity:1;fill-rule:nonzero;stroke:none"
         id="path28" />
      <path
         d="M 2051,2847.8 V 2346.56 H 1620.66 V 2847.8 H 1321.72 V 1562.52 h 298.94 v 526.99 H 2051 v -526.99 h 298.95 V 2847.8 H 2051"
         style="fill:#ffffff;fill-opacity:1;fill-rule:nonzero;stroke:none"
         id="path30" />
      <path
         d="M 1074.07,2847.82 H 39.418 V 2590.76 H 407.273 V 1562.53 h 298.946 v 1028.23 h 367.851 v 257.06"
         style="fill:#ffffff;fill-opacity:1;fill-rule:nonzero;stroke:none"
         id="path32" />
    </g>
  </g>
</svg>
