<svg xmlns="http://www.w3.org/2000/svg" width="301" height="71" viewBox="0 0 301 71" fill="none"><g clip-path="url(#clip0_205_2)"><path d="M123.7 20.45L119.125 38H113.95L111.15 26.45L108.25 38H103.075L98.625 20.45H103.2L105.725 33.225L108.85 20.45H113.55L116.55 33.225L119.1 20.45H123.7ZM127.994 22.6C127.244 22.6 126.627 22.3833 126.144 21.95C125.677 21.5 125.444 20.95 125.444 20.3C125.444 19.6333 125.677 19.0833 126.144 18.65C126.627 18.2 127.244 17.975 127.994 17.975C128.727 17.975 129.327 18.2 129.794 18.65C130.277 19.0833 130.519 19.6333 130.519 20.3C130.519 20.95 130.277 21.5 129.794 21.95C129.327 22.3833 128.727 22.6 127.994 22.6ZM130.119 24.05V38H125.844V24.05H130.119ZM137.492 19.5V38H133.217V19.5H137.492ZM139.74 31C139.74 29.5667 140.007 28.3083 140.54 27.225C141.09 26.1417 141.832 25.3083 142.765 24.725C143.698 24.1417 144.74 23.85 145.89 23.85C146.807 23.85 147.64 24.0417 148.39 24.425C149.157 24.8083 149.757 25.325 150.19 25.975V19.5H154.465V38H150.19V36C149.79 36.6667 149.215 37.2 148.465 37.6C147.732 38 146.873 38.2 145.89 38.2C144.74 38.2 143.698 37.9083 142.765 37.325C141.832 36.725 141.09 35.8833 140.54 34.8C140.007 33.7 139.74 32.4333 139.74 31ZM150.19 31.025C150.19 29.9583 149.89 29.1167 149.29 28.5C148.707 27.8833 147.99 27.575 147.14 27.575C146.29 27.575 145.565 27.8833 144.965 28.5C144.382 29.1 144.09 29.9333 144.09 31C144.09 32.0667 144.382 32.9167 144.965 33.55C145.565 34.1667 146.29 34.475 147.14 34.475C147.99 34.475 148.707 34.1667 149.29 33.55C149.89 32.9333 150.19 32.0917 150.19 31.025ZM167.131 20.45V38H162.856V20.45H167.131ZM188.029 23.9C189.762 23.9 191.137 24.425 192.154 25.475C193.187 26.525 193.704 27.9833 193.704 29.85V38H189.454V30.425C189.454 29.525 189.212 28.8333 188.729 28.35C188.262 27.85 187.612 27.6 186.779 27.6C185.945 27.6 185.287 27.85 184.804 28.35C184.337 28.8333 184.104 29.525 184.104 30.425V38H179.854V30.425C179.854 29.525 179.612 28.8333 179.129 28.35C178.662 27.85 178.012 27.6 177.179 27.6C176.345 27.6 175.687 27.85 175.204 28.35C174.737 28.8333 174.504 29.525 174.504 30.425V38H170.229V24.05H174.504V25.8C174.937 25.2167 175.504 24.7583 176.204 24.425C176.904 24.075 177.695 23.9 178.579 23.9C179.629 23.9 180.562 24.125 181.379 24.575C182.212 25.025 182.862 25.6667 183.329 26.5C183.812 25.7333 184.47 25.1083 185.304 24.625C186.137 24.1417 187.045 23.9 188.029 23.9ZM214.494 23.9C216.227 23.9 217.602 24.425 218.619 25.475C219.652 26.525 220.169 27.9833 220.169 29.85V38H215.919V30.425C215.919 29.525 215.677 28.8333 215.194 28.35C214.727 27.85 214.077 27.6 213.244 27.6C212.41 27.6 211.752 27.85 211.269 28.35C210.802 28.8333 210.569 29.525 210.569 30.425V38H206.319V30.425C206.319 29.525 206.077 28.8333 205.594 28.35C205.127 27.85 204.477 27.6 203.644 27.6C202.81 27.6 202.152 27.85 201.669 28.35C201.202 28.8333 200.969 29.525 200.969 30.425V38H196.694V24.05H200.969V25.8C201.402 25.2167 201.969 24.7583 202.669 24.425C203.369 24.075 204.16 23.9 205.044 23.9C206.094 23.9 207.027 24.125 207.844 24.575C208.677 25.025 209.327 25.6667 209.794 26.5C210.277 25.7333 210.935 25.1083 211.769 24.625C212.602 24.1417 213.51 23.9 214.494 23.9ZM236.308 30.8C236.308 31.2 236.283 31.6167 236.233 32.05H226.558C226.625 32.9167 226.9 33.5833 227.383 34.05C227.883 34.5 228.492 34.725 229.208 34.725C230.275 34.725 231.017 34.275 231.433 33.375H235.983C235.75 34.2917 235.325 35.1167 234.708 35.85C234.108 36.5833 233.35 37.1583 232.433 37.575C231.517 37.9917 230.492 38.2 229.358 38.2C227.992 38.2 226.775 37.9083 225.708 37.325C224.642 36.7417 223.808 35.9083 223.208 34.825C222.608 33.7417 222.308 32.475 222.308 31.025C222.308 29.575 222.6 28.3083 223.183 27.225C223.783 26.1417 224.617 25.3083 225.683 24.725C226.75 24.1417 227.975 23.85 229.358 23.85C230.708 23.85 231.908 24.1333 232.958 24.7C234.008 25.2667 234.825 26.075 235.408 27.125C236.008 28.175 236.308 29.4 236.308 30.8ZM231.933 29.675C231.933 28.9417 231.683 28.3583 231.183 27.925C230.683 27.4917 230.058 27.275 229.308 27.275C228.592 27.275 227.983 27.4833 227.483 27.9C227 28.3167 226.7 28.9083 226.583 29.675H231.933ZM242.839 26.375C243.339 25.6083 243.964 25.0083 244.714 24.575C245.464 24.125 246.297 23.9 247.214 23.9V28.425H246.039C244.972 28.425 244.172 28.6583 243.639 29.125C243.105 29.575 242.839 30.375 242.839 31.525V38H238.564V24.05H242.839V26.375ZM254.932 38.2C253.715 38.2 252.632 37.9917 251.682 37.575C250.732 37.1583 249.982 36.5917 249.432 35.875C248.882 35.1417 248.574 34.325 248.507 33.425H252.732C252.782 33.9083 253.007 34.3 253.407 34.6C253.807 34.9 254.299 35.05 254.882 35.05C255.415 35.05 255.824 34.95 256.107 34.75C256.407 34.5333 256.557 34.2583 256.557 33.925C256.557 33.525 256.349 33.2333 255.932 33.05C255.515 32.85 254.84 32.6333 253.907 32.4C252.907 32.1667 252.074 31.925 251.407 31.675C250.74 31.4083 250.165 31 249.682 30.45C249.199 29.8833 248.957 29.125 248.957 28.175C248.957 27.375 249.174 26.65 249.607 26C250.057 25.3333 250.707 24.8083 251.557 24.425C252.424 24.0417 253.449 23.85 254.632 23.85C256.382 23.85 257.757 24.2833 258.757 25.15C259.774 26.0167 260.357 27.1667 260.507 28.6H256.557C256.49 28.1167 256.274 27.7333 255.907 27.45C255.557 27.1667 255.09 27.025 254.507 27.025C254.007 27.025 253.624 27.125 253.357 27.325C253.09 27.5083 252.957 27.7667 252.957 28.1C252.957 28.5 253.165 28.8 253.582 29C254.015 29.2 254.682 29.4 255.582 29.6C256.615 29.8667 257.457 30.1333 258.107 30.4C258.757 30.65 259.324 31.0667 259.807 31.65C260.307 32.2167 260.565 32.9833 260.582 33.95C260.582 34.7667 260.349 35.5 259.882 36.15C259.432 36.7833 258.774 37.2833 257.907 37.65C257.057 38.0167 256.065 38.2 254.932 38.2ZM265.347 22.6C264.597 22.6 263.981 22.3833 263.497 21.95C263.031 21.5 262.797 20.95 262.797 20.3C262.797 19.6333 263.031 19.0833 263.497 18.65C263.981 18.2 264.597 17.975 265.347 17.975C266.081 17.975 266.681 18.2 267.147 18.65C267.631 19.0833 267.872 19.6333 267.872 20.3C267.872 20.95 267.631 21.5 267.147 21.95C266.681 22.3833 266.081 22.6 265.347 22.6ZM267.472 24.05V38H263.197V24.05H267.472ZM276.921 38.2C275.554 38.2 274.321 37.9083 273.221 37.325C272.137 36.7417 271.279 35.9083 270.646 34.825C270.029 33.7417 269.721 32.475 269.721 31.025C269.721 29.5917 270.037 28.3333 270.671 27.25C271.304 26.15 272.171 25.3083 273.271 24.725C274.371 24.1417 275.604 23.85 276.971 23.85C278.337 23.85 279.571 24.1417 280.671 24.725C281.771 25.3083 282.637 26.15 283.271 27.25C283.904 28.3333 284.221 29.5917 284.221 31.025C284.221 32.4583 283.896 33.725 283.246 34.825C282.612 35.9083 281.737 36.7417 280.621 37.325C279.521 37.9083 278.287 38.2 276.921 38.2ZM276.921 34.5C277.737 34.5 278.429 34.2 278.996 33.6C279.579 33 279.871 32.1417 279.871 31.025C279.871 29.9083 279.587 29.05 279.021 28.45C278.471 27.85 277.787 27.55 276.971 27.55C276.137 27.55 275.446 27.85 274.896 28.45C274.346 29.0333 274.071 29.8917 274.071 31.025C274.071 32.1417 274.337 33 274.871 33.6C275.421 34.2 276.104 34.5 276.921 34.5ZM294.988 23.9C296.622 23.9 297.922 24.4333 298.888 25.5C299.872 26.55 300.363 28 300.363 29.85V38H296.113V30.425C296.113 29.4917 295.872 28.7667 295.388 28.25C294.905 27.7333 294.255 27.475 293.438 27.475C292.622 27.475 291.972 27.7333 291.488 28.25C291.005 28.7667 290.763 29.4917 290.763 30.425V38H286.488V24.05H290.763V25.9C291.197 25.2833 291.78 24.8 292.513 24.45C293.247 24.0833 294.072 23.9 294.988 23.9Z" fill="#BFCFB5"></path><path d="M101.192 46.163V50.59H106.018V52.015H101.192V56.575H106.588V58H99.463V44.738H106.588V46.163H101.192ZM114.638 58L112.168 54.124L109.793 58H107.988L111.351 52.832L107.988 47.588H109.945L112.415 51.445L114.771 47.588H116.576L113.232 52.737L116.595 58H114.638ZM120.025 49.507C120.367 48.9117 120.874 48.4177 121.545 48.025C122.229 47.6197 123.021 47.417 123.92 47.417C124.845 47.417 125.681 47.6387 126.428 48.082C127.188 48.5253 127.783 49.1523 128.214 49.963C128.645 50.761 128.86 51.692 128.86 52.756C128.86 53.8073 128.645 54.7447 128.214 55.568C127.783 56.3913 127.188 57.031 126.428 57.487C125.681 57.943 124.845 58.171 123.92 58.171C123.033 58.171 122.248 57.9747 121.564 57.582C120.893 57.1767 120.38 56.6763 120.025 56.081V62.94H118.296V47.588H120.025V49.507ZM127.093 52.756C127.093 51.9707 126.935 51.2867 126.618 50.704C126.301 50.1213 125.871 49.678 125.326 49.374C124.794 49.07 124.205 48.918 123.559 48.918C122.926 48.918 122.337 49.0763 121.792 49.393C121.26 49.697 120.829 50.1467 120.5 50.742C120.183 51.3247 120.025 52.0023 120.025 52.775C120.025 53.5603 120.183 54.2507 120.5 54.846C120.829 55.4287 121.26 55.8783 121.792 56.195C122.337 56.499 122.926 56.651 123.559 56.651C124.205 56.651 124.794 56.499 125.326 56.195C125.871 55.8783 126.301 55.4287 126.618 54.846C126.935 54.2507 127.093 53.554 127.093 52.756ZM140.636 52.395C140.636 52.7243 140.617 53.0727 140.579 53.44H132.257C132.32 54.466 132.669 55.2703 133.302 55.853C133.948 56.423 134.727 56.708 135.639 56.708C136.386 56.708 137.007 56.537 137.501 56.195C138.008 55.8403 138.362 55.3717 138.565 54.789H140.427C140.148 55.7897 139.591 56.6067 138.755 57.24C137.919 57.8607 136.88 58.171 135.639 58.171C134.651 58.171 133.764 57.9493 132.979 57.506C132.206 57.0627 131.598 56.4357 131.155 55.625C130.712 54.8017 130.49 53.8517 130.49 52.775C130.49 51.6983 130.705 50.7547 131.136 49.944C131.567 49.1333 132.168 48.5127 132.941 48.082C133.726 47.6387 134.626 47.417 135.639 47.417C136.627 47.417 137.501 47.6323 138.261 48.063C139.021 48.4937 139.604 49.089 140.009 49.849C140.427 50.5963 140.636 51.445 140.636 52.395ZM138.85 52.034C138.85 51.3753 138.704 50.8117 138.413 50.343C138.122 49.8617 137.723 49.5007 137.216 49.26C136.722 49.0067 136.171 48.88 135.563 48.88C134.689 48.88 133.942 49.1587 133.321 49.716C132.713 50.2733 132.365 51.046 132.276 52.034H138.85ZM144.647 49.279C144.951 48.6837 145.382 48.2213 145.939 47.892C146.509 47.5627 147.199 47.398 148.01 47.398V49.184H147.554C145.616 49.184 144.647 50.2353 144.647 52.338V58H142.918V47.588H144.647V49.279ZM150.899 45.897C150.57 45.897 150.291 45.783 150.063 45.555C149.835 45.327 149.721 45.0483 149.721 44.719C149.721 44.3897 149.835 44.111 150.063 43.883C150.291 43.655 150.57 43.541 150.899 43.541C151.216 43.541 151.482 43.655 151.697 43.883C151.925 44.111 152.039 44.3897 152.039 44.719C152.039 45.0483 151.925 45.327 151.697 45.555C151.482 45.783 151.216 45.897 150.899 45.897ZM151.735 47.588V58H150.006V47.588H151.735ZM167.203 47.398C168.013 47.398 168.735 47.569 169.369 47.911C170.002 48.2403 170.502 48.7407 170.87 49.412C171.237 50.0833 171.421 50.9003 171.421 51.863V58H169.711V52.11C169.711 51.0713 169.451 50.2797 168.932 49.735C168.425 49.1777 167.735 48.899 166.861 48.899C165.961 48.899 165.246 49.1903 164.714 49.773C164.182 50.343 163.916 51.1727 163.916 52.262V58H162.206V52.11C162.206 51.0713 161.946 50.2797 161.427 49.735C160.92 49.1777 160.23 48.899 159.356 48.899C158.456 48.899 157.741 49.1903 157.209 49.773C156.677 50.343 156.411 51.1727 156.411 52.262V58H154.682V47.588H156.411V49.089C156.753 48.5443 157.209 48.1263 157.779 47.835C158.361 47.5437 159.001 47.398 159.698 47.398C160.572 47.398 161.344 47.5943 162.016 47.987C162.687 48.3797 163.187 48.956 163.517 49.716C163.808 48.9813 164.289 48.4113 164.961 48.006C165.632 47.6007 166.379 47.398 167.203 47.398ZM183.757 52.395C183.757 52.7243 183.738 53.0727 183.7 53.44H175.378C175.441 54.466 175.79 55.2703 176.423 55.853C177.069 56.423 177.848 56.708 178.76 56.708C179.507 56.708 180.128 56.537 180.622 56.195C181.129 55.8403 181.483 55.3717 181.686 54.789H183.548C183.269 55.7897 182.712 56.6067 181.876 57.24C181.04 57.8607 180.001 58.171 178.76 58.171C177.772 58.171 176.885 57.9493 176.1 57.506C175.327 57.0627 174.719 56.4357 174.276 55.625C173.833 54.8017 173.611 53.8517 173.611 52.775C173.611 51.6983 173.826 50.7547 174.257 49.944C174.688 49.1333 175.289 48.5127 176.062 48.082C176.847 47.6387 177.747 47.417 178.76 47.417C179.748 47.417 180.622 47.6323 181.382 48.063C182.142 48.4937 182.725 49.089 183.13 49.849C183.548 50.5963 183.757 51.445 183.757 52.395ZM181.971 52.034C181.971 51.3753 181.825 50.8117 181.534 50.343C181.243 49.8617 180.844 49.5007 180.337 49.26C179.843 49.0067 179.292 48.88 178.684 48.88C177.81 48.88 177.063 49.1587 176.442 49.716C175.834 50.2733 175.486 51.046 175.397 52.034H181.971ZM191.112 47.398C192.379 47.398 193.405 47.7843 194.19 48.557C194.976 49.317 195.368 50.419 195.368 51.863V58H193.658V52.11C193.658 51.0713 193.399 50.2797 192.879 49.735C192.36 49.1777 191.651 48.899 190.751 48.899C189.839 48.899 189.111 49.184 188.566 49.754C188.034 50.324 187.768 51.1537 187.768 52.243V58H186.039V47.588H187.768V49.07C188.11 48.538 188.573 48.1263 189.155 47.835C189.751 47.5437 190.403 47.398 191.112 47.398ZM200.301 49.013V55.15C200.301 55.6567 200.409 56.0177 200.624 56.233C200.84 56.4357 201.213 56.537 201.745 56.537H203.018V58H201.46C200.498 58 199.776 57.7783 199.294 57.335C198.813 56.8917 198.572 56.1633 198.572 55.15V49.013H197.223V47.588H198.572V44.966H200.301V47.588H203.018V49.013H200.301ZM220.591 58H218.862L211.908 47.455V58H210.179V44.738H211.908L218.862 55.264V44.738H220.591V58ZM222.892 52.756C222.892 51.692 223.108 50.761 223.538 49.963C223.969 49.1523 224.558 48.5253 225.305 48.082C226.065 47.6387 226.908 47.417 227.832 47.417C228.744 47.417 229.536 47.6133 230.207 48.006C230.879 48.3987 231.379 48.8927 231.708 49.488V47.588H233.456V58H231.708V56.062C231.366 56.67 230.853 57.1767 230.169 57.582C229.498 57.9747 228.713 58.171 227.813 58.171C226.889 58.171 226.053 57.943 225.305 57.487C224.558 57.031 223.969 56.3913 223.538 55.568C223.108 54.7447 222.892 53.8073 222.892 52.756ZM231.708 52.775C231.708 51.9897 231.55 51.3057 231.233 50.723C230.917 50.1403 230.486 49.697 229.941 49.393C229.409 49.0763 228.82 48.918 228.174 48.918C227.528 48.918 226.939 49.07 226.407 49.374C225.875 49.678 225.451 50.1213 225.134 50.704C224.818 51.2867 224.659 51.9707 224.659 52.756C224.659 53.554 224.818 54.2507 225.134 54.846C225.451 55.4287 225.875 55.8783 226.407 56.195C226.939 56.499 227.528 56.651 228.174 56.651C228.82 56.651 229.409 56.499 229.941 56.195C230.486 55.8783 230.917 55.4287 231.233 54.846C231.55 54.2507 231.708 53.5603 231.708 52.775ZM238.487 49.013V55.15C238.487 55.6567 238.595 56.0177 238.81 56.233C239.025 56.4357 239.399 56.537 239.931 56.537H241.204V58H239.646C238.683 58 237.961 57.7783 237.48 57.335C236.999 56.8917 236.758 56.1633 236.758 55.15V49.013H235.409V47.588H236.758V44.966H238.487V47.588H241.204V49.013H238.487ZM252.533 47.588V58H250.804V56.461C250.475 56.993 250.012 57.411 249.417 57.715C248.834 58.0063 248.188 58.152 247.479 58.152C246.668 58.152 245.94 57.9873 245.294 57.658C244.648 57.316 244.135 56.8093 243.755 56.138C243.388 55.4667 243.204 54.6497 243.204 53.687V47.588H244.914V53.459C244.914 54.485 245.174 55.2767 245.693 55.834C246.212 56.3787 246.922 56.651 247.821 56.651C248.746 56.651 249.474 56.366 250.006 55.796C250.538 55.226 250.804 54.3963 250.804 53.307V47.588H252.533ZM257.181 49.279C257.485 48.6837 257.916 48.2213 258.473 47.892C259.043 47.5627 259.734 47.398 260.544 47.398V49.184H260.088C258.15 49.184 257.181 50.2353 257.181 52.338V58H255.452V47.588H257.181V49.279ZM272.04 52.395C272.04 52.7243 272.021 53.0727 271.983 53.44H263.661C263.724 54.466 264.073 55.2703 264.706 55.853C265.352 56.423 266.131 56.708 267.043 56.708C267.79 56.708 268.411 56.537 268.905 56.195C269.412 55.8403 269.766 55.3717 269.969 54.789H271.831C271.552 55.7897 270.995 56.6067 270.159 57.24C269.323 57.8607 268.284 58.171 267.043 58.171C266.055 58.171 265.168 57.9493 264.383 57.506C263.61 57.0627 263.002 56.4357 262.559 55.625C262.116 54.8017 261.894 53.8517 261.894 52.775C261.894 51.6983 262.109 50.7547 262.54 49.944C262.971 49.1333 263.572 48.5127 264.345 48.082C265.13 47.6387 266.03 47.417 267.043 47.417C268.031 47.417 268.905 47.6323 269.665 48.063C270.425 48.4937 271.008 49.089 271.413 49.849C271.831 50.5963 272.04 51.445 272.04 52.395ZM270.254 52.034C270.254 51.3753 270.108 50.8117 269.817 50.343C269.526 49.8617 269.127 49.5007 268.62 49.26C268.126 49.0067 267.575 48.88 266.967 48.88C266.093 48.88 265.346 49.1587 264.725 49.716C264.117 50.2733 263.769 51.046 263.68 52.034H270.254Z" fill="#BFCFB5"></path><path d="M63.7814 50.1758C64.5829 51.3372 65.7004 52.2405 66.9996 52.777C66.6003 53.2449 66.1401 53.6563 65.6314 54C65.3038 52.9712 64.3981 52.2335 63.4924 51.6511C62.5866 51.0688 61.5846 50.5447 60.9294 49.6905C60.2742 48.8364 59.195 45.4393 60.9679 46.0799C62.3939 46.5846 63.0106 49.0111 63.7814 50.1758Z" fill="#BFCFB5"></path><path d="M51.2675 24.6803C52.4285 24.0032 53.7013 23.4825 55.0425 23.136C55.3962 23.0632 55.7405 22.9598 56.0702 22.8272C56.5525 22.6273 56.93 22.3003 57.3705 22.046C57.4544 22.0096 57.5592 21.9733 57.6221 22.0278C57.685 22.0823 57.6641 22.0823 57.6641 22.1186L57.9996 23.4085C57.9996 23.4487 57.9621 23.4812 57.9157 23.4812C57.6012 23.3722 56.6574 23.4085 56.5106 23.4267C55.984 23.4576 55.4702 23.5812 55.0006 23.7901C54.2246 24.1353 53.5535 24.8075 53.0292 25.407C51.8967 26.7151 51.2465 28.2593 50.3447 29.6946L50.2818 29.7673C49.5897 30.8755 48.583 31.8021 47.6812 32.7831C47.6255 32.8612 47.5455 32.9241 47.4505 32.9648C46.7375 33.2555 47.073 31.6567 47.115 31.4387C47.3667 29.8763 47.7442 28.2775 48.646 26.8968C49.2751 25.9339 50.2189 25.2798 51.2675 24.6803Z" fill="#BFCFB5"></path><path d="M59.9996 33.6923C59.642 33.6797 59.2846 33.7228 58.9442 33.8194C58.3908 33.9679 57.7974 33.9568 57.2519 33.7876C55.7779 33.3904 54.3768 32.9296 52.7936 33.009C52.6043 33.0091 52.4154 33.0251 52.2295 33.0567C51.4502 33.1622 50.7092 33.4232 50.0641 33.8194C49.5016 34.1333 49.0186 34.5442 48.6447 35.0271C48.2808 35.5356 48.1352 36.1394 48.0078 36.7432C47.8804 37.347 49.2816 36.7114 49.5182 36.6002C51.0831 35.8375 52.5207 34.6298 54.3222 34.2961C55.1774 34.1372 56.0691 34.2326 56.9425 34.3756L58.1799 34.5663L58.9442 34.7728C59.108 34.8205 59.3263 34.9476 59.5083 34.9158C59.5083 34.5821 59.5083 34.2326 59.7813 33.9624C60.0542 33.6923 59.9632 33.8035 59.9996 33.6923Z" fill="#BFCFB5"></path><path d="M59.9005 36.472C60.3029 36.6994 60.6596 36.998 60.953 37.3528C61.5805 38.1135 61.9853 39.0144 62.3699 39.8952C62.5385 40.2721 62.7276 40.6397 62.9366 40.9962C63.1997 41.4767 63.4426 42.0172 63.7462 42.4776C63.9755 42.8237 64.2401 43.1457 64.5356 43.4385C64.6605 43.5487 64.7756 43.6693 64.8797 43.7989C65.0012 43.959 65.0821 44.0992 64.8595 44.1993C64.6582 44.306 64.506 44.4852 64.4344 44.6997C64.4247 44.8094 64.3824 44.9139 64.313 45H64.2725C64.2608 44.9897 64.2535 44.9754 64.2523 44.96C63.9891 44.6397 63.8677 44.2193 63.726 43.8189C63.5838 43.3548 63.3343 42.9299 62.9973 42.5777C62.4913 42.0973 61.965 41.6168 61.3983 41.1764C60.8315 40.736 60.447 40.4758 60.0017 40.0954C59.4578 39.6344 59.0049 39.0778 58.6658 38.4539C58.3014 37.7732 57.7347 36.1517 58.1395 36.0316C58.5443 35.9115 59.3539 36.1517 59.9005 36.452" fill="#BFCFB5"></path><path d="M58.2705 38.3175C58.3307 38.596 58.3761 38.8774 58.4065 39.1606C58.4301 39.2677 58.4431 39.3767 58.4453 39.4863C58.5219 39.7926 58.6192 40.0934 58.7366 40.3869C58.8016 40.4718 58.8601 40.5615 58.9114 40.6551C58.9502 40.7318 59.0279 40.8467 58.989 40.9425H58.7754C58.528 40.9322 58.2802 40.9515 58.0375 41H57.9016C57.7851 40.9617 57.9016 40.7126 57.9016 40.6168C57.9274 40.4263 57.9339 40.2337 57.921 40.042C57.9078 39.6282 57.8017 39.2224 57.6103 38.854C57.1189 38.0149 56.4579 37.2845 55.6684 36.708L54.678 35.9416C54.1731 35.5392 53.6488 35.3093 53.2215 34.792C53.1135 34.6802 53.0395 34.5408 53.0079 34.3896C52.974 34.243 53.0463 34.0925 53.1827 34.0255C53.2604 34.0064 54.7557 33.8723 55.882 34.4854C56.621 34.9101 57.2208 35.5353 57.6103 36.2865C57.8627 36.7847 58.0375 37.2828 58.0569 37.3212C58.0763 37.3595 58.1929 37.896 58.2705 38.3175Z" fill="#BFCFB5"></path><path d="M65.8248 7.08067C65.0176 6.85451 64.1142 6.98643 63.3454 6.62836C62.5765 6.27029 61.9807 5.30914 61.2696 4.68722C60.5584 4.0653 59.3091 4.21607 58.3288 4.49876C58.1115 4.57152 57.8853 4.61587 57.6561 4.63068C57.4364 4.6253 57.2176 4.60007 57.0026 4.55529C56.0031 4.40453 54.8499 4.7626 54.0426 4.14068C53.8882 4.00031 53.7209 3.87414 53.5429 3.76376C53.4047 3.7214 53.2633 3.68989 53.12 3.66953C52.3128 3.49992 51.8515 2.82146 51.2749 2.27492C50.2562 1.29493 48.6609 0.52224 47.5076 1.35147C46.7388 1.91685 46.5274 2.95338 46.0661 3.78261L45.7201 4.3103C45.2204 5.04529 42.5103 5.13952 41.6838 5.32798C41.2802 5.42221 40.8381 5.55414 40.6651 5.91221C40.4921 6.27028 40.6651 6.62836 40.569 6.96759C40.3384 7.79681 39.2236 8.34335 39.6464 9.37988C40.0693 10.4164 41.6646 10.1526 42.6256 10.1903L46.5466 10.3599H46.7004C46.7598 10.3916 46.8036 10.4456 46.8217 10.5095C46.8399 10.5735 46.8307 10.6419 46.7965 10.6991C46.7196 10.9064 46.4505 11.0383 46.3352 11.2268C46.1945 11.4492 46.0724 11.6824 45.97 11.9241C45.7778 12.301 45.6048 12.7156 45.3934 13.0926C44.9321 13.8652 44.4708 14.6379 43.9711 15.3729C43.4713 16.1079 42.9524 16.8429 42.395 17.5591C41.8376 18.2752 41.1649 18.8029 40.8958 19.4814C40.7805 19.7641 40.6651 20.0467 40.569 20.3106C40.5092 20.452 40.4579 20.5968 40.4153 20.744C40.3828 20.9434 40.3699 21.1454 40.3768 21.3471C40.3576 21.7617 39.9732 20.5556 40.0693 19.5002C40.1077 18.8971 40.1462 18.2941 40.1462 17.691C40.1462 17.0879 40.1077 16.9937 40.127 16.6356C40.3965 16.705 40.6748 16.7367 40.9534 16.7298C41.2248 16.7432 41.4968 16.7178 41.7607 16.6545C42.2797 16.4848 42.4526 16.1079 42.6833 15.6745C42.9139 15.241 43.3176 14.9018 43.4713 14.4495C43.6251 13.9972 43.3752 13.526 43.0485 13.2056C42.7217 12.8852 42.2989 12.6591 41.9337 12.3764C41.5685 12.0937 41.1456 11.5849 40.742 11.2079C40.3384 10.831 39.8386 10.6426 39.3197 10.3787C38.8007 10.1149 38.6854 10.0018 38.1665 10.4164C37.3208 11.1137 37.6475 12.1126 36.9363 12.8476C36.2252 13.5826 35.7831 14.5814 35.4756 15.5237C35.341 15.9383 35.2257 16.3718 35.1296 16.8052C35.0335 17.2387 34.8221 17.8794 35.3026 18.0491C35.3769 18.0766 35.4589 18.0766 35.5332 18.0491C35.7363 17.9777 35.953 17.952 36.1675 17.9737C36.3928 18.0156 36.6079 18.0987 36.8018 18.2187C37.501 18.659 38.0394 19.3057 38.3394 20.0656C38.5509 20.5933 38.6085 21.1587 38.7623 21.7052C38.9161 22.2517 39.1659 22.8171 39.1851 23.4956C39.3389 26.6994 39.3197 29.9032 39.3005 33.1071C39.3005 34.5582 39.262 36.0093 39.4542 37.4605C39.5503 38.2897 40.1077 39.967 40.127 39.9859C40.3058 40.0047 40.4863 40.0047 40.6651 39.9859C40.6843 39.967 41.6454 36.8951 41.8184 36.1036C42.2604 34.1813 42.7217 32.2778 43.2407 30.3744C43.7596 28.4709 44.0672 26.0586 45.7394 24.4756C45.9119 24.3045 46.1135 24.1642 46.3352 24.061C47.1809 23.684 48.5456 23.439 48.8339 24.5321C49.1222 25.6252 49.5642 25.2483 50.3138 24.9279C51.0634 24.6075 51.7938 23.7971 52.6203 23.3636C53.4468 22.9302 53.8504 22.949 54.4847 22.7417C55.9839 22.2706 57.3678 20.5933 57.4254 19.0291C57.4356 18.7852 57.3964 18.5418 57.3101 18.3129C57.2052 18.0897 56.9983 17.9288 56.7527 17.8794C56.4966 17.8515 56.2385 17.9114 56.0223 18.0491C55.1574 18.4637 54.3886 19.0102 53.466 19.2929C52.5434 19.5756 51.3133 19.3494 50.2562 19.6133C49.5498 19.808 48.9665 20.2973 48.6609 20.9514C48.4494 21.366 48.3149 21.8183 48.065 22.214C48.0031 22.3028 47.9249 22.3795 47.8344 22.4402C47.7257 22.4914 47.6085 22.5233 47.4884 22.5344C46.6812 22.6287 45.8739 22.8171 45.2396 23.3071C44.6053 23.7971 44.49 24.1175 43.9903 24.3248C43.9903 23.4579 43.7981 21.9879 44.3939 21.234C44.9898 20.4802 47.0463 20.4802 48.7954 18.8406C49.4681 18.1998 50.7559 18.0868 51.7169 18.3129C52.3344 18.4865 52.9909 18.4734 53.6006 18.2752C54.4078 17.9737 54.8883 17.1256 55.3881 16.4283C56.0817 15.4924 56.9733 14.7145 58.0021 14.1479C58.506 13.8818 59.0335 13.6611 59.5781 13.4883C59.8087 13.3995 60.0467 13.3301 60.2893 13.281C60.6542 13.2622 61.0199 13.2622 61.3849 13.281L61.6155 13.2245C61.6906 13.1737 61.7613 13.117 61.8269 13.0549C61.9843 12.9628 62.1628 12.911 62.3459 12.9041C62.6353 12.8623 62.9006 12.7222 63.0955 12.5083C63.1649 12.4318 63.2173 12.342 63.2493 12.2445C63.3069 11.9995 63.1339 11.7733 62.9802 11.5849C62.7223 11.2567 62.4326 10.9538 62.1153 10.6803C61.7994 10.4067 61.4014 10.2413 60.9812 10.2091H60.4046C60.1548 10.1903 59.8857 10.0772 59.6166 10.0583C59.3475 10.0395 58.5979 10.3787 58.0597 10.3787H56.2722C55.4457 10.3599 54.6769 10.2468 53.8696 10.4541C53.2062 10.6385 52.5216 10.7399 51.8323 10.7556C51.6126 10.7621 51.394 10.7874 51.1788 10.831C50.6983 10.963 50.3523 11.3587 50.0255 11.7545C49.3336 12.5649 48.6609 13.2622 48.411 14.3364C48.2955 14.8182 48.2759 15.3173 48.3533 15.8064C48.3533 15.9195 48.6993 17.1821 48.7954 17.1445C48.1035 17.4837 47.5076 18.0114 46.931 18.4825C46.5398 18.805 46.122 19.095 45.6817 19.3494C44.9898 19.7452 43.9134 19.9714 43.3944 20.6121C43.1254 20.9325 43.0485 21.4979 42.9332 21.8937C42.5103 23.4956 42.5103 25.1917 42.2604 26.8502C42.0106 28.5086 41.4916 29.6394 41.5493 31.0717C41.5787 31.5208 41.5398 31.9718 41.4339 32.4098C41.3186 32.8244 41.0111 33.1447 40.8766 33.5782C40.8958 31.0717 40.8573 28.5652 41.0688 26.0586C41.1264 25.3048 41.2033 24.5321 41.261 23.7783C41.3186 23.0244 41.5493 22.5344 41.7799 21.856C42.0106 21.1775 42.0682 20.2917 42.4334 19.6321C42.7986 18.9725 43.529 18.5202 43.9711 17.8983C44.4131 17.2764 45.0666 16.2398 45.5856 15.3729C46.5466 13.7522 47.3539 12.1503 49.2183 10.718C49.8049 10.1962 50.4818 9.78132 51.2172 9.49296C55.6764 7.89105 60.5776 9.11604 65.3251 9.43642C65.8825 9.47411 66.5552 9.45527 66.9012 8.98412C67.2471 8.51296 66.6321 7.34451 65.8248 7.09951" fill="#BFCFB5"></path><path d="M38.9073 18C38.7803 17.9845 38.6611 17.9141 38.5686 17.8002C38.4619 17.651 38.3432 17.517 38.2146 17.4005C37.645 16.9809 38.3531 17.0009 38.661 17.0009C38.6995 16.9962 38.738 17.0104 38.7687 17.0409C38.799 17.0579 38.8176 17.0981 38.8149 17.1408C38.8997 17.411 38.9616 17.6924 38.9996 17.98H38.9073" fill="#BFCFB5"></path><path d="M57.5506 54.7954C57.2525 54.5739 56.9721 54.3313 56.7117 54.0697C56.1592 53.4618 55.9341 52.4028 56.016 51.6183C56.0364 51.2653 56.1797 50.167 56.5889 50.0101C56.9982 49.8532 58.1031 51.5595 58.451 52.2066C58.7989 52.8538 59.0444 53.501 59.4946 54.0109C60.0092 54.577 60.6093 55.0662 61.2748 55.4622C61.6056 55.7122 61.9796 55.9047 62.3798 56.0309C62.564 56.0701 62.9323 56.1093 62.9937 56.2859C63.0551 56.4624 62.6254 56.8546 62.4207 56.9526C62.2161 57.0507 62.3594 56.9723 62.3389 56.933C62.0729 56.4427 61.4795 56.2074 60.9474 56.0309C60.6541 55.9253 60.3532 55.8401 60.0471 55.776C59.1263 55.5602 58.3078 55.3445 57.5506 54.7954Z" fill="#BFCFB5"></path><path d="M15.9996 69C15.6012 68.2336 14.734 67.5328 14.1246 66.8978C13.5153 66.2628 13.4449 66.1752 12.9996 66" fill="#BFCFB5"></path><path d="M8.99963 58.6861C8.88846 58.6662 8.78009 58.631 8.67717 58.5814L8.43531 58.5116C7.64948 58.2685 6.84569 58.0993 6.03292 58.0059C5.72656 57.9789 5.41935 58.0454 5.14613 58.1977C5.11389 58.2151 4.9849 58.3024 5.00102 58.3896C5.00447 58.4205 5.02291 58.4471 5.04939 58.4593C5.08164 58.5116 5.16226 58.4942 5.22675 58.4593C5.80719 58.25 6.38764 58.3721 6.96808 58.4942L8.54818 58.8605C8.66104 58.8954 8.85452 58.8954 8.88677 59" fill="#BFCFB5"></path><path d="M10.9996 59C10.861 58.6921 9.9106 58.0556 9.7126 57.9325C8.99978 57.4398 8.36616 57.1729 7.33654 56.7212C6.66984 56.4354 5.98095 56.2088 5.27728 56.0438C5.27728 56.0438 4.56446 55.8795 4.06945 56.1875L4.01005 56.2696C3.97045 56.3517 4.04965 56.4543 4.14865 56.4749C4.23337 56.5062 4.32696 56.4988 4.40606 56.4543C4.82187 56.2696 6.1287 56.7007 6.34651 56.7623C6.97822 56.9744 7.59375 57.2352 8.18796 57.5424C8.38596 57.6245 8.94038 57.9119 9.6532 58.3225L10.168 58.6305" fill="#BFCFB5"></path><path d="M27.3009 65.861L27.5996 65.8987C27.5249 65.183 27.7863 64.4861 27.9357 63.7891C28.141 62.772 27.861 61.6231 26.9649 61.0015C26.4076 60.6677 25.7815 60.4679 25.1353 60.4176C24.4819 60.3423 23.8285 60.3423 23.1938 60.2669C23.9405 60.3611 25.0233 59.9279 25.7327 59.7207C25.9754 59.6454 26.2928 59.6265 26.4795 59.4193C26.6662 59.2121 26.6662 58.5341 26.6475 58.2139C26.6288 57.8937 26.3861 57.2533 26.2368 56.8389C25.8881 55.9187 25.4504 55.0355 24.93 54.2019C24.7775 53.9381 24.5744 53.7076 24.3326 53.5239C24.1207 53.4026 23.895 53.3077 23.6605 53.2413C21.4762 52.5256 20.6735 51.2448 19.9827 49.1352C19.7213 48.2876 19.3666 47.2893 18.5079 47.0445C18.3178 47.0033 18.1228 46.9906 17.9291 47.0068C16.6596 47.101 15.9129 48.2876 15.2035 49.2294C14.4135 50.2885 13.8479 51.5002 13.5419 52.7893C13.328 53.66 13.1967 54.5493 13.1499 55.4451C13.1126 56.1608 12.9072 57.3286 13.3926 57.9125C13.4763 58.0159 13.5701 58.1105 13.6726 58.195C14.0075 58.4736 14.3632 58.7255 14.7367 58.9484C14.2554 58.7685 13.7927 58.5414 13.3552 58.2704C12.5819 57.8369 11.7189 57.5918 10.8349 57.5546C10.2189 57.5546 9.73346 58.082 10.1629 58.6471C10.2244 58.7364 10.3081 58.8078 10.4056 58.8543C10.5033 58.9079 10.6196 58.9149 10.7229 58.8731C10.8349 58.8166 11.003 58.4211 11.0963 58.4399C11.1523 58.8166 11.7871 59.4758 11.8431 59.5135C12.0988 59.6771 12.4131 59.7185 12.7018 59.6265L12.7578 59.57C12.7018 59.6642 14.0273 60.6436 14.7181 61.1522C14.8697 61.1064 15.0266 61.0811 15.1848 61.0768C15.8009 62.1316 16.8277 62.433 17.8171 62.9981C18.8066 63.5631 19.852 64.6932 20.5614 65.6915C20.7855 66.0117 20.9908 66.4638 21.3082 66.6898C21.6256 66.9158 22.335 67.1042 22.335 66.9347C22.3537 66.3319 22.4283 65.5597 22.167 65.0134C21.8345 64.3518 21.4538 63.7159 21.0282 63.1111C20.6174 62.4895 19.9454 62.2258 19.404 61.6984C20.2835 62.0298 21.0986 62.5143 21.8123 63.1299C22.3537 63.6008 22.8577 64.2224 23.4738 64.5802C24.6582 65.2464 25.9567 65.6809 27.3009 65.861Z" fill="#BFCFB5"></path><path d="M13.5909 65.1036C13.8648 65.1042 14.1373 65.1451 14.4014 65.2252C14.9172 65.4278 15.4329 65.8533 15.9119 66.1572L16.004 66.1977H16.1329C16.3804 66.1329 16.6338 66.0989 16.8882 66.0964C16.8145 66.0964 16.9987 65.2454 16.9987 65.1846C17.0355 64.3539 15.9856 63.7055 15.4145 63.4016C15.1931 63.3084 14.9828 63.1859 14.7882 63.0369C14.6777 62.9153 14.5856 62.7735 14.4751 62.6722C14.0698 62.3075 13.4251 62.3075 12.9462 62.0644L12.6146 61.9023C12.4929 61.8648 12.3622 61.895 12.2646 61.9833C12.0596 62.2292 11.9029 62.5189 11.8041 62.8343L11.7672 62.9559L11.8041 62.7735C11.8971 62.4461 11.9346 62.1027 11.9146 61.7604C11.8962 61.5578 11.8962 61.2539 11.7672 61.0715C11.7197 61.0008 11.6562 60.945 11.583 60.9094C11.2049 60.6152 10.7969 60.3705 10.3673 60.18C9.96202 60.0179 9.5015 60.1598 9.07783 60.1395L7.54892 60.0382C7.36472 60.0179 7.01472 59.9369 6.88578 60.099C6.75684 60.2611 7.36472 61.1728 7.56734 61.3552L7.9726 61.7807C8.17522 61.9833 8.35943 62.2062 8.52521 62.4088C8.691 62.6114 8.91205 62.8343 9.07783 63.0572C8.8752 62.9153 8.67258 62.8343 8.46995 62.7127C8.35659 62.6082 8.25181 62.493 8.1568 62.3683C7.86402 62.0649 7.53568 61.806 7.18051 61.5983C6.8736 61.4523 6.56003 61.3238 6.24106 61.2134C5.96475 61.1121 5.81739 61.3552 5.5595 61.497L5.30161 61.6186C5.04372 61.7199 4.78583 61.6996 4.58321 61.9428C4.47567 62.0711 4.39405 62.223 4.34374 62.3885C4.32532 62.4291 4.32532 62.4493 4.28848 62.4696C4.25163 62.4898 4.19637 62.4898 4.14111 62.5101C4.08585 62.5304 4.12269 62.5506 4.10427 62.5506C3.99769 62.7751 3.9714 63.0353 4.03059 63.28C4.09027 63.5104 4.11516 63.75 4.10427 63.9892C4.08585 64.0905 4.04901 64.2121 4.12269 64.2931C4.19637 64.3742 4.9332 64.2323 5.13582 64.1513C5.33845 64.0703 5.92791 63.8271 6.33316 63.7258C6.8123 63.6275 7.30616 63.6624 7.76997 63.8271L8.80152 64.2729C8.80152 64.2931 8.39627 64.1513 8.35943 64.1513C7.75155 64.0905 7.19893 63.8069 6.57263 63.8879C6.05943 63.9934 5.55442 64.1424 5.06214 64.3336C4.71215 64.4552 4.12269 64.7186 4.04901 65.1846C3.97533 65.6507 4.25163 65.7925 4.47268 65.9951C4.69373 66.1977 4.89636 66.4814 5.1174 66.7043C5.33442 66.871 5.56958 67.0071 5.81739 67.1095C5.86171 67.1319 5.89985 67.1669 5.92791 67.2108C5.96475 67.2716 5.94633 67.3324 5.96475 67.3931C5.98317 67.4539 6.24106 67.6363 6.2779 67.7984C6.31474 67.9605 6.29632 67.8997 6.31474 67.9605C6.33316 68.0213 6.49895 68.1226 6.57263 68.2036L6.73842 68.467C6.9042 68.6291 7.14367 68.7507 7.32787 68.5886C7.84365 68.082 8.2489 67.535 8.87521 67.1905L9.70413 66.7245C9.77781 66.684 10.4962 66.4003 10.4962 66.3598C10.4444 66.6872 10.3578 67.0068 10.2383 67.3121C10.1278 67.5755 10.091 67.8592 9.98044 68.1226C9.86992 68.386 9.68571 68.5075 9.75939 68.6494C9.83308 68.7912 10.2015 68.7709 10.3673 68.7912L12.0067 68.852H12.4672L12.7435 68.9533C13.0935 69.0546 13.4619 68.9533 13.8119 68.9938C14.4935 68.6696 15.1935 68.3454 15.7645 67.8186C15.8612 67.7263 15.9661 67.6448 16.0777 67.5755C16.1317 67.5611 16.1821 67.5334 16.225 67.4945C16.2619 67.4539 16.4461 67.4337 16.4092 67.3931L15.4145 66.2585C15.2536 66.0749 15.0744 65.9118 14.8803 65.7722C14.692 65.6637 14.4946 65.5755 14.2909 65.5088C13.8119 65.367 13.333 65.2859 12.8356 65.1846C13.0935 65.2252 13.333 65.1239 13.5909 65.1239" fill="#BFCFB5"></path><path d="M9.90244 65.7683C9.29162 65.5694 8.94548 65.1715 9.00657 64.862C9.06765 64.5526 9.2509 64.5968 9.39342 64.5084C9.59717 64.3579 9.78798 64.1877 9.96353 64C9.93561 64.0516 9.93364 64.1151 9.9583 64.1686C9.98296 64.2222 10.0309 64.2585 10.0857 64.2652C10.1878 64.28 10.2917 64.2725 10.3911 64.2431C10.4866 64.1959 10.5929 64.1805 10.6965 64.1989C10.6911 64.3405 10.775 64.468 10.9001 64.5084H11.3481C11.3888 64.5305 11.3888 64.5968 11.4091 64.641C11.4238 64.7298 11.4712 64.8083 11.5404 64.8584C11.6095 64.9084 11.6945 64.9257 11.7756 64.9062C11.8174 65.0416 11.838 65.1835 11.8367 65.3262C11.8484 65.2921 11.8749 65.2664 11.9074 65.2576C11.94 65.2487 11.9745 65.2579 11.9996 65.282C12.0005 65.4554 11.9729 65.6275 11.9182 65.7904C11.9126 65.8235 11.8985 65.8541 11.8774 65.8788L11.7553 65.923H11.6535C11.3888 66.0778 10.7169 65.9893 9.90244 65.7462" fill="#BFCFB5"></path><path d="M28.9619 22.1035C28.9619 22.0652 28.9431 22.0269 28.9431 21.9886C28.9258 21.8102 28.8813 21.6358 28.8112 21.4714C28.7787 21.3896 28.7269 21.3173 28.6604 21.2607C28.5864 21.2073 28.5033 21.1684 28.4154 21.1458C27.5977 20.8952 26.7408 20.8042 25.8898 20.8776C25.0794 20.9734 24.3066 21.299 23.515 21.5288C22.6662 21.736 21.803 21.8768 20.933 21.9502C20.0283 22.0652 19.1236 22.1993 18.3509 21.6629C17.5992 21.1317 16.9155 20.5076 16.3153 19.8049C15.9572 19.3835 15.618 19.0579 15.0149 19.0004C14.8745 18.9967 14.7345 19.0161 14.6002 19.0579C14.3111 19.1249 14.0276 19.2146 13.7521 19.3261C13.0548 19.6326 11.9051 20.6094 11.66 20.7818C10.9815 21.2798 10.2276 21.2415 10.2276 21.4139C10.2276 21.5863 10.7177 21.5288 10.7931 21.7587C10.8685 21.9886 9.94493 22.4291 10.0203 22.6207C10.0957 22.8122 10.68 22.9463 10.7931 23.0229V23.0612C10.68 23.2336 10.3596 23.3868 10.5292 23.5784C10.6988 23.7699 11.3208 23.8465 11.8862 23.5209C12.0181 23.4443 12.0558 23.6167 12.1878 23.7316C12.3197 23.8466 13.2055 22.41 13.5071 21.9694C14.1856 20.9351 14.3552 20.686 14.9395 20.5328C15.5238 20.3796 16.2211 20.801 16.0515 21.5672C15.8819 22.3333 15.128 22.5824 14.6945 23.0038C14.0434 23.6131 13.5292 24.3579 13.1867 25.1874C12.7532 26.3175 12.7532 27.5625 12.8663 28.7501C12.9082 29.2793 12.9901 29.8044 13.1113 30.3208C13.2336 30.8305 13.2336 31.3626 13.1113 31.8723C12.9417 32.6223 12.8283 33.3843 12.772 34.1517C12.7532 34.4773 12.8097 34.8987 12.7343 35.2243C12.659 35.55 12.4328 35.5117 12.1689 35.7224C11.9051 35.9331 11.7166 36.2587 11.5093 36.5652C11.0758 37.159 10.3784 38.0975 9.56799 38.0784C8.75755 38.0592 8.30521 36.4694 7.7021 36.0288L7.87172 36.3545C8.22982 36.9483 7.75864 36.546 7.68325 36.5077C7.60786 36.4694 7.55132 36.3928 7.47593 36.3928C7.40054 36.3928 7.89057 38.1933 7.77749 38.155C7.6644 38.1167 7.62671 38.0209 7.55132 37.9443C7.32448 37.6183 7.06556 37.3167 6.77858 37.044C6.68434 36.9483 5.5535 36.0097 5.45926 36.1438C5.36502 36.2778 5.45926 36.2204 5.49695 36.2587L5.62889 36.3928C5.68543 36.4311 5.72312 36.4885 5.68543 36.546C5.64773 36.6035 5.62888 36.5843 5.59119 36.5843H5.47811C5.44041 36.6035 5.40272 36.6418 5.42156 36.6801C5.52936 36.6946 5.63249 36.7339 5.72312 36.795C6.08122 37.0632 6.17546 37.6953 6.2697 38.1167C6.33308 38.3142 6.35867 38.5223 6.34509 38.7296C6.32912 38.8895 6.27046 39.0418 6.17546 39.1702C5.83279 39.4518 5.5056 39.7523 5.1954 40.0704C4.98116 40.3056 4.83732 40.598 4.78075 40.9132C4.74306 41.1623 4.78075 41.4304 4.66767 41.6603C4.62287 41.7671 4.55896 41.8645 4.47919 41.9476C4.37426 42.0803 4.27974 42.2212 4.19648 42.369C4.11576 42.4728 4.05211 42.5893 4.00801 42.7138C4.00801 42.7712 3.98916 42.8095 4.00801 42.8479C4.01866 42.8957 4.03782 42.9411 4.06455 42.9819C4.12695 43.0947 4.19619 43.2035 4.27187 43.3076C4.27702 43.3362 4.29009 43.3628 4.30957 43.3842C4.34726 43.4416 4.74306 43.9014 4.96923 43.978C5.32228 44.0812 5.69846 44.0678 6.04353 43.9397C6.02468 43.9588 6.00583 44.0546 6.02468 44.0546C6.34509 44.3036 6.72203 44.2461 7.08013 44.1504C7.43823 44.0546 8.07904 43.6332 8.22982 44.3611C8.22982 44.3802 8.24867 44.3802 8.26752 44.3802C8.39316 44.3389 8.53065 44.3855 8.60677 44.4952C8.66509 44.6194 8.71545 44.7474 8.75755 44.8782C8.7764 44.9549 8.79525 45.0123 8.85179 45.0315L8.98372 45.0698C9.07796 45.0889 9.1345 45.2039 9.19104 45.2805C9.3299 45.5116 9.52452 45.7028 9.75646 45.836C9.96378 45.9317 10.3407 46.0084 10.3973 46.2765C10.4538 46.5447 10.5292 46.4681 10.5669 46.5447C10.6905 46.7884 10.7612 47.0562 10.7742 47.33C10.8496 48.1345 10.68 48.9007 10.4727 49.686C10.2653 50.4714 9.77531 51.7547 9.58683 52.8465C9.45789 53.5862 9.43251 54.3407 9.51145 55.0876C9.52489 55.3137 9.61096 55.529 9.75646 55.7006C10.0957 56.0645 10.4538 56.007 10.5669 55.9496C10.68 55.8921 10.6046 55.9113 10.6046 55.8921C10.6046 55.873 10.4161 55.3366 10.5292 55.26C10.6423 55.1834 10.5669 55.2409 10.6234 55.26L10.6988 55.5282C10.7302 55.6156 10.7553 55.7052 10.7742 55.7963C10.7931 55.8346 10.7931 55.873 10.8308 55.9113C11.1512 56.2752 11.4339 55.4132 11.4904 55.2409C11.8366 53.7701 12.2581 52.3188 12.7532 50.8928C12.9794 50.2607 15.0337 47.0427 15.3164 46.583L15.6745 46.1233C15.8065 45.9701 15.863 45.7977 15.9761 45.6444L16.0138 45.587C16.0138 45.472 14.9772 45.2996 14.8453 45.2613C14.7461 45.247 14.6503 45.2146 14.5625 45.1656C14.418 45.0602 14.2593 44.9763 14.0914 44.9165L14.8641 44.9932C15.8679 45.1054 16.8308 45.4601 17.6724 46.0275C18.4828 46.5447 19.3686 47.2534 19.7079 48.2111C20.0471 49.1689 20.4806 49.6477 20.8199 50.3756C21.1591 51.1035 21.5361 51.3716 22.1203 51.8697C22.3017 52.0169 22.5054 52.1334 22.7235 52.2144C22.8365 52.2527 23.2889 52.3677 23.3643 52.2336V52.1953C23.402 52.0037 23.4397 51.7164 23.3643 51.6973C23.2684 51.7158 23.1693 51.7024 23.0816 51.659C23.0062 51.6398 22.8742 51.5632 22.8931 51.5249C22.8943 51.5101 22.901 51.4964 22.9119 51.4866C22.9685 51.5249 23.2323 51.659 23.3643 51.5632C23.3747 51.5632 23.3831 51.5546 23.3831 51.544C23.3809 51.355 23.3491 51.1674 23.2889 50.9885C23.2135 50.7587 23.1569 50.5097 23.0816 50.2798C22.9468 49.8144 22.7636 49.3649 22.535 48.939C22.2146 48.3452 22.3465 47.8664 22.29 47.1959C22.226 46.3567 22.0679 45.5277 21.8188 44.725C21.5926 44.0738 21.4795 43.365 20.9895 42.8479C20.8479 42.6976 20.6968 42.5568 20.5372 42.4265C20.3287 42.2499 20.1334 42.0578 19.9529 41.8518C20.3555 41.93 20.728 42.1226 21.0272 42.4073C21.2534 42.618 21.4418 42.9053 21.7245 43.0586C21.7454 43.0586 21.7622 43.0414 21.7622 43.0203C21.8565 42.2349 21.7622 41.5837 21.668 40.7792C21.6115 40.3961 21.4418 40.0321 21.423 39.6491C21.4041 39.266 21.4041 38.7488 21.3853 38.2891C21.3664 37.8294 21.2157 37.5612 21.0649 37.1207C20.6043 35.7753 20.2637 34.3906 20.0471 32.9833C19.9717 32.5044 19.8964 31.9872 20.0471 31.5275C20.1979 31.0678 20.9518 30.4932 21.5926 30.5506C22.2334 30.6081 22.5727 31.2977 22.9308 31.8148C23.2036 32.2187 23.4371 32.6485 23.6281 33.0982C24.3632 34.9179 25.0417 36.7759 25.8521 38.5572C26.0971 39.1127 26.361 39.6682 26.9453 39.9938C27.0564 40.0548 27.1779 40.0938 27.3034 40.1088C27.3917 40.1217 27.4816 40.1151 27.5672 40.0896C27.7369 39.9938 27.6803 39.6491 27.6615 39.4958C27.653 39.3681 27.5823 39.2531 27.473 39.1893L27.3411 39.1319C27.221 39.09 27.1069 39.032 27.0018 38.9595C26.9264 38.902 26.851 38.8254 26.8699 38.7488C27.0298 38.8509 27.2005 38.9344 27.3788 38.9978H27.4165L27.3599 38.4806C27.228 37.5037 26.9641 36.5269 26.7945 35.55C26.6249 34.5731 26.4552 33.6537 26.3233 32.696C26.2856 32.4661 26.2668 32.2171 26.2479 31.9681C26.1537 30.5698 26.1537 29.3439 25.8521 27.9648C25.823 27.8263 25.7652 27.6957 25.6825 27.5817C25.3244 27.0454 24.7778 26.5282 24.3632 26.0302C23.9485 25.5322 23.9108 25.4172 23.6847 25.1108C23.4585 24.8043 23.0627 24.4595 23.27 24.3637C23.4774 24.268 23.9485 24.9001 24.0428 25.015C24.137 25.1299 24.5328 25.5705 24.7778 25.8578C25.0228 26.1451 25.1548 26.4899 25.4375 26.4707H25.4563C25.4752 25.8578 25.5317 25.2257 25.5506 24.6127C25.5529 24.0686 25.6753 23.5318 25.9087 23.0421C26.1348 22.6015 26.5495 22.659 26.9641 22.6015C27.3788 22.544 27.4542 22.5057 27.6803 22.5632C27.9065 22.6207 28.0196 22.8122 28.1703 22.9654C28.2175 23.0264 28.2749 23.0783 28.34 23.1187C28.5208 23.1856 28.7152 23.2054 28.9054 23.1761H28.9242V22.8697H28.9054C28.7358 22.8314 28.6038 22.8697 28.4908 22.7547C28.3777 22.6398 28.4531 22.6973 28.4719 22.6973H28.7735C28.8518 22.6922 28.9256 22.6582 28.9808 22.6015C28.9996 22.5823 29.0185 22.5249 28.9619 22.1418" fill="#BFCFB5"></path><path d="M37.9996 7.44054V7.38365C37.9605 7.32675 37.8627 7.32675 37.7845 7.34571L37.2955 7.42158C37.0216 7.45951 37.0021 7.36468 37.0216 7.13709C37.0207 6.91706 37.0604 6.69865 37.139 6.49224C37.2145 6.29083 37.2606 6.08016 37.2759 5.86635C37.2858 5.80985 37.2858 5.75215 37.2759 5.69566C37.2553 5.63622 37.2027 5.59252 37.139 5.58186C37.0607 5.58186 37.0216 5.63876 36.9825 5.69566C36.797 5.93422 36.6334 6.18807 36.4935 6.4543C36.4537 6.54915 36.3761 6.62439 36.2783 6.66293C36.1705 6.73944 36.0286 6.75392 35.9067 6.70086C35.8263 6.58021 35.773 6.44451 35.7502 6.30257L35.5742 5.69566C35.5155 5.52496 35.3003 4.93701 35.0656 5.31633C34.8309 5.69566 35.0069 5.77152 35.0265 5.96118V6.49224C35.0403 6.6541 35.0134 6.81679 34.9482 6.96639C34.8113 7.17502 34.381 7.04225 34.2049 6.96639L33.9115 6.77673C33.7417 6.6963 33.5501 6.66975 33.3638 6.70086C33.3015 6.72833 33.2585 6.78542 33.2505 6.85138C33.2425 6.91733 33.2707 6.98254 33.3247 7.02329C33.4432 7.10975 33.5485 7.21189 33.6377 7.32675C33.7114 7.40094 33.7898 7.47062 33.8724 7.53538L34.381 7.95263C34.4592 8.00953 34.5961 8.10436 34.5766 8.23712C34.557 8.36989 34.381 8.40782 34.2636 8.44575C34.1109 8.47246 33.9605 8.51051 33.8137 8.55955C33.7734 8.57376 33.7391 8.60041 33.7159 8.63541C33.6377 8.9768 34.4397 9.0337 34.6157 9.07164C34.6465 9.07164 34.6755 9.08569 34.6939 9.10957C34.7125 9.13767 34.7195 9.17153 34.7135 9.2044C34.7021 9.54962 34.5633 9.87941 34.3223 10.1337C34.0485 10.4372 33.6573 10.6458 33.3834 10.9303C32.8598 11.5007 32.5377 12.2184 32.4641 12.9787C32.4046 12.9963 32.3404 12.973 32.3076 12.9218C32.2905 12.86 32.2839 12.7959 32.288 12.7321C32.3076 12.2769 32.3467 11.7838 32.5814 11.3855C32.7205 11.195 32.8263 10.9835 32.8944 10.7596C32.9107 10.6444 32.8973 10.5271 32.8553 10.4182C32.7575 9.92511 32.5423 9.67855 32.2294 9.28026C31.9164 8.88197 31.5839 8.40782 31.2318 7.99056C30.5276 7.17502 29.7256 6.43534 28.7085 6.01808C27.6914 5.60083 26.2048 5.58186 24.9725 5.37323C24.151 5.25943 23.5837 5.06977 22.7622 5.2215C23.2619 4.75585 23.632 4.17517 23.838 3.53351C23.8967 3.36282 22.6644 2.16795 22.234 1.99725C22.0365 1.93464 21.8464 1.852 21.6668 1.75069C21.489 1.62543 21.342 1.46349 21.2365 1.27654C21.0604 0.935148 20.9626 0.57479 20.8061 0.214433C20.7938 0.14864 20.7594 0.0886339 20.7083 0.0437374C20.6559 -0.00646086 20.5744 -0.0143607 20.5127 0.0247712C20.4736 0.0627036 20.4736 0.100636 20.4541 0.138568C20.4345 0.176501 20.3758 0.707553 20.1998 0.840317C20.157 0.890166 20.0888 0.912211 20.0237 0.897215C19.613 0.745486 19.1826 0.593756 18.7914 0.404095C18.4002 0.214433 18.3415 0.290298 18.2437 0.517892C18.1459 0.745486 18.3807 0.82135 18.5176 0.916181C18.6545 1.01101 18.8697 1.14378 19.0262 1.25757C19.1826 1.37137 19.3391 1.69379 18.9675 1.86449L18.322 2.11105C18.2046 2.16795 18.0481 2.20588 18.0873 2.37658C18.1337 2.49643 18.2488 2.57831 18.3807 2.5852H19.0848C19.2218 2.5852 19.4174 2.50934 19.5347 2.60417C19.5897 2.67497 19.6174 2.76221 19.613 2.85073C19.5799 3.07047 19.5668 3.29259 19.5738 3.51455C19.5738 3.53351 19.5738 3.55248 19.5934 3.55248C19.5934 3.57343 19.6109 3.59041 19.6325 3.59041C19.691 3.61169 19.7564 3.60464 19.8086 3.57145C19.8636 3.53735 19.9103 3.49205 19.9455 3.43868C20.0433 3.30592 20.2976 2.77487 20.5323 2.85073L20.6105 2.90763C20.7222 3.03478 20.8543 3.14365 21.0017 3.23005L21.4321 3.47661C21.569 3.57145 21.6472 3.66628 21.6277 3.78007C21.6081 3.89387 21.6277 3.81801 21.6081 3.81801C21.5886 3.81801 21.5886 3.89387 21.5886 3.91284C21.5886 3.9318 21.569 3.96973 21.5494 3.9887C20.4932 5.43013 18.1655 6.32154 16.3268 6.13188C15.8574 6.09395 15.3879 5.96118 14.8989 5.90428C13.5102 5.73359 12.0823 6.22671 10.9282 7.02329C9.77414 7.81987 7.46603 9.65959 8.11152 11.1389C8.17579 11.3103 8.26827 11.4704 8.38536 11.6131C9.14821 12.4855 10.7326 12.6373 11.828 12.6373C13.3928 12.6183 14.8011 12.6183 16.2486 12.1062C16.5981 11.9572 16.8773 11.6865 17.031 11.3476C17.3374 10.831 17.8024 10.4199 18.3611 10.1717L18.811 9.98201C18.8697 9.96305 19.1826 10.2286 19.2413 10.2665C19.3615 10.3728 19.4667 10.494 19.5543 10.6269C19.7144 10.9313 19.8265 11.2574 19.8868 11.5941C19.9471 11.8457 20.0255 12.0929 20.1215 12.3338C20.1998 12.6183 20.2976 12.9028 20.1998 13.2063C20.0979 13.4827 19.8649 13.6945 19.5738 13.7752C19.2804 13.8511 19.0457 13.6804 18.8501 13.4908C18.6545 13.3011 18.4785 13.0356 18.3024 13.1494C18.2513 13.2143 18.2367 13.2995 18.2633 13.377L18.322 13.7752C18.3415 13.8511 18.3415 13.9459 18.2829 13.9839C18.2307 14.0171 18.1653 14.0241 18.1068 14.0028C17.8486 13.9641 17.5936 13.907 17.344 13.8321C17.218 13.7887 17.0863 13.7632 16.9528 13.7563C16.8158 13.7752 16.6202 13.8701 16.6202 14.0218C16.6202 14.1735 16.7963 14.2115 16.8941 14.2684L17.3049 14.5339C17.4027 14.6287 17.6374 14.7615 17.6178 14.9132C17.6138 14.9869 17.5784 15.0556 17.52 15.1029L17.1484 15.4063C17.0265 15.4577 16.9141 15.5282 16.8158 15.615C16.7376 15.6719 16.6007 15.8426 16.6594 15.9374C16.718 16.0322 16.855 16.0133 16.9136 16.0133C17.1123 16.0033 17.3092 15.9715 17.5005 15.9184L18.2046 15.7477C18.3143 15.7161 18.432 15.7228 18.5372 15.7667C18.6406 15.8669 18.6644 16.0208 18.5958 16.146C18.5327 16.2725 18.4867 16.4064 18.4589 16.5443C18.4561 16.5832 18.4628 16.6222 18.4785 16.6581C18.5763 16.7529 18.8306 16.6012 18.8892 16.5443C18.9479 16.4874 19.1044 16.2788 19.2218 16.165C19.3391 16.0512 19.9064 15.3874 20.4736 15.2546C21.0409 15.1218 21.6472 14.6287 21.882 14.1546C22.1167 13.6804 22.0971 13.5097 22.2536 13.2063C22.3693 13.0151 22.4612 12.8114 22.5274 12.5993C22.6057 12.2011 22.5079 11.8597 22.4688 11.4993C22.9382 11.4993 22.8404 12.4097 22.8795 12.6942C22.9301 13.3356 23.2226 13.9365 23.7011 14.3822L24.6986 15.5012C25.0031 15.8706 25.3662 16.1907 25.7745 16.4495C25.995 16.5617 26.2328 16.6385 26.4786 16.6771C26.6351 16.696 26.9481 16.6012 27.0459 16.7719C26.8894 16.5064 24.0923 17.6064 23.7597 17.7392C23.4272 17.8719 23.3881 17.7771 23.3881 17.5116C23.3881 17.2461 23.4468 16.6391 23.0556 16.734C23.0165 16.734 22.9773 16.7719 22.9382 16.8098C22.8991 16.8478 22.8795 16.9426 22.8404 16.9995C22.8013 17.0564 22.6644 17.3788 22.547 17.4167C22.4296 17.4547 22.3514 17.3409 22.2927 17.284C22.2055 17.1664 22.1333 17.039 22.0776 16.9047L21.8233 16.5064C21.7255 16.3736 21.4321 15.8805 21.2169 16.0133C21.0017 16.146 21.1387 16.1839 21.1582 16.2788C21.1778 16.3736 21.2365 16.734 21.2951 16.9616C21.2987 17.0201 21.3119 17.0777 21.3343 17.1323C21.4125 17.3409 21.4712 17.4547 21.2169 17.4926C20.9958 17.5247 20.7706 17.5183 20.5519 17.4736C20.1215 17.4168 19.6912 17.284 19.2413 17.3219H19.1826C19.1671 17.3442 19.1602 17.371 19.1631 17.3978C19.1826 17.5116 19.3 17.5874 19.3978 17.6443C19.719 17.8571 20.0594 18.0412 20.4149 18.1944L20.5323 18.2702C20.7475 18.5358 20.1411 18.6306 20.0237 18.6685L19.0848 18.8961L18.9675 18.934C18.8892 18.9909 18.9088 19.1047 18.9479 19.1806C19.0061 19.252 19.0899 19.2994 19.1826 19.3134C19.5303 19.3801 19.8858 19.3992 20.2389 19.3703C20.3758 19.3703 21.1387 19.3323 20.9822 19.5979C20.9665 19.6425 20.9304 19.6775 20.8844 19.6927C20.6888 19.8255 20.3563 20.0151 20.3758 20.1289C20.3954 20.2427 20.5323 20.2617 20.6497 20.2806C20.9454 20.312 21.2445 20.2862 21.5299 20.2048C21.7646 20.1668 22.0189 20.1858 22.2536 20.1289C22.4883 20.072 23.1143 19.8065 23.5446 19.6548L24.3857 19.4082L24.9725 19.2565L25.7158 19.1047C26.0479 19.0732 26.3827 19.0796 26.7134 19.1237C27.2024 19.1616 27.3393 19.0858 27.6522 19.0858C27.9652 19.0858 29.0606 19.1047 29.5105 19.5599C29.9604 20.0151 29.53 20.2427 29.7843 21.7221C29.9408 22.4997 30.0973 22.7083 30.332 23.9601C30.3907 24.2825 30.3907 24.3584 30.4494 24.6808C30.508 25.0032 30.7036 25.686 30.8797 26.3498C31.2905 28.0568 31.1927 28.4361 31.6621 31.1672C31.9751 33.1776 31.8381 32.2862 32.3858 35.8898C32.6206 37.483 32.8553 37.8623 33.6768 38.5071C33.8724 38.6589 34.2636 39.0951 34.5179 38.9813C34.7722 38.8675 34.7331 37.9192 34.5375 35.9657C33.9702 29.9724 34.7135 32.2862 34.381 26.2929C34.3027 24.8894 34.2832 23.467 34.3027 22.0635C34.3223 20.66 34.1267 19.6358 34.4005 18.422C34.5766 17.6254 34.5179 16.8098 34.4592 15.9943C34.3419 14.5149 35.0069 13.2252 35.2416 12.5235C35.3983 12.0269 35.6505 11.5636 35.9849 11.1579C36.3774 10.6403 36.6934 10.0722 36.9238 9.46992C37.5106 8.18023 37.6084 7.93367 37.7845 7.78194C37.9031 7.6785 37.9795 7.53714 37.9996 7.38365" fill="#BFCFB5"></path><path d="M53.8504 26.9551C55.0709 25.7676 56.7168 24.9141 58.4181 25.0069C60.6558 25.1182 62.616 26.9365 64.8537 26.8252H64.9646C65.0201 26.8623 65.0016 26.9551 64.9646 27.0293C64.764 27.4784 64.663 27.9659 64.6687 28.458C64.1879 28.3652 63.855 27.9385 63.4667 27.6416C62.5421 26.9365 61.2475 26.9365 60.1565 27.2891C59.4907 27.5117 58.8435 27.6601 58.1962 27.957C57.53 28.2665 56.8818 28.6134 56.2545 28.9961C55.6997 29.3115 55.2004 29.7197 54.6641 30.0536C54.0166 30.4468 53.3202 30.7525 52.5929 30.9628C52.3895 31.0185 52.1121 31.037 52.0381 30.8329C51.9641 30.6288 52.0196 30.703 52.0196 30.6288C52.2099 29.2299 52.8531 27.9326 53.8504 26.9365" fill="#BFCFB5"></path><path d="M62.0597 30.4619C62.5551 30.6324 63.027 30.8499 63.4668 31.1105L64.1985 31.6132C64.4049 31.7591 64.63 31.9212 64.8177 32.0834C65.2374 32.427 65.6147 32.8074 65.9433 33.2185C65.9621 33.2671 65.9996 33.2995 65.9996 33.3482C65.9901 33.4134 65.9256 33.4622 65.8495 33.4617C65.7804 33.4731 65.7088 33.4675 65.6432 33.4455C65.4556 33.4293 65.3993 33.4293 65.3055 33.559L65.024 33.9319L64.949 33.9968C64.7051 34.0454 64.8177 33.5266 64.8177 33.4293C64.8121 33.1666 64.7281 32.9097 64.5738 32.6834C64.3674 32.3753 63.9734 32.1969 63.5794 32.0834C62.8396 31.8567 62.0556 31.7575 61.2717 31.7915C60.1273 31.8564 59.0391 32.2293 57.8947 32.3591C57.3906 32.4266 56.877 32.4211 56.375 32.3428C56.13 32.3082 55.8906 32.2483 55.662 32.1645C55.4615 32.1155 55.2714 32.0389 55.0992 31.9375C54.8741 31.7753 55.0804 31.4186 55.2305 31.2564C55.3653 31.1313 55.5239 31.027 55.6996 30.9483C56.5494 30.4713 57.5101 30.1613 58.5138 30.0403C59.718 29.9215 60.9374 30.0665 62.0597 30.4619Z" fill="#BFCFB5"></path><path d="M59.3308 42.7121C59.5193 43.2799 59.7845 43.819 60.1189 44.3145C60.3837 44.7311 60.6739 45.1307 60.9879 45.5113C61.7346 46.4035 62.6305 47.1585 63.6352 47.7424C64.2029 48.0602 64.7377 48.4339 65.2317 48.858C65.3043 48.9402 65.4056 48.991 65.5146 49C65.5739 48.7664 65.6767 48.5461 65.8178 48.3509C65.8784 48.2698 65.9996 48.1481 65.9996 48.0264C65.9996 47.9047 65.8784 47.925 65.7369 47.925C65.4467 47.9053 65.1609 47.8438 64.8882 47.7424C64.2819 47.4585 63.8777 46.8702 63.514 46.3023C63.2005 45.8592 62.9363 45.3831 62.7258 44.8825C62.4227 44.1117 61.9175 42.5093 60.9677 41.272C60.6233 40.8453 60.2141 40.4757 59.7552 40.1767C59.5531 40.0347 59.2701 39.8725 59.1085 40.1564C58.9468 40.4404 59.0074 40.8461 59.0276 41.13C59.0483 41.6698 59.1505 42.2032 59.3308 42.7121Z" fill="#BFCFB5"></path><path d="M55.5574 47.8018C55.6209 46.7616 55.7655 45.728 55.9897 44.7107C56.3093 43.1367 56.4409 41.4299 55.8393 39.9507C55.0122 37.9215 52.8315 36.8785 50.7448 37.0113C49.104 37.1175 47.6982 38.2339 47.2106 39.818C47.084 40.2033 47.0205 40.6068 47.0226 41.0127C47.3498 40.939 47.6838 40.9009 48.019 40.8989C48.2975 40.8968 48.5752 40.9286 48.8461 40.9937C49.2973 40.6144 49.5793 40.2162 50.162 40.0076C49.9273 40.306 49.6763 40.5909 49.4101 40.861C49.2785 40.9937 49.1469 41.2782 48.9589 41.3351C48.3949 41.1834 47.6994 41.2971 47.1542 41.4868C47.1166 41.5058 47.0602 41.5058 47.0414 41.5437C46.9979 41.5826 46.971 41.6369 46.9662 41.6954C46.5227 43.0992 46.1711 44.531 45.9135 45.9813C45.7819 46.7209 45.6315 47.4415 45.4811 48.1621C45.4623 48.3138 45.0487 49.793 45.5563 49.6603L45.6691 49.5655C46.2908 48.9042 46.8162 48.1571 47.2294 47.3467C47.4738 46.8726 47.6806 46.3605 47.925 45.8675C48.3103 45.0986 48.7371 44.3516 49.2033 43.6297C49.5981 43.0418 49.8049 42.3591 50.2936 41.8471C50.7824 41.3351 53.0759 40.1214 53.8842 40.9748C54.2602 41.373 54.091 42.0747 53.4707 44.1797L53.1323 45.9433C52.5495 47.9535 51.9103 49.9827 51.6848 52.0498C51.4592 54.1168 50.1808 56.4115 48.9213 58.3648C47.8498 59.9767 46.5526 61.399 45.3871 62.9351C44.9735 63.4472 44.6351 63.9971 44.2216 64.4902C43.808 64.9832 43.244 66.0452 43.3756 66.4435C43.4132 66.5573 43.7892 66.5573 43.7892 66.5573C43.8319 66.6118 43.858 66.6777 43.8644 66.7469C43.8832 67.0124 43.6576 67.3537 43.5448 67.5813C43.432 67.8089 42.9996 68.5295 42.9996 69.1174C43.4132 69.2122 43.7892 68.9278 44.09 68.6433L44.8795 67.9227C45.0427 67.7621 45.2339 67.6335 45.4435 67.5434C44.7131 68.331 44.2349 69.3222 44.0712 70.388C43.8456 71.7155 45.4059 70.5207 45.8383 70.1794C46.6303 69.4942 47.3601 68.7389 48.019 67.9227C48.3687 67.546 48.6775 67.1328 48.9401 66.69C49.1657 66.2918 49.3349 65.9125 49.5793 65.5142C49.8237 65.116 49.9929 64.6988 50.2372 64.2816C50.5355 63.813 50.8619 63.3633 51.2148 62.9351C51.3088 62.8213 51.384 62.7076 51.478 62.6127C51.5156 63.1437 51.2712 63.6558 51.008 64.1299C50.7475 64.4972 50.515 64.8839 50.3124 65.2867C50.1432 65.6659 50.1432 65.8935 50.5568 65.9694C50.9704 66.0452 51.8164 66.1211 52.4367 66.1969C53.4232 66.3126 54.4202 66.0995 55.2754 65.5901C55.7016 65.3582 56.1046 65.0851 56.4785 64.7746C56.6157 64.6386 56.7669 64.5178 56.9297 64.4143C57.0906 64.308 57.2879 64.2737 57.4748 64.3195C57.55 64.3574 56.4597 65.4763 56.4221 65.5332C56.7417 65.7608 57.6628 65.5711 58.0952 65.5901C59.9751 65.647 61.5354 66.4245 63.0205 66.9365C63.3965 67.0503 64.0921 67.1451 64.1861 67.0124C64.2801 66.8796 64.1861 66.7848 64.1109 66.709C64.4374 66.8767 64.7853 66.9979 65.1448 67.0693C65.5208 67.1831 65.9156 67.3348 66.3104 67.2969C66.4769 67.2907 66.6335 67.2152 66.7427 67.0882C67.0999 66.671 66.3292 66.178 66.0848 65.9314L64.7125 64.6229C65.5584 65.4763 66.8555 65.9694 67.8331 66.671C67.9915 66.8214 68.1985 66.9089 68.4159 66.9176C68.773 66.9176 69.0174 66.5004 68.9986 66.14C68.9293 65.7791 68.7522 65.4483 68.491 65.1918C67.4195 63.9592 66.0472 63.011 64.7689 61.9869C64.1296 61.4944 63.5322 60.9488 62.9829 60.356C62.4378 59.7681 62.137 59.0854 61.479 58.6113C61.123 58.3201 60.7144 58.1012 60.2759 57.9665C59.6367 57.8338 58.9788 58.232 58.3584 58.0993C57.738 57.9665 57.456 57.208 57.2305 56.7339C57.0588 56.3658 56.9143 55.9855 56.7981 55.596C56.6289 55.065 56.4409 54.534 56.2717 54.0031C55.7265 52.3532 55.6137 50.7412 55.5574 49.0155C55.5386 48.5983 55.5386 48.2001 55.5574 47.8018Z" fill="#BFCFB5"></path><path d="M54.5647 66.5122C54.6196 66.6911 54.7057 66.8612 54.8198 67.0163L57.0434 67.0813H58.1552C58.2839 67.0896 58.4118 67.1059 58.538 67.1301C58.7567 67.1463 59.1941 67.0325 58.9025 67.3577C58.8137 67.439 58.7399 67.5323 58.6838 67.6341C58.6413 67.7475 58.6546 67.8715 58.7203 67.9756C58.7385 68.0081 58.7749 68.0407 58.7749 68.0732L58.7203 68.1219L58.5562 68.187L58.374 68.2683C58.2365 68.2931 58.1062 68.3429 57.9912 68.4146C57.9183 68.4634 57.8819 68.5772 57.8272 68.6423C57.7725 68.7073 57.6449 68.8699 57.572 69C57.171 69 56.8065 68.8049 56.442 68.6423L55.5124 68.2683C55.239 68.1707 54.9292 68.1057 54.6558 67.9919C54.508 67.9394 54.3766 67.8557 54.273 67.748C54.1926 67.6184 54.1488 67.4733 54.1454 67.3252L54.0908 66.6423C54.0361 66.0244 54.0543 65.6179 53.9996 65L54.3459 65.0325H54.4006C54.4188 65.0488 54.4188 65.065 54.4188 65.0976C54.51 65.6016 54.3824 66.0244 54.5647 66.4959" fill="#BFCFB5"></path><path d="M50.7583 67.9894C50.6887 67.6469 50.6759 67.2948 50.7206 66.9479C50.7299 66.587 50.711 66.2258 50.6639 65.8679C50.6261 65.5786 50.6072 65.2893 50.5505 65H50.2481C50.2481 65.5207 50.267 66.0415 50.2859 66.5622C50.3048 67.0829 50.2292 67.4494 50.2103 67.893C50.2166 68.0483 50.2039 68.2038 50.1725 68.3559C50.1259 68.5166 50.0625 68.6718 49.9836 68.8187C49.7486 69.3532 49.4639 69.8635 49.1332 70.3424C49.0634 70.4242 49.0176 70.5245 49.001 70.6317C48.9916 70.7641 49.0322 70.8952 49.1143 70.9981C49.1143 71.0174 49.6245 70.8824 49.6812 70.8824C49.8737 70.8408 50.071 70.8278 50.267 70.8438C50.6639 70.8824 51.0229 70.9981 51.4197 70.9981C51.5827 71.0073 51.7452 70.9741 51.8921 70.9017L52.1945 70.7088C52.3157 70.663 52.4432 70.6369 52.5724 70.6317C52.7992 70.6317 53.007 70.5931 53.2338 70.6124C53.4411 70.6444 53.6524 70.6378 53.8574 70.5931C53.8952 70.5738 53.9519 70.5545 53.9708 70.516C54.0093 70.472 54.0093 70.4056 53.9708 70.3617L53.9141 70.3231L53.4417 70.0531L52.837 69.7252C52.4059 69.4984 51.9949 69.2339 51.6087 68.9345C51.3534 68.7492 51.1189 68.5358 50.9095 68.298C50.8516 68.1992 50.8011 68.096 50.7583 67.9894Z" fill="#BFCFB5"></path><path d="M57.0315 49.7187C56.7363 49.1168 56.4969 48.477 56.3175 47.811C55.6988 45.4987 56.0478 42.666 56.8094 43.0322C56.927 43.1192 57.0209 43.2466 57.0791 43.3983C57.444 44.0535 57.6343 44.9013 57.8564 45.6721C58.0957 46.48 58.2761 47.3118 58.3958 48.1579C58.4593 48.6589 58.491 49.1599 58.5704 49.6609C58.7635 51.0241 59.2507 52.3007 59.9823 53.3607C60.0141 53.3992 59.9982 53.4185 59.9665 53.4378C59.739 53.487 59.5351 53.6383 59.3953 53.8617L59.2684 53.9966C59.2077 54.0106 59.1458 53.9806 59.1098 53.9195C58.9511 53.7268 58.967 53.38 58.9035 53.0909C58.8235 52.7964 58.6999 52.5221 58.5386 52.2816C58.0944 51.5493 57.6026 50.8749 57.2218 50.0849L57.0315 49.7187Z" fill="#BFCFB5"></path></g><defs><clipPath id="clip0_205_2"><rect width="301" height="71" fill="white"></rect></clipPath></defs></svg>