<svg width="auto" height="100%" viewBox="0 0 20 18" fill="none" xmlns="http://www.w3.org/2000/svg">
<path fill="#fff" d="M16.4688 18L3.5304 18C3.14232 18 2.78409 17.7887 2.59005 17.4457L0.145531 13.1212C-0.0485103 12.7783 -0.0485103 12.3563 0.145531 12.0134L6.61132 0.554944C6.80536 0.211308 7.16427 0 7.55235 0L12.4482 0C12.8362 0 13.1952 0.211308 13.3885 0.554944L19.855 12.0134C20.0483 12.3563 20.0483 12.7783 19.855 13.1212L17.4105 17.4451C17.2164 17.788 16.8582 17.9993 16.4701 17.9993L16.4688 18ZM9.99958 4.29475C6.81486 4.29475 4.23261 6.9316 4.23261 10.1837C4.23261 13.4357 6.81486 16.0726 9.99958 16.0726C13.1843 16.0726 15.7665 13.4357 15.7665 10.1837C15.7665 6.9316 13.1843 4.29475 9.99958 4.29475Z"></path>
</svg>