<svg height="327" viewBox="0 0 377 327" width="377" xmlns="http://www.w3.org/2000/svg" xmlns:xlink="http://www.w3.org/1999/xlink"><linearGradient id="a" x1="30.520658%" x2="45.99849%" y1="50.199443%" y2="44.575421%"><stop offset="0" stop-color="#d10000" stop-opacity="0"/><stop offset="1" stop-color="#910000" stop-opacity=".25"/></linearGradient><linearGradient id="b" x1="57.870377%" x2="46.812589%" y1="57.507513%" y2="53.346988%"><stop offset="0" stop-color="#23015a" stop-opacity="0"/><stop offset="1" stop-color="#23015a" stop-opacity=".3"/></linearGradient><mask id="c" fill="#fff"><path d="m30.751 23.956 211.448-23.216c18.475-2.028 35.088 11.309 37.107 29.791l.042.391c2.019 18.481-11.321 35.108-29.795 37.136l-211.448 23.217c-18.474 2.028-35.088-11.309-37.106-29.791l-.043-.391c-2.019-18.482 11.321-35.108 29.795-37.137zm206.037 8.393c-.002 7.651 6.196 13.851 13.843 13.8490005 7.647-.0010005 13.848-6.2050005 13.85-13.8550005.002-7.651-6.196-13.851-13.843-13.8490005-7.647.0020005-13.848 6.2050005-13.85 13.8550005zm-105.390001 13.846c-.001999 6.8 5.507001 12.312 12.305001 12.3100005 6.797-.0010005 12.309-5.5150005 12.311-12.3160005.001-6.8-5.508-12.312-12.305-12.3100005-6.798.0020005-12.31 5.5160005-12.311001 12.3160005zm-109.4299995 11.041c-.0019995 6.801 5.5070005 12.312 12.3050005 12.311 6.797-.002 12.309-5.516 12.311-12.316.001-6.801-5.508-12.312-12.305-12.311-6.798.002-12.31 5.516-12.3110005 12.316z" fill="#fff" fill-rule="evenodd"/></mask><mask id="d" fill="#fff"><path d="m67.009 23.9836c-5.741-17.6893-24.729-27.3666-42.412-21.6149l-.374.1218c-17.683 5.7518-27.363 24.7544-21.621 42.4437l83.771 258.1078c5.741 17.69 24.729 27.367 42.412 21.615l.374-.122c17.682-5.751 27.363-24.754 21.621-42.443zm45.517 205.4454c-.001 7.654-6.204 13.86-13.854 13.862-7.65.001-13.85-6.202-13.8480005-13.856.0010005-7.654 6.2040005-13.86 13.8540005-13.862 7.65-.001 13.85 6.202 13.848 13.856zm-77.984-208.5045003c6.8-.0013997 12.312 5.5128003 12.3100005 12.3163003-.0010005 6.8036-5.5150005 12.3201-12.3150005 12.3215003-6.8.0013997-12.311-5.5127003-12.31-12.3163003.002-6.8035 5.515-12.32 12.315-12.3215003zm46.3790005 116.4375003c-.0010005 6.804-5.5150005 12.32-12.3150005 12.322-6.8.001-12.311-5.513-12.31-12.317.002-6.803 5.515-12.32 12.315-12.321001 6.8-.001999 12.312 5.513001 12.3100005 12.316001z" fill="#fff" fill-rule="evenodd"/></mask><mask id="e" fill="#fff"><path d="m354.245 26.536c3.94 18.167-7.59 36.095-25.752 40.043l-287.556 62.514c-18.162 3.948-36.079-7.578-40.018-25.746-3.94-18.167 7.59-36.095 25.751-40.043l287.557-62.514c18.162-3.948 36.079 7.579 40.018 25.746zm-335.3500005 69.158c-.0019995 7.65 6.1960005 13.85 13.8430005 13.849 7.647-.002 13.848-6.204 13.8490005-13.854.0019995-7.65-6.1960005-13.851-13.8430005-13.8490005-7.647.0010005-13.848 6.2040005-13.8490005 13.8540005zm153.4969995-31.682c-.001999 6.8 5.507001 12.311 12.305001 12.31 6.797-.001 12.309-5.515 12.310001-12.315.001999-6.8-5.508001-12.311-12.305001-12.31-6.798.001-12.309 5.515-12.310001 12.315zm137.005-30.592c-.001999 6.8 5.508001 12.311 12.305001 12.31s12.309-5.515 12.310001-12.315c.001999-6.8-5.508001-12.311-12.305001-12.31s-12.309 5.515-12.310001 12.315z" fill="#fff" fill-rule="evenodd"/></mask><g fill="none" fill-rule="evenodd"><path d="m85.984 23.9825c5.741-17.6893 24.73-27.3666 42.412-21.6149l.374.1219c17.683 5.7517 27.363 24.7543 21.622 42.4436l-83.163 256.2339c-5.741 17.69-24.73 27.367-42.412 21.615l-.375-.122c-17.682-5.751-27.362-24.754-21.621-42.443zm-23.5580005 138.2245c.0010005 7.654 6.2040005 13.86 13.8540005 13.861 7.65.002 13.85-6.201 13.8480005-13.855-.0010005-7.654-6.2040005-13.861-13.8540005-13.862-7.65-.002-13.85 6.202-13.8480005 13.856zm43.7969995-128.9672c.001001 6.8035 5.515001 12.32 12.315001 12.3214003 6.799.0014997 12.311-5.5127003 12.309001-12.3162003-.001001-6.8036-5.515001-12.3201-12.315001-12.3215003-6.8-.0014997-12.311 5.5127003-12.309001 12.3163003zm-84.772999 258.4322c.002 6.803 5.515 12.32 12.315 12.321001 6.8.001999 12.311-5.512001 12.31-12.316001-.002-6.804-5.515-12.32-12.315-12.321001-6.8-.001999-12.311 5.512001-12.31 12.316001z" fill="#fff"/><g mask="url(#c)" transform="translate(42 105)"><g transform="translate(0 -9)"><path d="m30.75 32.943 211.445-23.203c18.474-2.028 35.088 11.313 37.108 29.798l.043.391c2.02 18.484-11.318 35.112-29.792 37.139l-211.445 23.204c-18.474 2.027-35.088-11.314-37.108-29.798l-.043-.392c-2.02-18.484 11.318-35.112 29.792-37.139zm206.036 8.41c-.001 7.652 6.197 13.854 13.844 13.8520005 7.647-.0010005 13.848-6.2050005 13.849-13.8560005.001-7.652-6.197-13.854-13.844-13.8520005-7.648.0010005-13.848 6.2050005-13.849 13.8560005zm-105.388 13.84c-.001 6.801 5.508 12.314 12.306 12.313 6.797-.001 12.308-5.516 12.309001-12.317.001999-6.802-5.508001-12.314-12.305001-12.313-6.798.001-12.309 5.515-12.31 12.317zm-109.428 11.034c-.001 6.801 5.508 12.314 12.306 12.313 6.797-.001 12.308-5.516 12.3090005-12.317.0019995-6.801-5.5080005-12.314-12.3050005-12.313-6.798.001-12.309 5.515-12.31 12.317z" fill="#fc3" fill-rule="nonzero"/><path d="m258.559 90.367-58.054-87.625-16.531-2.399c11.889 41.014 19.625 67.052 23.206 78.113 3.261 12.17 20.387 16.141 51.379 11.911z" fill="url(#a)" fill-opacity=".75" fill-rule="evenodd"/></g></g><path d="m67.009 23.9836c-5.741-17.6893-24.729-27.3666-42.412-21.6149l-.374.1218c-17.683 5.7518-27.363 24.7544-21.621 42.4437l83.771 258.1078c5.741 17.69 24.729 27.367 42.412 21.615l.374-.122c17.682-5.751 27.363-24.754 21.621-42.443zm45.517 205.4454c-.001 7.654-6.204 13.86-13.854 13.862-7.65.001-13.85-6.202-13.8480005-13.856.0010005-7.654 6.2040005-13.86 13.8540005-13.862 7.65-.001 13.85 6.202 13.848 13.856zm-77.984-208.5045003c6.8-.0013997 12.312 5.5128003 12.3100005 12.3163003-.0010005 6.8036-5.5150005 12.3201-12.3150005 12.3215003-6.8.0013997-12.311-5.5127003-12.31-12.3163003.002-6.8035 5.515-12.32 12.315-12.3215003zm46.3790005 116.4375003c-.0010005 6.804-5.5150005 12.32-12.3150005 12.322-6.8.001-12.311-5.513-12.31-12.317.002-6.803 5.515-12.32 12.315-12.321001 6.8-.001999 12.312 5.513001 12.3100005 12.316001z" fill="#fff" mask="url(#d)" transform="translate(224)"/><g mask="url(#e)" transform="translate(1 196)"><path d="m354.242 26.541c3.94 18.17-7.588 36.101-25.749 40.048l-287.551 62.505c-18.162 3.947-36.079-7.583-40.02-25.753s7.588-36.101 25.749-40.049l287.551-62.504c18.162-3.947 36.079 7.582 40.02 25.753zm-335.345 69.147c-.001 7.651 6.198 13.853 13.845 13.852s13.847-6.205 13.848-13.856-6.197-13.853-13.844-13.852c-7.648.001-13.848 6.204-13.849 13.856zm153.495-31.677c-.001 6.801 5.508 12.314 12.306 12.313 6.797-.001 12.308-5.515 12.309-12.317.001-6.801-5.509-12.313-12.306-12.312-6.797 0-12.309 5.515-12.309 12.316zm137.002-30.588c-.001 6.801 5.509 12.314 12.306 12.313s12.309-5.515 12.309-12.316c.001-6.801-5.508-12.314-12.306-12.313-6.797.001-12.308 5.515-12.309 12.316z" fill="#ff2346" fill-rule="nonzero"/><path d="m37.102 142.71 35.107-95.511 30.526-8.971c-13.09 47.796-20.808 76.723-23.155 86.78-2.628 11.26-16.787 17.161-42.478 17.702z" fill="url(#b)" fill-opacity=".7"/></g><path d="m18.052 233.175c4.471-13.779 19.261-21.317 33.032-16.836 2.088.679 4.082 1.617 5.934 2.793l.688.451c10.244-4.682 22.346-.166 27.03 10.087 2.126 4.654 2.428 9.937.845 14.802l-18.991 58.385c-5.772 17.668-24.749 27.332-42.426 21.606l-.314-.102c-17.679-5.751-27.357-24.753-21.617-42.441zm3.215 58.495c.001 6.803 5.514 12.32 12.313 12.321 6.798.001 12.308-5.512 12.307-12.315-.001-6.804-5.514-12.32-12.313-12.321001-6.798-.001999-12.308 5.512001-12.307 12.315001z" fill="#fff"/></g></svg>