<svg fill="none" height="202" viewBox="0 0 960 202" width="960" xmlns="http://www.w3.org/2000/svg" xmlns:xlink="http://www.w3.org/1999/xlink"><linearGradient id="a" gradientUnits="userSpaceOnUse" x1="146.924" x2="157.039" y1="89.0087" y2="86.0226"><stop offset="0" stop-color="#d10000" stop-opacity="0"/><stop offset="1" stop-color="#910000" stop-opacity=".25"/></linearGradient><linearGradient id="b" gradientUnits="userSpaceOnUse" x1="55.6606" x2="44.9922" y1="177.221" y2="174.701"><stop offset="0" stop-color="#23015a" stop-opacity="0"/><stop offset="1" stop-color="#23015a" stop-opacity=".3"/></linearGradient><mask id="c" height="54" maskUnits="userSpaceOnUse" width="163" x="31" y="67"><path d="m49.1488 81.2439 122.6452-13.4969c10.716-1.1793 20.35 6.5577 21.519 17.2809l.024.2272c1.169 10.7232-6.57 20.3719-17.286 21.5509l-122.6451 13.497c-10.7157 1.18-20.3499-6.557-21.5186-17.281l-.0248-.227c-1.1687-10.723 6.5707-20.3718 17.2863-21.5511zm119.5032 4.8446c-.002 4.439 3.592 8.036 8.027 8.034 4.436-.002 8.033-3.6022 8.035-8.0412.002-4.4391-3.592-8.036-8.028-8.034-4.435.002-8.032 3.6021-8.034 8.0412zm-61.13 8.0467c-.001 3.9458 3.193 7.1428 7.136 7.1408 3.943-.001 7.14-3.2014 7.142-7.1472.002-3.9459-3.193-7.1431-7.136-7.1414-3.942.0018-7.14 3.2019-7.142 7.1478zm-63.4717 6.4198c-.0018 3.946 3.1929 7.143 7.1356 7.141 3.9426-.001 7.1402-3.201 7.142-7.147.0017-3.9461-3.193-7.1434-7.1356-7.1416-3.9427.0017-7.1403 3.2019-7.142 7.1476z" fill="#fff"/></mask><mask id="d" height="190" maskUnits="userSpaceOnUse" width="89" x="137" y="6"><path clip-rule="evenodd" d="m175.76 20.3102c-3.329-10.2675-14.345-15.88281-24.605-12.54217l-.217.07078c-10.26 3.34069-15.878 14.37219-12.549 24.63979l48.575 149.8154c3.329 10.268 14.345 15.883 24.605 12.542l.217-.07c10.26-3.341 15.879-14.373 12.549-24.64zm26.386 119.2508c-.001 4.443-3.601 8.046-8.039 8.048-4.439.001-8.035-3.599-8.034-8.042.002-4.443 3.602-8.046 8.04-8.048 4.438-.001 8.035 3.599 8.033 8.042zm-45.223-121.0229c3.946-.0016 7.143 3.1987 7.141 7.1479-.002 3.9493-3.201 7.1521-7.146 7.1537-3.946.0015-7.143-3.1987-7.141-7.148.001-3.9492 3.201-7.152 7.146-7.1536zm26.896 67.5838c-.001 3.9492-3.201 7.152-7.146 7.1536s-7.142-3.1987-7.141-7.1479c.002-3.9493 3.201-7.1521 7.147-7.1537 3.945-.0016 7.142 3.1987 7.14 7.148z" fill="#fff" fill-rule="evenodd"/></mask><mask id="e" height="76" maskUnits="userSpaceOnUse" width="207" x="7" y="120"><path d="m213.001 135.538c2.283 10.54-4.406 20.943-14.94 23.236l-166.7914 36.3c-10.5344 2.293-20.925-4.393-23.20806-14.933-2.28302-10.54 4.40606-20.943 14.94046-23.236l166.791-36.301c10.535-2.292 20.925 4.393 23.208 14.934zm-194.5124 40.161c-.0017 4.438 3.5925 8.035 8.0278 8.033 4.4354-.001 8.0324-3.601 8.0341-8.039.0017-4.439-3.5925-8.036-8.0279-8.034s-8.0323 3.601-8.034 8.04zm89.0324-18.398c-.001 3.945 3.193 7.142 7.136 7.141 3.943-.002 7.14-3.202 7.141-7.147.002-3.945-3.193-7.142-7.135-7.141-3.943.002-7.14 3.201-7.142 7.147zm79.467-17.764c-.001 3.945 3.194 7.142 7.136 7.141 3.943-.002 7.14-3.202 7.141-7.147.002-3.945-3.193-7.142-7.135-7.141-3.943.002-7.14 3.201-7.142 7.147z" fill="#fff"/></mask><g fill="#fff"><path clip-rule="evenodd" d="m333.738 52h-26.721l-35.017 101.55h23.335l6-17.25h37.325l5.7 17.25h24.091zm-.977 66h-25.665l12.902-38.2898z" fill-rule="evenodd"/><path d="m394.777 52h-20.55v101.55h20.55z"/><path d="m426.717 52h-20.55v101.55h20.55z"/><g clip-rule="evenodd" fill-rule="evenodd"><path d="m521.613 52h-26.721l-35.017 101.55h23.335l6-17.25h37.325l5.7 17.25h24.091zm-.977 66h-25.665l12.902-38.2898z"/><path d="m581.799 52h-20.55v101.55h20.55v-7.609c2.734 3.246 5.645 5.64 8.99 7.271 3.898 1.9 8.331 2.738 13.66 2.738 10.319 0 19.036-3.827 25.169-10.46 6.129-6.627 9.631-16.006 9.631-27.04 0-22.2637-14.837-38.25-35.7-38.25-4.812 0-8.904.803-12.644 2.6056-3.247 1.5645-6.195 3.865-9.106 6.9844zm-.3 66.6c0-11.679 8.151-20.85 18.3-20.85 9.979 0 17.7 8.849 17.7 20.85 0 6.069-1.9 11.17-5.097 14.744-3.191 3.568-7.711 5.656-13.053 5.656-5.264 0-9.707-2.085-12.843-5.652-3.142-3.573-5.007-8.675-5.007-14.748z"/><path d="m939.188 52h-20.55v37.1813c-3.007-2.9108-6.068-5.0675-9.411-6.5367-3.826-1.6808-7.982-2.4446-12.789-2.4446-8.754 0-17.333 3.5314-24.062 9.8013l-.001.0016c-7.376 6.915-11.338 16.8761-11.338 28.7471 0 11.034 3.503 20.341 9.673 26.895 6.174 6.559 14.966 10.305 25.428 10.305 5.402 0 9.837-.837 13.702-2.76 3.3-1.641 6.14-4.052 8.798-7.33v7.69h20.55zm-56.401 66.9c0-12.442 7.713-21.15 18.151-21.15 10.125 0 17.7 8.695 17.7 21 0 11.678-7.851 20.4-17.851 20.4-10.305 0-18-8.58-18-20.25z"/><path d="m683.416 80.2c-11.422 0-21.106 3.8481-27.938 10.5457-6.833 6.6987-10.762 16.1983-10.762 27.4043 0 22.026 16.097 37.8 38.4 37.8 21.686 0 38.7-16.358 38.7-37.2 0-22.3102-16.082-38.55-38.4-38.55zm-18 37.95c0-5.921 1.825-10.751 4.953-14.094 3.125-3.338 7.606-5.256 13.047-5.256 5.52 0 9.918 1.883 12.943 5.228 3.033 3.354 4.757 8.258 4.757 14.422 0 5.608-1.856 10.368-4.992 13.719-3.132 3.347-7.581 5.331-12.858 5.331-5.359 0-9.803-1.95-12.912-5.309-3.114-3.365-4.938-8.197-4.938-14.041z"/><path d="m762.82 80.2c-20.723 0-35.7 16.4463-35.7 38.7 0 21.505 14.229 37.05 34.2 37.05 5.195 0 9.738-.956 13.815-2.985 3.527-1.755 6.676-4.298 9.585-7.669v8.254h20.55v-70.95h-20.55v7.613c-2.974-3.2519-5.957-5.6546-9.228-7.2901-3.761-1.8805-7.855-2.7229-12.672-2.7229zm-13.8 38.4c0-6.228 1.867-11.445 4.994-15.093 3.12-3.6403 7.525-5.757 12.706-5.757 5.42 0 9.978 2.0909 13.187 5.64 3.214 3.556 5.113 8.618 5.113 14.61 0 11.685-8.307 21.15-18.45 21.15-9.836 0-17.55-8.706-17.55-20.55z"/></g><path d="m855.783 80.2c-4.333 0-8.538 1.2361-11.68 3.4356l-.008.0052-.007.0054c-1.484 1.0938-2.6 2.206-3.594 3.7166-.475.7222-.919 1.5301-1.361 2.4616v-7.2244h-20.55v70.95h20.55v-34.2c0-6.557.6-9.36 2.71-12.314l.006-.009c2.546-3.677 7.104-5.977 12.134-5.977 1.003 0 2.459.145 3.975.296l.825.083v-20.9795l-.644-.092c-1.103-.1575-1.895-.1575-2.356-.1575z"/><path clip-rule="evenodd" d="m56.8012 20.2983c3.3291-10.2675 14.345-15.88282 24.6048-12.54217l.2174.07078c10.2597 3.34069 15.8781 14.37219 12.5491 24.63979l-48.2227 148.7283c-3.329 10.267-14.345 15.882-24.6047 12.542l-.2174-.071c-10.2597-3.341-15.87817-14.372-12.54909-24.64zm-13.6534 80.2327c.0018 4.443 3.6013 8.046 8.0397 8.048s8.035-3.599 8.0333-8.041c-.0018-4.4434-3.6013-8.0465-8.0397-8.0483s-8.035 3.5985-8.0333 8.0413zm25.3968-74.8568c.0016 3.9492 3.2011 7.152 7.1464 7.1536 3.9452.0016 7.1422-3.1987 7.1406-7.1479-.0015-3.9493-3.2011-7.1521-7.1463-7.1537-3.9453-.0015-7.1423 3.1987-7.1407 7.148zm-49.1562 150.0038c.0015 3.949 3.2011 7.152 7.1463 7.153 3.9453.002 7.1423-3.198 7.1407-7.148-.0016-3.949-3.2011-7.152-7.1464-7.153-3.9452-.002-7.1422 3.198-7.1406 7.148z" fill-rule="evenodd"/></g><g mask="url(#c)"><path d="m49.1479 81.2323 122.6411-13.4822c10.716-1.178 20.351 6.5626 21.521 17.289l.025.2273c1.17 10.7264-6.568 20.3766-17.283 21.5546l-122.6413 13.482c-10.7153 1.178-20.3505-6.562-21.5208-17.289l-.0248-.227c-1.1703-10.7264 6.5675-20.3768 17.2828-21.5547zm119.5021 4.8639c-.002 4.4403 3.593 8.0388 8.028 8.0375 4.436-.0013 8.032-3.602 8.034-8.0422.001-4.4403-3.594-8.0388-8.029-8.0375s-8.032 3.602-8.033 8.0422zm-61.128 8.0397c-.001 3.9469 3.194 7.1451 7.137 7.1441s7.14-3.2014 7.141-7.1483-3.194-7.1456-7.137-7.1444c-3.942.0011-7.139 3.2017-7.141 7.1486zm-63.4697 6.4121c-.0012 3.947 3.194 7.146 7.1366 7.144 3.9426-.001 7.1396-3.201 7.1408-7.148.0011-3.9471-3.194-7.1458-7.1366-7.1446s-7.1396 3.2017-7.1408 7.1486z" fill="#fc3"/><path clip-rule="evenodd" d="m181.275 114.553-33.662-50.8634-9.587-1.391c6.892 23.8085 11.376 38.9234 13.452 45.3434 1.89 7.066 11.822 9.369 29.797 6.911z" fill="url(#a)" fill-opacity=".75" fill-rule="evenodd"/></g><g mask="url(#d)"><path clip-rule="evenodd" d="m175.76 20.3102c-3.329-10.2675-14.345-15.88281-24.605-12.54217l-.217.07078c-10.26 3.34069-15.878 14.37219-12.549 24.63979l48.575 149.8154c3.329 10.268 14.345 15.883 24.605 12.542l.217-.07c10.26-3.341 15.879-14.373 12.549-24.64zm26.386 119.2508c-.001 4.443-3.601 8.046-8.039 8.048-4.439.001-8.035-3.599-8.034-8.042.002-4.443 3.602-8.046 8.04-8.048 4.438-.001 8.035 3.599 8.033 8.042zm-45.223-121.0229c3.946-.0016 7.143 3.1987 7.141 7.1479-.002 3.9493-3.201 7.1521-7.146 7.1537-3.946.0015-7.143-3.1987-7.141-7.148.001-3.9492 3.201-7.152 7.146-7.1536zm26.896 67.5838c-.001 3.9492-3.201 7.152-7.146 7.1536s-7.142-3.1987-7.141-7.1479c.002-3.9493 3.201-7.1521 7.147-7.1537 3.945-.0016 7.142 3.1987 7.14 7.148z" fill="#fff" fill-rule="evenodd"/></g><g mask="url(#e)"><path d="m212.998 135.547c2.284 10.543-4.404 20.949-14.938 23.241l-166.7849 36.291c-10.534 2.292-20.9254-4.398-23.20979-14.942-2.28438-10.543 4.40329-20.949 14.93729-23.241l166.7854-36.291c10.534-2.292 20.925 4.398 23.21 14.942zm-194.5063 40.148c-.0012 4.44 3.5935 8.038 8.0288 8.037 4.4354-.001 8.0318-3.601 8.0329-8.041.0012-4.44-3.5935-8.038-8.0288-8.037-4.4354.001-8.0318 3.601-8.0329 8.041zm89.0293-18.392c-.001 3.946 3.194 7.145 7.137 7.144 3.942-.001 7.139-3.201 7.14-7.148s-3.194-7.145-7.137-7.144c-3.942.001-7.139 3.201-7.14 7.148zm79.464-17.76c-.001 3.947 3.194 7.146 7.137 7.145 3.942-.001 7.139-3.202 7.14-7.148.001-3.947-3.194-7.145-7.136-7.144-3.943.001-7.14 3.201-7.141 7.147z" fill="#ff2346"/><path clip-rule="evenodd" d="m29.0289 202.993 20.3704-55.438 17.7077-5.21c-7.5959 27.743-12.075 44.533-13.4372 50.371-1.5251 6.535-9.7387 9.961-24.6409 10.277z" fill="url(#b)" fill-opacity=".7" fill-rule="evenodd"/></g><path clip-rule="evenodd" d="m17.4233 141.731c2.5924-7.997 11.1707-12.371 19.1602-9.769 1.2112.395 2.3677.94 3.4425 1.622l.3992.262c5.9421-2.716 12.9626-.094 15.6808 5.858 1.2339 2.702 1.4095 5.768.492 8.592l-11.0105 33.886c-3.3462 10.255-14.3536 15.862-24.6089 12.536l-.1817-.059c-10.2561-3.34-15.87255-14.37-12.54465-24.636zm1.8715 33.953c.0015 3.949 3.2 7.151 7.1438 7.153 3.9439.001 7.1397-3.198 7.1382-7.147-.0016-3.949-3.2-7.151-7.1439-7.153-3.9438-.001-7.1397 3.198-7.1381 7.147z" fill="#fff" fill-rule="evenodd"/></svg>