<svg fill="none" height="34" viewBox="0 0 132 34" width="132" xmlns="http://www.w3.org/2000/svg"><g clip-rule="evenodd" fill="#ffcab3" fill-rule="evenodd"><path d="m83.3 32.748h8.535v-21.282h-8.534v21.282zm-33.112 0h8.534v-27.126h-8.535v27.126z"/><path d="m46.235 18.17h16.437v-6.7h-16.437v6.701zm45.895-13.543c0 2.556-2.052 4.628-4.583 4.628-2.53 0-4.583-2.072-4.583-4.628 0-2.555 2.052-4.627 4.583-4.627s4.584 2.072 4.584 4.627zm39.227 23.871c0 2.556-2.052 4.628-4.583 4.628s-4.584-2.072-4.584-4.627c0-2.556 2.053-4.628 4.584-4.628s4.583 2.072 4.583 4.628zm-94.887-11.098c0-.357.327-.892 1.45-.892.663 0 2.035.23 3.337.706l-.003-.002.126.048c.234.09.465.186.689.291.716.332 1.13.637 1.64 1.016.02.014.038.03.055.044v-6.743c-1.216-.045-3.46-.848-6.172-.848-6.125 0-9.586 2.498-9.586 7.094 0 6.603 8.276 6.96 8.276 8.566 0 .357-.233.803-1.169.803-1.173 0-3.367-.603-5.153-1.438-1.179-.49-1.65-.804-2.234-1.222v7.256c1.263 0 4.816 1.204 7.715 1.204 6.359 0 9.399-3.034 9.399-7.183 0-6.603-8.37-7.139-8.37-8.7z"/><path d="m16.694 32.749h8.535v-21.282h-8.535z"/><path d="m12.724 17.96c-2.27 0-4.109 1.857-4.109 4.15 0 2.29 1.84 4.149 4.109 4.149 2.27 0 4.11-1.858 4.11-4.15s-1.84-4.149-4.11-4.149zm7.665 4.15c0 6.084-4.565 11.017-10.195 11.017s-10.194-4.933-10.194-11.017c0-6.085 4.564-11.017 10.194-11.017s10.195 4.932 10.195 11.017zm90.246 10.64h8.534v-32.75h-8.534z"/><path d="m106.664 17.96c-2.269 0-4.109 1.857-4.109 4.15 0 2.29 1.84 4.149 4.109 4.149 2.27 0 4.109-1.858 4.109-4.15s-1.839-4.149-4.109-4.149zm7.664 4.15c0 6.084-4.564 11.017-10.193 11.017-5.63 0-10.195-4.933-10.195-11.018s4.565-11.017 10.195-11.017c5.629 0 10.193 4.932 10.193 11.017zm-36.611-3.357c1.161 0 2.28.488 3.082 1.267v-8.737s-.562-.263-1.684-.263c-3.04 0-5.207 1.581-6.19 4.284v-3.838h-7.745v21.282h8.534v-9.64c0-2.644 1.792-4.355 4.002-4.355z"/></g></svg>