<svg height="68" viewBox="0 0 284 68" width="284" xmlns="http://www.w3.org/2000/svg" xmlns:xlink="http://www.w3.org/1999/xlink"><mask id="a" fill="#fff"><path d="m.06.444h65.3607386v67.556h-65.3607386z" fill="#fff" fill-rule="evenodd"/></mask><g fill="#54b46f" fill-rule="evenodd"><path d="m63.912 45.172-6.118 10.597c-.226.391-.593.671-1.034.789-.44.119-.898.059-1.289-.167l-3.657-2.112c-1.317-.76-3.38-.759-4.696 0l-4.242 2.449c-1.316.761-2.348 2.547-2.348 4.066v4.224c0 .938-.762 1.7-1.7 1.7h-12.236c-.938 0-1.7-.762-1.7-1.7v-4.224c0-1.52-1.031-3.305-2.348-4.066l-4.242-2.449c-.658-.379-1.503-.57-2.347-.57-.845 0-1.69.191-2.348.57l-3.658 2.112c-.391.226-.85.285-1.289.167-.441-.118-.807-.398-1.033-.789l-6.119-10.597c-.225-.391-.285-.849-.167-1.29.119-.44.399-.807.789-1.033l3.659-2.111c1.316-.761 2.347-2.547 2.347-4.067v-4.898c0-1.52-1.031-3.306-2.347-4.066l-3.659-2.112c-.39-.225-.67-.593-.789-1.033-.118-.44-.058-.898.168-1.289l6.118-10.598c.226-.391.592-.671 1.033-.789.44-.118.898-.059 1.289.167l3.658 2.112c1.315.76 3.379.76 4.695 0l4.242-2.449c1.317-.76 2.348-2.546 2.348-4.067v-4.223c0-.937.762-1.7 1.7-1.7h12.236c.938 0 1.7.763 1.7 1.7v4.223c0 1.521 1.032 3.307 2.348 4.067l4.242 2.449c1.316.76 3.379.76 4.696 0l3.657-2.112c.391-.226.849-.284 1.289-.167.441.119.808.399 1.034.789l6.118 10.598c.469.811.189 1.853-.622 2.322l-3.658 2.112c-1.316.76-2.348 2.546-2.348 4.066v4.898c0 1.52 1.032 3.306 2.348 4.067l3.658 2.111c.811.469 1.091 1.511.622 2.323zm.018-3.433-3.657-2.111c-.91-.526-1.707-1.907-1.707-2.957v-4.898c0-1.05.797-2.431 1.707-2.956l3.657-2.112c1.424-.822 1.914-2.649 1.092-4.073l-6.119-10.597c-.397-.688-1.04-1.18-1.811-1.387-.771-.206-1.574-.101-2.261.295l-3.658 2.112c-.91.526-2.504.526-3.414 0l-4.242-2.45c-.909-.524-1.707-1.905-1.707-2.956v-4.223c0-1.644-1.337-2.982-2.982-2.982h-12.236c-1.644 0-2.982 1.338-2.982 2.982v4.223c0 1.051-.797 2.432-1.706 2.956l-4.243 2.45c-.909.525-2.505.525-3.413 0l-3.658-2.112c-.688-.396-1.492-.501-2.262-.295-.771.207-1.414.699-1.811 1.387l-6.118 10.597c-.397.687-.502 1.491-.295 2.262.206.771.698 1.414 1.386 1.811l3.658 2.111c.909.526 1.707 1.907 1.707 2.957v4.898c0 1.05-.798 2.431-1.707 2.957l-3.658 2.112c-.688.396-1.18 1.04-1.386 1.81-.207.772-.102 1.575.295 2.262l6.118 10.598c.397.687 1.04 1.179 1.811 1.386.77.206 1.574.101 2.262-.295l3.658-2.112c.908-.524 2.504-.525 3.413 0l4.243 2.449c.909.525 1.706 1.907 1.706 2.956v4.224c0 1.645 1.338 2.982 2.982 2.982h12.236c1.645 0 2.982-1.337 2.982-2.982v-4.224c0-1.049.798-2.431 1.707-2.956l4.242-2.449c.91-.524 2.504-.524 3.414 0l3.658 2.112c.686.397 1.49.501 2.261.295.771-.207 1.415-.699 1.811-1.386l6.119-10.598c.821-1.424.332-3.251-1.092-4.073z" mask="url(#a)"/><path d="m57.127 48.322c-.906 1.568-4.452 1.743-9.487.467-2.149-.545-4.492-1.331-6.943-2.309.31-2.327.532-4.771.66-7.253 2.129-1.372 4.139-2.78 5.985-4.198 2.065 1.629 3.904 3.26 5.446 4.844 3.622 3.721 5.244 6.88 4.339 8.449zm-24.421 14.1c-2.582 0-5.293-5.749-6.641-15.146 2.179-.897 4.412-1.929 6.635-3.064 2.26 1.162 4.487 2.194 6.644 3.086-1.349 9.384-4.058 15.124-6.638 15.124zm-24.421-14.1c-1.291-2.236 2.331-7.457 9.793-13.322 1.867 1.439 3.881 2.859 5.976 4.217.129 2.494.351 4.949.664 7.284-8.81 3.531-15.142 4.057-16.433 1.821zm0-28.199c.514-.891 1.826-1.343 3.776-1.343 2.947 0 7.356 1.043 12.657 3.166-.313 2.336-.535 4.788-.664 7.281-2.095 1.358-4.109 2.778-5.976 4.217-7.462-5.864-11.084-11.085-9.793-13.321zm24.421-14.099c2.58 0 5.289 5.738 6.638 15.122-2.156.892-4.382 1.923-6.641 3.084-2.223-1.135-4.459-2.168-6.637-3.065 1.348-9.395 4.058-15.141 6.64-15.141zm8.719 24.754c1.721 1.132 3.352 2.285 4.875 3.444-1.523 1.159-3.154 2.313-4.875 3.445.04-1.147.063-2.297.063-3.445 0-1.147-.023-2.298-.063-3.444zm-7.34-5.828c1.846-.928 3.663-1.758 5.435-2.5.233 1.856.414 3.841.533 5.942-.965-.601-1.95-1.195-2.956-1.776-.993-.573-2-1.128-3.012-1.666zm-8.727 3.447c.12-2.111.302-4.104.537-5.968 1.731.728 3.548 1.568 5.435 2.519-1.003.536-2.009 1.087-3.015 1.668-.996.575-1.982 1.171-2.957 1.781zm-1.371 9.275c-1.769-1.159-3.405-2.314-4.901-3.45 1.496-1.136 3.132-2.291 4.901-3.45-.041 1.149-.063 2.301-.063 3.45 0 1.15.022 2.302.063 3.45zm7.347 5.826c-1.888.953-3.706 1.792-5.438 2.52-.236-1.864-.418-3.858-.538-5.971.975.61 1.961 1.206 2.957 1.781 1.007.582 2.014 1.134 3.019 1.67zm8.719-3.445c-.119 2.101-.3 4.085-.533 5.942-1.772-.743-3.59-1.573-5.437-2.501 1.013-.538 2.021-1.092 3.014-1.666 1.006-.58 1.991-1.174 2.956-1.775zm-3.592.672c-1.271.734-2.52 1.419-3.743 2.061-1.252-.655-2.508-1.334-3.767-2.061-1.276-.736-2.496-1.476-3.667-2.218-.056-1.384-.088-2.812-.088-4.285 0-1.472.032-2.9.088-4.284 1.171-.742 2.391-1.483 3.667-2.219 1.259-.727 2.516-1.407 3.768-2.061 1.222.642 2.471 1.327 3.742 2.061 1.254.724 2.479 1.466 3.667 2.22.056 1.384.087 2.812.087 4.283 0 1.472-.031 2.9-.087 4.283-1.188.754-2.413 1.496-3.667 2.22zm11.179-21.069c2.234-.566 4.175-.847 5.722-.847 1.939 0 3.261.441 3.765 1.314.905 1.569-.717 4.727-4.339 8.449-1.542 1.584-3.381 3.215-5.446 4.844-1.846-1.418-3.856-2.827-5.985-4.199-.128-2.483-.35-4.925-.66-7.253 2.451-.977 4.794-1.763 6.943-2.308zm.735 14.566c2.011-1.6 3.807-3.203 5.325-4.763 4.224-4.339 5.79-7.788 4.529-9.973-1.261-2.184-5.031-2.553-10.902-1.064-2.117.537-4.413 1.297-6.815 2.244-1.356-8.987-4.069-15.915-7.806-15.915-3.741 0-6.457 6.942-7.81 15.943-8.472-3.327-15.842-4.447-17.713-1.208-1.871 3.241 2.784 9.063 9.902 14.736-7.118 5.673-11.773 11.496-9.902 14.736.774 1.341 2.491 1.936 4.839 1.936 3.322 0 7.909-1.194 12.874-3.144 1.353 9.001 4.069 15.944 7.81 15.944 3.737 0 6.451-6.929 7.806-15.915 2.402.946 4.698 1.707 6.815 2.243 2.364.6 4.387.898 6.043.898 2.457 0 4.106-.657 4.859-1.962 1.261-2.184-.305-5.633-4.529-9.973-1.518-1.56-3.314-3.162-5.325-4.763z"/><path d="m32.711 28.955c-2.91 0-5.268 2.358-5.268 5.267s2.358 5.268 5.268 5.268c2.908 0 5.267-2.359 5.267-5.268s-2.359-5.267-5.267-5.267"/><path d="m93.708 45.408c4.827 0 6.823-1.439 6.823-4.92 0-3.156-2.228-4.734-6.684-4.734h-7.426v9.654zm-.185-13.089c3.527 0 5.755-1.856 5.755-4.734 0-2.971-1.949-4.502-5.848-4.502h-7.009v9.236zm-11.836-10.396c0-1.625 1.021-2.692 2.553-2.692h9.886c6.544 0 10.118 2.738 10.118 7.797 0 3.249-1.856 5.431-5.291 6.452 4.455 1.021 6.498 3.852 6.498 7.379 0 5.616-3.574 8.401-11.418 8.401h-9.793c-1.532 0-2.553-1.067-2.553-2.692z"/><path d="m112.415 21.226c0-1.438.696-2.181 2.042-2.181h.65c1.393 0 2.089.743 2.089 2.181v26.038c0 1.44-.696 2.182-2.089 2.182h-.65c-1.346 0-2.042-.742-2.042-2.182z"/><path d="m139.717 18.627c7.287 0 11.371 3.899 11.371 6.22 0 2.181-2.46 2.645-2.6 2.46-1.856-2.971-5.337-4.549-8.679-4.549-6.219 0-10.582 4.734-10.582 11.603 0 6.73 3.852 11.604 10.212 11.604 4.873 0 8.4-2.739 9.004-6.73v-1.903h-7.055c-1.625 0-2.414-.51-2.414-1.81v-.232c0-1.346.789-1.857 2.414-1.857h8.725c1.717 0 2.553 1.068 2.553 2.738v12.811c0 .139-.696.464-1.578.464-1.393 0-2.6-.696-2.6-3.853v-.556c-1.856 2.97-5.337 4.78-9.978 4.78-8.679 0-14.202-6.544-14.202-15.502 0-9.19 6.312-15.688 15.409-15.688"/><path d="m185.891 36.682-5.431-14.11-5.431 14.11zm-7.705-16.57c.325-.789.882-1.16 2.367-1.16s2.042.371 2.367 1.16l11 28.405c.093.233-.835.929-1.81.929-.743 0-1.485-.325-1.903-1.439l-3.296-8.541h-12.902l-3.249 8.541c-.418 1.114-1.114 1.439-1.811 1.439-.927 0-1.856-.696-1.763-.929z"/><path d="m203.483 22.108h-9.422c-.928 0-1.439-.464-1.439-1.299v-.232c0-.882.511-1.346 1.439-1.346h22.001c.927 0 1.438.464 1.438 1.346v.232c0 .835-.511 1.299-1.438 1.299h-9.423v25.899c0 .975-.464 1.439-1.392 1.439h-.418c-.882 0-1.346-.464-1.346-1.439z"/><path d="m234.071 47.079c6.823 0 11.65-5.245 11.65-12.764 0-7.473-4.92-12.903-11.742-12.903-6.824 0-11.65 5.291-11.65 12.81s4.919 12.857 11.742 12.857zm0-28.406c8.819 0 14.899 6.359 14.899 15.549s-6.173 15.595-14.991 15.595c-8.82 0-14.899-6.312-14.899-15.502s6.219-15.642 14.991-15.642z"/><path d="m256.219 21.041c0-1.161.928-1.996 2.274-1.996h.742c1.624 0 2.042.743 2.739 2.367l7.89 17.498 7.937-17.498c.696-1.624 1.113-2.367 2.738-2.367h.651c1.345 0 2.273.835 2.273 1.996v26.966c0 .975-.417 1.439-1.346 1.439h-.371c-.882 0-1.3-.464-1.3-1.439v-25.342l-7.889 17.127c-.558 1.253-1.208 1.996-2.739 1.996-1.579 0-2.181-.743-2.739-1.996l-7.844-17.127v25.342c0 .975-.371 1.439-1.298 1.439h-.465c-.882 0-1.253-.464-1.253-1.439z"/></g></svg>