<svg width="7000" height="7000" viewBox="0 0 7000 7000" fill="none" xmlns="http://www.w3.org/2000/svg">
<g clip-path="url(#clip0_1_2)">
<path d="M7000 0H0V7000H7000V0Z" fill="black"/>
<path d="M1156.4 3492C1195.73 3499.33 1228.06 3519 1253.4 3551C1278.73 3583 1291.4 3619.67 1291.4 3661C1291.4 3698.33 1282.06 3731.33 1263.4 3760C1245.4 3788 1219.06 3810 1184.4 3826C1149.73 3842 1108.73 3850 1061.4 3850H760.397V3152H1048.4C1095.73 3152 1136.4 3159.67 1170.4 3175C1205.06 3190.33 1231.06 3211.67 1248.4 3239C1266.4 3266.33 1275.4 3297.33 1275.4 3332C1275.4 3372.67 1264.4 3406.67 1242.4 3434C1221.06 3461.33 1192.4 3480.67 1156.4 3492ZM900.397 3440H1028.4C1061.73 3440 1087.4 3432.67 1105.4 3418C1123.4 3402.67 1132.4 3381 1132.4 3353C1132.4 3325 1123.4 3303.33 1105.4 3288C1087.4 3272.67 1061.73 3265 1028.4 3265H900.397V3440ZM1041.4 3736C1075.4 3736 1101.73 3728 1120.4 3712C1139.73 3696 1149.4 3673.33 1149.4 3644C1149.4 3614 1139.4 3590.67 1119.4 3574C1099.4 3556.67 1072.4 3548 1038.4 3548H900.397V3736H1041.4ZM1542.98 3382C1560.98 3352.67 1584.31 3329.67 1612.98 3313C1642.31 3296.33 1675.64 3288 1712.98 3288V3435H1675.98C1631.98 3435 1598.64 3445.33 1575.98 3466C1553.98 3486.67 1542.98 3522.67 1542.98 3574V3850H1402.98V3296H1542.98V3382ZM1878.27 3230C1853.61 3230 1832.94 3222.33 1816.27 3207C1800.27 3191 1792.27 3171.33 1792.27 3148C1792.27 3124.67 1800.27 3105.33 1816.27 3090C1832.94 3074 1853.61 3066 1878.27 3066C1902.94 3066 1923.27 3074 1939.27 3090C1955.94 3105.33 1964.27 3124.67 1964.27 3148C1964.27 3171.33 1955.94 3191 1939.27 3207C1923.27 3222.33 1902.94 3230 1878.27 3230ZM1947.27 3296V3850H1807.27V3296H1947.27ZM2392.59 3288C2458.59 3288 2511.93 3309 2552.59 3351C2593.26 3392.33 2613.59 3450.33 2613.59 3525V3850H2473.59V3544C2473.59 3500 2462.59 3466.33 2440.59 3443C2418.59 3419 2388.59 3407 2350.59 3407C2311.93 3407 2281.26 3419 2258.59 3443C2236.59 3466.33 2225.59 3500 2225.59 3544V3850H2085.59V3296H2225.59V3365C2244.26 3341 2267.93 3322.33 2296.59 3309C2325.93 3295 2357.93 3288 2392.59 3288ZM3261.73 3561C3261.73 3581 3260.39 3599 3257.73 3615H2852.73C2856.06 3655 2870.06 3686.33 2894.73 3709C2919.39 3731.67 2949.73 3743 2985.73 3743C3037.73 3743 3074.73 3720.67 3096.73 3676H3247.73C3231.73 3729.33 3201.06 3773.33 3155.73 3808C3110.39 3842 3054.73 3859 2988.73 3859C2935.39 3859 2887.39 3847.33 2844.73 3824C2802.73 3800 2769.73 3766.33 2745.73 3723C2722.39 3679.67 2710.73 3629.67 2710.73 3573C2710.73 3515.67 2722.39 3465.33 2745.73 3422C2769.06 3378.67 2801.73 3345.33 2843.73 3322C2885.73 3298.67 2934.06 3287 2988.73 3287C3041.39 3287 3088.39 3298.33 3129.73 3321C3171.73 3343.67 3204.06 3376 3226.73 3418C3250.06 3459.33 3261.73 3507 3261.73 3561ZM3116.73 3521C3116.06 3485 3103.06 3456.33 3077.73 3435C3052.39 3413 3021.39 3402 2984.73 3402C2950.06 3402 2920.73 3412.67 2896.73 3434C2873.39 3454.67 2859.06 3483.67 2853.73 3521H3116.73ZM4131.91 3296L3969.91 3850H3818.91L3717.91 3463L3616.91 3850H3464.91L3301.91 3296H3443.91L3541.91 3718L3647.91 3296H3795.91L3899.91 3717L3997.91 3296H4131.91ZM4453.66 3859C4400.33 3859 4352.33 3847.33 4309.66 3824C4267 3800 4233.33 3766.33 4208.66 3723C4184.66 3679.67 4172.66 3629.67 4172.66 3573C4172.66 3516.33 4185 3466.33 4209.66 3423C4235 3379.67 4269.33 3346.33 4312.66 3323C4356 3299 4404.33 3287 4457.66 3287C4511 3287 4559.33 3299 4602.66 3323C4646 3346.33 4680 3379.67 4704.66 3423C4730 3466.33 4742.66 3516.33 4742.66 3573C4742.66 3629.67 4729.66 3679.67 4703.66 3723C4678.33 3766.33 4643.66 3800 4599.66 3824C4556.33 3847.33 4507.66 3859 4453.66 3859ZM4453.66 3737C4479 3737 4502.66 3731 4524.66 3719C4547.33 3706.33 4565.33 3687.67 4578.66 3663C4592 3638.33 4598.66 3608.33 4598.66 3573C4598.66 3520.33 4584.66 3480 4556.66 3452C4529.33 3423.33 4495.66 3409 4455.66 3409C4415.66 3409 4382 3423.33 4354.66 3452C4328 3480 4314.66 3520.33 4314.66 3573C4314.66 3625.67 4327.66 3666.33 4353.66 3695C4380.33 3723 4413.66 3737 4453.66 3737ZM4985.36 3382C5003.36 3352.67 5026.69 3329.67 5055.36 3313C5084.69 3296.33 5118.02 3288 5155.36 3288V3435H5118.36C5074.36 3435 5041.02 3445.33 5018.36 3466C4996.36 3486.67 4985.36 3522.67 4985.36 3574V3850H4845.36V3296H4985.36V3382ZM5577.65 3850L5389.65 3614V3850H5249.65V3110H5389.65V3531L5575.65 3296H5757.65L5513.65 3574L5759.65 3850H5577.65ZM6045.64 3859C6000.31 3859 5959.64 3851 5923.64 3835C5887.64 3818.33 5858.97 3796 5837.64 3768C5816.97 3740 5805.64 3709 5803.64 3675H5944.64C5947.31 3696.33 5957.64 3714 5975.64 3728C5994.31 3742 6017.31 3749 6044.64 3749C6071.31 3749 6091.97 3743.67 6106.64 3733C6121.97 3722.33 6129.64 3708.67 6129.64 3692C6129.64 3674 6120.31 3660.67 6101.64 3652C6083.64 3642.67 6054.64 3632.67 6014.64 3622C5973.31 3612 5939.31 3601.67 5912.64 3591C5886.64 3580.33 5863.97 3564 5844.64 3542C5825.97 3520 5816.64 3490.33 5816.64 3453C5816.64 3422.33 5825.31 3394.33 5842.64 3369C5860.64 3343.67 5885.97 3323.67 5918.64 3309C5951.97 3294.33 5990.97 3287 6035.64 3287C6101.64 3287 6154.31 3303.67 6193.64 3337C6232.97 3369.67 6254.64 3414 6258.64 3470H6124.64C6122.64 3448 6113.31 3430.67 6096.64 3418C6080.64 3404.67 6058.97 3398 6031.64 3398C6006.31 3398 5986.64 3402.67 5972.64 3412C5959.31 3421.33 5952.64 3434.33 5952.64 3451C5952.64 3469.67 5961.97 3484 5980.64 3494C5999.31 3503.33 6028.31 3513 6067.64 3523C6107.64 3533 6140.64 3543.33 6166.64 3554C6192.64 3564.67 6214.97 3581.33 6233.64 3604C6252.97 3626 6262.97 3655.33 6263.64 3692C6263.64 3724 6254.64 3752.67 6236.64 3778C6219.31 3803.33 6193.97 3823.33 6160.64 3838C6127.97 3852 6089.64 3859 6045.64 3859Z" fill="white"/>
</g>
<defs>
<clipPath id="clip0_1_2">
<rect width="7000" height="7000" fill="white"/>
</clipPath>
</defs>
</svg>
