<svg width="6608" height="2210" viewBox="0 0 6608 2210" fill="none" xmlns="http://www.w3.org/2000/svg">
<g clip-path="url(#clip0_6_46)">
<mask id="mask0_6_46" style="mask-type:luminance" maskUnits="userSpaceOnUse" x="-196" y="-2395" width="7000" height="7000">
<path d="M6804 -2395H-196V4605H6804V-2395Z" fill="white"/>
</mask>
<g mask="url(#mask0_6_46)">
<path d="M6804 -2395H-196V4605H6804V-2395Z" fill="black"/>
<path d="M960.4 1097C999.73 1104.33 1032.06 1124 1057.4 1156C1082.73 1188 1095.4 1224.67 1095.4 1266C1095.4 1303.33 1086.06 1336.33 1067.4 1365C1049.4 1393 1023.06 1415 988.4 1431C953.73 1447 912.73 1455 865.4 1455H564.396V757H852.4C899.73 757 940.4 764.67 974.4 780C1009.06 795.33 1035.06 816.67 1052.4 844C1070.4 871.33 1079.4 902.33 1079.4 937C1079.4 977.67 1068.4 1011.67 1046.4 1039C1025.06 1066.33 996.4 1085.67 960.4 1097ZM704.396 1045H832.4C865.73 1045 891.4 1037.67 909.4 1023C927.4 1007.67 936.4 986 936.4 958C936.4 930 927.4 908.33 909.4 893C891.4 877.67 865.73 870 832.4 870H704.396V1045ZM845.4 1341C879.4 1341 905.73 1333 924.4 1317C943.73 1301 953.4 1278.33 953.4 1249C953.4 1219 943.4 1195.67 923.4 1179C903.4 1161.67 876.4 1153 842.4 1153H704.396V1341H845.4ZM1346.98 987C1364.98 957.67 1388.31 934.67 1416.98 918C1446.31 901.33 1479.64 893 1516.98 893V1040H1479.98C1435.98 1040 1402.64 1050.33 1379.98 1071C1357.98 1091.67 1346.98 1127.67 1346.98 1179V1455H1206.98V901H1346.98V987ZM1682.27 835C1657.61 835 1636.94 827.33 1620.27 812C1604.27 796 1596.27 776.33 1596.27 753C1596.27 729.67 1604.27 710.33 1620.27 695C1636.94 679 1657.61 671 1682.27 671C1706.94 671 1727.27 679 1743.27 695C1759.94 710.33 1768.27 729.67 1768.27 753C1768.27 776.33 1759.94 796 1743.27 812C1727.27 827.33 1706.94 835 1682.27 835ZM1751.27 901V1455H1611.27V901H1751.27ZM2196.59 893C2262.59 893 2315.93 914 2356.59 956C2397.26 997.33 2417.59 1055.33 2417.59 1130V1455H2277.59V1149C2277.59 1105 2266.59 1071.33 2244.59 1048C2222.59 1024 2192.59 1012 2154.59 1012C2115.93 1012 2085.26 1024 2062.59 1048C2040.59 1071.33 2029.59 1105 2029.59 1149V1455H1889.59V901H2029.59V970C2048.26 946 2071.93 927.33 2100.59 914C2129.93 900 2161.93 893 2196.59 893ZM3065.73 1166C3065.73 1186 3064.39 1204 3061.73 1220H2656.73C2660.06 1260 2674.06 1291.33 2698.73 1314C2723.39 1336.67 2753.73 1348 2789.73 1348C2841.73 1348 2878.73 1325.67 2900.73 1281H3051.73C3035.73 1334.33 3005.06 1378.33 2959.73 1413C2914.39 1447 2858.73 1464 2792.73 1464C2739.39 1464 2691.39 1452.33 2648.73 1429C2606.73 1405 2573.73 1371.33 2549.73 1328C2526.39 1284.67 2514.73 1234.67 2514.73 1178C2514.73 1120.67 2526.39 1070.33 2549.73 1027C2573.06 983.67 2605.73 950.33 2647.73 927C2689.73 903.67 2738.06 892 2792.73 892C2845.39 892 2892.39 903.33 2933.73 926C2975.73 948.67 3008.06 981 3030.73 1023C3054.06 1064.33 3065.73 1112 3065.73 1166ZM2920.73 1126C2920.06 1090 2907.06 1061.33 2881.73 1040C2856.39 1018 2825.39 1007 2788.73 1007C2754.06 1007 2724.73 1017.67 2700.73 1039C2677.39 1059.67 2663.06 1088.67 2657.73 1126H2920.73ZM3935.91 901L3773.91 1455H3622.91L3521.91 1068L3420.91 1455H3268.91L3105.91 901H3247.91L3345.91 1323L3451.91 901H3599.91L3703.91 1322L3801.91 901H3935.91ZM4257.66 1464C4204.33 1464 4156.33 1452.33 4113.66 1429C4071 1405 4037.33 1371.33 4012.66 1328C3988.66 1284.67 3976.66 1234.67 3976.66 1178C3976.66 1121.33 3989 1071.33 4013.66 1028C4039 984.67 4073.33 951.33 4116.66 928C4160 904 4208.33 892 4261.66 892C4315 892 4363.33 904 4406.66 928C4450 951.33 4484 984.67 4508.66 1028C4534 1071.33 4546.66 1121.33 4546.66 1178C4546.66 1234.67 4533.66 1284.67 4507.66 1328C4482.33 1371.33 4447.66 1405 4403.66 1429C4360.33 1452.33 4311.66 1464 4257.66 1464ZM4257.66 1342C4283 1342 4306.66 1336 4328.66 1324C4351.33 1311.33 4369.33 1292.67 4382.66 1268C4396 1243.33 4402.66 1213.33 4402.66 1178C4402.66 1125.33 4388.66 1085 4360.66 1057C4333.33 1028.33 4299.66 1014 4259.66 1014C4219.66 1014 4186 1028.33 4158.66 1057C4132 1085 4118.66 1125.33 4118.66 1178C4118.66 1230.67 4131.66 1271.33 4157.66 1300C4184.33 1328 4217.66 1342 4257.66 1342ZM4789.36 987C4807.36 957.67 4830.69 934.67 4859.36 918C4888.69 901.33 4922.02 893 4959.36 893V1040H4922.36C4878.36 1040 4845.02 1050.33 4822.36 1071C4800.36 1091.67 4789.36 1127.67 4789.36 1179V1455H4649.36V901H4789.36V987ZM5381.65 1455L5193.65 1219V1455H5053.65V715H5193.65V1136L5379.65 901H5561.65L5317.65 1179L5563.65 1455H5381.65ZM5849.64 1464C5804.31 1464 5763.64 1456 5727.64 1440C5691.64 1423.33 5662.97 1401 5641.64 1373C5620.97 1345 5609.64 1314 5607.64 1280H5748.64C5751.31 1301.33 5761.64 1319 5779.64 1333C5798.31 1347 5821.31 1354 5848.64 1354C5875.31 1354 5895.97 1348.67 5910.64 1338C5925.97 1327.33 5933.64 1313.67 5933.64 1297C5933.64 1279 5924.31 1265.67 5905.64 1257C5887.64 1247.67 5858.64 1237.67 5818.64 1227C5777.31 1217 5743.31 1206.67 5716.64 1196C5690.64 1185.33 5667.97 1169 5648.64 1147C5629.97 1125 5620.64 1095.33 5620.64 1058C5620.64 1027.33 5629.31 999.33 5646.64 974C5664.64 948.67 5689.97 928.67 5722.64 914C5755.97 899.33 5794.97 892 5839.64 892C5905.64 892 5958.31 908.67 5997.64 942C6036.97 974.67 6058.64 1019 6062.64 1075H5928.64C5926.64 1053 5917.31 1035.67 5900.64 1023C5884.64 1009.67 5862.97 1003 5835.64 1003C5810.31 1003 5790.64 1007.67 5776.64 1017C5763.31 1026.33 5756.64 1039.33 5756.64 1056C5756.64 1074.67 5765.97 1089 5784.64 1099C5803.31 1108.33 5832.31 1118 5871.64 1128C5911.64 1138 5944.64 1148.33 5970.64 1159C5996.64 1169.67 6018.97 1186.33 6037.64 1209C6056.97 1231 6066.97 1260.33 6067.64 1297C6067.64 1329 6058.64 1357.67 6040.64 1383C6023.31 1408.33 5997.97 1428.33 5964.64 1443C5931.97 1457 5893.64 1464 5849.64 1464Z" fill="white"/>
</g>
</g>
<defs>
<clipPath id="clip0_6_46">
<rect width="6608" height="2210" fill="white"/>
</clipPath>
</defs>
</svg>
