<svg fill="none" height="54" viewBox="0 0 42 54" width="42" xmlns="http://www.w3.org/2000/svg"><path d="m.683 53.289v-26.251h-.082v-26.334h27.59a13.104 13.104 0 0 1 9.093 3.661 13.185 13.185 0 0 1 4.032 8.959 13.192 13.192 0 0 1 -3.276 9.263 13.11 13.11 0 0 1 -8.76 4.406 13.11 13.11 0 0 1 8.797 4.369 13.191 13.191 0 0 1 3.316 9.267 13.186 13.186 0 0 1 -4.017 8.983 13.105 13.105 0 0 1 -9.106 3.677z" fill="#36f1cd"/><path d="m26.596 14.37-14.504 21.74h-11.387l-.037 17.12-.068.102v-38.961h25.996z" fill="#36f1cd"/><path d="m26.596 14.37-14.504 21.74h-11.387l-.037 17.12-.068.102v-38.961h25.996z" fill="#181b14" fill-opacity=".3"/><path d="m22.328.666-9.382 13.949h-12.233l-.04 18.392-.072.111v-32.452z" fill="#36f1cd"/><path d="m22.328.666-9.382 13.949h-12.233l-.04 18.392-.072.111v-32.452z" fill="#181b14" fill-opacity=".3"/><path d="m16.196 53.295 12.421-18.465h-28.016v18.464h15.595z" fill="#36f1cd"/><path d="m16.196 53.295 12.421-18.465h-28.016v18.464h15.595z" fill="#181b14" fill-opacity=".3"/><path d="m13.014 34.83-12.274 18.393.04-18.393h12.233z" fill="#36f1cd"/><path d="m13.014 34.83-12.274 18.393.04-18.393h12.233z" fill="#181b14" fill-opacity=".6"/><path d="m13.014 14.592-12.274 18.393.04-18.393h12.233z" fill="#36f1cd"/><path d="m13.014 14.592-12.274 18.393.04-18.393h12.233z" fill="#181b14" fill-opacity=".6"/></svg>