<svg height="334" viewBox="0 0 334 334" width="334" xmlns="http://www.w3.org/2000/svg"><g fill="none"><path d="m306.8 258-18 3.9.5 18.4-18.4.8-2.5 18.2-18.3-2.3-5.6 17.6-17.6-5.4-8.5 16.3-16.5-8.2-11.1 14.6-14.8-10.9-13.5 12.6-12.7-13.3-15.4 10.2-10.3-15.3-16.9 7.4-7.6-16.8-17.9 4.5-4.7-17.9-18.3 1.4-1.6-18.4-18.4-1.8 1.6-18.3-17.8-4.9 4.6-17.8-16.7-7.8 7.6-16.8-15.1-10.5 10.2-15.2-13.1-12.9 12.7-13.4-10.8-14.9 14.8-11-8.1-16.5 16.5-8.3-5.2-17.7 17.6-5.4-2.1-18.3 18.2-2.4 1-18.4 18.4.8 4.1-18 18 3.9 7.1-17 17.1 6.8 9.9-15.6 15.7 9.7 12.3-13.7 13.8 12.1 14.5-11.4 11.6 14.4 16.2-8.8 9 16 17.4-5.9 6.2 17.4 18.2-2.9 3.1 18.1 18.4.2.1 18.4 18.1 3.4-3.1 18.1 17.3 6.4-6.1 17.4 15.9 9.1-8.9 16.1 14.2 11.8-11.6 14.3 12 14-13.8 12.2 9.5 15.8-15.7 9.6 6.7 17.2-17.1 6.9z" fill="#73c592"/><g fill="#fff"><path d="m166.9 307.8c-77.6 0-140.8-63.1-140.8-140.8s63.2-140.8 140.8-140.8 140.8 63.1 140.8 140.8-63.2 140.8-140.8 140.8zm0-277.6c-75.4 0-136.7 61.4-136.7 136.8s61.3 136.8 136.8 136.8c75.4 0 136.8-61.3 136.8-136.8s-61.5-136.8-136.9-136.8z" opacity=".34"/><path d="m166.9 221.9c-30.3 0-54.9-24.6-54.9-54.9s24.6-54.9 54.9-54.9 54.9 24.6 54.9 54.9-24.6 54.9-54.9 54.9zm0-105.8c-28.1 0-50.9 22.9-50.9 50.9 0 28.1 22.9 50.9 50.9 50.9s50.900326-22.9 50.900326-50.9c.099674-28.1-22.800326-50.9-50.900326-50.9z" opacity=".34"/><g transform="translate(54 146)"><g transform="translate(50 3)"><path d="m.7 36.5v-35.2h7.7v28.1h17.5v7h-25.2z"/><path d="m26.4 37h-26.3v-36.2h8.7v28.2h17.5v8zm-25.2-1h24.3v-6h-17.5v-28.1h-6.7v34.1z"/></g><g transform="translate(87 3)"><path d="m19.9 37.1c-10.9 0-18.6-8.1-18.6-18.1v-.1c0-10 7.9-18.2 18.7-18.2s18.6 8.1 18.6 18.1v.1c0 10-7.9 18.2-18.7 18.2zm10.6-18.2c0-6-4.4-11.1-10.6-11.1s-10.5 4.9-10.5 11v.1c0 6 4.4 11.1 10.6 11.1s10.5-4.9 10.5-11z"/><path d="m19.9 37.6c-10.9 0-19.1-8-19.1-18.6v-.1c0-10.5 8.4-18.7 19.2-18.7 10.9 0 19.1 8 19.1 18.6v.1c0 10.5-8.4 18.7-19.2 18.7zm.1-36.4c-10.2 0-18.2 7.8-18.2 17.7v.1c0 10 7.8 17.6 18.1 17.6 10.2 0 18.2-7.8 18.2-17.7v-.1c0-10-7.8-17.6-18.1-17.6zm0 29.3c-6.3 0-11.1-5.1-11.1-11.6v-.1c0-6.5 4.8-11.5 11-11.5 6.3 0 11.1 5.1 11.1 11.6v.1c0 6.6-4.7 11.5-11 11.5zm-.1-22.1c-5.7 0-10 4.5-10 10.5v.1c0 6 4.4 10.6 10.1 10.6s10-4.5 10-10.5v-.1c0-6.1-4.3-10.6-10.1-10.6z"/></g><g transform="translate(140 3)"><path d="m19.6 37.1c-10.9 0-18.6-8.1-18.6-18.1v-.1c0-10 7.9-18.2 18.7-18.2s18.6 8.1 18.6 18.1v.1c.1 10-7.8 18.2-18.7 18.2zm10.7-18.2c0-6-4.4-11.1-10.6-11.1s-10.5 4.9-10.5 11v.1c0 6 4.4 11.1 10.6 11.1s10.5-4.9 10.5-11z"/><path d="m19.6 37.6c-10.9 0-19.1-8-19.1-18.6v-.1c0-10.5 8.5-18.7 19.2-18.7 10.9 0 19.1 8 19.1 18.6v.1c.1 10.5-8.4 18.7-19.2 18.7zm.1-36.4c-10.2 0-18.2 7.8-18.2 17.7v.1c0 10 7.8 17.6 18.1 17.6 10.2 0 18.2-7.8 18.2-17.7v-.1c.1-10-7.7-17.6-18.1-17.6zm0 29.3c-6.3 0-11.1-5.1-11.1-11.6v-.1c0-6.5 4.8-11.5 11-11.5 6.3 0 11.1 5.1 11.1 11.6v.1c.1 6.6-4.7 11.5-11 11.5zm-.1-22.1c-5.7 0-10 4.5-10 10.5v.1c0 6 4.4 10.6 10.1 10.6s10-4.5 10-10.5v-.1c.1-6.1-4.3-10.6-10.1-10.6z"/></g><g transform="translate(194 3)"><path d="m14.9 26h-5.9v10.5h-7.7v-35.2h14.4c8.4 0 13.5 5 13.5 12.2v.1c-.1 8.1-6.4 12.4-14.3 12.4zm6.4-12.3c0-3.5-2.4-5.3-6.3-5.3h-6v10.7h6.1c3.9 0 6.1-2.3 6.1-5.3v-.1z"/><path d="m9.5 37h-8.7v-36.2h14.9c8.5 0 14 5 14 12.7v.1c0 7.8-5.8 12.9-14.7 12.9h-5.4v10.5zm-7.7-1h6.7v-10.5h6.4c8.3 0 13.7-4.7 13.7-11.9v-.1c0-7.1-5.1-11.7-13-11.7h-13.9v34.2zm13.4-16.4h-6.6v-11.7h6.5c4.2 0 6.8 2.2 6.8 5.8v.1c-.1 3.4-2.8 5.8-6.7 5.8zm-5.7-1h5.6c3.4 0 5.6-1.9 5.6-4.8v-.1c0-3.1-2.1-4.8-5.8-4.8h-5.5v9.7z"/></g><path d="m19.8 32.7c-5.8 0-10.4-4.7-10.4-10.4 0-5.8 4.7-10.4 10.4-10.4 1.2 0 2.4.2 3.4.6l-1.9 4.3 16-2.4-8.6-14.4-1.9 4.3c-2.2-.9-4.6-1.3-7-1.3-10.7 0-19.4 8.7-19.4 19.4s8.7 19.4 19.4 19.4c7.1 0 13.2-3.8 16.6-9.5l-7.8-4.5c-1.7 2.9-5 4.9-8.8 4.9z"/></g></g></g></svg>