<svg xmlns="http://www.w3.org/2000/svg" width="40" height="24" fill="none" viewBox="0 0 40 24">
  <path fill="#fff" d="M14.653 16.59a5.754 5.754 0 01-3.453 1.136A5.732 5.732 0 015.474 12 5.732 5.732 0 0111.2 6.274c1.305 0 2.484.42 3.453 1.136.59-1.768 1.557-3.41 2.737-4.8A11.155 11.155 0 0011.2.758C5.01.758 0 5.768 0 11.958c0 6.19 5.01 11.2 11.2 11.2 2.274 0 4.421-.674 6.19-1.853-1.18-1.347-2.148-2.947-2.737-4.716z"/>
  <path fill="url(#paint0_linear_310_99)" d="M28.126.8c-6.19 0-11.2 5.01-11.2 11.2 0 6.19 5.01 11.2 11.2 11.2 6.19 0 11.2-5.01 11.2-11.2 0-6.19-5.01-11.2-11.2-11.2zm0 16.926A5.732 5.732 0 0122.399 12a5.732 5.732 0 015.727-5.727A5.732 5.732 0 0133.852 12a5.732 5.732 0 01-5.726 5.726z"/>
  <defs>
    <linearGradient id="paint0_linear_310_99" x1="21.5" x2="36" y1="2.5" y2="21.5" gradientUnits="userSpaceOnUse">
      <stop stop-color="#4DB0FC"/>
      <stop offset="1" stop-color="#76D8E2"/>
    </linearGradient>
  </defs>
</svg>
