<svg fill="none" height="24" viewBox="0 0 40 24" width="40" xmlns="http://www.w3.org/2000/svg" xmlns:xlink="http://www.w3.org/1999/xlink"><linearGradient id="a" gradientUnits="userSpaceOnUse" x1="21.5" x2="36" y1="2.5" y2="21.5"><stop offset="0" stop-color="#4db0fc"/><stop offset="1" stop-color="#76d8e2"/></linearGradient><path d="m14.653 16.59a5.754 5.754 0 0 1 -3.453 1.136 5.732 5.732 0 0 1 -5.726-5.726 5.732 5.732 0 0 1 5.726-5.726c1.305 0 2.484.42 3.453 1.136.59-1.768 1.557-3.41 2.737-4.8a11.155 11.155 0 0 0 -6.19-1.852c-6.19 0-11.2 5.01-11.2 11.2s5.01 11.2 11.2 11.2c2.274 0 4.421-.674 6.19-1.853-1.18-1.347-2.148-2.947-2.737-4.716z" fill="#fff"/><path d="m28.126.8c-6.19 0-11.2 5.01-11.2 11.2s5.01 11.2 11.2 11.2 11.2-5.01 11.2-11.2-5.01-11.2-11.2-11.2zm0 16.926a5.732 5.732 0 0 1 -5.727-5.726 5.732 5.732 0 0 1 5.727-5.727 5.732 5.732 0 0 1 5.726 5.727 5.732 5.732 0 0 1 -5.726 5.726z" fill="url(#a)"/></svg>