<svg height="31" viewBox="0 0 53 31" width="53" xmlns="http://www.w3.org/2000/svg" xmlns:xlink="http://www.w3.org/1999/xlink"><linearGradient id="a" x1="18.988446%" x2="85.330549%" y1="7.146463%" y2="98.92785%"><stop offset="0" stop-color="#23afff"/><stop offset=".3436" stop-color="#36bdf6"/><stop offset="1" stop-color="#64dfdf"/></linearGradient><g fill="none"><path d="m19.6901 21.2714c-1.2923.9692-2.8906 1.5474-4.625 1.5474-4.2509 0-7.68557-3.4348-7.68557-7.6856 0-4.2509 3.43467-7.68564 7.68557-7.68564 1.7344 0 3.3327.57812 4.625 1.54732.8162-2.39749 2.0744-4.57394 3.7068-6.44433-2.3805-1.581332-5.2541-2.4995246-8.3148-2.4995246-8.33169 0-15.0821 6.7504046-15.0821 15.0821746 0 8.3317 6.75041 15.0821 15.0821 15.0821 3.0777 0 5.9343-.9182 8.3148-2.4995-1.6324-1.8704-2.9076-4.0469-3.7068-6.4444z" fill="#fff"/><path d="m37.8665 0c-8.3657 0-15.1331 6.76741-15.1331 15.1331 0 8.3658 6.7674 15.1332 15.1331 15.1332 8.3658 0 15.1332-6.7674 15.1332-15.1332 0-8.36569-6.7844-15.1331-15.1332-15.1331zm0 22.8527c-4.2508 0-7.7196-3.4517-7.7196-7.7196 0-4.2508 3.4518-7.71956 7.7196-7.71956 4.2509 0 7.7196 3.45176 7.7196 7.71956-.017 4.2679-3.4687 7.7196-7.7196 7.7196z" fill="url(#a)"/></g></svg>