<svg width="1920" height="740" viewBox="0 0 1920 740" fill="none" xmlns="http://www.w3.org/2000/svg">
<g clip-path="url(#clip0)">
<g clip-path="url(#clip1)">
<path fill-rule="evenodd" clip-rule="evenodd" d="M207.673 1.1311L347.359 140.954C375.761 169.383 391.658 207.825 391.837 247.877V490.867C391.837 530.919 375.939 569.361 347.538 597.79L207.851 737.613L115.858 645.53L370.223 390.917C382.013 378.938 382.013 359.627 370.223 347.826L115.858 93.2136L207.673 1.1311ZM0.821045 208.208L92.814 116.304C232.5 255.948 232.5 482.668 92.814 622.49L0.821045 530.408C89.7773 441.544 89.7773 297.251 0.821045 208.208Z" fill="white"/>
</g>
<path fill-rule="evenodd" clip-rule="evenodd" d="M688.439 184.891H576.736V553.132H687.101C804.823 553.132 879.069 482.959 879.069 369.346C879.738 255.064 806.83 184.891 688.439 184.891ZM687.77 503.677H637.604V235.015H687.77C770.042 235.015 816.863 285.138 816.863 369.346C816.863 452.885 770.042 503.677 687.77 503.677ZM1015.52 281.11C946.629 281.11 905.158 319.204 903.152 370.664H961.344C962.682 340.59 982.079 324.551 1014.85 324.551C1048.3 324.551 1069.03 343.264 1069.03 378.684V386.704L1001.48 393.387C941.947 400.07 894.456 420.12 894.456 474.921C894.456 523.708 933.251 558.461 988.768 558.461C1028.9 558.461 1059 537.743 1069.7 500.986H1071.04V553.114H1127.23V389.377C1126.56 317.868 1083.75 281.11 1015.52 281.11ZM1068.36 436.827C1068.36 487.619 1044.28 515.689 1002.81 515.689C977.397 515.689 954.655 500.986 954.655 476.258C954.655 450.862 974.722 438.164 1010.17 434.154L1068.36 427.471V436.827ZM1213.48 338.585C1224.85 301.16 1252.94 281.11 1291.74 281.11C1350.6 281.11 1379.36 321.209 1378.69 380.021V553.114H1320.5V396.729C1320.5 347.273 1302.44 324.551 1266.99 324.551C1230.87 324.551 1213.48 349.278 1213.48 392.719V553.114H1155.29V286.457H1212.14V338.585H1213.48ZM1533.89 515.704C1489.75 515.704 1465 476.273 1465 420.135C1465 364.665 1487.74 324.566 1531.22 324.566C1562.66 324.566 1584.73 344.615 1590.75 378.699H1649.61C1639.58 315.878 1592.76 281.794 1529.88 281.794C1451.62 281.794 1403.46 348.625 1403.46 420.803C1403.46 494.318 1453.63 559.812 1531.89 559.812C1594.09 559.812 1641.58 524.392 1652.29 461.57H1592.76C1586.74 494.986 1564.66 515.704 1533.89 515.704ZM1669.68 420.12C1669.68 345.937 1715.16 281.11 1794.76 281.11C1874.35 281.11 1926.53 345.937 1917.83 438.832H1727.2C1729.88 487.619 1757.97 515.688 1798.77 515.688C1833.55 515.688 1848.27 492.297 1854.96 470.911H1913.15C1902.45 523.708 1860.31 559.129 1795.43 559.129C1715.83 559.129 1669.68 494.302 1669.68 420.12ZM1794.76 324.551C1755.96 324.551 1732.55 351.952 1728.54 395.392H1860.31C1856.96 352.62 1833.55 324.551 1794.76 324.551Z" fill="white"/>
</g>
<defs>
<clipPath id="clip0">
<rect width="1918.34" height="737.821" fill="white" transform="translate(0.8302 1.0896)"/>
</clipPath>
<clipPath id="clip1">
<rect width="390.836" height="736.482" fill="white" transform="translate(0.8302 1.0896)"/>
</clipPath>
</defs>
</svg>
