<svg width="2227" height="402" viewBox="0 0 2227 402" fill="none" xmlns="http://www.w3.org/2000/svg">
<path d="M353.42 153.253C245.822 153.253 158.637 225.077 139.308 326.221C138.488 330.439 137.961 334.745 137.961 339.198C137.961 373.879 166.046 401.998 200.721 401.998C235.367 401.998 263.481 373.879 263.481 339.198C263.481 337.352 263.394 335.536 263.218 333.749L253.905 203.781C253.26 194.731 262.545 189.662 269.075 194.437L321.907 238.17C330.371 245.493 341.382 249.915 353.448 249.915C380.098 249.915 401.712 228.269 401.712 201.585C401.712 174.9 380.098 153.253 353.42 153.253Z" fill="#CDF4C6"/>
<path d="M262.374 75.8073C263.166 71.5893 263.722 67.2834 263.722 62.8311C263.722 28.1202 235.637 0 200.991 0C166.316 0 138.231 28.1202 138.231 62.8311C138.231 64.6764 147.778 198.276 147.778 198.276C148.452 207.298 139.139 212.367 132.637 207.621L79.8048 163.888C71.3703 156.565 60.3294 152.142 48.2636 152.142C21.6131 152.142 0 173.759 0 200.444C0 227.128 21.6131 248.776 48.2636 248.776C155.89 248.776 243.046 176.952 262.374 75.8073Z" fill="#CDF4C6"/>
<path d="M651.912 55.2063H548.443V345.43H651.912C742.757 345.43 795.677 289.981 795.677 200.318C795.677 110.656 742.757 55.2063 651.912 55.2063ZM651.502 307.116H592.021V93.5494H651.502C715.433 93.5494 750.049 132.683 750.049 200.347C750.049 268.012 715.463 307.116 651.502 307.116Z" fill="#CDF4C6"/>
<path d="M915.019 130.221C853.518 130.221 810.76 173.018 810.76 240.301C810.76 307.555 853.518 350.35 915.019 350.35C976.11 350.35 1018.9 307.555 1018.9 240.301C1018.87 173.018 976.08 130.221 915.019 130.221ZM915.019 315.287C877.561 315.287 853.108 288.368 853.108 240.27C853.108 192.144 877.533 165.255 915.019 165.255C952.096 165.255 976.521 192.144 976.521 240.27C976.521 288.368 952.065 315.287 915.019 315.287Z" fill="#CDF4C6"/>
<path d="M1225.36 135.115H1174.43L1082 226.416V55.2063H1041.67V345.43H1082V273.285L1117.03 239.043L1183.8 345.43H1230.66L1145.93 212.532L1225.36 135.115Z" fill="#CDF4C6"/>
<path d="M1307.63 74.7861H1266.89V135.127H1233.06V168.579H1266.89V298.576C1266.89 333.638 1287.27 346.703 1325.14 346.703C1332.49 346.703 1341.04 346.263 1349.98 345.472V312.841H1331.64C1313.72 312.841 1307.6 307.13 1307.6 294.914V168.549H1349.95V135.127H1307.63V74.7861Z" fill="#CDF4C6"/>
<path d="M1466.06 130.221C1404.56 130.221 1361.8 173.018 1361.8 240.301C1361.8 307.555 1404.56 350.35 1466.06 350.35C1527.12 350.35 1569.94 307.555 1569.94 240.301C1569.91 173.018 1527.12 130.221 1466.06 130.221ZM1466.06 315.287C1428.58 315.287 1404.15 288.368 1404.15 240.27C1404.15 192.144 1428.58 165.255 1466.06 165.255C1503.14 165.255 1527.56 192.144 1527.56 240.27C1527.56 288.368 1503.14 315.287 1466.06 315.287Z" fill="#CDF4C6"/>
<path d="M1711.24 170.974V132.251C1706.77 131.841 1703.07 131.841 1699.42 131.841C1666.03 131.841 1645.26 149.768 1633.84 172.616V135.122H1594.74V345.467H1635.48V231.316C1635.48 190.952 1660.73 170.974 1701.06 170.974H1711.24Z" fill="#CDF4C6"/>
<path d="M1712.06 293.272C1695.37 293.272 1683.13 305.076 1683.13 320.602C1683.13 336.477 1695.37 348.722 1712.06 348.722C1726.73 348.722 1739.35 336.477 1739.35 320.602C1739.35 305.076 1726.73 293.272 1712.06 293.272Z" fill="#CDF4C6"/>
<path d="M1908.39 180.753L1883.12 175.451C1833.46 164.438 1819.98 152.223 1819.98 126.534C1819.98 101.636 1839.55 85.7598 1878.63 85.7598C1931.21 85.7598 1947.9 106.118 1950.33 140.36H1993.53C1992.29 89.8021 1961.79 48.647 1878.26 48.647C1813.92 48.647 1775.61 80.0186 1775.61 127.325C1775.61 179.903 1813.48 202.342 1866.04 212.944L1890.89 218.247C1939.35 228.822 1956.46 240.684 1956.46 266.374C1956.46 298.155 1932.43 314.851 1889.65 314.851C1845.66 314.851 1811.45 299.766 1810.63 249.619H1767.07C1767.47 319.742 1815.94 351.934 1888.86 351.934C1959.71 351.934 2001.67 318.923 2001.67 265.114C2001.64 221.117 1975.98 195.047 1908.39 180.753Z" fill="#CDF4C6"/>
<path d="M2222.81 241.882C2222.81 178.729 2186.53 130.221 2123 130.221C2063.14 130.221 2023.24 174.247 2023.24 240.301C2023.24 307.964 2064.35 350.35 2123.82 350.35C2174.32 350.35 2207.33 321.819 2217.89 281.045H2176.78C2169.45 302.282 2151.94 316.108 2124.64 316.108C2090.82 316.108 2068.05 296.54 2064.38 253.746H2222.81V241.882ZM2064.76 221.524C2070.09 182.801 2092.49 164.464 2123 164.464C2157.21 164.464 2177.19 188.922 2180.85 221.524H2064.76Z" fill="#CDF4C6"/>
</svg>
