<svg height="58" viewBox="0 0 465 58" width="465" xmlns="http://www.w3.org/2000/svg"><g fill="#ecebea" fill-rule="evenodd"><path d="m232.3 45.2591-9.065-19.665 9.184-18.362 9.208 19.486zm24.728 0-9.446-20.491 11.301-22.592h-4.911l-8.769 17.432-8.036-17.432h-2.219-4.91-.008l.004.008-9.179 18.247-8.416-18.255h-7.138l11.982 25.356-8.917 17.727-19.861-43.083h-7.138l25.097 53.111h1.919l11.32-22.632 10.695 22.632h1.919l11.729-23.449 11.081 23.449h1.919l26.565-53.111h-4.911z"/><path d="m42.5012 6.5877-1.103-4.412h-40.823v53.113h6.378v-29.437h20.328v-4.412h-20.328v-14.852z"/><path d="m65.6374 2.1756h-6.38v53.113h40.828l1.089-4.411h-35.537z"/><g transform="translate(114 .465)"><path d="m47.6921 40.506c-1.657 3.589-4.132 6.481-7.359 8.596-3.219 2.106-7.175 3.174-11.761 3.174-4.582 0-8.541-1.069-11.765-3.174-3.231-2.117-5.704-5.008-7.352-8.595-1.678-3.639-2.528-7.732-2.528-12.168 0-4.485.851-8.605 2.528-12.24 1.649-3.588 4.124-6.495 7.356-8.635 3.225-2.129 7.182-3.208 11.763-3.208 4.584 0 8.538 1.079 11.754 3.206 3.231 2.141 5.709 5.048 7.364 8.639 1.679 3.635 2.528 7.754 2.528 12.238-.001 4.438-.852 8.532-2.528 12.167m-3.667-36.268c-4.294-2.49-9.492-3.753-15.453-3.753-5.964 0-11.164 1.263-15.457 3.754-4.305 2.497-7.588 5.898-9.76 10.106-2.156 4.179-3.249 8.889-3.249 13.997 0 5.061 1.095 9.746 3.249 13.922 2.172 4.208 5.456 7.597 9.764 10.076 4.293 2.464 9.491 3.71 15.453 3.71 5.863 0 11.011-1.263 15.303-3.753 4.301-2.495 7.608-5.894 9.828-10.099 2.209-4.179 3.3270027-8.841 3.3270027-13.856.0019973-5.11-1.0910027-9.819-3.2460027-13.998-2.173-4.213-5.457-7.613-9.759-10.106"/><path d="m227.9118 6.1227-1.093-4.412h-40.827v53.113h40.827l1.093-4.412h-35.541v-25.025h20.328v-4.412h-20.328v-14.852z"/><path d="m269.7536 32.2882c-.524.075-1.063.133-1.609.171-.561.036-1.134.059-1.725.059h-13.764l-.007-26.289h14.502c.247.009.49.03.731.053 0 0 .745.069.893.092 0 0 .777.097 1.185.173 1.847.279 3.523.792 4.979 1.527 2.301 1.172 4.055 2.754 5.211 4.698 1.089 1.834 1.677 3.931 1.745 6.234l.011.437-.011.37c-.067 2.3-.654 4.395-1.745 6.23-1.159 1.945-2.912 3.525-5.209 4.695-1.461.74-3.138 1.253-4.98 1.529zm19.854 19.673c-2.283 0-4.404-1.027-5.822-2.818l-9.782-12.339c2.015-.362 3.932-1.056 5.717-2.073 2.759-1.569 4.971-3.739 6.576-6.454 1.595-2.704 2.406-5.688 2.415-8.876-.009-3.181-.82-6.167-2.415-8.872-1.607-2.713-3.818-4.884-6.574-6.449-2.761-1.573-5.809-2.371-9.058-2.371h-24.39v53.109h6.38v-17.718h13.451l10.575 13.398c2.168 2.747 5.42 4.322 8.92 4.322h5.062l.028-2.861-1.08.002z"/><path d="m345.3083 1.7106-18.966 27.233-18.948-27.233h-7.771l22.373 32.154v20.959h6.378v-21.554l21.98-31.559z"/></g></g></svg>