<?xml version="1.0" encoding="UTF-8"?>
<svg width="153px" height="46px" viewBox="0 0 153 46" version="1.1" xmlns="http://www.w3.org/2000/svg" xmlns:xlink="http://www.w3.org/1999/xlink">
    <title>Insights</title>
    <g id="Page-1" stroke="none" stroke-width="1" fill="none" fill-rule="evenodd">
        <g id="Insights" transform="translate(0.185000, 0.112000)" fill="#ECEBEA" fill-rule="nonzero">
            <polygon id="Path" points="-5.68434189e-14 34.888 4.116 34.888 4.116 -1.13686838e-13 -5.68434189e-14 -1.13686838e-13"></polygon>
            <path d="M20.323,9.016 C16.795,9.016 14.051,10.829 12.385,13.377 L12.385,9.604 L8.661,9.604 L8.661,34.888 L12.581,34.888 L12.581,20.58 C12.581,14.994 16.256,12.544 19.539,12.544 C23.165,12.544 25.321,14.259 25.321,18.179 L25.321,34.888 L29.241,34.888 L29.241,17.787 C29.241,12.201 25.958,9.016 20.323,9.016 Z" id="Path"></path>
            <path d="M43.139,35.476 C49.362,35.476 53.184,32.732 53.184,27.93 C53.184,23.814 50.685,21.707 44.462,20.482 L42.208,20.041 C38.974,19.404 37.112,18.522 37.112,16.121 C37.112,13.769 39.023,12.397 42.404,12.397 C46.275,12.397 48.578,13.475 48.774,17.395 L52.694,17.395 C52.596,12.005 49.166,9.016 42.404,9.016 C36.622,9.016 33.192,11.858 33.192,16.17 C33.192,20.09 35.593,22.589 41.081,23.618 L43.433,24.059 C47.843,24.892 49.215,25.921 49.215,28.175 C49.215,30.674 47.402,32.095 43.139,32.095 C38.68,32.095 36.818,30.674 36.377,26.852 L32.408,26.852 C32.8,32.781 36.72,35.476 43.139,35.476 Z" id="Path"></path>
            <path d="M56.737,5.782 L60.902,5.782 L60.902,0.98 L56.737,0.98 L56.737,5.782 Z M56.884,34.888 L60.804,34.888 L60.804,9.604 L56.884,9.604 L56.884,34.888 Z" id="Shape"></path>
            <path d="M84.992,9.604 L84.992,13.279 C83.081,10.584 80.092,9.016 76.319,9.016 C69.214,9.016 64.559,14.161 64.559,22.246 C64.559,30.331 69.214,35.476 76.319,35.476 C79.945,35.476 82.885,34.006 84.796,31.458 L84.796,33.908 C84.796,39.151 82.003,41.748 76.956,41.748 C72.987,41.748 70.586,40.131 70.096,36.946 L66.176,36.946 C66.715,41.846 70.488,45.08 76.956,45.08 C84.943,45.08 88.716,40.474 88.716,33.908 L88.716,9.604 L84.992,9.604 Z M76.809,31.948 C71.909,31.948 68.675,28.175 68.675,22.246 C68.675,16.317 71.909,12.544 76.809,12.544 C81.709,12.544 84.943,16.121 84.943,22.246 C84.943,28.371 81.709,31.948 76.809,31.948 Z" id="Shape"></path>
            <path d="M104.678,9.016 C101.248,9.016 98.602,10.731 96.936,13.083 L96.936,-1.13686838e-13 L93.016,-1.13686838e-13 L93.016,34.888 L96.936,34.888 L96.936,20.58 C96.936,14.994 100.611,12.544 103.894,12.544 C107.52,12.544 109.676,14.259 109.676,18.179 L109.676,34.888 L113.596,34.888 L113.596,17.787 C113.596,12.201 110.313,9.016 104.678,9.016 Z" id="Path"></path>
            <path d="M129.35,13.034 L129.35,9.604 L124.156,9.604 L124.156,2.45 L120.236,2.45 L120.236,9.604 L116.071,9.604 L116.071,13.034 L120.236,13.034 L120.236,29.792 C120.236,33.663 122.637,35.035 126.557,35.035 C127.341,35.035 128.272,34.986 129.35,34.888 L129.35,31.605 L127.047,31.605 C124.793,31.605 124.156,30.772 124.156,29.449 L124.156,13.034 L129.35,13.034 Z" id="Path"></path>
            <path d="M142.648,35.476 C148.871,35.476 152.693,32.732 152.693,27.93 C152.693,23.814 150.194,21.707 143.971,20.482 L141.717,20.041 C138.483,19.404 136.621,18.522 136.621,16.121 C136.621,13.769 138.532,12.397 141.913,12.397 C145.784,12.397 148.087,13.475 148.283,17.395 L152.203,17.395 C152.105,12.005 148.675,9.016 141.913,9.016 C136.131,9.016 132.701,11.858 132.701,16.17 C132.701,20.09 135.102,22.589 140.59,23.618 L142.942,24.059 C147.352,24.892 148.724,25.921 148.724,28.175 C148.724,30.674 146.911,32.095 142.648,32.095 C138.189,32.095 136.327,30.674 135.886,26.852 L131.917,26.852 C132.309,32.781 136.229,35.476 142.648,35.476 Z" id="Path"></path>
        </g>
    </g>
</svg>