<svg fill="none" height="44" viewBox="0 0 151 44" width="151" xmlns="http://www.w3.org/2000/svg" xmlns:xlink="http://www.w3.org/1999/xlink"><clipPath id="a"><path d="m0 0h150.7v44h-150.7z"/></clipPath><g clip-path="url(#a)"><path d="m54.85 15.026-1.19 2.242v7.532h-3.855v-24.521h3.854v10.614h.07l4.977-10.614h3.854l-5.36 10.93 5.36 13.592h-3.962l-3.747-9.775zm12.874-4.412h5.29v3.502h-5.29v7.18h6.664v3.505h-10.517v-24.522h10.51v3.501h-6.664l.007 6.833zm8.168-10.335h11.913v3.501h-4.03v21.02h-3.854v-21.02h-4.03v-3.5zm13.412 5.885c0-3.922 2.066-6.164 5.85-6.164 3.783 0 5.852 2.242 5.852 6.164v12.752c0 3.922-2.067 6.164-5.852 6.164-3.784 0-5.85-2.242-5.85-6.164zm3.853 12.997c0 1.75.77 2.417 1.995 2.417s1.998-.667 1.998-2.417v-13.242c0-1.752-.771-2.416-1.998-2.416-1.226 0-1.995.657-1.995 2.416zm14.009-12.121h-.07v17.763h-3.469v-24.524h4.838l3.885 14.686h.071v-14.686h3.429v24.521h-3.963zm11.624-6.761h3.853v24.521h-3.853zm18.017 15.379v3.258c0 3.922-1.962 6.164-5.747 6.164-3.784 0-5.746-2.242-5.746-6.164v-12.752c0-3.922 1.962-6.164 5.746-6.164 3.785 0 5.747 2.242 5.747 6.164v2.383h-3.645v-2.628c0-1.752-.771-2.416-1.997-2.416-1.227 0-1.998.664-1.998 2.416v13.242c0 1.75.771 2.38 1.998 2.38 1.226 0 1.997-.63 1.997-2.38v-3.503zm2.191-9.494c0-3.922 2.067-6.164 5.849-6.164 3.784 0 5.854 2.242 5.854 6.164v12.752c0 3.922-2.069 6.164-5.854 6.164-3.783 0-5.849-2.242-5.849-6.164zm3.854 12.997c0 1.75.771 2.417 1.995 2.417 1.226 0 1.998-.667 1.998-2.417v-13.242c0-1.752-.771-2.416-1.998-2.416-1.225 0-1.995.664-1.995 2.416zm-136.177-19.056v3.168h-.958c-1.243 0-1.812.458-1.812 2.217v13.866c0 1.76.57 2.217 1.812 2.217h.958v3.168h-1.205c-3.908-.001-5.47-1.441-5.47-5.385v-13.866c0-3.942 1.562-5.385 5.469-5.385zm9.181 14.817-1.207 2.253v7.564h-3.905v-24.634h3.905v10.665h.07l5.045-10.665h3.905l-5.43 10.985 5.43 13.656h-4.013l-3.799-9.824zm11.077-14.817c3.905 0 5.469 1.44 5.469 5.384v13.867c0 3.942-1.564 5.384-5.469 5.384h-1.206v-3.165h.963c1.243 0 1.801-.458 1.801-2.217v-13.868c0-1.76-.567-2.217-1.8-2.217h-.959v-3.168zm11.476 4.246h-.042v10.403h-2.05v-14.364h2.857l2.298 8.6h.042v-8.6h2.028v14.365h-2.341zm-35.955 33.665v4.518h-1.097v-8.806h1.097v4.142l3.857-4.142h1.453l-3.93 4.21 4.366 4.596h-1.457zm7.009-4.288h5.067v.918h-3.963v2.91h3.857v.919h-3.864v3.142h4.072v.92h-5.17v-8.809zm6.191 0h7.025v.918h-2.965v7.888h-1.098v-7.888h-2.962zm7.482 4.403c0-2.521 1.671-4.53 4.11-4.53s4.109 2.016 4.109 4.53-1.672 4.53-4.109 4.53-4.11-2.016-4.11-4.53zm7.024 0c0-2.105-1.174-3.612-2.921-3.612s-2.924 1.507-2.924 3.612 1.175 3.61 2.924 3.61 2.929-1.505 2.929-3.61zm5.44-4.403h7.024v.918h-2.964v7.888h-1.1v-7.888h-2.96zm7.482 4.403c0-2.521 1.672-4.53 4.109-4.53s4.11 2.016 4.11 4.53-1.672 4.53-4.11 4.53c-2.44 0-4.109-2.016-4.109-4.53zm7.025 0c0-2.105-1.175-3.612-2.923-3.612-1.75 0-2.922 1.507-2.922 3.612s1.174 3.61 2.922 3.61c1.747 0 2.923-1.505 2.923-3.61zm5.437-4.403h7.025v.918h-2.967v7.888h-1.097v-7.888h-2.961zm14.871 0v8.806h-1.097v-4.034h-4.186v4.034h-1.099v-8.806h1.099v3.854h4.186v-3.854zm2.499 0h5.067v.918h-3.963v2.91h3.855v.919h-3.855v3.142h4.071v.92h-5.17zm17.937 8.806h-2.259l-3.541-8.756v8.756h-1.097v-8.806h2.259l3.536 8.754v-8.754h1.097zm1.404-9.38h4.092v.54h-1.725v4.598h-.64v-4.598h-1.727zm8.668 0v5.134h-.64v-2.341h-2.445v2.341h-.642v-5.134h.642v2.246h2.44v-2.247h.645zm5.774.586h2.882c2.133 0 3.473.919 3.473 2.628s-1.34 2.641-3.473 2.641h-1.787v3.535h-1.097zm1.097.919v3.432h1.915c1.365 0 2.161-.587 2.161-1.723 0-1.137-.792-1.71-2.161-1.71h-1.915zm6.408 3.483c0-2.521 1.672-4.53 4.109-4.53s4.11 2.016 4.11 4.53-1.671 4.53-4.11 4.53-4.109-2.016-4.109-4.53zm7.025 0c0-2.105-1.174-3.61-2.923-3.61s-2.922 1.505-2.922 3.61 1.174 3.612 2.922 3.612c1.747 0 2.93-1.505 2.93-3.612zm9.224-4.402 1.672 8.754 2.067-8.754h1.081l-2.08 8.804h-2.144l-1.673-8.753-1.672 8.754h-2.143l-2.08-8.805h1.08l2.068 8.754 1.672-8.754zm6.536 0h5.066v.919h-3.962v2.91h3.854v.918h-3.854v3.14h4.06v.917h-5.17zm7.225 0h2.733c2.129 0 3.38.9 3.38 2.54 0 1.25-.72 2.08-2.028 2.398l2.195 3.867h-1.26l-2.106-3.714h-1.813v3.713h-1.098zm1.099.919v3.254h1.759c1.367 0 2.068-.575 2.068-1.634s-.701-1.62-2.068-1.62z" fill="#ecebea"/></g></svg>