<svg width="187" height="39" viewBox="0 0 187 39" fill="none" xmlns="http://www.w3.org/2000/svg">
<path d="M0 0V30.8669H4.69427V21.1758H7.54516L14.3956 30.8669H20.1375L11.5751 19.0547L19.3168 8.1496H13.7451L7.57699 16.9337H4.69427V0H0Z" fill="#C8FF1E"/>
<path d="M128.074 19.5654L128.057 19.5819C128.057 12.9546 123.398 7.59767 116.402 7.59767C110.274 7.59767 105.53 11.8934 104.773 17.8298L99.8252 20.3403L103.929 8.1496H99.2288L93.9892 23.572L87.3395 8.3946H85.8241L79.2643 23.4578L74.1078 8.1496H69.4688L69.4758 8.13309L64.4978 8.15924L57.6861 24.0042L50.4233 8.15924H45.3138L48.9314 15.8175L42.3758 12.3834C40.1975 9.4324 36.6311 7.59767 32.4323 7.59767C25.4531 7.59767 20.2122 12.6779 20.2122 19.5089C20.2122 26.34 25.4421 31.4257 32.4323 31.4257C39.4225 31.4257 44.6523 26.351 44.6523 19.5089C44.6523 18.9997 44.6205 18.5014 44.5637 18.0142L51.7449 21.7772L55.2698 29.2373L54.7467 30.2806C53.0749 33.917 52.1477 34.7979 49.1238 34.7979H47.1641V39.0028H49.485C54.1433 39.0028 56.4171 37.0015 58.9953 31.2702L69.3498 8.41525L76.9171 30.8683H80.7271L86.5852 17.0342L92.4752 30.8683H96.2851L98.0206 25.7123L104.944 22.197C106.085 27.6062 110.638 31.4257 116.403 31.4257C118.832 31.4629 121.211 30.7375 123.202 29.3556C125.195 27.9724 126.697 26 127.497 23.7193H122.577C121.946 24.7709 121.041 25.6339 119.959 26.2202C118.878 26.8052 117.657 27.0887 116.425 27.0447C112.683 27.0447 110.016 24.7833 109.43 21.1001H127.981C128.038 20.5908 128.07 20.0801 128.075 19.5681M32.4337 26.9635C28.1103 26.9635 24.9978 23.8322 24.9978 19.5076C24.9978 15.183 28.1047 12.0558 32.4337 12.0558C36.7626 12.0558 39.8695 15.1568 39.8695 19.5076C39.8695 23.8583 36.757 26.9635 32.4337 26.9635ZM109.549 17.304C110.318 13.9332 112.892 11.8122 116.424 11.8122C119.956 11.8122 122.523 13.8492 123.367 17.304H109.549Z" fill="#C8FF1E"/>
<path d="M136.297 15.1197H141.082V16.2704H137.609V17.9592H140.464V19.0342H137.609V21.8736H136.297V15.1197Z" fill="white"/>
<path d="M141.65 14.9669H142.885V16.1947H141.65V14.9669ZM141.65 16.8085H142.885V21.8736H141.65V16.8085Z" fill="white"/>
<path d="M148.18 17.2779C148.508 17.6426 148.672 18.1767 148.672 18.88V21.8736H147.438V19.3025C147.438 18.752 147.363 18.3721 147.217 18.1601C147.068 17.9496 146.828 17.8436 146.493 17.8436C146.255 17.8436 146.031 17.9275 145.823 18.0927C145.614 18.2592 145.445 18.4919 145.316 18.7933C145.188 19.0933 145.124 19.4333 145.124 19.8104V21.8736H143.89V16.8085H145.124V17.1251C145.124 17.2724 145.112 17.3976 145.085 17.4995C145.059 17.6013 145.022 17.7073 144.969 17.816C144.937 17.8931 144.921 17.9441 144.921 17.9702C144.921 18.028 144.947 18.0597 144.998 18.0665H145.027C145.071 18.0665 145.11 18.028 145.143 17.9509C145.285 17.6371 145.503 17.3563 145.799 17.1072C146.096 16.8581 146.443 16.7328 146.842 16.7328C147.408 16.7328 147.855 16.9145 148.183 17.2793L148.18 17.2779Z" fill="white"/>
<path d="M149.798 19.3177C150.135 19.0644 150.584 18.9227 151.143 18.891L151.635 18.8717C152.073 18.8594 152.384 18.8304 152.571 18.785C152.758 18.7396 152.848 18.6309 152.841 18.4588C152.834 18.2414 152.761 18.0652 152.619 17.9317C152.478 17.7982 152.211 17.7307 151.818 17.7307C151.425 17.7307 151.136 17.7995 150.97 17.9372C150.802 18.0748 150.7 18.262 150.661 18.4987H149.446C149.529 17.8973 149.796 17.4527 150.247 17.165C150.697 16.8773 151.234 16.7328 151.858 16.7328C152.539 16.7328 153.08 16.8994 153.479 17.2311C153.877 17.5642 154.077 18.178 154.077 19.0727V21.8736H152.842V21.5185C152.842 21.3272 152.891 21.1414 152.987 20.9625C153.014 20.8992 153.026 20.851 153.026 20.818C153.026 20.7794 153.01 20.7546 152.978 20.7409L152.939 20.7312C152.9 20.7312 152.871 20.7491 152.852 20.7835C152.832 20.818 152.823 20.84 152.823 20.8455C152.521 21.5805 151.936 21.948 151.067 21.948C150.751 21.948 150.458 21.8847 150.184 21.7567C149.91 21.6286 149.694 21.4525 149.532 21.2295C149.371 21.0051 149.291 20.756 149.291 20.4807C149.291 19.9563 149.46 19.5682 149.798 19.3149V19.3177ZM152.334 19.5572C152.125 19.6122 151.799 19.6618 151.356 19.7058C151.079 19.7375 150.871 19.8104 150.733 19.9219C150.595 20.0334 150.525 20.1986 150.525 20.416C150.525 20.6019 150.597 20.7519 150.743 20.8675C150.887 20.9831 151.075 21.0396 151.307 21.0396C151.39 21.0396 151.455 21.0368 151.5 21.0299C151.879 20.979 152.196 20.8152 152.451 20.5399C152.705 20.2646 152.835 19.8393 152.841 19.264C152.712 19.4044 152.543 19.5021 152.334 19.5558V19.5572Z" fill="white"/>
<path d="M159.355 17.2779C159.683 17.6426 159.848 18.1767 159.848 18.88V21.8736H158.613V19.3025C158.613 18.752 158.538 18.3721 158.392 18.1601C158.244 17.9496 158.003 17.8436 157.668 17.8436C157.43 17.8436 157.206 17.9275 156.998 18.0927C156.789 18.2592 156.62 18.4919 156.492 18.7933C156.363 19.0933 156.299 19.4333 156.299 19.8104V21.8736H155.065V16.8085H156.299V17.1251C156.299 17.2724 156.287 17.3976 156.26 17.4995C156.234 17.6013 156.197 17.7073 156.144 17.816C156.112 17.8931 156.096 17.9441 156.096 17.9702C156.096 18.028 156.122 18.0597 156.173 18.0665H156.202C156.247 18.0665 156.285 18.028 156.319 17.9509C156.46 17.6371 156.678 17.3563 156.975 17.1072C157.271 16.8581 157.618 16.7328 158.017 16.7328C158.583 16.7328 159.03 16.9145 159.358 17.2793L159.355 17.2779Z" fill="white"/>
<path d="M160.779 17.9977C160.988 17.6013 161.288 17.2916 161.681 17.0673C162.073 16.8429 162.527 16.7315 163.042 16.7315C163.498 16.7315 163.9 16.8237 164.247 17.0095C164.594 17.1953 164.866 17.4403 165.062 17.7431C165.259 18.0473 165.372 18.3749 165.404 18.7272H164.189C164.15 18.4712 164.031 18.2606 163.832 18.0941C163.633 17.9275 163.368 17.8449 163.04 17.8449C162.622 17.8449 162.294 17.9826 162.056 18.2579C161.818 18.5331 161.699 18.8938 161.699 19.3425C161.699 19.7912 161.818 20.1518 162.056 20.4271C162.294 20.7023 162.622 20.84 163.04 20.84C163.368 20.84 163.631 20.7574 163.832 20.5908C164.031 20.4243 164.15 20.2137 164.189 19.9577H165.404C165.372 20.3101 165.257 20.6376 165.062 20.9418C164.866 21.246 164.596 21.4896 164.253 21.6754C163.908 21.8613 163.505 21.9535 163.042 21.9535C162.534 21.9535 162.085 21.842 161.697 21.6176C161.308 21.3933 161.005 21.0836 160.79 20.6872C160.574 20.2908 160.468 19.8435 160.468 19.3438C160.468 18.8442 160.571 18.3969 160.78 18.0005L160.779 17.9977Z" fill="white"/>
<path d="M166.122 14.9669H167.357V16.1947H166.122V14.9669ZM166.122 16.8085H167.357V21.8736H166.122V16.8085Z" fill="white"/>
<path d="M168.587 19.3177C168.925 19.0644 169.373 18.9227 169.932 18.891L170.425 18.8717C170.862 18.8594 171.174 18.8304 171.36 18.785C171.547 18.7396 171.637 18.6309 171.63 18.4588C171.623 18.2414 171.55 18.0652 171.409 17.9317C171.268 17.7982 171.001 17.7307 170.608 17.7307C170.215 17.7307 169.925 17.7995 169.759 17.9372C169.592 18.0748 169.489 18.262 169.451 18.4987H168.236C168.319 17.8973 168.586 17.4527 169.037 17.165C169.487 16.8773 170.024 16.7328 170.648 16.7328C171.329 16.7328 171.87 16.8994 172.268 17.2311C172.667 17.5642 172.866 18.178 172.866 19.0727V21.8736H171.632V21.5185C171.632 21.3272 171.68 21.1414 171.777 20.9625C171.803 20.8992 171.816 20.851 171.816 20.818C171.816 20.7794 171.799 20.7546 171.767 20.7409L171.729 20.7312C171.69 20.7312 171.661 20.7491 171.641 20.7835C171.622 20.818 171.612 20.84 171.612 20.8455C171.311 21.5805 170.725 21.948 169.856 21.948C169.541 21.948 169.247 21.8847 168.973 21.7567C168.699 21.6286 168.483 21.4525 168.321 21.2295C168.161 21.0051 168.081 20.756 168.081 20.4807C168.081 19.9563 168.249 19.5682 168.587 19.3149V19.3177ZM171.124 19.5572C170.915 19.6122 170.588 19.6618 170.145 19.7058C169.869 19.7375 169.661 19.8104 169.523 19.9219C169.384 20.0334 169.315 20.1986 169.315 20.416C169.315 20.6019 169.387 20.7519 169.532 20.8675C169.676 20.9831 169.864 21.0396 170.097 21.0396C170.18 21.0396 170.245 21.0368 170.289 21.0299C170.668 20.979 170.985 20.8152 171.24 20.5399C171.495 20.2646 171.625 19.8393 171.63 19.264C171.502 19.4044 171.333 19.5021 171.124 19.5558V19.5572Z" fill="white"/>
<path d="M175.092 14.9669V21.875H173.857V14.9669H175.092Z" fill="white"/>
<path d="M136.297 30.9289V24.175H137.609V30.9289H136.297Z" fill="white"/>
<path d="M142.951 26.3331C143.279 26.6979 143.444 27.2319 143.444 27.9353V30.9289H142.21V28.3578C142.21 27.8073 142.135 27.4274 141.988 27.2154C141.84 27.0048 141.599 26.8988 141.264 26.8988C141.026 26.8988 140.802 26.9828 140.594 27.148C140.385 27.3145 140.217 27.5471 140.088 27.8485C139.959 28.1486 139.896 28.4886 139.896 28.8657V30.9289H138.661V25.8638H139.896V26.1804C139.896 26.3276 139.883 26.4529 139.857 26.5547C139.831 26.6566 139.793 26.7626 139.741 26.8713C139.709 26.9484 139.692 26.9993 139.692 27.0255C139.692 27.0833 139.718 27.1149 139.77 27.1218H139.799C139.843 27.1218 139.882 27.0833 139.915 27.0062C140.056 26.6924 140.275 26.4116 140.571 26.1625C140.867 25.9133 141.214 25.7881 141.613 25.7881C142.179 25.7881 142.626 25.9698 142.954 26.3345L142.951 26.3331Z" fill="white"/>
<path d="M145.967 26.9374V29.2497C145.967 29.4548 145.975 29.5952 145.99 29.6723C146.007 29.7493 146.049 29.7989 146.116 29.8209C146.184 29.8429 146.311 29.8539 146.497 29.8539H147.355V30.9289H146.235C145.881 30.9289 145.596 30.8821 145.377 30.7899C145.159 30.6977 144.997 30.5394 144.89 30.315C144.784 30.0907 144.731 29.7782 144.731 29.375V26.9388H143.805V25.8638H144.731V24.4819H145.965V25.8638H147.355V26.9388H145.965L145.967 26.9374Z" fill="white"/>
<path d="M152.628 28.7033H148.923C148.967 29.0873 149.11 29.3874 149.348 29.6048C149.586 29.8223 149.897 29.931 150.283 29.931C150.804 29.931 151.148 29.675 151.316 29.163H152.57C152.453 29.7191 152.204 30.165 151.822 30.5009C151.439 30.8367 150.924 31.0046 150.274 31.0046C149.739 31.0046 149.28 30.8931 148.894 30.6688C148.508 30.4444 148.216 30.1361 148.016 29.7425C147.817 29.3488 147.718 28.9001 147.718 28.395C147.718 27.8898 147.82 27.4109 148.026 27.0186C148.232 26.6263 148.526 26.3221 148.909 26.1074C149.291 25.8927 149.741 25.7853 150.254 25.7853C150.672 25.7853 151.062 25.8734 151.426 26.0496C151.789 26.2258 152.085 26.5038 152.314 26.8837C152.542 27.265 152.655 27.7453 152.655 28.3275C152.655 28.4294 152.646 28.5546 152.626 28.7019L152.628 28.7033ZM151.421 27.8596C151.395 27.5402 151.285 27.2815 151.093 27.0833C150.901 26.8851 150.633 26.786 150.292 26.786C149.558 26.786 149.118 27.1438 148.97 27.8609H151.421V27.8596Z" fill="white"/>
<path d="M154.623 24.0208V30.9289H153.389V24.0208H154.623Z" fill="white"/>
<path d="M156.861 24.0208V30.9289H155.627V24.0208H156.861Z" fill="white"/>
<path d="M157.863 24.0208H159.098V25.2486H157.863V24.0208ZM157.863 25.8638H159.098V30.9289H157.863V25.8638Z" fill="white"/>
<path d="M160.101 27.0296C160.288 26.6497 160.549 26.3469 160.887 26.1226C161.225 25.8982 161.609 25.7867 162.04 25.7867C162.734 25.7867 163.271 26.0937 163.651 26.7075C163.695 26.8039 163.747 26.8383 163.806 26.8135C163.837 26.8066 163.854 26.7818 163.854 26.7364C163.854 26.7048 163.832 26.6442 163.786 26.5534C163.716 26.4199 163.68 26.2657 163.68 26.0937V25.8638H164.914V30.3921C164.914 31.1918 164.693 31.8002 164.248 32.22C163.804 32.6384 163.187 32.8476 162.397 32.8476C161.607 32.8476 161.064 32.6769 160.656 32.3342C160.248 31.9915 160.021 31.5621 159.976 31.0445H161.191C161.262 31.5813 161.658 31.8497 162.377 31.8497C163.245 31.8497 163.68 31.3804 163.68 30.4389C163.68 30.2724 163.714 30.1223 163.786 29.9888C163.831 29.8994 163.854 29.8416 163.854 29.8154C163.854 29.7838 163.837 29.7617 163.806 29.748L163.767 29.7383C163.728 29.7383 163.699 29.7521 163.68 29.781C163.66 29.8099 163.651 29.8278 163.651 29.8333C163.284 30.4596 162.747 30.7734 162.04 30.7734C161.609 30.7734 161.225 30.6619 160.887 30.4375C160.549 30.2132 160.288 29.9118 160.101 29.5305C159.914 29.1492 159.821 28.7322 159.821 28.278C159.821 27.8238 159.914 27.4067 160.101 27.0255V27.0296ZM163.033 29.4754C163.24 29.3502 163.399 29.1823 163.511 28.9717C163.623 28.7597 163.68 28.5299 163.68 28.2807C163.68 28.0316 163.623 27.8004 163.511 27.5898C163.399 27.3792 163.24 27.2113 163.033 27.086C162.827 26.9608 162.593 26.8988 162.329 26.8988C161.918 26.8988 161.602 27.0296 161.384 27.2925C161.165 27.5554 161.056 27.8843 161.056 28.2807C161.056 28.6771 161.165 29.0061 161.384 29.269C161.602 29.5319 161.918 29.6626 162.329 29.6626C162.592 29.6626 162.827 29.6007 163.033 29.4754Z" fill="white"/>
<path d="M170.552 28.7033H166.847C166.892 29.0873 167.034 29.3874 167.272 29.6048C167.51 29.8223 167.822 29.931 168.208 29.931C168.728 29.931 169.073 29.675 169.24 29.163H170.494C170.378 29.7191 170.129 30.165 169.747 30.5009C169.363 30.8367 168.849 31.0046 168.198 31.0046C167.664 31.0046 167.205 30.8931 166.818 30.6688C166.432 30.4444 166.14 30.1361 165.941 29.7425C165.742 29.3488 165.642 28.9001 165.642 28.395C165.642 27.8898 165.744 27.4109 165.951 27.0186C166.157 26.6263 166.45 26.3221 166.834 26.1074C167.216 25.8927 167.665 25.7853 168.179 25.7853C168.597 25.7853 168.987 25.8734 169.351 26.0496C169.714 26.2258 170.01 26.5038 170.238 26.8837C170.466 27.265 170.58 27.7453 170.58 28.3275C170.58 28.4294 170.57 28.5546 170.551 28.7019L170.552 28.7033ZM169.347 27.8596C169.321 27.5402 169.211 27.2815 169.019 27.0833C168.827 26.8851 168.559 26.786 168.218 26.786C167.484 26.786 167.044 27.1438 166.896 27.8609H169.347V27.8596Z" fill="white"/>
<path d="M175.598 26.3331C175.926 26.6979 176.091 27.2319 176.091 27.9353V30.9289H174.856V28.3578C174.856 27.8073 174.782 27.4274 174.635 27.2154C174.487 27.0048 174.246 26.8988 173.911 26.8988C173.673 26.8988 173.449 26.9828 173.241 27.148C173.032 27.3145 172.863 27.5471 172.735 27.8485C172.606 28.1486 172.542 28.4886 172.542 28.8657V30.9289H171.308V25.8638H172.542V26.1804C172.542 26.3276 172.53 26.4529 172.504 26.5547C172.477 26.6566 172.44 26.7626 172.387 26.8713C172.355 26.9484 172.339 26.9993 172.339 27.0255C172.339 27.0833 172.365 27.1149 172.416 27.1218H172.445C172.49 27.1218 172.528 27.0833 172.562 27.0062C172.703 26.6924 172.922 26.4116 173.218 26.1625C173.514 25.9133 173.861 25.7881 174.26 25.7881C174.826 25.7881 175.273 25.9698 175.601 26.3345L175.598 26.3331Z" fill="white"/>
<path d="M177.022 27.053C177.231 26.6566 177.531 26.3469 177.924 26.1226C178.316 25.8982 178.77 25.7867 179.285 25.7867C179.741 25.7867 180.143 25.8789 180.49 26.0647C180.838 26.2506 181.109 26.4956 181.305 26.7984C181.502 27.1025 181.615 27.4301 181.647 27.7825H180.432C180.393 27.5265 180.274 27.3159 180.075 27.1493C179.876 26.9828 179.611 26.9002 179.283 26.9002C178.865 26.9002 178.537 27.0379 178.299 27.3131C178.061 27.5884 177.942 27.949 177.942 28.3977C177.942 28.8464 178.061 29.207 178.299 29.4823C178.537 29.7576 178.865 29.8952 179.283 29.8952C179.611 29.8952 179.874 29.8127 180.075 29.6461C180.274 29.4796 180.393 29.269 180.432 29.013H181.647C181.615 29.3653 181.5 29.6929 181.305 29.9971C181.109 30.3013 180.839 30.5449 180.496 30.7307C180.151 30.9165 179.748 31.0087 179.285 31.0087C178.777 31.0087 178.329 30.8973 177.94 30.6729C177.551 30.4486 177.248 30.1389 177.033 29.7425C176.817 29.3461 176.711 28.8987 176.711 28.3991C176.711 27.8995 176.814 27.4522 177.023 27.0558L177.022 27.053Z" fill="white"/>
<path d="M186.971 28.7033H183.266C183.311 29.0873 183.453 29.3874 183.691 29.6048C183.929 29.8223 184.241 29.931 184.627 29.931C185.147 29.931 185.492 29.675 185.659 29.163H186.913C186.797 29.7191 186.548 30.165 186.166 30.5009C185.782 30.8367 185.268 31.0046 184.617 31.0046C184.083 31.0046 183.623 30.8931 183.237 30.6688C182.851 30.4444 182.559 30.1361 182.36 29.7425C182.161 29.3488 182.061 28.9001 182.061 28.395C182.061 27.8898 182.163 27.4109 182.37 27.0186C182.576 26.6263 182.869 26.3221 183.253 26.1074C183.634 25.8927 184.084 25.7853 184.598 25.7853C185.016 25.7853 185.406 25.8734 185.77 26.0496C186.132 26.2258 186.429 26.5038 186.657 26.8837C186.885 27.265 186.999 27.7453 186.999 28.3275C186.999 28.4294 186.989 28.5546 186.97 28.7019L186.971 28.7033ZM185.766 27.8596C185.739 27.5402 185.63 27.2815 185.438 27.0833C185.245 26.8851 184.978 26.786 184.636 26.786C183.903 26.786 183.463 27.1438 183.315 27.8609H185.766V27.8596Z" fill="white"/>
</svg>
