<svg fill="none" height="77" viewBox="0 0 569 77" width="569" xmlns="http://www.w3.org/2000/svg" xmlns:xlink="http://www.w3.org/1999/xlink"><clipPath id="a"><path d="m0 0h568.77v76.76h-568.77z"/></clipPath><g clip-path="url(#a)"><path d="m0 1.3h15v61.91h26.43v12.25h-41.43zm81.02 0 19.63 74.16h-15.58l-3.43-15.68h-19.73l-3.43 15.68h-15.58l19.63-74.16zm-2 46.22-7.14-33.34h-.21l-7.17 33.34zm26.82-46.22h15v61.91h26.49v12.25h-41.49zm81.02 0 19.63 74.16h-15.58l-3.42-15.68h-19.74l-3.43 15.68h-15.58l19.63-74.16zm-2 46.22-7.14-33.34h-.21l-7.16 33.34zm52.57 22.83a13.08 13.08 0 1 1 -18.5-18.5c5.11-5.11 19.46-1 19.46-1s4.18 14.39-.96 19.5zm41.86-68.89a21.63 21.63 0 0 1 9.61 1.92 17.594 17.594 0 0 1 6.28 5 19.7 19.7 0 0 1 3.43 7.12 32.367 32.367 0 0 1 1 8.15 26.385 26.385 0 0 1 -1.72 10 18.073 18.073 0 0 1 -4.77 7 19.995 19.995 0 0 1 -7.43 4.06 32.583 32.583 0 0 1 -9.66 1.35h-8v29.6h-15v-74.2zm-4.57 33.52a9.841 9.841 0 0 0 7.22-2.71c1.83-1.79 2.75-4.6 2.75-8.41s-.8-6.58-2.39-8.52-4.26-2.9-8-2.9h-6.23v22.54zm32.3-33.52h15v61.9h26.41v12.26h-41.41zm81.02 0 19.63 74.16h-15.58l-3.43-15.64h-19.73l-3.43 15.69h-15.58l19.63-74.16 18.49-.05zm-2 46.22-7.16-33.34h-.21l-7.17 33.34zm62.14 4.57h.25v-50.79h13.71v74.16h-17l-18.36-51.94h-.21v51.94h-13.71v-74.16h17.25zm67.72-38.54h-16.2v61.91h-15v-61.91h-16.2v-12.25h47.36zm18.53 40.93a24.345 24.345 0 0 0 .42 4.72 8.214 8.214 0 0 0 1.55 3.59 7.636 7.636 0 0 0 3.07 2.28c1.536.603 3.18.886 4.83.83a9.573 9.573 0 0 0 6.18-2.23c1.833-1.487 2.75-3.79 2.75-6.91a12.154 12.154 0 0 0 -.68-4.31 8.508 8.508 0 0 0 -2.23-3.27 15.877 15.877 0 0 0 -4.1-2.65 60.533 60.533 0 0 0 -6.28-2.44 53.728 53.728 0 0 1 -8.63-3.64 22.933 22.933 0 0 1 -6.07-4.62 16.595 16.595 0 0 1 -3.59-6.13 25.843 25.843 0 0 1 -1.14-8c0-7.333 2.043-12.803 6.13-16.41 4.086-3.607 9.683-5.43 16.79-5.47a36.473 36.473 0 0 1 9.19 1.09 19.42 19.42 0 0 1 7.27 3.53 16.566 16.566 0 0 1 4.78 6.24 21.93 21.93 0 0 1 1.76 9.14v2h-14.38c0-3.533-.624-6.25-1.87-8.15-1.247-1.9-3.324-2.85-6.23-2.85a10.3 10.3 0 0 0 -4.16.73 6.905 6.905 0 0 0 -2.65 1.92 6.563 6.563 0 0 0 -1.35 2.75 14.243 14.243 0 0 0 -.36 3.22 10.718 10.718 0 0 0 1.45 5.77c1 1.56 3 3 6.24 4.31l11.52 5a35.944 35.944 0 0 1 7 3.9 19.012 19.012 0 0 1 4.3 4.36 14.535 14.535 0 0 1 2.24 5.14c.43 2.052.638 4.144.62 6.24 0 7.82-2.267 13.513-6.8 17.08-4.534 3.567-10.867 5.35-19 5.35-8.454 0-14.494-1.833-18.12-5.5-3.627-3.667-5.444-8.927-5.45-15.78v-3h15z" fill="#f16178"/></g></svg>