<svg xmlns="http://www.w3.org/2000/svg" viewBox="0 0 4693 400" fill="none" class="h-4 ml-4 md:ml-3" aria-label="MAIA Universe logo" role="img"><path d="M192.519 304.444L63.2401 1.45029e-07L0 0.211645V399.735H62.7019V134.339L166.416 400H216.308L322.121 135.344V399.471H384.607L384.338 0.105823H321.583L192.519 304.444Z" fill="#fff"></path><path d="M585.761 0.0529503L446.166 399.735L519.11 400L535.691 348.1H693.782L709.98 400H784.621L644.971 1.45029e-07H585.761V0.0529503ZM675.286 288.786H554.406L615.202 95.856L675.286 288.786Z" fill="#fff"></path><path d="M846.23 1.45029e-07H907.716C907.716 132.415 907.564 267.426 907.564 400H846.179V1.45029e-07" fill="#fff"></path><path d="M1108.87 0.105921L969.275 399.735L1042.22 400L1058.8 348.1H1216.89L1233.09 400H1307.73L1168.19 1.45029e-07H1108.93L1108.87 0.105921ZM1198.4 288.786H1077.52L1138.31 95.856L1198.4 288.786Z" fill="#fff"></path><path d="M2168.9 187.157C2161.79 82.1925 2068 1.45029e-07 1955.37 1.45029e-07C1878.09 1.45029e-07 1807.34 38.7661 1769.33 101.311C1731.28 38.7131 1660.52 1.45029e-07 1583.3 1.45029e-07C1470.67 1.45029e-07 1376.83 82.1925 1369.71 187.104C1369.45 191.341 1369.29 195.631 1369.29 199.974C1369.29 201.562 1369.29 203.098 1369.34 204.528C1371.94 312.3 1467.91 400 1583.3 400C1660.26 400 1730.91 361.552 1769.07 299.272H1769.55C1807.71 361.552 1878.35 400 1955.32 400C2070.71 400 2166.67 312.3 2169.27 204.581C2169.27 203.045 2169.27 201.509 2169.27 199.974C2169.27 195.684 2169.17 191.394 2168.85 187.157M2043.05 200.291C2044.06 204.846 2046.72 208.606 2050.27 211.148C2043.37 274.063 1978.62 322.415 1899.32 322.415C1881.22 322.415 1863.49 319.608 1846.77 314.577C1849.32 314.683 1851.87 314.842 1854.42 314.842C1923.36 314.842 1980.26 269.985 1987.64 212.525C1994.81 208.765 1998.89 200.662 1997.09 192.453C1995.76 186.416 1991.57 181.756 1986.26 179.531C1975.01 125.831 1920.23 84.9464 1854.42 84.9464C1852.19 84.9464 1849.96 85.1053 1847.73 85.2112C1864.13 80.3919 1881.54 77.691 1899.32 77.691C1974.27 77.691 2038.54 123.236 2049.16 182.497C2044.17 186.734 2041.57 193.46 2043.05 200.291ZM1496.14 196.372C1496.14 190.706 1493.49 185.675 1489.46 182.338C1500.18 123.183 1564.4 77.691 1639.29 77.691C1656.86 77.691 1674.11 80.3389 1690.41 85.0523C1689.29 85.0523 1688.12 84.9464 1687.01 84.9464C1621.67 84.9464 1567.32 126.043 1556.39 179.955C1548.96 183.556 1544.66 191.871 1546.51 200.291C1547.63 205.428 1550.81 209.506 1555.01 212.048C1562.01 269.721 1618.54 314.842 1687.01 314.842C1688.5 314.842 1689.98 314.736 1691.52 314.683C1674.91 319.608 1657.29 322.362 1639.35 322.362C1560.05 322.362 1495.4 274.116 1488.39 211.307C1493.12 207.97 1496.2 202.516 1496.2 196.372M1961.26 200.291C1962.27 204.899 1964.98 208.606 1968.53 211.201C1961.79 258.758 1913.23 295.777 1854.47 295.777C1843.22 295.777 1832.12 294.294 1821.46 291.646C1868.06 284.443 1904.47 252.35 1910.57 211.73C1916.84 207.706 1920.23 200.132 1918.59 192.453C1917.37 186.999 1913.81 182.709 1909.19 180.273C1900.33 143.678 1866.41 115.345 1824.27 107.719C1834.19 105.336 1844.33 104.065 1854.47 104.065C1910.68 104.065 1957.55 137.958 1967.42 182.497C1962.43 186.734 1959.78 193.46 1961.31 200.344M1582.45 192.506C1581.49 188.058 1578.89 184.457 1575.55 181.914C1585.58 137.641 1631.76 104.065 1687.12 104.065C1697.57 104.065 1707.76 105.283 1717.53 107.613C1673.79 114.286 1638.28 142.778 1628.94 179.743C1621.19 183.238 1616.63 191.765 1618.54 200.397C1619.71 205.693 1623.1 209.877 1627.46 212.366C1634.09 253.409 1672.1 285.502 1720.24 291.699C1709.62 294.4 1698.53 295.882 1687.12 295.882C1629.21 295.882 1581.39 259.129 1574.43 211.836C1580.7 207.811 1584.15 200.238 1582.45 192.559M1882.81 200.397C1883.93 205.481 1887.06 209.559 1891.2 212.048C1884.46 245.095 1851.66 270.462 1811 273.799C1825.65 259.447 1835.89 237.839 1838.71 213.054C1846.4 209.559 1850.86 201.086 1849 192.506C1847.62 186.31 1843.32 181.597 1837.86 179.425C1834.14 157.341 1824.37 138.223 1810.95 125.142C1849.06 128.32 1880.85 151.092 1889.93 181.703C1884.3 185.886 1881.27 193.036 1882.87 200.344M1654.47 192.506C1653.57 188.323 1651.18 184.827 1648.1 182.338C1656.86 152.151 1688.34 129.485 1726.29 125.778C1713.12 138.912 1703.52 157.977 1699.91 179.902C1692.32 183.45 1687.91 191.871 1689.82 200.344C1691.04 205.746 1694.55 210.036 1699.06 212.472C1701.71 237.151 1711.74 258.652 1726.18 273.163C1685.79 269.244 1653.47 244.141 1646.88 211.572C1652.88 207.494 1656.12 200.079 1654.47 192.559M1813.12 200.397C1814.08 204.687 1816.52 208.235 1819.76 210.777C1816.25 243.4 1797.73 269.085 1774.59 272.739C1774.32 272.792 1774 272.845 1773.69 272.845C1772.09 273.057 1770.5 273.216 1768.86 273.216C1767.21 273.216 1765.56 273.057 1763.92 272.845C1763.49 272.792 1763.12 272.686 1762.7 272.633C1739.93 268.767 1721.72 243.612 1718.06 211.519C1724.01 207.441 1727.19 200.026 1725.54 192.559C1724.59 188.217 1722.09 184.615 1718.8 182.073C1723.85 152.469 1741.41 129.856 1762.96 126.413C1763.23 126.413 1763.44 126.307 1763.71 126.307C1765.35 126.096 1767.05 125.937 1768.75 125.937C1793.11 125.937 1813.49 150.245 1818.85 182.815C1813.97 187.052 1811.48 193.724 1812.96 200.45M1583.3 381.147C1478.2 381.147 1390.84 301.814 1388.5 204.21C1388.45 202.886 1388.5 201.562 1388.5 200.238C1388.5 196.372 1388.61 192.506 1388.87 188.693C1395.3 93.7376 1480.7 19.3301 1583.35 19.3301C1639.29 19.3301 1691.47 41.5199 1728.04 79.2798C1701.66 65.9341 1671.3 58.7846 1639.35 58.7846C1553.52 58.7846 1482.29 110.367 1470.4 179.849C1464.03 182.709 1459.52 189.117 1459.52 196.531C1459.52 203.522 1463.5 209.506 1469.29 212.631C1476.82 285.555 1549.86 341.639 1639.35 341.639C1671.35 341.639 1701.82 334.49 1728.15 321.144C1691.63 358.851 1639.4 381.147 1583.35 381.147M2150.22 204.316C2147.88 301.814 2060.46 381.147 1955.42 381.147C1899.32 381.147 1847.04 358.798 1810.57 321.091C1837.01 334.49 1867.42 341.639 1899.43 341.639C1988.7 341.639 2061.52 285.873 2069.43 212.79C2076.7 209.082 2080.9 200.927 2079.04 192.612C2077.71 186.628 2073.63 182.02 2068.37 179.743C2056.43 110.261 1985.2 58.7317 1899.43 58.7317C1867.42 58.7317 1837.01 65.8811 1810.63 79.2268C1847.14 41.5199 1899.37 19.2242 1955.42 19.2242C2058.02 19.2242 2143.48 93.6317 2149.9 188.587C2150.16 192.4 2150.27 196.266 2150.27 200.132C2150.27 201.509 2150.27 202.833 2150.27 204.21" fill="#fff"></path><path d="M2230.99 0.156211H2295.32C2295.32 5.51898 2295.22 172.962 2295.48 251.894C2295.48 262.567 2296.47 273.397 2298.61 283.862C2305.19 316.195 2325.81 334.73 2357.98 341.082C2395.31 348.476 2432.08 335.459 2446.33 306.042C2453.8 290.631 2457.66 272.095 2457.92 254.914C2459.12 174.732 2458.45 5.1545 2458.45 1.45029e-07H2522.99C2522.99 1.45029e-07 2523.4 179.314 2522.83 264.025C2522.57 301.929 2512.44 336.709 2483.67 363.887C2463.35 383.099 2438.55 392.992 2411.4 397.053C2377.35 402.155 2343.57 401.374 2310.88 388.774C2261.33 369.718 2236.58 331.867 2232.4 280.946C2229.79 248.926 2231.25 216.541 2231.15 184.313C2230.99 128.082 2231.15 5.93549 2231.15 0.104134" fill="#fff"></path><path d="M2815.08 1.45029e-07V292.281L2652.21 0.0529705L2584.69 0.158891V399.947H2647.52V112.697L2807.26 400H2876.99V1.45029e-07H2815.08Z" fill="#fff"></path><path d="M3015.47 1.45029e-07H2938.55V400H3015.47V1.45029e-07Z" fill="#fff"></path><path d="M3077.03 1.45029e-07H3150.84L3246.34 294.876L3341.95 0.0529705H3415.49L3278.67 400H3214.56L3077.03 1.45029e-07Z" fill="#fff"></path><path d="M3543.58 341.927H3707.65V400H3477.04V0.158808C3553.79 0.158808 3630.42 1.45029e-07 3707.81 1.45029e-07V58.5495H3543.58V174.007H3707.81V232.398H3543.53V342.033L3543.58 341.927Z" fill="#fff"></path><path d="M4042.33 213.234C4063.82 179.802 4074.78 111.454 4035.05 54.179C3995.32 -3.09573 3927.91 0.0302772 3897.62 0.0302772H3769.37V399.788H3836.4V279.569L3902.18 279.41L3977.19 400H4055.14L3974.59 270.615C4001.4 258.694 4022.19 244.547 4042.33 213.234ZM3917.87 58.5237C4005.91 67.7957 4002.6 153.152 3977.79 190.134C3953.37 226.586 3906.69 220.599 3836.4 220.387V58.2588C3861.04 57.9939 3903.97 57.7289 3917.87 58.5237Z" fill="#fff"></path><path d="M4392.48 118.846H4328.03C4327.6 116.868 4327.07 115.042 4326.92 113.216C4323.32 72.2785 4297.15 50.8716 4254.26 53.8138C4224.76 55.7921 4206.57 67.7638 4201.23 88.6128C4195.41 111.389 4204.45 132.39 4230.73 145.529C4259.66 159.986 4290.27 171.451 4320.36 183.676C4349.34 195.445 4374.4 210.866 4388.31 239.628C4420.09 305.421 4385.61 376.744 4312.11 394.093C4268.01 404.543 4224.65 401.651 4183.46 381.208C4145.39 362.287 4119.8 315.516 4123.6 266.463H4186.26C4188.38 276.659 4189.65 287.007 4192.71 296.849C4200.96 323.277 4219.84 339.916 4248.18 343.01C4265.26 344.887 4283.45 343.416 4300.21 339.662C4320.57 335.097 4330.72 319.473 4333.53 299.892C4336.33 280.464 4330.93 263.368 4314.28 251.701C4302.86 243.737 4289.85 237.548 4276.84 232.12C4250.3 221.011 4222.85 211.931 4196.63 200.162C4141.58 175.458 4118.84 117.274 4142.53 63.9593C4155.17 35.4505 4178.54 17.4423 4208.74 8.51426C4253.47 -4.72558 4297.83 -3.76175 4338.81 20.2323C4376.51 42.3494 4391.32 76.9455 4392.48 118.846Z" fill="#fff"></path><path d="M4528.24 341.927H4692.31V400H4461.7V0.158808C4538.45 0.158808 4615.08 1.45029e-07 4692.47 1.45029e-07V58.5495H4528.24V174.007H4692.47V232.398H4528.19V342.033L4528.24 341.927Z" fill="#fff"></path></svg>