<svg xmlns="http://www.w3.org/2000/svg" xmlns:xlink="http://www.w3.org/1999/xlink" version="1.1" width="1448.16pt" height="324.426pt" viewBox="0 0 1448.16 324.426">
<defs>
<clipPath id="clip_0">
<path transform="matrix(1,0,0,-1,0,324.426)" d="M0 324.426H1448.161V0H0Z"/>
</clipPath>
</defs>
<g id="layer_1" data-name="">
<g clip-path="url(#clip_0)">
<path transform="matrix(1,0,0,-1,323.4988,286.3538)" d="M0 0V115.891 153.971H-44.633V191.536H-116.436V153.971H-121.225-161.068-165.858V191.536H-237.661V153.971H-282.293V115.891 0H-237.619L-237.661 111.318C-237.661 131.945-220.939 148.667-200.312 148.667-179.684 148.667-162.963 131.945-162.963 111.318L-162.961 0H-118.665-118.623L-118.665 111.318C-118.665 131.945-101.943 148.667-81.316 148.667-60.689 148.667-43.967 131.945-43.967 111.318L-43.965 0Z" fill="#c1b59f"/>
<path transform="matrix(1,0,0,-1,866.6037,193.15129)" d="M0 0C0 37.423-10.104 65.488-45.654 65.488-62.12 65.488-73.346 60.624-80.458 51.642-89.438 40.789-92.805 23.577-92.805 .376-92.805-42.66-82.701-65.115-46.404-65.115-32.93-65.115-22.826-60.997-15.342-53.14-4.864-41.911 0-23.95 0 0M-1.122 168.772H43.036V-93.18H-1.122V-66.61C-11.975-87.19-31.808-97.671-56.508-97.671-105.529-97.671-141.08-60.624-141.08 .376-141.08 59.502-107.4 98.42-57.255 98.42-32.93 98.42-13.471 89.065-1.122 70.728Z" fill="#c1b59f"/>
<path transform="matrix(1,0,0,-1,664.2937,216.60709)" d="M0 0C0-26.84-16.684-42.435-47.514-42.435-63.11-42.435-75.443-34.82-75.443-19.221-75.443-2.54-63.836 2.904-47.151 6.892L0 17.047ZM-2.895 84.512V122.076H-74.698V84.512H-119.33V46.432H-76.97C-76.97 67.686-59.74 84.917-38.485 84.917-17.232 84.917-.003 67.689 0 46.438V46.427L-54.043 36.272C-87.049 30.106-119.33 19.225-119.33-19.586-119.33-56.22-89.95-73.993-56.581-73.993-28.959-73.993-10.102-63.351 0-47.597V-69.758H41.738V46.432 84.512Z" fill="#c1b59f"/>
<path transform="matrix(1,0,0,-1,397.3391,144.50279)" d="M0 0C-5.964-8.219-8.571-18.305-9.318-27.272H83.864C83.12-16.81 79.764-5.979 73.429 1.868 65.229 11.954 54.046 16.438 37.647 16.438 20.128 16.438 7.456 10.459 0 0M128.965-60.519H-9.691C-8.945-95.262 6.71-112.819 37.647-112.819 64.856-112.819 79.019-101.237 83.12-78.449L125.982-81.812C116.292-124.774 85.727-146.067 38.018-146.067 8.946-146.067-13.418-136.728-29.445-120.29-46.59-102.733-54.417-78.077-54.417-47.817-54.417-19.053-46.217 5.603-29.445 23.536-13.045 40.718 9.319 49.685 37.647 49.685 67.092 49.685 92.064 38.478 107.718 18.677 122.628 0 130.083-28.392 128.965-60.519" fill="#c1b59f"/>
<path transform="matrix(1,0,0,-1,1129.3645,94.7018)" d="M0 0V-115.937-154.017H44.633V-191.582H116.436V-154.017H121.225 161.068 165.858V-191.582H237.661V-154.017H282.293V-115.937 0H237.619L237.661-111.364C237.661-131.991 220.939-148.713 200.312-148.713 179.684-148.713 162.963-131.991 162.963-111.364L162.961 0H118.665 118.623L118.665-111.364C118.665-131.991 101.943-148.713 81.316-148.713 60.689-148.713 43.967-131.991 43.967-111.364L43.965 0Z" fill="#c1b59f"/>
<path transform="matrix(1,0,0,-1,1019.5428,138.9872)" d="M0 0C14.306-.125 25.148-3.837 32.186-11.454 40.705-20.09 44.726-34.089 45.347-53.45 45.404-55.244 45.432-57.083 45.432-58.968 45.432-81.21 41.494-97.048 32.186-106.483 25.143-114.107 14.637-117.817-.013-117.937H0C-14.65-117.817-25.156-114.107-32.199-106.483-41.507-97.048-45.445-81.21-45.445-58.968-45.445-57.083-45.417-55.244-45.359-53.45-44.739-34.089-40.717-20.09-32.199-11.454-25.161-3.837-14.318-.125-.013 0ZM-40.355 44.286V6.775H-75.198C-75.198 6.775-76.907 4.111-78.788 .204-79.94-2.188-81.012-4.622-81.966-7.106-83.95-12.269-85.486-17.612-86.649-23.036-92.622-50.908-91.789-85.69-77.553-110.523-70.029-123.646-59.012-134.224-45.866-141.049-31.694-148.406-15.751-151.332 0-151.42H-.013C15.738-151.332 31.682-148.406 45.853-141.049 58.999-134.224 70.017-123.646 77.54-110.523 91.776-85.69 92.61-50.908 86.636-23.036 85.473-17.612 83.937-12.269 81.954-7.106 80.999-4.622 79.927-2.188 78.776 .204 76.894 4.111 75.186 6.775 75.186 6.775H40.343V44.286Z" fill="#c1b59f"/>
</g>
</g>
</svg>
