<svg xmlns="http://www.w3.org/2000/svg" viewBox="0 0 1360 265" fill="none" class="h-6 text-key"><g fill="#fff" clip-path="url(#logomark_svg_undefined)"><path d="M280.138 259.972V107.176h-44.29V69.903h-71.253v37.273h-49.043V69.903H44.29v37.273H0v152.796h44.33l-.04-110.471c0-20.472 16.592-37.065 37.065-37.065s37.065 16.593 37.065 37.065v110.471h44.002l-.04-110.471c0-20.472 16.593-37.065 37.065-37.065 20.473 0 37.066 16.593 37.066 37.065v110.471h43.634-.009ZM817.995 0h43.823v259.953h-43.823v-26.368c-10.768 20.423-30.456 30.823-54.968 30.823-48.646 0-83.925-36.767-83.925-97.302 0-60.535 33.423-97.292 83.181-97.292 24.134 0 43.446 9.278 55.702 27.478V0h.01Zm1.111 167.483c0-37.135-10.023-64.991-45.302-64.991-16.344 0-27.479 4.823-34.534 13.745-8.912 10.767-12.256 27.846-12.256 50.879 0 42.712 10.023 64.991 46.046 64.991 13.367 0 23.4-4.089 30.823-11.879 10.4-11.145 15.223-28.968 15.223-52.735v-.01ZM615.461 106.899V69.625h-71.253v37.274h-44.289v37.789h42.037c0-21.088 17.098-38.196 38.196-38.196s38.187 17.098 38.197 38.186l-53.628 10.093c-32.759 6.123-64.792 16.92-64.792 55.434 0 36.351 29.156 53.995 62.271 53.995 27.41 0 46.126-10.559 56.149-26.199v21.991h41.421V106.899H615.461Zm2.878 83.865c0 26.636-16.553 42.107-47.148 42.107-15.481 0-27.717-7.552-27.717-23.033 0-16.553 11.521-21.962 28.074-25.911l46.791-10.073v16.92-.01ZM481.401 179.263H343.798c.745 34.475 16.275 51.901 46.979 51.901 27.003 0 41.055-11.492 45.124-34.108l42.533 3.334c-9.616 42.633-39.943 63.76-87.289 63.76-28.849 0-51.048-9.268-66.946-25.583-17.009-17.426-24.78-41.888-24.78-71.917 0-30.03 8.138-53.013 24.78-70.806 16.275-17.05 38.464-25.95 66.578-25.95 28.114 0 54.005 11.124 69.536 30.773 14.796 18.537 22.19 46.711 21.088 78.596Zm-127.987-60.059c-5.914 8.157-8.504 18.171-9.249 27.062h92.47c-.734-10.38-4.069-21.127-10.35-28.918-8.138-10.013-19.233-14.458-35.508-14.458-17.386 0-29.959 5.934-37.363 16.314ZM1079.86 69.784v152.845h44.29v37.274h71.25v-37.274h49.05v37.274h71.25v-37.274h44.29V69.784h-44.33l.04 110.511c0 20.472-16.59 37.065-37.06 37.065-20.48 0-37.07-16.593-37.07-37.065V69.784h-44l.04 110.511c0 20.472-16.59 37.065-37.07 37.065-20.47 0-37.06-16.593-37.06-37.065V69.784h-43.64.02ZM930.828 69.784v37.224h-34.575s-1.697 2.639-3.562 6.52a100.186 100.186 0 0 0-3.156 7.254c-1.965 5.12-3.493 10.43-4.644 15.808-5.925 27.658-5.101 62.173 9.03 86.823 7.463 13.02 18.399 23.52 31.449 30.297 14.062 7.304 29.89 10.202 45.52 10.291h-.01c15.63-.089 31.45-2.987 45.52-10.291 13.05-6.768 23.98-17.267 31.45-30.297 14.13-24.64 14.95-59.165 9.03-86.823-1.15-5.378-2.68-10.688-4.65-15.808a95.107 95.107 0 0 0-3.15-7.254c-1.87-3.881-3.56-6.52-3.56-6.52h-34.58V69.784h-80.112Zm40.052 43.952c14.201.119 24.958 3.811 31.94 11.363 8.46 8.574 12.45 22.457 13.06 41.679.06 1.777.09 3.603.09 5.478 0 22.071-3.91 37.79-13.15 47.148-6.982 7.562-17.412 11.244-31.95 11.363h.01c-14.538-.119-24.968-3.801-31.954-11.363-9.239-9.358-13.149-25.077-13.149-47.148 0-1.875.029-3.691.089-5.478.615-19.212 4.605-33.105 13.06-41.679 6.986-7.562 17.743-11.244 31.944-11.363h.01Z"></path></g><defs><clipPath id="logomark_svg_undefined"><path fill="#fff" d="M0 0h1360v264.408H0z"></path></clipPath></defs></svg>