<svg fill="none" height="42" viewBox="0 0 163 42" width="163" xmlns="http://www.w3.org/2000/svg"><path clip-rule="evenodd" d="m0 0h7.629l9.278 7.51 9.279-7.51h7.491v33.535h-4.88v-10.078l-11.905-9.669-12.012 9.728v10.02h-4.88zm28.797 17.132v-12.262h-.893l-7.126 5.772 8.02 6.49zm-23.917.111v-12.373h1.03l7.117 5.78zm49.525 9.025 4.24 1.322c-1.126 3.625-4.457 6.568-9.518 6.568-5.71 0-10.772-4.094-10.772-11.13 0-6.568 4.932-10.918 10.253-10.918 6.489 0 10.296 4.222 10.296 10.79 0 .81-.087 1.492-.13 1.577h-15.4c.129 3.156 2.638 5.416 5.753 5.416 3.028 0 4.585-1.578 5.278-3.625zm-10.902-5.416h10.34c-.087-2.43-1.731-4.605-5.192-4.605-3.158 0-4.975 2.388-5.148 4.605zm20.203 12.666h4.975v-12.325c0-2.644 1.687-4.605 4.37-4.605 2.854 0 4.066 1.876 4.066 4.264v12.666h4.931v-12.325c0-2.558 1.73-4.605 4.37-4.605 2.812 0 4.066 1.834 4.066 4.264v12.666h4.846v-13.476c0-5.501-3.635-7.89-7.441-7.89-2.725 0-5.192.939-6.835 3.668-1.125-2.43-3.548-3.667-6.317-3.667-2.38 0-5.018 1.108-6.23 3.24v-2.643h-4.801zm47.025-3.796c3.114 0 5.883-2.26 5.883-6.61 0-4.307-2.769-6.524-5.883-6.524-3.072 0-5.884 2.217-5.884 6.524 0 4.308 2.812 6.61 5.884 6.61zm10.945-6.61c0-6.354-4.629-11.002-10.945-11.002-6.273 0-10.902 4.648-10.902 11.003 0 6.396 4.629 11.045 10.902 11.045 6.316 0 10.945-4.649 10.945-11.046zm17.175-10.49v5.032a11.116 11.116 0 0 0 -1.645-.128c-3.893 0-5.667 2.218-5.667 6.098v9.894h-5.018v-20.768h4.889v3.326c.994-2.26 3.331-3.582 6.1-3.582.605 0 1.124.085 1.341.128zm5.148 29.297h5.364l13.411-29.17h-5.322l-5.667 13.135-6.056-13.134h-5.667l8.998 18.295z" fill="#ed4b5d" fill-rule="evenodd"/></svg>