<svg height="14" viewBox="0 0 158 14" width="158" xmlns="http://www.w3.org/2000/svg"><g fill="#fff"><path d="m12.6169 1.18473v11.81497h-1.955v-8.85697l-3.41705 8.85697h-1.7l-3.434-8.85697v8.85697h-1.937998v-11.81497h2.345998l3.91 9.43497 3.84205-9.43497z"/><path d="m20.8862.997727v12.001973h-1.938v-12.001973z"/><path d="m36.9384 12.9997h-1.938l-5.831-8.85697v8.85697h-1.938v-11.98497h1.938l5.831 8.891v-8.891h1.938z"/><path d="m53.5862 6.98173c0 1.21266-.2494 2.27233-.748 3.17897-.4874.8954-1.207 1.5924-2.159 2.091-.9407.4987-2.0684.748-3.383.748h-4.012v-12.001973h4.012c1.3146 0 2.4423.249333 3.383.748003.952.48733 1.6716 1.17866 2.159 2.074.4986.89533.748 1.94933.748 3.162zm-6.443 4.26697c1.4393 0 2.5443-.374 3.315-1.122.7706-.74797 1.156-1.79631 1.156-3.14497 0-1.34867-.3854-2.397-1.156-3.145-.7707-.748-1.8757-1.122-3.315-1.122h-1.921v8.53397z"/><path d="m69.0731.997727v12.001973h-1.955v-5.38897h-5.644v5.38897h-1.938v-12.001973h1.938v5.032003h5.644v-5.032003z"/><path d="m82.5798 10.3987h-5.0659l-.9181 2.601h-2.0739l4.4199-11.81497h2.2271l4.403 11.81497h-2.0741zm-.5439-1.49597-1.989-5.61-1.989 5.61z"/><path d="m96.3657.878726c1.4734 0 2.6974.374004 3.6723 1.122004.974.748 1.632 1.76233 1.972 3.043h-2.0573c-.2833-.72534-.7366-1.29767-1.36-1.717-.612-.43067-1.3656-.646-2.261-.646-.714 0-1.3543.17566-1.921.527-.5553.35133-.9973.85566-1.326 1.513-.3173.646-.476 1.40533-.476 2.278 0 .86133.1587 1.62066.476 2.278.3287.646.7707 1.14467 1.326 1.49597.5667.3514 1.207.527 1.921.527.8954 0 1.649-.2096 2.261-.629.6234-.4306 1.0767-1.00297 1.36-1.71697h2.0573c-.34 1.28067-.998 2.29497-1.972 3.04297-.9749.7367-2.1989 1.105-3.6723 1.105-1.1333 0-2.1363-.255-3.009-.765-.8726-.5213-1.547-1.241-2.023-2.159-.476-.92931-.714-1.98897-.714-3.17897s.238-2.244.714-3.162c.476-.92934 1.1504-1.65467 2.023-2.176.8727-.52134 1.8757-.782004 3.009-.782004z"/><path d="m111.7 6.93073 5.287 6.06897h-2.363l-4.743-5.55897v5.55897h-1.938v-12.001973h1.938v5.491003l4.76-5.491003h2.346z"/><path d="m124.374 2.56173v3.638h4.42v1.496h-4.42v3.72297h4.93v1.581h-6.868v-12.001973h6.868v1.564003z"/><path d="m141.492 12.9997-2.992-4.79397h-1.377v4.79397h-1.938v-12.001973h4.233c1.371 0 2.408.334333 3.111 1.003003.714.66866 1.071 1.55266 1.071 2.652 0 .94066-.267 1.71133-.799 2.312-.522.60066-1.281.986-2.278 1.156l3.145 4.87897zm-4.369-6.17097h2.142c1.564 0 2.346-.69134 2.346-2.074 0-.65734-.193-1.16734-.578-1.53-.374-.374-.964-.561-1.768-.561h-2.142z"/><path d="m157.233 9.80373c0 .58937-.142 1.13897-.425 1.64897-.284.4987-.714.901-1.292 1.207s-1.287.459-2.125.459c-.816 0-1.547-.1416-2.193-.425-.646-.2946-1.162-.7026-1.547-1.224-.386-.5213-.607-1.122-.663-1.80197h2.074c.056.52137.277.96897.663 1.34297.396.374.923.561 1.581.561.589 0 1.042-.1586 1.36-.476.328-.3173.493-.7253.493-1.22397 0-.43067-.119-.782-.357-1.054-.238-.28334-.533-.50434-.884-.663-.352-.15867-.833-.34-1.445-.544-.748-.238-1.36-.476-1.836-.714-.465-.238-.862-.58367-1.19-1.037-.329-.45334-.493-1.04834-.493-1.785 0-.646.158-1.21267.476-1.7.317-.48734.77-.86134 1.36-1.122.589-.272003 1.269-.408003 2.04-.408003 1.224 0 2.193.294663 2.907.884003.725.58933 1.139 1.36 1.241 2.312h-2.091c-.08-.45334-.295-.83867-.646-1.156-.34-.32867-.811-.493-1.411-.493-.544 0-.981.14166-1.309.425-.329.272-.493.66866-.493 1.19 0 .408.113.748.34 1.02.226.26066.51.47033.85.629.351.14733.827.323 1.428.527.759.238 1.377.48166 1.853.731.487.238.895.58933 1.224 1.054.34.46466.51 1.07666.51 1.836z"/></g></svg>