<svg height="366" viewBox="0 0 720 366" width="720" xmlns="http://www.w3.org/2000/svg"><g fill="none"><rect fill="#ebc1cd" height="365.47" rx="182.73" width="719.32"/><g fill="#0040bc"><path d="m144.43 143.49v101.51h-20.94v-123.15h33.79l33.44 101 32.56-101h33.44v123.15h-20.72v-102l-33.14 102h-24.64z"/><path d="m280 183.44c0-39.6 24.64-63.36 59-63.36 34.49 0 59.13 23.76 59.13 63.36s-24.73 63.36-59.22 63.36c-34.32 0-58.91-23.8-58.91-63.36zm59.79 44.56c22.35 0 37.13-16.54 37.13-44.53s-14.78-44.52-37.13-44.52h-1.79c-22.35 0-37 16.54-37 44.52s14.68 44.53 37 44.53z"/><path d="m405.61 245v-20.2h20.77c9.33 0 12.85-3.34 12.85-12.84v-90.11h21.12v95.91c0 17.6-9.68 27.28-27.46 27.28z"/><path d="m482.7 183.44c0-39.6 24.64-63.36 59-63.36 34.49 0 59.13 23.76 59.13 63.36s-24.64 63.36-59.13 63.36c-34.36 0-59-23.8-59-63.36zm59.84 44.56c22.35 0 37.13-16.54 37.13-44.53s-14.78-44.52-37.13-44.52h-1.76c-22.35 0-37 16.54-37 44.52s14.61 44.53 37 44.53z"/></g></g></svg>