<svg xmlns="http://www.w3.org/2000/svg" width="4383" height="949" fill="none"><path fill="#141414" d="M4254.7 155V88h-20.6v-7.5h49V88h-20.4v67h-8Zm38.27 0V80.5h7l28 40.6h-3.9l27.9-40.6h7V155h-8V91.3l2.6 1-27.4 39.7h-.4l-27.3-39.7 2.5-1V155h-8ZM1464.78 523c4.28 23.38 6.42 47.83 6.42 73.35 0 68.488-15.45 129.459-46.35 182.913-30.91 52.619-72.25 93.962-124.03 124.03-50.95 30.068-107.75 45.103-170.39 45.103-63.48-.001-121.11-15.035-172.889-45.103-51.784-30.903-93.127-72.664-124.03-125.283-30.068-53.454-45.103-114.008-45.103-181.66 0-25.483 2.19-49.933 6.564-73.35h102.962c-6.198 23.02-9.299 47.469-9.299 73.35 0 48.442 10.858 92.291 32.574 131.546 21.716 39.256 50.531 70.159 86.441 92.71 36.75 22.551 77.68 33.827 122.78 33.827 45.1 0 85.61-11.276 121.53-33.827 36.75-22.551 65.56-53.454 86.44-92.71 21.72-39.255 32.58-83.104 32.58-131.546 0-25.881-3.1-50.33-9.3-73.35h103.1Zm2049.03 410.361h-93.96v-96.118c-10.78 15.853-24.57 30.771-41.34 44.752-24.22 20.045-53.04 36.332-86.45 48.86-32.57 11.694-68.49 17.541-107.74 17.541-42.6 0-80.6-7.935-114.01-23.804-33.41-16.705-59.72-39.256-78.93-67.654-19.21-28.397-28.81-60.971-28.81-97.72 0-35.08 7.52-66.819 22.55-95.216 15.03-29.233 38.42-53.872 70.16-73.917 31.74-20.045 72.24-34.244 121.52-42.597L3323.73 523h190.08v410.361Zm-1861.82 0h-93.97V523h93.97v410.361ZM2021.62 523c-.12 3.522-.18 7.091-.18 10.708v399.653h-93.97V523h94.15Zm432.23 0a314.25 314.25 0 0 0-.19 10.708v399.653h-93.96V533.708c0-3.618-.06-7.188-.18-10.708h94.33Zm432.04 410.361h-93.96V533.708c0-3.618-.06-7.188-.18-10.708h94.14v410.361ZM3937.18 523c-.12 3.522-.18 7.091-.18 10.708v399.653h-93.96V523h94.14Zm444.57 410.361h-93.96V533.708c0-3.618-.06-7.188-.18-10.708h94.14v410.361Zm-4281.523-.001H0V523h100.227v410.36Zm601.36 0h-87.699L329.692 523h122.522l149.145 213.991V523h100.228v410.36Zm3024.293 0h-93.97V523h93.97v410.36Zm-526.53-304.437c-48.44 8.352-83.52 23.803-105.23 46.354-20.89 22.551-31.33 49.279-31.33 80.182 0 30.068 11.7 55.542 35.08 76.423 24.23 20.88 55.13 31.321 92.71 31.321 45.94 0 86.03-9.605 120.28-28.815 34.24-20.046 60.97-46.773 80.18-80.182 19.21-33.409 28.81-70.576 28.81-111.502v-50.531l-220.5 36.75ZM398.547 446H276.366L100.227 191.666V446H0V0h87.698l310.849 446Zm303.04 0H601.359V0h100.228v446Zm428.843-199.191c65.15 0 123.2 15.034 174.15 45.102 51.78 30.068 92.29 71.412 121.52 124.03A325.682 325.682 0 0 1 1441.28 446H1326.3c-19.46-29.126-44.24-52.927-74.34-71.402-35.92-22.551-76.43-33.827-121.53-33.827-45.1.001-86.03 11.276-122.78 33.827-29.419 18.475-54.075 42.276-73.968 71.402h-114.81a329.866 329.866 0 0 1 14.639-28.806c30.068-52.619 70.576-93.962 121.524-124.03 51.785-30.903 110.245-46.355 175.395-46.355Zm740.8 100.226h-58.88c-48.44 0-87.28 15.035-116.51 45.103-14.47 14.884-25.36 32.838-32.67 53.862h-105.15V261.843h93.97v72.656c14.99-21.86 34.61-39.815 58.88-53.864 32.57-18.375 71.83-27.562 117.77-27.562h42.59v93.962Zm764.09-100.226c45.11 0 86.45 10.858 124.03 32.574 38.42 21.716 68.91 51.784 91.46 90.204 14.63 23.51 24.68 48.981 30.16 76.413H2776.9a169.858 169.858 0 0 0-7.52-16.277c-14.2-28.398-33.83-50.114-58.89-65.148-25.05-15.869-53.87-23.804-86.44-23.804-31.74 0-60.55 7.935-86.45 23.804-25.89 15.034-46.35 37.168-61.39 66.401a169.05 169.05 0 0 0-7.02 15.024h-124.52a167.454 167.454 0 0 0-7.52-16.277c-14.2-28.398-33.83-50.114-58.88-65.148-25.06-15.869-53.88-23.804-86.45-23.804s-61.81 7.935-87.7 23.804c-25.05 15.034-45.1 37.168-60.13 66.401a169.115 169.115 0 0 0-7.03 15.024h-109.49V261.843h93.97v81.804c17.12-26.43 39.25-47.852 66.4-64.264 36.75-21.716 76.84-32.574 120.27-32.574 51.78 0 98.55 14.616 140.32 43.849 32.28 22.598 57.32 50.438 75.13 83.517 17.2-36.383 41.85-65.057 73.95-86.023 41.76-27.562 87.7-41.343 137.81-41.343Zm626.68 0c49.27 0 92.7 9.605 130.29 28.815 38.42 19.21 68.07 45.938 88.95 80.182 17.3 26.618 27.71 56.683 31.23 90.194h-94.91c-5.16-28.273-19.01-52.074-41.56-71.402-29.23-25.057-67.23-37.585-114-37.585-40.93 0-76.85 10.44-107.75 31.321-30.5 19.786-53.27 45.674-68.32 77.666h-2.9l-82.88-45.093c12.53-28.397 32.16-54.289 58.89-77.676 27.56-23.386 58.88-41.76 93.96-55.124 35.08-14.198 71.41-21.298 109-21.298ZM3725.88 446h-93.97V261.842h93.97V446Zm404.05-199.191c47.61 0 90.21 10.858 127.79 32.574 38.42 21.716 68.49 51.784 90.21 90.204 14.1 23.51 23.8 48.981 29.08 76.413h-104.25a167.454 167.454 0 0 0-7.52-16.277c-14.2-28.398-34.66-50.114-61.39-65.148-25.89-15.869-55.96-23.803-90.2-23.804-34.25 0-64.73 7.935-91.46 23.804-26.73 15.034-47.61 37.168-62.64 66.401a169.115 169.115 0 0 0-7.03 15.024h-109.48V261.843H3937v83.18c15.62-24.104 35.66-44.315 60.13-60.629 38.42-25.057 82.69-37.585 132.8-37.585Zm-404.05-108.997h-93.97V0h93.97v137.812Z"/></svg>