<svg xmlns="http://www.w3.org/2000/svg" width="129" height="37" fill="none" viewBox="0 0 129 37">
  <g clip-path="url(#clip0_139_1331)">
    <path fill="#6BE8BF" d="M124.903 27.938c-1.528 2.09-3.167 3.136-4.917 3.136-.438 0-.791-.137-1.066-.413-.272-.273-.411-.63-.411-1.07 0-1.354.857-3.54 2.569-6.557 1.715-3.02 2.267-3.882 3.104-5.383l-4.922-2.359c-.146.33-.279.709-.534 1.185-.62-.438-1.422-.833-2.405-1.18-.984-.347-2.186-.521-3.608-.521-3.719 0-6.78 1.564-9.185 4.692a17.778 17.778 0 00-2.353 4.034 144.068 144.068 0 01-2.924 4.196c-1.621 2.25-3.162 3.376-4.62 3.376-.435 0-.79-.137-1.066-.413-.272-.273-.41-.63-.41-1.07 0-.805.529-2.351 1.585-4.637a353.869 353.869 0 013.72-7.764 597.64 597.64 0 011.656-3.33 91.282 91.282 0 0017.232-2.85l-1.351-4.94a86.009 86.009 0 01-13.121 2.41l.313-.593c1.366-2.579 2.287-4.29 2.761-5.13L99.65.232c-.582 1.645-1.568 3.877-2.952 6.693-.315.643-.638 1.304-.963 1.98a86.284 86.284 0 01-6.394-.018c.179-.342.355-.676.527-1 1.366-2.579 2.286-4.29 2.76-5.13L87.326.232c-.582 1.645-1.568 3.877-2.952 6.693-.247.504-.5 1.023-.754 1.547a85.954 85.954 0 01-16.756-3.473l-2.171 4.682a91.052 91.052 0 0016.61 3.678c-.446.956-.898 1.938-1.359 2.95l-1.7 3.787-.541 1.207-.124.248a142.294 142.294 0 00-1.215 2.875c-1.324 1.678-2.733 3.138-4.226 4.368-2.241 1.847-4.838 2.771-7.79 2.771-1.35 0-2.433-.385-3.253-1.152-.82-.769-1.23-1.72-1.23-2.854v-.55c.436.183 1.01.34 1.722.466.71.13 1.467.192 2.269.192 2.186 0 4.427-.622 6.724-1.865 2.297-1.242 3.444-3.072 3.444-5.486 0-1.574-.592-2.89-1.777-3.95-1.185-1.061-2.817-1.593-4.894-1.593-3.681 0-6.717 1.509-9.102 4.528-2.35 2.968-3.54 6.018-3.578 9.146-1.411 1.749-2.76 2.624-4.046 2.624-.436 0-.792-.136-1.067-.412-.272-.273-.41-.63-.41-1.07 0-.805.529-2.352 1.585-4.637a353.869 353.869 0 013.72-7.764 366.928 366.928 0 014.729-9.303c1.367-2.58 2.287-4.29 2.76-5.13L56.644.232c-.583 1.645-1.569 3.877-2.953 6.693a352.855 352.855 0 00-4.427 9.384c-.693-.402-1.558-.759-2.597-1.07-1.039-.311-2.231-.466-3.58-.466-3.72 0-6.78 1.6-9.185 4.801-.3.4-.58.802-.842 1.207a95.057 95.057 0 01-3.994-.227c2.143-4.546 2.64-9.098 1.28-12.983C28.956 3.587 25.76.895 21.583.183 16.187-.73 7.41 1.874 3.167 5.653.517 8.008.048 10.336.12 11.872c.086 1.822.915 4.146 3.724 6.433-2.199 3.037-3.547 6.14-3.8 9-.25 2.847.527 5.345 2.373 6.985 2.211 1.963 4.85 2.854 7.554 2.69.92-.056 1.86-.238 2.813-.547 3.52-1.136 7.254-3.968 11.417-8.653a34.302 34.302 0 001.91-2.348c1.524.16 3.092.286 4.7.375a16.212 16.212 0 00-.524 4.11c0 2.305.628 3.988 1.886 5.048s2.67 1.592 4.238 1.592a7.71 7.71 0 004.319-1.29c1.311-.861 2.206-1.638 2.677-2.334h.164c.255 1.172.837 2.068 1.75 2.69.91.623 2.005.934 3.28.934 3.119 0 5.693-1.015 7.733-3.037.333.38.716.724 1.15 1.033 1.876 1.336 3.908 2.002 6.096 2.002 3.9 0 7.307-1.043 10.224-3.128.164-.117.325-.24.486-.365.19.744.525 1.405 1.009 1.946l.015.018c.05.056.103.106.156.157.164.157.34.306.535.438.794.541 1.727.848 2.798.916.157.01.318.015.484.015 3.02 0 5.53-.951 7.536-2.847.195.483.462.921.8 1.3l.015.019c.05.055.103.106.156.156.164.157.34.307.535.438.794.542 1.727.848 2.798.916.156.01.318.016.484.016 3.606 0 6.488-1.354 8.648-4.057.308 1.027.822 1.85 1.548 2.465 1.258 1.06 2.67 1.592 4.239 1.592 1.568 0 3.007-.43 4.318-1.291 1.311-.86 2.207-1.638 2.68-2.334h.164c.293 1.172.875 2.068 1.75 2.69.875.623 1.934.876 3.172.935 3.759.174 7.38-1.6 9.568-4.801.454-.666.89-1.301 1.301-1.906l-4.097-1.906zM64.02 20.343c.948-.604 1.931-.905 2.952-.905.51 0 .93.108 1.258.329.328.22.492.549.492.987 0 .73-.51 1.29-1.53 1.672a8.776 8.776 0 01-3.117.577 8.91 8.91 0 01-1.202-.108 9.228 9.228 0 01-1.311-.274 9.4 9.4 0 012.458-2.277zM5.8 30.456c-.612-.561-.779-1.475-.673-2.7.164-1.86 1.168-4.241 3.066-6.782.777.37 1.624.731 2.547 1.083 2.768 1.053 5.945 1.905 9.452 2.54C10.94 34.909 6.845 31.419 5.8 30.458zm17.795-10.502c-4.218-.61-7.977-1.519-11.048-2.685a29.01 29.01 0 01-.718-.284c1.724-1.59 3.469-3.227 6.442-4.267L15.385 7.96c-3.048 2.314-5.905 4.118-8.21 6.446-1.346-1.073-1.923-2.06-1.958-2.776-.038-.8.819-1.688 1.333-2.143C9.934 6.475 17.172 4.635 20.727 5.24c2.327.397 4.032 1.827 4.803 4.031 1.17 3.356.046 7.254-1.934 10.683zm23.042 2.118c-.801 1.61-2.113 3.513-3.935 5.707-1.823 2.194-3.573 3.292-5.25 3.292-.436 0-.812-.174-1.122-.52-.31-.348-.464-.869-.464-1.565 0-1.939.684-3.905 2.05-5.9 1.367-1.993 3.033-2.99 5.002-2.99.91 0 1.75.136 2.514.412.767.273 1.294.54 1.586.795l-.38.77zm34.675 9.002c-.436 0-.792-.137-1.067-.413-.272-.273-.41-.63-.41-1.07 0-.805.529-2.351 1.585-4.637a353.41 353.41 0 013.72-7.764c.57-1.159 1.116-2.257 1.646-3.308 1.989.13 3.986.198 5.99.198.174 0 .346-.003.52-.005-.338.731-.681 1.475-1.03 2.237l-1.698 3.786-.543 1.207-.123.248c-.156.357-.305.706-.451 1.05a136.245 136.245 0 01-3.52 5.097c-1.621 2.248-3.162 3.374-4.619 3.374zm31.185-3.76c-1.785 2.505-3.572 3.757-5.357 3.757-.439 0-.82-.174-1.147-.52-.328-.348-.492-.869-.492-1.565 0-1.939.683-3.905 2.05-5.9 1.366-1.993 3.033-2.99 5.002-2.99.91 0 1.666.136 2.269.412.603.273 1.049.54 1.339.795-.658 1.503-1.879 3.505-3.664 6.01z"/>
  </g>
  <defs>
    <clipPath id="clip0_139_1331">
      <path fill="#fff" d="M0 0h129v37H0z"/>
    </clipPath>
  </defs>
</svg>
