<svg height="370" viewBox="0 0 882 370" width="882" xmlns="http://www.w3.org/2000/svg"><g fill="none"><g fill="#ecebea"><path d="m471.551 44.312c0-5.566-1.555-9.813-4.663-12.735-3.11-2.924-8.097-4.384-14.962-4.384h-15.867v34.1h15.867c13.083 0 19.625-5.659 19.625-16.981zm-35.492 29.926v38.136h-15.868v-98.265h33.405c11.319 0 19.834 2.692 25.54 8.072 5.707 5.384 8.56 12.759 8.56 22.131 0 9.279-2.922 16.588-8.768 21.922-5.847 5.337-14.291 8.004-25.332 8.004z"/><path d="m517.481 26.913v29.786h36.188v12.249h-36.188v30.481h40.364v12.944h-56.231v-98.265h56.231v12.805z"/><path d="m636.484 14.108v12.805h-27.419v85.46h-16.006v-85.46h-27.281v-12.805z"/><path d="m522.075 143.842v96.733h-16.006v-72.516l-27.977 72.516h-13.918l-28.116-72.516v72.516h-15.868v-96.733h19.208l32.013 77.248 31.456-77.248z"/><path d="m557.01 155.115v29.786h36.188v12.25h-36.188v30.48h40.363v12.944h-56.23v-98.264h56.23v12.804z"/><path d="m671.56 217.053c6.309-6.123 9.465-14.706 9.465-25.749 0-11.041-3.156-19.625-9.465-25.751-6.312-6.123-15.358-9.184-27.142-9.184h-15.727v69.871h15.727c11.784 0 20.83-3.063 27.142-9.187zm19.556.209c-4.036 7.378-9.93 13.107-17.677 17.19-7.749 4.084-17.004 6.123-27.768 6.123h-32.847v-98.264h32.847c10.764 0 20.019 2.017 27.768 6.054 7.747 4.036 13.641 9.72 17.677 17.051 4.037 7.33 6.054 15.96 6.054 25.888 0 9.931-2.017 18.582-6.054 25.958z"/><path d="m729.042 240.575h-15.867v-98.265h15.867z"/><path d="m802.394 207.032-16.285-45.932-16.284 45.932zm4.454 12.247h-41.477l-7.516 21.296h-16.981l36.188-96.733h18.233l36.049 96.733h-16.98z"/><path d="m494.378 278.308c7.794 5.753 12.944 13.594 15.448 23.522h-16.701c-2.136-5.289-5.638-9.511-10.509-12.667-4.872-3.153-10.648-4.732-17.329-4.732-6.124 0-11.622 1.439-16.493 4.315-4.872 2.877-8.678 6.958-11.414 12.248-2.737 5.289-4.106 11.507-4.106 18.65 0 7.518 1.393 13.968 4.176 19.348 2.783 5.383 6.702 9.49 11.761 12.318 5.057 2.831 10.926 4.246 17.606 4.246 8.165 0 15.172-2.527 21.019-7.586 5.845-5.058 9.37-11.992 10.578-20.808h-36.05v-11.693h49.411v15.173c-1.113 7.235-3.688 13.803-7.724 19.694-4.037 5.893-9.374 10.602-16.007 14.127-6.635 3.528-14.221 5.289-22.757 5.289-9.558 0-18.003-2.133-25.331-6.403-7.332-4.266-12.993-10.181-16.981-17.745-3.991-7.563-5.986-16.216-5.986-25.96 0-9.741 1.995-18.393 5.986-25.957 3.988-7.561 9.625-13.452 16.911-17.677 7.283-4.222 15.704-6.332 25.262-6.332 11.692 0 21.435 2.876 29.23 8.63z"/><path d="m543.649 318.252h17.537c12.805 0 19.208-5.657 19.208-16.979 0-5.382-1.556-9.581-4.663-12.596-3.11-3.016-7.958-4.526-14.545-4.526h-17.537zm35.771 50.525-24.498-39.25h-11.273v39.25h-15.868v-98.264h34.657c11.227 0 19.741 2.737 25.541 8.212 5.798 5.475 8.699 12.714 8.699 21.714 0 7.702-2.157 14.01-6.471 18.927-4.315 4.919-10.557 8.073-18.721 9.465l25.749 39.946z"/><path d="m639.686 288.328c-4.919 2.876-8.747 7.008-11.483 12.388-2.738 5.382-4.106 11.644-4.106 18.79 0 7.145 1.368 13.409 4.106 18.791 2.736 5.382 6.564 9.51 11.483 12.386 4.917 2.876 10.53 4.316 16.842 4.316 6.215 0 11.761-1.44 16.633-4.316 4.871-2.876 8.674-7.004 11.413-12.386 2.736-5.382 4.105-11.646 4.105-18.791 0-7.146-1.369-13.408-4.105-18.79-2.739-5.38-6.542-9.512-11.413-12.388-4.872-2.876-10.418-4.314-16.633-4.314-6.312 0-11.925 1.438-16.842 4.314zm41.547-12.666c7.377 4.269 13.175 10.229 17.398 17.885 4.221 7.655 6.333 16.309 6.333 25.959 0 9.651-2.112 18.302-6.333 25.958-4.223 7.655-10.021 13.64-17.398 17.956-7.377 4.314-15.612 6.471-24.705 6.471-9.187 0-17.468-2.157-24.845-6.471-7.377-4.316-13.201-10.301-17.468-17.956-4.269-7.656-6.403-16.307-6.403-25.958 0-9.65 2.134-18.304 6.403-25.959 4.267-7.656 10.091-13.616 17.468-17.885 7.377-4.267 15.658-6.401 24.845-6.401 9.093 0 17.328 2.134 24.705 6.401z"/><path d="m736.142 270.513v58.318c0 8.724 1.924 15.219 5.776 19.487 3.85 4.267 9.255 6.401 16.215 6.401 6.865 0 12.225-2.134 16.076-6.401 3.849-4.268 5.777-10.763 5.777-19.487v-58.318h15.867v58.318c0 13.455-3.481 23.64-10.44 30.551-6.959 6.913-16.145 10.37-27.558 10.37-11.322 0-20.415-3.457-27.28-10.37-6.869-6.911-10.3-17.096-10.3-30.551v-58.318z"/><path d="m865.723 300.716c0-5.567-1.556-9.813-4.663-12.735-3.11-2.924-8.098-4.384-14.962-4.384h-15.868v34.1h15.868c13.083 0 19.625-5.659 19.625-16.981zm-35.493 29.926v38.136h-15.867v-98.265h33.405c11.319 0 19.834 2.692 25.54 8.072 5.707 5.383 8.56 12.759 8.56 22.131 0 9.279-2.922 16.588-8.769 21.922-5.846 5.337-14.29 8.004-25.331 8.004z"/></g><path d="m286.681 223.753c-16.52 0-29.911-17.972-29.911-40.142 0-22.169 13.391-40.141 29.911-40.141 16.519 0 29.91 17.972 29.91 40.141 0 22.17-13.391 40.142-29.91 40.142zm-21.363 55.373c-5.136 15.857-24.666 21.863-37.474 11.197-.071-.059-.141-.118-.21-.177-12.92 7.183-28.046 11.237-44.169 11.027-15.318-.193-29.639-4.202-41.934-11.027-.09.077-.181.153-.272.23-12.635 10.552-32.094 4.943-37.345-10.659-2.637-7.83-4.01-16.179-3.898-24.828.074-5.499.73-10.863 1.951-16.034 5.917-25.452 24.902-46.269 49.966-56.045 10.312-4.024 21.667-6.184 33.558-6.035 11.103.149 21.668 2.28 31.324 6.065 25.243 9.835 44.258 30.802 50.173 56.268 1.357 5.768 2.027 11.773 1.953 17.927-.097 7.682-1.358 15.094-3.623 22.091zm-212.954-95.515c0-22.169 13.392-40.141 29.911-40.141s29.911 17.972 29.911 40.141c0 22.17-13.392 40.142-29.911 40.142s-29.911-17.972-29.911-40.142zm89.733-116.016c20.851 0 37.754 22.684 37.754 50.666s-16.903 50.666-37.754 50.666-37.753-22.684-37.753-50.666 16.902-50.666 37.753-50.666zm84.762 0c20.85 0 37.752 22.684 37.752 50.666s-16.902 50.666-37.752 50.666c-20.851 0-37.754-22.684-37.754-50.666s16.903-50.666 37.754-50.666zm-42.382-67.595c-101.834 0-184.387 82.553-184.387 184.388 0 101.836 82.553 184.389 184.387 184.389 101.836 0 184.39-82.553 184.39-184.389 0-101.835-82.554-184.388-184.39-184.388z" fill="#00aeef"/></g></svg>