<svg width="212" height="69" viewBox="0 0 212 69" fill="none" xmlns="http://www.w3.org/2000/svg">
<path d="M210.782 53.2631H163.264V50.842H210.782V53.2631Z" fill="white"/>
<path d="M47.5172 53.2631H0V50.842H47.5172V53.2631Z" fill="white"/>
<path d="M8.51889 16.5413H5.59705V6.01697L8.51889 6.03173C11.4014 6.03173 14.8206 7.01519 14.8206 11.2563C14.8206 15.3879 11.3712 16.5431 8.51889 16.5431V16.5413ZM10.3577 0.692383H0V35.1549H5.48645L5.46057 21.3431L8.99398 21.3171C9.66078 21.3171 10.287 21.278 10.8528 21.1986H10.8825C16.3495 20.9213 20.6929 16.4338 20.6929 10.9501C20.6929 5.28809 16.0621 0.692834 10.3563 0.692834" fill="white"/>
<path d="M109.984 0.812256V26.3525C109.984 28.4313 108.374 30.4893 105.717 30.4893C103.068 30.4893 101.527 28.4312 101.527 26.3525V0.812256H96.0928V26.049C96.0928 31.9703 99.68 35.8039 105.815 35.8039C111.941 35.8039 115.418 31.9706 115.418 26.049V0.812256H109.984Z" fill="white"/>
<path d="M62.3211 13.6612V26.1292C62.3211 28.208 60.7107 30.2659 58.0528 30.2659C55.4053 30.2659 53.8642 28.2079 53.8642 26.1292V10.6107C53.8642 8.53188 55.4053 6.47398 58.0528 6.47398C60.7108 6.47398 62.3211 8.53196 62.3211 10.6107V13.6612ZM58.0921 0.947021C52.0726 0.947021 48.2778 4.71381 48.2778 10.5272V26.2137C48.2778 32.0256 52.0726 35.7913 58.0921 35.7913C64.1116 35.7913 67.9079 32.0256 67.9079 26.2137V10.5272C67.9079 4.71418 64.1119 0.947021 58.0921 0.947021Z" fill="white"/>
<path d="M140.085 11.409V9.98147C140.085 3.92585 136.532 0.000244141 130.262 0.000244141C123.99 0.000244141 120.323 3.92622 120.323 9.98147V25.8189C120.323 31.873 123.99 35.799 130.262 35.799C136.532 35.799 140.085 31.873 140.085 25.8085V21.2678L134.54 21.2753L134.528 26.1272C134.528 28.2581 132.878 30.3592 130.166 30.3592C127.454 30.3592 125.882 28.2582 125.882 26.1272V9.67239C125.882 7.54142 127.454 5.44044 130.166 5.44044C132.878 5.44044 134.528 7.54135 134.528 9.67239V11.4086L140.085 11.409Z" fill="white"/>
<path d="M150.764 14.9167H158.916V20.4875H150.764V29.8122H162.735V35.1383H145.18V0.886963H162.216V6.11927H150.764V14.9167Z" fill="white"/>
<path d="M182.242 19.4581C185.225 17.8508 187.18 13.995 187.18 10.3874C187.18 5.23079 183.041 1.02983 177.884 0.881404C177.814 0.881404 167.035 0.877686 167.035 0.877686V35.1357H172.528V20.5318H176.665L182.633 35.1357H189.027L182.242 19.4581ZM172.548 5.76993L176.579 5.76858C179.375 5.83762 181.617 8.12235 181.617 10.9071C181.617 13.6907 179.375 15.9843 176.579 16.0534H172.547L172.548 5.76993Z" fill="white"/>
<path d="M172.53 16.0613V16.1005C172.5 16.0709 172.519 16.0613 172.53 16.0613Z" fill="white"/>
<path d="M85.6504 22.8181C85.6504 27.6571 84.9494 30.1177 79.5349 30.1177H78.2316V6.00634H79.5349C84.9494 6.00634 85.6504 9.02301 85.6504 13.328V22.8181ZM80.9577 0.797363H72.7974V35.2012H80.9577C88.6035 35.2012 91.2762 31.2128 91.2025 24.7104V11.2969C91.2025 5.21802 88.6035 0.797363 80.9577 0.797363Z" fill="white"/>
<path d="M204.008 16.726C208.588 19.4926 210.811 21.4934 210.811 27.0291C210.811 30.869 207.628 35.6896 201.409 35.6896C200.876 35.6896 190.863 36.1273 190.863 26.0496L190.856 25.6459L196.332 24.9047C196.332 24.9047 196.252 25.4778 196.243 25.9363C196.183 28.5609 197.916 30.4013 200.702 30.4013C203.436 30.4013 205.224 29.1522 205.224 26.6201C205.224 23.481 202.637 22.1825 198.956 19.5525C195.144 16.8289 191.031 14.4202 191.162 9.59449C191.279 5.28456 194.183 0.72168 201.411 0.72168C207.63 0.72168 210.431 4.11867 210.431 9.9083V11.6681L204.977 12.064V10.1884C204.977 6.96462 203.029 5.82643 200.778 5.82643C198.535 5.82643 196.833 7.04692 196.658 9.55043C196.499 11.8429 199.767 14.1627 204.01 16.7259" fill="white"/>
<path d="M39.0662 19.4581C42.0498 17.8508 44.0045 13.995 44.0045 10.3874C44.0045 5.23079 39.8658 1.02983 34.7084 0.881404C34.6389 0.881404 23.86 0.877686 23.86 0.877686V35.1357H29.3533V20.5318H33.4892L39.4577 35.1357H45.8514L39.0662 19.4581ZM29.3726 5.76993L33.4038 5.76858C36.1996 5.83762 38.4415 8.12235 38.4415 10.9071C38.4415 13.6907 36.1997 15.9843 33.4038 16.0534H29.3714L29.3726 5.76993Z" fill="white"/>
<path d="M109.984 6.12928L115.416 0.792969H109.967L109.984 6.12928Z" fill="white"/>
<path d="M96.1057 6.12928L101.539 0.792969H96.0886L96.1057 6.12928Z" fill="white"/>
<path d="M72.7764 6.12928L78.2029 0.792969H72.7791L72.7764 6.12928Z" fill="white"/>
<path d="M134.504 26.0672L140.056 21.2637H134.509L134.504 26.0672Z" fill="white"/>
<path d="M167.023 6.20325L172.493 0.866943H167.019L167.023 6.20325Z" fill="white"/>
<path d="M23.8484 6.20301L29.3179 0.866699H23.8444L23.8484 6.20301Z" fill="white"/>
<path d="M145.183 6.20301L150.652 0.866699H145.179L145.183 6.20301Z" fill="white"/>
<path d="M0.0354598 6.0183L5.50511 0.681885H0.0313721L0.0354598 6.0183Z" fill="white"/>
<path d="M63.8437 59.0737V48.0579H59.7012V45.0316H71.7632L72.1288 47.9369H67.6207V58.9527H63.8437V59.0737ZM85.7747 48.0579H83.7035V51.8106H85.7747C86.3839 51.8106 86.8713 51.6895 87.2368 51.3264C87.6023 50.9632 87.846 50.479 87.846 49.9948C87.846 49.3895 87.7242 48.9053 87.3586 48.6632C86.8713 48.179 86.3839 48.0579 85.7747 48.0579ZM79.9265 59.0737V45.0316H85.8966C87.4805 45.0316 88.8207 45.3948 89.9173 46.1211C91.1357 46.8474 91.623 48.0579 91.623 49.7527C91.623 50.6 91.5012 51.3264 91.1357 51.9316C90.7701 52.5369 90.2828 53.0211 89.7954 53.3842L92.8414 58.9527H88.4552L86.1403 54.5948H83.5816V58.9527H79.9265V59.0737ZM109.412 53.5053V45.0316H113.189V53.6264C113.189 55.4421 112.579 56.8948 111.483 57.8632C110.264 58.8316 108.802 59.3158 106.975 59.3158C105.147 59.3158 103.563 58.8316 102.345 57.8632C101.126 56.8948 100.639 55.4421 100.639 53.6264V45.0316H104.416V53.5053C104.416 54.3527 104.66 55.079 105.147 55.5632C105.635 56.0474 106.244 56.2895 106.975 56.2895C107.706 56.2895 108.315 56.0474 108.802 55.5632C109.168 55.079 109.412 54.3527 109.412 53.5053ZM125.738 53.5053C124.763 53.0211 123.91 52.4158 122.936 51.6895C121.961 50.9632 121.474 49.9948 121.474 48.7842C121.474 47.5737 121.961 46.7264 122.936 45.879C123.91 45.1527 125.129 44.6685 126.713 44.6685C127.444 44.6685 128.175 44.7895 128.906 45.0316C129.637 45.2737 130.368 45.5158 130.855 46L129.759 48.4211C129.028 48.179 128.418 47.9369 128.053 47.9369C127.687 47.8158 127.2 47.8158 126.713 47.8158C126.225 47.8158 125.982 47.9369 125.738 48.179C125.494 48.4211 125.372 48.5421 125.372 48.9053C125.372 49.1474 125.616 49.5106 125.982 49.7527C126.469 49.9948 126.956 50.2369 127.444 50.479C128.418 50.9632 129.393 51.5685 130.368 52.4158C131.343 53.1421 131.708 54.1106 131.708 55.3211C131.708 56.5316 131.221 57.5 130.246 58.2264C129.271 58.9527 127.931 59.4369 126.103 59.4369C125.372 59.4369 124.52 59.3158 123.667 59.0737C122.814 58.8316 122.083 58.5895 121.474 58.2264L122.692 55.4421C123.057 55.6842 123.545 55.9264 124.154 56.0474C124.763 56.1685 125.372 56.2895 125.86 56.2895C126.469 56.2895 126.956 56.1685 127.2 55.9264C127.809 55.6842 127.931 55.4421 127.931 55.2C127.931 54.9579 127.687 54.7158 127.2 54.3527C126.713 53.9895 126.347 53.7474 125.738 53.5053ZM142.917 59.0737V48.0579H138.775V45.0316H150.837L151.202 47.9369H146.694V58.9527H142.917V59.0737Z" fill="white"/>
</svg>
