<svg fill="none" height="50" width="173" xmlns="http://www.w3.org/2000/svg"><path d="m33.292 48.628v-10.807c0-.232.164-.381.392-.381h1.668c.212 0 .343.083.457.248l3.907 5.618 3.889-5.618c.13-.165.262-.248.474-.248h1.7c.23 0 .376.149.376.38v10.808c0 .23-.147.38-.376.38h-2.321c-.245 0-.392-.15-.392-.38v-5.57l-2.435 3.604a.506.506 0 0 1 -.458.248h-.883a.532.532 0 0 1 -.473-.248l-2.436-3.636v5.602c0 .23-.147.38-.392.38h-2.305c-.228 0-.392-.15-.392-.38m28.677-4.083-1.423-3.552-1.421 3.552zm-7.714 4.016 4.705-10.841a.45.45 0 0 1 .441-.282h2.305c.212 0 .36.085.442.282l4.69 10.841c.115.264-.015.446-.294.446h-2.484c-.212 0-.36-.1-.442-.297l-.702-1.736h-4.724l-.703 1.736a.443.443 0 0 1 -.44.297h-2.502c-.277 0-.392-.182-.294-.446m23.783-5.551h1.797c1.26 0 2.109-.496 2.109-1.52 0-.992-.817-1.521-2.027-1.521h-1.879zm7.355 5.999h-2.779a.525.525 0 0 1 -.457-.247l-2.387-3.207h-1.732v3.074c0 .23-.148.38-.376.38h-2.32c-.229 0-.393-.15-.393-.38v-10.809c0-.232.164-.381.392-.381h4.821c3.008 0 4.888 1.456 4.888 4.05 0 1.734-.769 2.892-2.142 3.52l2.746 3.553c.18.246.065.446-.262.446m19.608-.011h-2.877c-.197 0-.311-.083-.442-.232l-4.674-5.007v4.858c0 .231-.147.38-.375.38h-2.338c-.228 0-.376-.149-.376-.38v-10.806c0-.232.148-.381.376-.381h2.338c.228 0 .375.15.375.381v4.94l4.348-5.105a.584.584 0 0 1 .474-.216h2.779c.31 0 .408.216.196.464l-4.528 5.32 4.952 5.338c.196.232.065.447-.228.447m16.941-9.058h-5.523v2.098h4.641c.245 0 .392.133.392.364v1.719c0 .232-.147.364-.392.364h-4.641v2.032h5.523c.23 0 .376.133.376.363v1.753c0 .23-.146.38-.376.38h-8.22c-.23 0-.394-.15-.394-.38v-10.808c0-.232.164-.381.394-.381h8.22c.23 0 .376.15.376.381v1.751c0 .232-.146.364-.376.364m18.703-2.118v1.834c0 .232-.162.38-.392.38h-3.285v8.593c0 .231-.146.38-.392.38h-2.321c-.229 0-.376-.149-.376-.38v-8.592h-3.285c-.229 0-.392-.15-.392-.381v-1.834c0-.232.163-.381.392-.381h9.659c.23 0 .392.15.392.381m31.364 6.109h-24.311v-2.006h24.311zm-147.692 0h-24.312v-2.006h24.312v2.006zm-17.361-30.178h-2.384v-8.75l2.384.012c2.352 0 5.142.817 5.142 4.344 0 3.435-2.814 4.396-5.142 4.396zm1.5-13.178h-8.451v28.655h4.478l-.022-11.484 2.884-.022a10.8 10.8 0 0 0 1.516-.098h.025c4.46-.231 8.005-3.962 8.005-8.522 0-4.708-3.779-8.529-8.435-8.529m81.303.1v21.236c0 1.729-1.314 3.44-3.482 3.44-2.162 0-3.42-1.711-3.42-3.44v-21.236h-4.434v20.985c0 4.923 2.928 8.11 7.934 8.11 4.999 0 7.836-3.186 7.836-8.11v-20.985h-4.434zm-38.926 10.684v10.366c0 1.729-1.315 3.44-3.483 3.44-2.162 0-3.42-1.711-3.42-3.44v-12.903c0-1.728 1.258-3.44 3.42-3.44 2.168 0 3.482 1.712 3.482 3.44v2.537zm-3.453-10.572c-4.91 0-8.008 3.132-8.008 7.966v13.043c0 4.832 3.097 7.963 8.008 7.963 4.912 0 8.01-3.13 8.01-7.963v-13.043c0-4.834-3.098-7.966-8.01-7.966zm66.911 8.699v-1.186c0-5.035-2.899-8.299-8.016-8.299-5.118 0-8.11 3.264-8.11 8.3v13.167c0 5.034 2.993 8.299 8.11 8.299s8.016-3.265 8.016-8.307v-3.776l-4.525.007-.009 4.034c0 1.772-1.347 3.519-3.56 3.519s-3.496-1.747-3.496-3.52v-13.68c0-1.773 1.283-3.52 3.496-3.52s3.56 1.747 3.56 3.52v1.443h4.534zm8.744 2.917h6.653v4.632h-6.653v7.753h9.769v4.428h-14.325v-28.479h13.902v4.35h-9.346zm25.656 3.775c2.435-1.336 4.03-4.542 4.03-7.541 0-4.288-3.377-7.781-7.586-7.904l-8.852-.004v28.485h4.482v-12.143h3.375l4.871 12.143h5.217l-5.537-13.035zm-7.91-11.38 3.29-.002c2.281.058 4.111 1.957 4.111 4.273 0 2.314-1.83 4.221-4.111 4.278h-3.291l.001-8.55z" fill="#fff"/><path d="m140.794 13.385v.031c-.024-.024-.009-.031 0-.031zm-70.925 5.587c0 4.024-.572 6.07-4.99 6.07h-1.064v-20.048h1.064c4.418 0 4.99 2.508 4.99 6.088zm-3.83-18.31h-6.658v28.606h6.659c6.239 0 8.42-3.316 8.36-8.722v-11.153c0-5.055-2.121-8.73-8.36-8.73zm100.411 13.276c3.737 2.3 5.551 3.963 5.551 8.566 0 3.193-2.597 7.201-7.672 7.201-.435 0-8.605.364-8.605-8.015l-.006-.336 4.468-.616s-.065.476-.073.858c-.049 2.182 1.366 3.712 3.639 3.712 2.231 0 3.69-1.038 3.69-3.144 0-2.61-2.111-3.69-5.115-5.876-3.11-2.265-6.467-4.268-6.36-8.28.095-3.584 2.466-7.378 8.363-7.378 5.075 0 7.361 2.825 7.361 7.639v1.463l-4.451.33v-1.56c0-2.68-1.589-3.627-3.426-3.627-1.83 0-3.219 1.015-3.362 3.096-.13 1.906 2.537 3.835 5.999 5.966m-134.592 2.241c2.434-1.336 4.03-4.542 4.03-7.541 0-4.288-3.378-7.781-7.586-7.904l-8.853-.004v28.485h4.483v-12.143h3.375l4.87 12.143h5.218l-5.537-13.035zm-7.91-11.38 3.289-.002c2.281.058 4.111 1.957 4.111 4.273 0 2.314-1.83 4.221-4.111 4.278h-3.29v-8.55z" fill="#fff"/><path d="m89.756 5.127 4.432-4.437h-4.446zm-11.356 0 4.435-4.437h-4.447l.014 4.437zm-19.015 0 4.428-4.437h-4.426zm50.379 16.547 4.531-3.994h-4.526zm26.506-16.485 4.464-4.439h-4.467l.003 4.438zm-116.82-.001 4.463-4.437h-4.466zm99.028 0 4.463-4.437h-4.466zm-118.472-.184 4.464-4.437h-4.467z" fill="#c4a02a"/></svg>