<svg fill="none" height="225" viewBox="0 0 430 225" width="430" xmlns="http://www.w3.org/2000/svg" xmlns:xlink="http://www.w3.org/1999/xlink"><clipPath id="a"><path d="m0 0h429.42v224.61h-429.42z"/></clipPath><g clip-path="url(#a)"><path d="m221.89 60.37c-1.98-2.08-20.93-34.99-20.93-34.99l-16.11-12.58-20.57-12.8-12.74 21.45c-4.31 31.76-12.38 34.92-12.38 34.92l-14.88 8.36-5.12 19.74c-3.12 12-6.32 15.12-6.32 15.12-7.21 5.2-25.8 16.74-25.8 16.74-7.76 16.4-13 19.15-13 19.15s-6.92 5.08-16.15 9.74c-9.23 4.67-19.16 37.36-19.16 37.36l-15.49-8.34-23.24 14.31 23.2-11.59 17.53 10.79s11.34-26.04 14.39-31.03c2.89-4.74 7.67-7.79 7.67-7.79l13.47-7.25c7.82-4.7 10.06-7.27 10.06-7.27l7.2-14.66s17.38-7.52 23.38-14.57c5.97-7.01 12.53-26.38 12.53-26.38l3.74-7.49c2-4 4.95-7.43 8.6-10.01l.17-.12 2.69-1.5c6.95-9.36 14.5-30.07 14.5-30.07l6.1-14.67 13.44 15.93h.01l4.29 7.09 1.22 14.35s1.88 14.51 3.91 17.05c0 0-.47-11.19-.25-16.87 0 0 .84-8.61 1.72-11.34.01-.03 1.32-3.14 4.04-3.71 4.74-1 9.93 5.14 9.93 5.14l8.71 12.33 9.55 9.16c5.52 5.11 14.77 10.05 14.77 10.05-11.23-8.04-14.68-13.75-14.68-13.75z" fill="#8c9536"/><path d="m177.04 106.69c-5.27-1.84-11.21-4.71-11.21-11.36 0-5.06 4.5-10.13 11.72-10.13 7.47 0 11.66 5.68 11.66 5.68l-4.24 4.19s-2.97-4.04-7.42-4.04c-3.07 0-5.47 1.89-5.47 4.29 0 3.12 2.81 4.09 7.72 5.94 5.47 2.05 10.03 4.5 10.03 11 0 6.49-5.73 9.97-12.48 9.97-8.95 0-13.1-7.31-13.1-7.31l4.6-3.89s3.07 5.37 8.49 5.37c3.07 0 6.24-1.22 6.24-4.14 0-3.01-2.3-4.08-6.54-5.57zm55.11 16.17-10.75-26.86-10.89 26.86-14.12-37.04h6.96l7.57 21.49 8.13-21.49h5.06l7.98 21.49 7.78-21.49h6.39zm22.69-37.04h6.14v35.81h-6.14zm29.63 20.87c-5.27-1.84-11.21-4.71-11.21-11.36 0-5.06 4.5-10.13 11.72-10.13 7.47 0 11.66 5.68 11.66 5.68l-4.24 4.19s-2.97-4.04-7.42-4.04c-3.07 0-5.47 1.89-5.47 4.29 0 3.12 2.81 4.09 7.72 5.94 5.47 2.05 10.03 4.5 10.03 11 0 6.49-5.73 9.97-12.48 9.97-8.96 0-13.1-7.31-13.1-7.31l4.6-3.89s3.07 5.37 8.49 5.37c3.07 0 6.24-1.22 6.24-4.14.01-3.01-2.3-4.08-6.54-5.57zm34.29 0c-5.27-1.84-11.21-4.71-11.21-11.36 0-5.06 4.5-10.13 11.72-10.13 7.47 0 11.66 5.68 11.66 5.68l-4.24 4.19s-2.97-4.04-7.42-4.04c-3.07 0-5.47 1.89-5.47 4.29 0 3.12 2.81 4.09 7.72 5.94 5.47 2.05 10.03 4.5 10.03 11 0 6.49-5.73 9.97-12.48 9.97-8.96 0-13.1-7.31-13.1-7.31l4.6-3.89s3.07 5.37 8.49 5.37c3.07 0 6.24-1.22 6.24-4.14.01-3.01-2.29-4.08-6.54-5.57zm-118.91 48.22c0 10.59-7.67 18.52-18.11 18.52s-18.11-7.93-18.11-18.52 7.67-18.52 18.11-18.52 18.11 7.93 18.11 18.52zm-6.24 0c0-6.91-4.65-12.69-11.87-12.69-7.21 0-11.87 5.78-11.87 12.69s4.65 12.68 11.87 12.68c7.21.01 11.87-5.77 11.87-12.68zm15.63-17.9h11.76c7.11 0 11.87 4.6 11.87 11.15 0 5.37-2.86 9.46-7.98 10.75l8.95 13.91h-7.16l-8.49-13.5h-2.81v13.5h-6.14zm17.39 11.15c0-3.53-2.45-5.32-6.39-5.32h-4.86v10.64h4.86c3.93 0 6.39-1.79 6.39-5.32zm40.28 17.8v-7.57h-8.14v-5.73h14.17v16.27s-4.55 4.5-13.25 4.5c-10.48 0-18.82-7.93-18.82-18.52s8.08-18.52 18.57-18.52c8.8 0 13.25 5.37 13.25 5.37l-4.19 4.09s-2.97-3.74-9.06-3.74c-7.21 0-12.33 5.89-12.33 12.79s5.37 12.79 12.58 12.79c5.12.01 7.22-1.73 7.22-1.73zm26.77-28.95h6.24l13.92 35.81h-6.19l-3.27-8.49h-15.15l-3.27 8.49h-6.19zm-2.25 21.69h10.74l-5.37-13.96zm35.88-21.69 17.9 24.66v-24.66h6.14v35.81h-5.52l-17.91-24.61v24.61h-6.14v-35.81zm36.19 0h6.14v35.81h-6.14zm44.059 26.29 4.09 4.04s-4.71 6.09-13.76 6.09c-10.33 0-18.16-7.93-18.16-18.52s7.83-18.52 18.16-18.52c8.59 0 13.25 5.63 13.25 5.63l-4.14 4.04s-3.22-3.94-9.11-3.94c-7.06 0-11.92 5.89-11.92 12.79s4.86 12.79 11.92 12.79c6.29 0 9.67-4.4 9.67-4.4zm-241.879 24.89h12.17c7.11 0 11.87 4.91 11.87 11.46s-4.76 11.46-11.87 11.46h-6.04v12.89h-6.14v-35.81zm17.8 11.46c0-3.37-2.2-5.63-6.39-5.63h-5.27v11.26h5.27c4.19 0 6.39-2.25 6.39-5.63zm22.99-11.46h6.24l13.91 35.81h-6.19l-3.27-8.49h-15.14l-3.27 8.49h-6.19zm-2.25 21.69h10.74l-5.37-13.96zm30.35-21.69h11.77c7.11 0 11.87 4.6 11.87 11.15 0 5.37-2.87 9.46-7.98 10.75l8.95 13.91h-7.16l-8.49-13.5h-2.81v13.5h-6.14v-35.81zm17.4 11.15c0-3.53-2.46-5.32-6.39-5.32h-4.86v10.64h4.86c3.93.01 6.39-1.78 6.39-5.32zm23.08-5.32h-9.87v-5.83h25.88v5.83h-9.87v29.98h-6.14zm29.9-5.83 17.91 24.66v-24.66h6.14v35.81h-5.53l-17.9-24.61v24.61h-6.14v-35.81zm41.61 14.53h14.32v5.83h-14.32v9.62h15.86v5.83h-21.99v-35.81h21.69v5.83h-15.55v8.7zm25.65-14.53h11.76c7.11 0 11.87 4.6 11.87 11.15 0 5.37-2.86 9.46-7.98 10.75l8.95 13.91h-7.16l-8.49-13.5h-2.82v13.5h-6.14v-35.81zm17.39 11.15c0-3.53-2.45-5.32-6.39-5.32h-4.86v10.64h4.86c3.94.01 6.39-1.78 6.39-5.32zm27.64 9.72c-5.27-1.84-11.21-4.71-11.21-11.36 0-5.06 4.5-10.13 11.72-10.13 7.47 0 11.66 5.68 11.66 5.68l-4.24 4.19s-2.97-4.04-7.42-4.04c-3.07 0-5.47 1.89-5.47 4.29 0 3.12 2.81 4.09 7.72 5.94 5.47 2.05 10.03 4.5 10.03 11 0 6.49-5.73 9.97-12.48 9.97-8.96 0-13.1-7.31-13.1-7.31l4.6-3.89s3.07 5.37 8.49 5.37c3.07 0 6.24-1.22 6.24-4.14.01-3.01-2.29-4.08-6.54-5.57z" fill="#f2f2f2"/></g></svg>