<svg height="149" viewBox="0 0 522 149" width="522" xmlns="http://www.w3.org/2000/svg"><g fill="#fff" fill-rule="evenodd"><g transform="translate(422 65.649902)"><path d="m56.902.905098h4.98v30.148h-4.98z"/><path d="m71.691.905098v4.269h11.286v25.879h4.972v-25.879h11.285v-4.269z"/><path d="m.312.905098h4.98v30.148h-4.98z"/></g><g transform="translate(0 .649902)"><path d="m446.113 70.174098h9.336c3.879 0 5.926 1.645 5.926 4.746 0 2.223-1.035 4.871-5.965 4.871h-9.297zm20.442 4.746c0-2.711-1.024-9.015-10.524-9.015h-14.894v30.148h4.976v-12.035h8.262l7.66 11.828.129.207h5.805l-8.176-12.723c4.969-1.289 6.762-5.14 6.762-8.41z"/><path d="m365.613 78.932098-6.336-.906c-3.996-.586-5.48-1.785-5.48-4.422 0-2.738 2.742-4.375 7.336-4.375 5.094 0 7.953 1.898 8.98 5.969l.106.429 4.933-1.199-.09-.426c-1.296-5.836-6.07-8.922-13.804-8.922-7.75 0-12.57 3.391-12.57 8.852 0 4.828 2.894 7.598 8.851 8.48l6.484.864c4.457.644 6.114 1.922 6.114 4.711 0 3.093-2.625 4.66-7.797 4.66-5.5 0-8.965-2.317-10.02-6.703l-.097-.403-5.024.844.086.449c.895 4.582 4.215 10.039 14.973 10.039 8.129 0 12.984-3.461 12.984-9.257 0-5.02-2.972-7.696-9.629-8.684"/><path d="m406.781 75.213098c0 3.18-2.394 5.157-6.258 5.157h-8.961v-10.196h9.008c3.891 0 6.211 1.887 6.211 5.039m-5.672-9.308h-14.523v30.148h4.976v-11.414h9.129c6.848 0 11.274-3.699 11.274-9.426 0-5.652-4.262-9.308-10.856-9.308"/><path d="m173.992 69.370098v-4.266h-23.258v30.121h23.551v-4.266h-18.578v-9.031h17.578v-4.266h-17.578v-8.292z"/><path d="m138.047 69.370098v-4.266h-23.254v30.121h23.547v-4.266h-18.578v-9.031h17.578v-4.266h-17.578v-8.292z"/><path d="m42.668 81.967098h18.016v13.258h5.023v-30.121h-5.023v12.598h-18.016v-12.598h-4.977v30.121h4.977z"/><path d="m81.988 69.370098h9.34c3.879 0 5.93 1.64 5.93 4.742 0 2.218-1.035 4.867-5.969 4.867h-9.301zm16.055 25.855h5.805l-8.18-12.711c4.973-1.289 6.766-5.137 6.766-8.402 0-2.707-1.024-9.008-10.524-9.008h-14.898v30.121h4.976v-12.02h8.262l7.66 11.817z"/><path d="m11.617 95.225098h4.981v-25.855h11.289v-4.266h-27.555v4.266h11.285z"/><path d="m259.188 99.721098v39.352l-29.645-49.93c8.223 6.309 18.48 10.203 29.645 10.578zm-49.047-49.387c0 2.379.183 4.715.519 7.004l-31.504-53.066h63.406c-18.949 7.191-32.421 25.121-32.421 46.062zm69.238-46.062h63.398l-31.496 53.058c.332-2.285.516-4.621.516-6.996 0-20.941-13.469-38.871-32.418-46.062zm-15.399 63.723c.262-.727.543-1.571.813-2.485 8.145-22.941 30.035-30.34 38.203-32.336-6.789 26.137-30.594 34.305-39.473 36.469.145-.555.301-1.105.457-1.648zm-9.722-38.973c5.894 6.68 8.879 14.578 8.879 23.496 0 5-.985 9.359-1.801 12.102-.242.695-.469 1.414-.68 2.105-.023.055-.039.109-.062.164-5.891-6.68-8.871-14.578-8.871-23.492 0-6.133 1.441-11.32 2.535-14.375zm-14.52 26.144c5.824 1.129 10.637 4.118 14.282 8.852.523.828 1.089 1.652 1.652 2.398.769 1.254 1.351 2.422 1.769 3.375-10.785-2.101-15.742-10.156-17.703-14.625zm-20.984 15.801c-3.227-6.211-5.055-13.215-5.055-20.633 0-25.328 21.203-45.937 47.27-45.937 18.375 0 34.32 10.246 42.14 25.164-6.136 1.402-25.211 7-36.433 24.168.012-.406.019-.809.019-1.211 0-10.781-3.965-20.18-11.777-27.93-.602-.613-1.594-.687-2.301-.199-.164.117-.308.254-.422.422-.054.078-.097.152-.164.273-.394.825-3.871 8.344-3.871 18.313 0 4.297.641 8.41 1.902 12.262-3.757-2.485-8.074-3.954-12.871-4.375-.871-.079-1.652.496-1.851 1.3-.039.133-.063.286-.063.442l.008.179c.02.125.039.243.07.329.215.738 5.418 17.988 23.833 20.058v22.633c-15.813-.574-29.657-8.723-37.801-20.82zm81.808 4.418c-8.14 12.106-21.992 20.266-37.812 20.84v-22.816c7.062-1.481 34.621-9.024 43.121-37.399 1.527 4.512 2.367 9.324 2.367 14.324 0 7.426-1.832 14.438-5.066 20.653zm-37.812 24.336c11.164-.375 21.422-4.269 29.641-10.574l-29.641 49.922zm-47.086-27.027c.809 1.547 1.699 3.047 2.664 4.492l41.078 69.187c.082.153.184.27.309.407.152.148.336.269.519.347.223.102.469.157.731.157h.004c.261 0 .504-.055.715-.149.187-.078.363-.191.546-.363.094-.098.215-.234.278-.371l41.023-69.094c1.024-1.523 1.961-3.102 2.809-4.73l41.062-69.161c.164-.269.254-.578.254-.886 0-.321-.09-.629-.246-.879-.312-.539-.902-.875-1.539-.875h-169.809c-.628 0-1.218.332-1.539.871-.152.262-.238.566-.238.883 0 .304.078.609.242.879z"/></g></g></svg>