<svg width="756" height="206" viewBox="0 0 756 206" fill="none" xmlns="http://www.w3.org/2000/svg">
<path d="M350.845 71.9815H315.169V163.862H293.028V71.9815H257.36V51.1588H350.845V71.9815Z" fill="white"/>
<path d="M360.56 60.0634C360.56 56.4655 361.83 53.3623 364.38 50.7629C366.931 48.1634 370.004 46.8682 373.617 46.8682C377.231 46.8682 380.304 48.1364 382.854 50.6819C385.404 53.2274 386.675 56.3486 386.675 60.0634C386.675 63.5623 385.404 66.5845 382.854 69.121C380.304 71.6665 377.222 72.9348 373.617 72.9348C370.013 72.9348 366.931 71.6665 364.38 69.121C361.83 66.5755 360.56 63.5533 360.56 60.0634ZM384.287 163.871H363.101V85.6533H384.287V163.862V163.871Z" fill="white"/>
<path d="M424.739 163.871H403.553V85.6533H423.783V95.1877C425.802 91.5898 428.983 88.7205 433.336 86.6068C437.688 84.484 442.149 83.4316 446.718 83.4316C458.081 83.4316 465.831 87.7761 469.967 96.4649C475.59 87.7761 483.872 83.4316 494.812 83.4316C502.778 83.4316 509.491 85.9232 514.961 90.9062C520.431 95.8893 523.162 103.31 523.162 113.159V163.871H502.616V117.45C502.616 112.997 501.471 109.417 499.191 106.719C496.902 104.02 493.433 102.662 488.756 102.662C484.404 102.662 480.898 104.146 478.249 107.115C475.59 110.083 474.266 113.735 474.266 118.079V163.862H453.242V117.441C453.242 112.988 452.07 109.408 449.736 106.71C447.403 104.011 443.951 102.653 439.382 102.653C434.814 102.653 431.362 104.11 428.713 107.025C426.054 109.939 424.73 113.618 424.73 118.07V163.853L424.739 163.871Z" fill="white"/>
<path d="M597.219 136.204L614.899 141.448C612.772 148.652 608.609 154.589 602.4 159.248C596.191 163.907 588.468 166.246 579.232 166.246C567.976 166.246 558.424 162.459 550.566 154.877C542.708 147.303 538.779 137.148 538.779 124.439C538.779 111.729 542.6 102.474 550.242 94.7921C557.884 87.1106 566.913 83.2699 577.312 83.2699C589.415 83.2699 598.895 86.8768 605.743 94.0815C612.592 101.286 616.017 111.198 616.017 123.809C616.017 124.654 615.989 125.608 615.935 126.669C615.881 127.731 615.854 128.576 615.854 129.215L615.692 130.33H559.632C559.839 135.421 561.858 139.658 565.687 143.049C569.508 146.44 574.077 148.14 579.385 148.14C588.405 148.14 594.353 144.164 597.219 136.213V136.204ZM560.109 115.858H595.146C594.93 111.513 593.371 107.852 590.451 104.893C587.531 101.925 583.26 100.441 577.628 100.441C572.527 100.441 568.391 102.033 565.201 105.208C562.02 108.383 560.317 111.936 560.1 115.858H560.109Z" fill="white"/>
<path d="M653.918 163.872H632.732V48.7755H653.918V163.872Z" fill="white"/>
<path d="M706.798 194.705H684.341L702.815 154.013L669.526 85.6534H693.254L714.115 131.436L733.382 85.6534H756L706.789 194.705H706.798Z" fill="white"/>
<path fill-rule="evenodd" clip-rule="evenodd" d="M0 60.3153C0 27.0041 26.9377 0 60.1671 0H145.327C178.556 0 205.494 27.0041 205.494 60.3153V145.685C205.494 178.996 178.556 206 145.327 206L111.03 206L111.151 109.128L142.681 136.717L153.364 124.267L114.709 90.4494H91.2789L52.6241 124.267H52.6342L63.3173 136.717L94.8366 109.138L94.7155 205.98L110.993 206H60.1671C26.9377 206 0 178.996 0 145.685V60.3153ZM132.245 77.8972L139.82 84.7844L155.953 66.6942L148.373 59.807L132.24 77.8972H132.245ZM97.8494 38.9882L108.048 38.973L108.088 70.087L97.8897 70.1022L97.8494 38.9882ZM66.1181 84.7844L49.985 66.6942L57.5646 59.807L73.6977 77.8972L66.1181 84.7844Z" fill="white"/>
</svg>
