<svg width="358" height="114" viewBox="0 0 358 114" fill="none" xmlns="http://www.w3.org/2000/svg">
<path d="M305.924 81.496C302.252 81.496 298.829 80.9067 295.656 79.728C292.528 78.504 289.808 76.7814 287.496 74.56C285.184 72.3387 283.371 69.732 282.056 66.74C280.787 63.748 280.152 60.4614 280.152 56.88C280.152 53.2987 280.787 50.012 282.056 47.02C283.371 44.028 285.184 41.4214 287.496 39.2C289.853 36.9787 292.596 35.2787 295.724 34.1C298.852 32.876 302.275 32.264 305.992 32.264C310.117 32.264 313.835 32.9894 317.144 34.44C320.499 35.8454 323.309 37.9307 325.576 40.696L318.504 47.224C316.872 45.3654 315.059 43.9827 313.064 43.076C311.069 42.124 308.893 41.648 306.536 41.648C304.315 41.648 302.275 42.0107 300.416 42.736C298.557 43.4614 296.948 44.504 295.588 45.864C294.228 47.224 293.163 48.8334 292.392 50.692C291.667 52.5507 291.304 54.6134 291.304 56.88C291.304 59.1467 291.667 61.2094 292.392 63.068C293.163 64.9267 294.228 66.536 295.588 67.896C296.948 69.256 298.557 70.2987 300.416 71.024C302.275 71.7494 304.315 72.112 306.536 72.112C308.893 72.112 311.069 71.6587 313.064 70.752C315.059 69.8 316.872 68.372 318.504 66.468L325.576 72.996C323.309 75.7614 320.499 77.8694 317.144 79.32C313.835 80.7707 310.095 81.496 305.924 81.496Z" fill="white"/>
<path d="M256.384 32.696H267.4V80.296H256.384V32.696Z" fill="white"/>
<path d="M232.552 80.296H244.384L235.861 65.9384C235.248 64.906 235.684 63.5793 236.716 62.9654C238.423 61.9496 239.903 60.6671 240.916 59.148C242.638 56.564 243.5 53.504 243.5 49.968C243.5 46.432 242.661 43.372 240.984 40.788C239.306 38.204 236.904 36.2094 233.776 34.804C230.693 33.3987 227.044 32.696 222.828 32.696H202.224V80.296H213.24V68.7482H213.235L213.235 41.672H222.216C225.525 41.672 228.041 42.3974 229.764 43.848C231.486 45.2534 232.348 47.2934 232.348 49.968C232.348 52.5974 231.486 54.6374 229.764 56.088C228.464 57.1822 226.434 58.0967 224.924 59.0932C223.078 60.3121 223.278 62.6926 224.147 64.727C226.251 69.651 229.576 75.6813 232.552 80.296Z" fill="white"/>
<path fill-rule="evenodd" clip-rule="evenodd" d="M167.224 32.696L142.224 80.696H190.224L167.224 32.696ZM166.851 55.0598L154.379 80.696H179.379L166.851 55.0598Z" fill="white"/>
<path d="M108.668 32.28C115.468 32.28 120.772 34.1614 124.58 37.924C128.342 41.6867 130.224 47.0587 130.224 54.04L130.224 80.696L119.208 80.696L119.208 54.448C119.208 45.9254 115.672 41.664 108.6 41.664C105.154 41.664 102.525 42.684 100.712 44.724C98.8983 46.8094 97.9916 50.0507 97.9916 54.448L97.9916 80.696L87.1116 80.696L87.1116 54.04C87.1116 47.0587 89.0156 41.6867 92.8236 37.924C96.5863 34.1614 101.868 32.28 108.668 32.28Z" fill="white"/>
<path d="M53.556 81.5281C46.756 81.5281 41.452 79.6467 37.644 75.8841C33.8813 72.1214 32 66.7494 32 59.7681V33.1121H43.016V59.3601C43.016 67.8827 46.552 72.1441 53.624 72.1441C57.0693 72.1441 59.6987 71.1241 61.512 69.0841C63.3253 66.9987 64.232 63.7574 64.232 59.3601V33.1121H75.112V59.7681C75.112 66.7494 73.208 72.1214 69.4 75.8841C65.6373 79.6467 60.356 81.5281 53.556 81.5281Z" fill="white"/>
</svg>
