<svg width="294" height="50" viewBox="0 0 294 50" fill="none" xmlns="http://www.w3.org/2000/svg">
<path d="M273.924 49.232C270.252 49.232 266.829 48.6427 263.656 47.464C260.528 46.24 257.808 44.5174 255.496 42.296C253.184 40.0747 251.371 37.468 250.056 34.476C248.787 31.484 248.152 28.1974 248.152 24.616C248.152 21.0347 248.787 17.748 250.056 14.756C251.371 11.764 253.184 9.1574 255.496 6.936C257.853 4.7147 260.596 3.0147 263.724 1.836C266.852 0.611999 270.275 0 273.992 0C278.117 0 281.835 0.725399 285.144 2.176C288.499 3.5814 291.309 5.6667 293.576 8.432L286.504 14.96C284.872 13.1014 283.059 11.7187 281.064 10.812C279.069 9.86 276.893 9.384 274.536 9.384C272.315 9.384 270.275 9.7467 268.416 10.472C266.557 11.1974 264.948 12.24 263.588 13.6C262.228 14.96 261.163 16.5694 260.392 18.428C259.667 20.2867 259.304 22.3494 259.304 24.616C259.304 26.8827 259.667 28.9454 260.392 30.804C261.163 32.6627 262.228 34.272 263.588 35.632C264.948 36.992 266.557 38.0347 268.416 38.76C270.275 39.4854 272.315 39.848 274.536 39.848C276.893 39.848 279.069 39.3947 281.064 38.488C283.059 37.536 284.872 36.108 286.504 34.204L293.576 40.732C291.309 43.4974 288.499 45.6054 285.144 47.056C281.835 48.5067 278.095 49.232 273.924 49.232Z" fill="#9DD2E5"/>
<path d="M224.385 0.432617H235.401V48.0326H224.385V0.432617Z" fill="#9DD2E5"/>
<path d="M200.553 48.0326H212.385L203.862 33.675C203.249 32.6426 203.685 31.3159 204.717 30.702C206.424 29.6862 207.904 28.4037 208.917 26.8846C210.639 24.3006 211.501 21.2406 211.501 17.7046C211.501 14.1686 210.662 11.1086 208.985 8.52462C207.307 5.94062 204.905 3.94602 201.777 2.54062C198.694 1.13532 195.045 0.432617 190.829 0.432617H170.225V48.0326H181.241V36.4848H181.236V9.40862H190.217C193.526 9.40862 196.042 10.134 197.765 11.5846C199.487 12.99 200.349 15.03 200.349 17.7046C200.349 20.334 199.487 22.374 197.765 23.8246C196.465 24.9188 194.435 25.8333 192.925 26.8298C191.079 28.0487 191.279 30.4292 192.148 32.4636C194.252 37.3876 197.577 43.4179 200.553 48.0326Z" fill="#9DD2E5"/>
<path fill-rule="evenodd" clip-rule="evenodd" d="M135.225 0.432617L110.225 48.4326H158.225L135.225 0.432617ZM134.852 22.7964L122.38 48.4326H147.38L134.852 22.7964Z" fill="#9DD2E5"/>
<path d="M76.6677 0.0166016C83.4677 0.0166016 88.7717 1.898 92.5797 5.6606C96.3417 9.4233 98.2237 14.7953 98.2237 21.7766V48.4326H87.2077V22.1846C87.2077 13.662 83.6717 9.4006 76.5997 9.4006C73.1537 9.4006 70.5247 10.4206 68.7117 12.4606C66.898 14.546 65.9913 17.7873 65.9913 22.1846V48.4326H55.1113V21.7766C55.1113 14.7953 57.0153 9.4233 60.8233 5.6606C64.586 1.898 69.8677 0.0166016 76.6677 0.0166016Z" fill="#9DD2E5"/>
<path d="M21.556 49.2646C14.756 49.2646 9.452 47.3832 5.644 43.6206C1.8813 39.8579 0 34.4859 0 27.5046V0.848633H11.016V27.0966C11.016 35.6192 14.552 39.8806 21.624 39.8806C25.0693 39.8806 27.6987 38.8606 29.512 36.8206C31.3253 34.7352 32.232 31.4939 32.232 27.0966V0.848633H43.112V27.5046C43.112 34.4859 41.208 39.8579 37.4 43.6206C33.6373 47.3832 28.356 49.2646 21.556 49.2646Z" fill="#9DD2E5"/>
</svg>
