<svg xmlns="http://www.w3.org/2000/svg" width="100%" viewBox="0 0 276 46" fill="none">
  <path fill-rule="evenodd" clip-rule="evenodd" d="M247.871 44.3183C250.854 45.4189 254.072 45.969 257.524 45.969C261.446 45.969 264.962 45.2919 268.073 43.9373C271.227 42.5827 273.869 40.6144 276 38.0323L269.351 31.9368C267.817 33.7148 266.112 35.048 264.237 35.937C262.361 36.7836 260.316 37.2068 258.1 37.2068C256.012 37.2068 254.094 36.8682 252.346 36.191C250.598 35.5136 249.086 34.54 247.807 33.2703C246.529 32.0003 245.527 30.4976 244.802 28.762C244.121 27.0265 243.78 25.1005 243.78 22.9841C243.78 20.8676 244.121 18.9415 244.802 17.2061C245.527 15.4705 246.529 13.9678 247.807 12.698C249.086 11.4281 250.598 10.4545 252.346 9.77719C254.094 9.09987 256.012 8.76129 258.1 8.76129C260.316 8.76129 262.361 9.20574 264.237 10.0947C266.112 10.9412 267.817 12.2323 269.351 13.9678L276 7.87237C273.869 5.29019 271.227 3.34306 268.073 2.03085C264.962 0.676271 261.466 -0.000976562 257.588 -0.000976562C254.094 -0.000976562 250.876 0.570479 247.935 1.71338C244.994 2.8139 242.415 4.40127 240.2 6.47547C238.026 8.5496 236.322 10.9836 235.085 13.7774C233.892 16.5711 233.295 19.64 233.295 22.9841C233.295 26.3281 233.892 29.397 235.085 32.1908C236.322 34.9845 238.026 37.4183 240.2 39.4928C242.373 41.567 244.931 43.1753 247.871 44.3183ZM221.307 0.402401H210.95V44.8488H221.307V0.402401ZM188.545 44.8488H199.669L191.656 31.4423C191.08 30.4783 191.49 29.2394 192.46 28.6662C194.065 27.7177 195.456 26.5203 196.408 25.1018C198.027 22.689 198.838 19.8318 198.838 16.53C198.838 13.2283 198.049 10.3711 196.472 7.95827C194.895 5.54547 192.637 3.68293 189.696 2.37074C186.797 1.05845 183.367 0.402401 179.403 0.402401H160.033V44.8488H170.389V34.0658H170.385V8.78369H178.828C181.939 8.78369 184.304 9.46093 185.924 10.8155C187.543 12.1277 188.353 14.0326 188.353 16.53C188.353 18.9851 187.543 20.89 185.924 22.2446C185.177 22.8695 184.172 23.4317 183.18 23.9871C182.55 24.3395 181.925 24.6894 181.374 25.0505C179.638 26.1887 179.826 28.4115 180.643 30.3112C182.621 34.9089 185.747 40.5397 188.545 44.8488ZM103.625 45.222L127.128 0.402401L148.751 45.222H138.555L126.778 21.2845L115.052 45.222H103.625ZM72.0779 0.0139663C78.471 0.0139663 83.4574 1.77062 87.0373 5.28402C90.5741 8.79731 92.3436 13.8134 92.3436 20.3322V45.222H81.987V20.7132C81.987 12.7552 78.6627 8.77622 72.0141 8.77622C68.7744 8.77622 66.3028 9.72864 64.5984 11.6335C62.8932 13.5806 62.0408 16.6072 62.0408 20.7132V45.222H51.812V20.3322C51.812 13.8134 53.602 8.79731 57.1822 5.28402C60.7196 1.77062 65.6852 0.0139663 72.0779 0.0139663ZM5.30609 40.729C8.88612 44.2424 13.8726 45.999 20.2655 45.999C26.6583 45.999 31.6234 44.2424 35.1608 40.729C38.741 37.2157 40.5309 32.1994 40.5309 25.6807V0.790841H30.3024V25.2998C30.3024 29.4057 29.4498 32.4324 27.7452 34.3795C26.0404 36.2843 23.5684 37.2368 20.3294 37.2368C13.6808 37.2368 10.3565 33.2579 10.3565 25.2998V0.790841H0V25.6807C0 32.1994 1.76867 37.2157 5.30609 40.729Z" fill="url(#paint0_linear_2107_7162)"></path>
  <defs>
    <linearGradient id="paint0_linear_2107_7162" x1="0" y1="22.999" x2="276" y2="22.999" gradientUnits="userSpaceOnUse">
      <stop stop-color="#043B5D"></stop>
      <stop offset="1" stop-color="#1B80A4"></stop>
    </linearGradient>
  </defs>
</svg>