<svg height="1227" viewBox="0 0 1222 1227" width="1222" xmlns="http://www.w3.org/2000/svg"><g fill="none" fill-rule="evenodd" transform="translate(.159734 .690143)"><path d="m161.880466 760.402957c-23.551-.97-33.233 11.679-36.823 27.494-7.642 33.673-13.794 67.747-18.719 101.922-.989 6.862 4.401 17.327 10.192 21.583 4.157 3.054 16.176.939 20.53-3.221 5.301-5.066 10.356-16.067 8.342-22.109-7.741-23.23-2.134-44.815 3.271-66.927 4.584-18.754 8.499-37.673 13.207-58.742m711.676-66.825c-23.631.624-33.726 13.207-37.264 28.983-7.574 33.77-13.521 67.973-18.426 102.243-2.164 15.119 6.653 23.862 18.469 23.002 14.31-1.041 25.829-13.591 21.233-26.806-8.666-24.921-2.188-48.069 3.704-71.798 4.377-17.626 7.87-35.471 12.284-55.624m-271.816 116.628c5.294-6.917 9.579-12.309 13.643-17.863 12.824-17.523 26.363-34.608 37.872-52.961 3.638-5.803 5.144-18.492 1.637-21.946-5.493-5.408-17.086-9.315-24.309-7.337-17.566 4.811-34.877 12.021-50.694 21.06-6.742 3.853-11.822 14.17-13.649 22.435-6.779 30.67-11.6 61.767-17.742 92.586-3.427 17.198-.28 24.916 13.394 27.167 17.761 2.923 15.799-10.315 16.36-20.888.762-14.364 7.087-19.423 21.338-15.008 12.931 4.005 26.107 7.436 39.386 10.034 11.812 2.312 20.449-.957 19.229-16.981-18.177-6.534-36.324-13.058-56.465-20.298m264.624-5.145c-.489 34.154 12.821 44.235 37.359 37.595 26.455-7.158 44.679-25.127 52.394-49.506 11.199-35.392 18.789-72.084 25.519-108.664 3.289-17.873-8.156-24.43-25.231-16.867-63.375 28.073-72.596 89.679-90.041 137.442m248.448004-162.813c-24.789-4.458-25.761-3.912-30.455 16.899-3.218 14.264-5.811 28.675-9.277 42.877-6.175 25.301-12.798 50.493-19.234 75.73-8.079-6.973-11.373-13.75-15.264-20.166-5.595-9.226-10.348-19.443-17.756-26.98-12.424-12.64-32.385004-6.526-35.612004 9.643-3.812 19.11-8.231 38.108-11.608 57.292-2.063 11.729-2.662 23.716-3.919 35.588 1.992.501 3.985 1.001 5.977 1.502 28.043004-13.723 23.736004-45.951 36.909004-71.882 5.236 9.84 8.96 17.411 13.208 24.676 5.453 9.331 10.104 19.596 17.444 27.196 4.987 5.162 14.981 10.02 20.915 8.389 5.348-1.47 10.117-11.483 11.862-18.539 8.957-36.232 16.89-72.718 25.107-109.133 3.914-17.349 7.662-34.736 11.703-53.092m-648.375004 155.722c1.016-9.091 1.049-14.401 2.271-19.421 4.26-17.502 15.618-26.954 33.003-32.122 14.684-4.365 28.642-11.737 42.094-19.258 3.09-1.727 2.792-9.516 4.053-14.515-4.861-1.084-10.47-4.305-14.464-2.908-28.093 9.823-55.874 20.542-83.708 31.099-8.439 3.2-11.218 8.24-7.83 17.77 6.278 17.663.193 33.552-8.82 49.12-3.898 6.732-5.877 15.137-6.605 22.979-.683 7.373 1.744 14.984 2.254 22.527 1.596 23.627 13.866 33.37 35.819 24.327 24.453-10.073 48.04-22.674 70.761-36.254 6.584-3.935 9.669-14.727 12.747-22.977 1.071-2.867-1.734-9.17-4.592-10.913-2.511-1.531-8.256.085-11.362 2.141-6.301 4.173-11.341 10.272-17.688 14.351-17.43 11.203-35.268 21.771-54.164 33.338-5.403-28.662-3.834-31.954 18.239-38.885 11.866-3.726 24.31-5.648 36.088-9.597 7.497-2.515 15.173-6.212 20.993-11.378 3.595-3.191 3.854-10.139 5.609-15.4-4.984-.534-10.346-2.524-14.886-1.346-18.761 4.865-37.272 10.691-59.812 17.322m266.043 1.263c-17.37 11.008-34.263 20.733-49.869 32.205-4.63 3.403-8.931 12.775-7.42 17.508 1.625 5.091 9.796 10.087 15.912 11.407 28.813 6.219 79.297-16.937 92.481-43.187 5.653-11.258 12.976-17.483 24.314-21.686 4.696-1.741 7.646-8.195 11.389-12.505-4.922-2.047-10.711-6.872-14.615-5.654-15.966 4.981-29.269 1.555-42.559-7.692-5.06-3.521-12.181-4.196-18.451-5.83-12.033-3.138-24.449-5.131-36.119-9.257-15.017-5.309-18.071-14.377-9.601-27.801 10.732-17.009 25.883-28.638 45.722-34.319 5.193 10.734 10.365 19.686 23.793 12.986 12.495-6.235 18.39-18.885 13.6-30.679-4.32-10.638-12.191-19.413-23.528-13.531-25.799 13.386-52.626 26.312-74.969 44.439-26.541 21.532-21.535 54.99 7.956 73.244 12.743 7.887 27.062 13.231 41.964 20.352m-541.457 39.351c1.074.113 2.149.226 3.223.339-.594 13.547-1.672 27.1-1.52 40.64.053 4.781 1.805 11.846 5.123 13.717 4.305 2.427 12.77 2.999 16.191.278 6.398-5.087 11.804-12.506 15.229-20.043 9.84-21.661 18.484-43.866 27.599-65.857 1.878 6.85.891 12.685.056 18.541-2.523 17.695-5.429 35.351-7.304 53.115-1.082 10.249 4.058 17.571 15.062 16.106 7.814-1.041 17.066-1.383 14.296-15.786-2.487-12.932-.692-27.009.986-40.358 4.185-33.295 9.7-66.423 13.81-99.727.599-4.857-3.581-10.305-5.549-15.479-5.597 2.207-13.723 2.79-16.362 6.898-12.536 19.514-24.299 39.617-34.903 60.247-7.493 14.576-12.694 30.331-18.918 45.559-2.51-18.66-2.121-36.536-2.639-54.386-.379-13.053-7.931-22.798-20.57-22.83-4.527-.011-11.535 11.14-13.213 18.195-8.641 36.326-16.004 72.959-23.611 109.526-1.897 9.123.457 16.983 10.981 18.054 10.025 1.02 16.186-3.722 16.998-14.821 1.267-17.339 3.316-34.622 5.035-51.928m134.554-8.333c1.547.055 3.093.11 4.64.165-.917 11.621-2.858 23.29-2.329 34.845.275 5.992 3.995 15.862 7.807 16.729 6.047 1.375 14.582-1.854 19.987-5.906 4.72-3.54 7.088-10.684 9.605-16.613 9.701-22.852 19.046-45.855 30.198-72.857-3.82 30.051-7.294 55.55-10.191 81.115-1.084 9.568 3.25 16.597 13.756 15.518 9.516-.977 18.141-3.898 15.208-17.432-1.801-8.314-2.645-17.332-1.499-25.703 4.995-36.487 11.224-72.807 16.086-109.31.794-5.962-3.026-12.539-4.713-18.832-6.513 2.808-15.527 3.82-19.071 8.758-10.677 14.879-20.218 30.794-28.339 47.226-9.134 18.48-16.237 37.963-24.223 57.01-2.54-6.421-1.426-11.764-1.52-17.084-.258-14.589.926-29.637-2.411-43.555-1.666-6.952-11.962-11.834-18.355-17.652-4.247 5.148-10.936 9.708-12.343 15.541-9.134 37.87-17.61 75.923-24.849 114.19-.894 4.728 5.709 14.164 10.784 15.979 8.189 2.931 15.589-1.085 16.464-12.192 1.314-16.683 3.496-33.297 5.308-49.94m238.604-447.565c-21.834-2.985-36.99 3.792-44.872 17.783-11.534 20.477-22.722 42.413-27.593 65.115-10.211 47.6-16.904 96.007-23.555 144.288-2.32 16.836-1.858 34.509.603 51.321.94 6.423 10.142 14.728 17.102 16.644 30.314 8.347 54.934-15.397 48.768-45.825-2.043-10.083-5.699-19.853-7.503-29.965-1.982-11.116-5.179-22.864-3.446-33.627 4.473-27.777 11.25-55.19 17.332-82.698 7.463-33.752 15.154-67.453 23.164-103.036m62.046 204.868c1.21-10.358 1.305-16.82 2.787-22.947 9.558-39.501 19.815-78.837 29.062-118.41 8.259-35.346 15.259-70.951 10.445-107.658-28.782 1.948-43.937 15.727-50.067 46.711-3.673 18.569-4.199 37.847-8.839 56.121-14.526 57.215-30.182 114.147-45.697 171.107-10.427 38.281-5.958 44.118 33.047 33.309 39.124-10.842 78.109-23.213 115.506-38.853 20.429-8.544 37.798-24.792 55.698-38.661 3.537-2.74 5.766-11.722 3.916-15.577-1.847-3.848-10.066-7.55-14.644-6.708-33.36 6.133-68.104 7.226-97.942 26.986-9.049 5.993-20.114 8.944-33.272 14.58m135.625 32.002c28.079 8.338 52.862 8.017 83.92-9.692 39.016-22.246 76.822-47.118 112.9-73.89 52.231004-38.759 90.268004-89.022 110.439004-151.745 4.74-14.738 4.12-28.875-8.844-38.367-27.495-20.13-57.758-38.41-92.516004-35.184-51.659 4.794-102.978 14.098-154.023 23.704-7.609 1.432-17.212 14.359-18.486 23.054-3.285 22.409-1.781 45.471-3.35 68.192-2.946 42.686-5.162 85.521-10.768 127.886-2.925 22.102-12.418 43.335-19.272 66.042m-462.161-133.542c1.681 18.784 3.937 37.536 4.91 56.356 1.542 29.833 1.52 59.757 3.501 89.554 1.526 22.955 11.19 41.716 33.402 52.132 10.692 5.014 18.352 3.851 23.5-7.833 11.817-26.823 25.656-52.872 35.777-80.305 30.086-81.549 58.051-163.842 104.709-238.212 6.806-10.849 6.472-26.178 9.441-39.433-2.201-1.628-4.401-3.257-6.601-4.886-11.357 7.275-25.982 12.157-33.409 22.306-17.154 23.436-33.201 48.324-45.373 74.625-21.63 46.739-39.953 95.005-59.945 142.513-2.515 5.976-6.752 11.228-10.191 16.816-1.884-.452-3.766-.905-5.649-1.357-2.551-37.762-4.83-75.546-7.775-113.277-1.388-17.789-3.051-35.674-6.458-53.151-2.756-14.139-5.738-30.792-23.735-33.29-18.019-2.502-25.879 12.71-32.072 25.57-16.715 34.708-32.459 69.919-47.457 105.409-13.444 31.812-25.383 64.262-37.985 96.43-8.578-33.744-13.005-67.007-18.654-100.061-6.937-40.586-14.705-81.035-22.697-121.428-.845-4.268-5.37-10.872-8.59-11.118-24.299-1.851-47.146 27.938-39.911 51.207 4.185 13.46 10.346 26.478 13.024 40.2 7.262 37.208 14.69 74.504 19.125 112.11 4.358 36.942 5.088 74.311 7.492 111.487.314 4.848.439 9.87 1.82 14.46 4.833 16.054 7.978 35.393 27.979 38.261 20.26 2.905 29.985-14.444 36.643-29.508 12.687-28.705 24.012-58.167 33.585-88.057 13.871-43.306 23.135-88.219 51.594-127.52m332.755 739.630003h-48.989c-8.256-2.096-16.542-4.085-24.765-6.304-59.133-15.956-118.995-28.248-178.991-40.667-91.957-19.036-168.57-67.691-224.827-145.002-13.121-18.031-25.552-36.618003-39.513-53.974003-77.8770002-96.814-117.80200019-206.846-115.24600019-331.381 1.046-51.008 3.286-102.039 6.838-152.931 2.524-36.168 10.10299999-72.028 11.82499999-108.196 1.612-33.854 10.97-64.012 29.859-91.547 40.223-58.634 83.3030002-114.426 147.3940002-149.714 10.393-5.722 19.533-13.785 29.037-21.047 139.751-106.7890003 297.238-142.2730003 469.892-117.17600026 33.77 4.90799996 67.524 12.12699996 101.451 13.23999996 47.405 1.555 87.428 16.739 123.239 47.635 39.068 33.7070003 79.99 65.2660003 120.089004 97.7790003 8.448 6.85 17.662 12.985 25.114 20.794 62.6 65.588 107.999 140.114 130.184 229.618 28.108 113.402 37.232 226.672 3.418 339.264-18.346 61.084-46.736 119.136-70.272 178.682-19.181 48.528-52.17 83.979003-97.059 110.513003-26.491 15.658-50.039004 36.295-74.900004 54.709-29.185 21.619-56.25 47.246-87.997 64.009-56.908 30.05-118.821 47.164-183.143 54.372-17.599 1.972-35.095 4.857-52.638 7.324" fill="#587f60"/><g fill="#fffffe"><path d="m299.691466 486.014357c-28.459 39.301-37.723 84.213-51.594 127.52-9.573 29.89-20.898 59.352-33.585 88.057-6.658 15.064-16.383 32.413-36.643 29.507-20.001-2.868-23.146-22.206-27.979-38.261-1.381-4.59-1.506-9.611-1.82-14.459-2.404-37.177-3.134-74.545-7.492-111.488-4.435-37.605-11.863-74.901-19.125-112.109-2.678-13.723-8.839-26.741-13.024-40.201-7.235-23.269 15.612-53.058 39.911-51.206 3.22.245 7.745 6.85 8.59 11.118 7.992 40.393 15.76 80.842 22.697 121.428 5.649 33.054 10.076 66.317 18.654 100.061 12.602-32.169 24.541-64.618 37.985-96.43 14.998-35.49 30.742-70.701 47.457-105.409 6.193-12.86 14.053-28.072 32.072-25.57 17.997 2.498 20.979 19.15 23.735 33.29 3.407 17.477 5.07 35.361 6.458 53.151 2.945 37.731 5.224 75.514 7.775 113.276 1.883.453 3.765.905 5.649 1.357 3.439-5.588 7.675-10.839 10.191-16.816 19.992-47.507 38.315-95.773 59.945-142.513 12.172-26.3 28.219-51.188 45.372-74.625 7.428-10.149 22.053-15.031 33.41-22.305 2.2 1.628 4.4 3.257 6.601 4.886-2.969 13.255-2.636 28.584-9.441 39.432-46.658 74.371-74.623 156.664-104.709 238.213-10.121 27.432-23.96 53.481-35.777 80.304-5.148 11.685-12.808 12.847-23.5 7.834-22.212-10.416-31.876-29.177-33.402-52.133-1.981-29.796-1.959-59.721-3.501-89.554-.973-18.819-3.229-37.572-4.91-56.355"/><path d="m837.458066 567.710657 5.2 1.651c16.591-10.994 33.696-21.293 49.676-33.113 46.19-34.17 88.3-72.348 114.529004-124.835 12.611-25.236 7.203-35.597-21.019004-36.705-32.937-1.293-65.986-.87-98.948.096-20.754.608-30.958 9.375-34.837 29.635-6 31.331-12.04 62.793-15.182 94.485-2.249 22.686.218 45.841.581 68.786m-75.605 51.845c6.853-22.707 16.346-43.94 19.271-66.042 5.606-42.365 7.822-85.199 10.769-127.886 1.568-22.721.064-45.782 3.349-68.191 1.275-8.695 10.877-21.622 18.487-23.055 51.044-9.606 102.364-18.909 154.022-23.704 34.759004-3.225 65.021004 15.054 92.517004 35.184 12.963 9.492 13.584 23.63 8.843 38.368-20.171 62.723-58.208 112.985-110.439004 151.744-36.077 26.772-73.884 51.644-112.9 73.891-31.057 17.708-55.84 18.03-83.919 9.691"/><path d="m626.227566 587.554357c13.158-5.637 24.223-8.587 33.271-14.581 29.838-19.76 64.583-20.852 97.943-26.985 4.578-.842 12.797 2.86 14.643 6.708 1.851 3.855-.378 12.837-3.916 15.577-17.899 13.869-35.268 30.117-55.697 38.66-37.397 15.641-76.382 28.012-115.506 38.853-39.006 10.81-43.474 4.973-33.048-33.308 15.516-56.961 31.172-113.892 45.698-171.108 4.639-18.274 5.166-37.552 8.839-56.121 6.129-30.983 21.285-44.762 50.067-46.71 4.813 36.707-2.187 72.311-10.445 107.658-9.247 39.573-19.504 78.908-29.062 118.41-1.482 6.127-1.577 12.589-2.787 22.947"/><path d="m564.181666 382.685657c-8.011 35.583-15.701 69.284-23.164 103.036-6.082 27.508-12.859 54.921-17.332 82.698-1.733 10.764 1.464 22.512 3.446 33.627 1.804 10.113 5.46 19.883 7.503 29.965 6.166 30.428-18.454 54.172-48.768 45.825-6.96-1.916-16.163-10.221-17.102-16.644-2.461-16.812-2.923-34.485-.604-51.321 6.652-48.28 13.345-96.688 23.556-144.288 4.87-22.701 16.059-44.638 27.593-65.114 7.882-13.992 23.038-20.768 44.872-17.784"/><path d="m325.577666 830.250657c-1.812 16.644-3.994 33.258-5.308 49.94-.875 11.107-8.275 15.123-16.464 12.193-5.075-1.816-11.678-11.252-10.784-15.979 7.239-38.268 15.715-76.321 24.848-114.191 1.408-5.833 8.097-10.393 12.343-15.541 6.393 5.818 16.69 10.701 18.356 17.652 3.337 13.919 2.153 28.966 2.41 43.555.095 5.321-1.02 10.663 1.521 17.084 7.986-19.046 15.089-38.53 24.223-57.009 8.121-16.433 17.662-32.348 28.339-47.227 3.543-4.938 12.558-5.95 19.071-8.757 1.687 6.292 5.507 12.869 4.713 18.831-4.862 36.503-11.092 72.824-16.086 109.311-1.146 8.37-.303 17.388 1.499 25.702 2.932 13.534-5.692 16.455-15.208 17.433-10.507 1.079-14.84-5.951-13.756-15.518 2.896-25.565 6.371-51.064 10.191-81.115-11.153 27.001-20.497 50.004-30.199 72.856-2.517 5.929-4.884 13.073-9.604 16.613-5.405 4.052-13.94 7.282-19.987 5.907-3.812-.867-7.533-10.738-7.807-16.73-.53-11.555 1.412-23.223 2.329-34.844-1.547-.056-3.094-.111-4.64-.166"/><path d="m191.023066 838.583657c-1.718 17.307-3.767 34.589-5.035 51.929-.812 11.099-6.973 15.841-16.997 14.821-10.525-1.071-12.879-8.932-10.981-18.055 7.606-36.567 14.969-73.199 23.61-109.526 1.679-7.054 8.687-18.206 13.214-18.194 12.638.031 20.19 9.776 20.569 22.829.518 17.85.13 35.727 2.64 54.386 6.224-15.228 11.424-30.982 18.917-45.559 10.604-20.63 22.368-40.733 34.903-60.247 2.639-4.108 10.765-4.691 16.363-6.898 1.968 5.175 6.148 10.622 5.548 15.48-4.109 33.303-9.625 66.431-13.81 99.726-1.677 13.35-3.472 27.426-.985 40.359 2.769 14.402-6.482 14.744-14.296 15.785-11.004 1.465-16.145-5.857-15.063-16.106 1.875-17.764 4.781-35.42 7.304-53.115.836-5.856 1.823-11.69-.056-18.54-9.115 21.99-17.759 44.195-27.599 65.856-3.424 7.537-8.831 14.956-15.228 20.044-3.422 2.72-11.887 2.149-16.191-.279-3.318-1.871-5.071-8.935-5.124-13.717-.152-13.54.927-27.092 1.521-40.64-1.075-.113-2.15-.226-3.224-.339"/><path d="m714.319366 834.455757c21.133 4.965 34.085-1.95 38.979-20.255-14.466 7.517-26.723 13.886-38.979 20.255m18.161-35.223c-14.902-7.12-29.221-12.465-41.964-20.352-29.491-18.254-34.497-51.712-7.956-73.244 22.343-18.126 49.17-31.053 74.969-44.438 11.337-5.883 19.208 2.893 23.528 13.53 4.79 11.794-1.105 24.444-13.6 30.679-13.428 6.7-18.6-2.252-23.793-12.986-19.839 5.681-34.99 17.31-45.722 34.32-8.47 13.423-5.416 22.491 9.601 27.8 11.671 4.126 24.086 6.119 36.119 9.257 6.27 1.634 13.391 2.309 18.451 5.83 13.29 9.247 26.593 12.674 42.56 7.693 3.903-1.219 9.692 3.607 14.614 5.653-3.743 4.311-6.693 10.764-11.389 12.505-11.338 4.203-18.661 10.429-24.314 21.686-13.184 26.25-63.668 49.406-92.481 43.187-6.116-1.319-14.287-6.316-15.912-11.406-1.511-4.734 2.79-14.106 7.42-17.509 15.606-11.472 32.499-21.197 49.869-32.205"/><path d="m466.437566 797.970357c22.54-6.631 41.051-12.457 59.812-17.323 4.54-1.177 9.902.813 14.886 1.346-1.756 5.262-2.014 12.209-5.609 15.4-5.82 5.167-13.496 8.864-20.993 11.378-11.778 3.949-24.222 5.871-36.088 9.597-22.073 6.932-23.642 10.224-18.239 38.885 18.896-11.566 36.734-22.135 54.164-33.337 6.347-4.08 11.387-10.178 17.688-14.351 3.106-2.056 8.851-3.672 11.361-2.142 2.859 1.743 5.664 8.047 4.593 10.914-3.078 8.25-6.163 19.042-12.747 22.977-22.722 13.579-46.308 26.181-70.762 36.254-21.952 9.043-34.222-.7-35.818-24.327-.51-7.543-2.937-15.154-2.254-22.527.728-7.842 2.707-16.247 6.605-22.979 9.013-15.569 15.098-31.457 8.82-49.12-3.388-9.53-.609-14.57 7.83-17.77 27.834-10.557 55.615-21.277 83.708-31.1 3.994-1.396 9.603 1.825 14.464 2.909-1.261 4.999-.963 12.787-4.053 14.515-13.452 7.521-27.41 14.892-42.095 19.258-17.384 5.168-28.742 14.62-33.002 32.122-1.222 5.02-1.255 10.329-2.271 19.421"/><path d="m1114.81257 642.247757c-4.041 18.356-7.789 35.743-11.703 53.092-8.217 36.415-16.151 72.901-25.108 109.134-1.744 7.056-6.513 17.068-11.861 18.538-5.934 1.632-15.929-3.227-20.915-8.389-7.34-7.6-11.991-17.865-17.444-27.195-4.248-7.266-7.972-14.837-13.208-24.677-13.173 25.931-8.866 58.159-36.909004 71.882-1.993-.5-3.985-1.001-5.977-1.502 1.257-11.871 1.855-23.859 3.919-35.588 3.377-19.184 7.796-38.182 11.608-57.292 3.227-16.169 23.188004-22.283 35.612004-9.643 7.408 7.537 12.161 17.755 17.756 26.98 3.891 6.416 7.185 13.193 15.264 20.166 6.436-25.237 13.059-50.429 19.234-75.73 3.465-14.201 6.059-28.612 9.277-42.877 4.694-20.811 5.666-21.357 30.455-16.899"/><path d="m947.899466 704.448857c-29.48 29.792-52.627 58.616-55.982 98.359-.572 6.759 3.377 13.9 5.237 20.864 6.75-3.816 15.159-6.182 19.973-11.69 25.76-29.471 34.03-64.584 30.772-107.533m-81.535 100.612c17.445-47.763 26.666-109.369 90.041-137.442 17.075-7.563 28.52-1.005 25.231 16.868-6.73 36.579-14.32 73.271-25.519 108.663-7.715 24.379-25.939 42.348-52.394 49.507-24.538 6.639-37.848-3.442-37.359-37.596"/><path d="m625.448266 749.068057c-25.535 1.165-45.855 29.49-40.375 54.838 14.689-19.952 27.532-37.395 40.375-54.838m-23.708 61.138c20.142 7.24 38.288 13.764 56.465 20.298 1.221 16.023-7.417 19.293-19.229 16.981-13.279-2.598-26.455-6.029-39.385-10.034-14.251-4.415-20.577.644-21.339 15.008-.561 10.573 1.401 23.811-16.36 20.888-13.673-2.251-16.821-9.969-13.394-27.167 6.142-30.82 10.963-61.916 17.742-92.586 1.827-8.265 6.907-18.582 13.649-22.435 15.817-9.039 33.128-16.249 50.694-21.06 7.223-1.978 18.816 1.929 24.309 7.337 3.507 3.454 2.001 16.143-1.637 21.945-11.509 18.354-25.048 35.438-37.871 52.962-4.065 5.554-8.35 10.946-13.644 17.863"/><path d="m873.556666 693.577757c-4.414 20.153-7.907 37.999-12.284 55.625-5.893 23.729-12.37 46.876-3.704 71.797 4.595 13.215-6.923 25.765-21.234 26.807-11.815.859-20.632-7.884-18.468-23.003 4.905-34.27 10.852-68.473 18.425-102.243 3.538-15.775 13.634-28.358 37.265-28.983"/><path d="m161.880466 760.402957c-4.708 21.069-8.623 39.988-13.207 58.742-5.405 22.112-11.012 43.697-3.271 66.927 2.014 6.042-3.041 17.043-8.342 22.109-4.354 4.16-16.373 6.275-20.53 3.221-5.791-4.256-11.181-14.721-10.192-21.583 4.925-34.175 11.077-68.249 18.719-101.922 3.59-15.815 13.272-28.464 36.823-27.494"/></g><path d="m837.458066 567.710657c-.363-22.945-2.83-46.1-.581-68.786 3.142-31.692 9.182-63.154 15.182-94.485 3.879-20.26 14.083-29.027 34.837-29.635 32.962-.966 66.011-1.389 98.948-.096 28.222004 1.108 33.630004 11.469 21.019004 36.705-26.229004 52.487-68.339004 90.665-114.529004 124.835-15.98 11.82-33.085 22.119-49.676 33.113z" fill="#587f60"/><path d="m714.319366 834.455757c12.256-6.369 24.513-12.738 38.979-20.255-4.894 18.305-17.846 25.22-38.979 20.255" fill="#587f60"/><path d="m947.899466 704.448857c3.258 42.949-5.012 78.062-30.772 107.533-4.814 5.508-13.223 7.874-19.973 11.69-1.86-6.964-5.809-14.105-5.237-20.864 3.355-39.743 26.502-68.567 55.982-98.359" fill="#587f60"/><path d="m625.448266 749.068057c-12.843 17.443-25.686 34.886-40.375 54.838-5.48-25.348 14.84-53.673 40.375-54.838" fill="#587f60"/></g></svg>